<svg width="24" height="23" viewBox="0 0 24 23" fill="none" xmlns="http://www.w3.org/2000/svg">
<path d="M11.4385 3.77236L12 4.73486L12.5615 3.77236C15.7401 -1.67674 23.35 0.506524 23.35 6.44484C23.35 7.92178 22.6743 9.62512 21.5729 11.3977C20.4798 13.1571 19.0119 14.9145 17.5278 16.4835C16.0461 18.0499 14.5622 19.414 13.4475 20.3872C12.8906 20.8734 12.427 21.2611 12.1033 21.5267C12.0671 21.5564 12.0326 21.5846 12 21.6112C11.9674 21.5846 11.9329 21.5564 11.8967 21.5267C11.573 21.2611 11.1094 20.8734 10.5525 20.3872C9.43785 19.414 7.95392 18.0499 6.47221 16.4835C4.98812 14.9145 3.52024 13.1571 2.42711 11.3977C1.32574 9.62512 0.65 7.92178 0.65 6.44484C0.65 0.506524 8.25991 -1.67674 11.4385 3.77236Z" stroke="#393B40" stroke-width="1.3"/>
</svg>
