<svg width="27" height="27" viewBox="0 0 27 27" fill="none" xmlns="http://www.w3.org/2000/svg">
<path d="M11.0278 24.5546C10.766 25.7254 11.505 26.9056 12.7027 26.9764C14.625 27.0902 16.5581 26.7918 18.3697 26.0911C20.86 25.128 23.0087 23.448 24.5442 21.2637C26.0797 19.0793 26.933 16.4887 26.9962 13.8194C27.0594 11.1501 26.3296 8.52203 24.8992 6.26749C23.4687 4.01295 21.4018 2.23322 18.9599 1.15336C16.518 0.0734923 13.8106 -0.258003 11.1803 0.200789C8.54997 0.659581 6.11475 1.88806 4.1826 3.73086C2.77704 5.07143 1.68362 6.6933 0.967694 8.48088C0.521632 9.59465 1.27458 10.766 2.44543 11.0278C3.61627 11.2897 4.75572 10.5342 5.28545 9.45772C5.7582 8.49704 6.39832 7.62161 7.18124 6.87489C8.49156 5.62516 10.1431 4.79205 11.9269 4.48091C13.7107 4.16977 15.5467 4.39458 17.2027 5.12691C18.8588 5.85924 20.2605 7.06619 21.2305 8.59515C22.2006 10.1241 22.6955 11.9064 22.6527 13.7166C22.6099 15.5269 22.0312 17.2837 20.9898 18.7651C19.9485 20.2464 18.4913 21.3857 16.8025 22.0389C15.7934 22.4292 14.7287 22.6354 13.6581 22.6539C12.4585 22.6746 11.2897 23.3837 11.0278 24.5546Z" fill="#767678"/>
</svg>
