<svg width="27" height="17" viewBox="0 0 27 17" fill="none" xmlns="http://www.w3.org/2000/svg">
<path d="M25.7031 1.74707C25.8838 1.13672 25.7031 0.6875 24.834 0.6875H21.958C21.2256 0.6875 20.8887 1.07324 20.708 1.50293C20.708 1.50293 19.2432 5.07227 17.1729 7.38672C16.5039 8.05566 16.1963 8.27051 15.8301 8.27051C15.6494 8.27051 15.3711 8.05566 15.3711 7.44531V1.74707C15.3711 1.01465 15.166 0.6875 14.5605 0.6875H10.0391C9.58008 0.6875 9.30664 1.0293 9.30664 1.34668C9.30664 2.04004 10.3418 2.20117 10.4492 4.1543V8.39258C10.4492 9.32031 10.2832 9.49121 9.91699 9.49121C8.94043 9.49121 6.56738 5.90723 5.16113 1.80566C4.87793 1.00977 4.59961 0.6875 3.8623 0.6875H0.986328C0.166016 0.6875 0 1.07324 0 1.50293C0 2.26465 0.976562 6.04883 4.5459 11.0488C6.92383 14.4619 10.2734 16.3125 13.3203 16.3125C15.1514 16.3125 15.376 15.9023 15.376 15.1943C15.376 11.9326 15.21 11.625 16.1279 11.625C16.5527 11.625 17.2852 11.8398 18.9941 13.4854C20.9473 15.4385 21.2695 16.3125 22.3633 16.3125H25.2393C26.0596 16.3125 26.4746 15.9023 26.2354 15.0918C25.6885 13.3877 21.9922 9.88184 21.8262 9.64746C21.4014 9.10059 21.5234 8.85645 21.8262 8.36816C21.8311 8.36328 25.3418 3.42188 25.7031 1.74707Z" fill="white"/>
</svg>
