<svg width="54" height="33" viewBox="0 0 54 33" fill="none" xmlns="http://www.w3.org/2000/svg">
<path d="M42.7751 16.3581C42.7751 24.8624 35.7247 31.7751 27.0044 31.7751C18.284 31.7751 11.2336 24.8624 11.2336 16.3581C11.2336 7.85378 18.284 0.94104 27.0044 0.94104C35.7247 0.94104 42.7751 7.85378 42.7751 16.3581Z" fill="#FFF7F7" stroke="#393B40"/>
<rect x="0.122269" y="9.63757" width="53.7642" height="13.441" fill="#FFF7F7"/>
<path d="M10.7229 15.736V16.1852C10.7229 16.719 10.6562 17.1976 10.5227 17.6207C10.3893 18.0439 10.1972 18.4036 9.94655 18.6998C9.6959 18.9961 9.39479 19.2223 9.04323 19.3785C8.69492 19.5348 8.3043 19.6129 7.87135 19.6129C7.45143 19.6129 7.06569 19.5348 6.71413 19.3785C6.36582 19.2223 6.06308 18.9961 5.80592 18.6998C5.55202 18.4036 5.35508 18.0439 5.2151 17.6207C5.07513 17.1976 5.00514 16.719 5.00514 16.1852V15.736C5.00514 15.2021 5.0735 14.7252 5.21022 14.3053C5.35019 13.8821 5.54713 13.5224 5.80104 13.2262C6.05495 12.9267 6.35605 12.6989 6.70436 12.5426C7.05592 12.3864 7.44167 12.3082 7.86159 12.3082C8.29453 12.3082 8.68516 12.3864 9.03346 12.5426C9.38503 12.6989 9.68613 12.9267 9.93678 13.2262C10.1907 13.5224 10.3844 13.8821 10.5178 14.3053C10.6546 14.7252 10.7229 15.2021 10.7229 15.736ZM9.7903 16.1852V15.7262C9.7903 15.303 9.74635 14.9287 9.65846 14.6031C9.57383 14.2776 9.4485 14.0042 9.28249 13.7828C9.11647 13.5615 8.91302 13.3938 8.67213 13.2799C8.4345 13.166 8.16432 13.109 7.86159 13.109C7.56862 13.109 7.30332 13.166 7.06569 13.2799C6.83131 13.3938 6.62949 13.5615 6.46022 13.7828C6.2942 14.0042 6.16562 14.2776 6.07448 14.6031C5.98333 14.9287 5.93776 15.303 5.93776 15.7262V16.1852C5.93776 16.6116 5.98333 16.9892 6.07448 17.318C6.16562 17.6435 6.29583 17.9186 6.4651 18.1432C6.63763 18.3645 6.84108 18.5322 7.07545 18.6461C7.31308 18.7601 7.57838 18.817 7.87135 18.817C8.17734 18.817 8.44915 18.7601 8.68678 18.6461C8.92441 18.5322 9.12461 18.3645 9.28737 18.1432C9.45338 17.9186 9.57871 17.6435 9.66335 17.318C9.74798 16.9892 9.7903 16.6116 9.7903 16.1852ZM12.134 12.4059H14.4876C15.0214 12.4059 15.4723 12.4873 15.8401 12.65C16.2112 12.8128 16.4928 13.0537 16.6848 13.3727C16.8801 13.6884 16.9778 14.0774 16.9778 14.5397C16.9778 14.8652 16.9111 15.163 16.7776 15.4332C16.6474 15.7002 16.4586 15.928 16.2112 16.1168C15.9671 16.3024 15.6741 16.4407 15.3323 16.5319L15.0686 16.6344H12.8567L12.8469 15.8678H14.5169C14.8554 15.8678 15.137 15.8092 15.3616 15.692C15.5862 15.5716 15.7555 15.4104 15.8694 15.2086C15.9833 15.0068 16.0403 14.7838 16.0403 14.5397C16.0403 14.2662 15.9866 14.027 15.8792 13.8219C15.7717 13.6168 15.6025 13.4589 15.3714 13.3483C15.1435 13.2343 14.8489 13.1774 14.4876 13.1774H13.0764V19.5153H12.134V12.4059ZM16.2893 19.5153L14.5608 16.2926L15.5423 16.2877L17.2952 19.4567V19.5153H16.2893ZM19.3069 12.4059V19.5153H18.3645V12.4059H19.3069ZM26.2747 15.9752V18.5778C26.1868 18.708 26.0468 18.8545 25.8548 19.0172C25.6627 19.1767 25.3974 19.3167 25.0589 19.4371C24.7236 19.5543 24.2906 19.6129 23.76 19.6129C23.3271 19.6129 22.9283 19.538 22.5637 19.3883C22.2024 19.2353 21.8883 19.014 21.6214 18.7242C21.3577 18.4313 21.1526 18.0765 21.0061 17.6598C20.8629 17.2399 20.7913 16.7646 20.7913 16.234V15.6823C20.7913 15.1517 20.8531 14.678 20.9768 14.2614C21.1038 13.8447 21.2893 13.4915 21.5335 13.2018C21.7776 12.9088 22.0771 12.6875 22.4319 12.5377C22.7867 12.3847 23.1936 12.3082 23.6526 12.3082C24.1962 12.3082 24.6503 12.4026 25.0149 12.5914C25.3827 12.777 25.6692 13.0341 25.8743 13.3629C26.0826 13.6917 26.2161 14.066 26.2747 14.486H25.3323C25.29 14.2288 25.2053 13.9944 25.0784 13.7828C24.9547 13.5712 24.7773 13.402 24.5462 13.275C24.315 13.1448 24.0172 13.0797 23.6526 13.0797C23.3238 13.0797 23.039 13.1399 22.7981 13.2604C22.5572 13.3808 22.3587 13.5533 22.2024 13.778C22.0462 14.0026 21.929 14.2744 21.8508 14.5934C21.776 14.9124 21.7385 15.2721 21.7385 15.6725V16.234C21.7385 16.6442 21.7857 17.0104 21.8801 17.3326C21.9778 17.6549 22.1161 17.93 22.2952 18.1578C22.4742 18.3824 22.6874 18.5533 22.9348 18.6705C23.1855 18.7877 23.4622 18.8463 23.7649 18.8463C24.1002 18.8463 24.372 18.8186 24.5803 18.7633C24.7887 18.7047 24.9514 18.6364 25.0686 18.5582C25.1858 18.4768 25.2753 18.4003 25.3372 18.3287V16.7369H23.6917V15.9752H26.2747ZM28.8479 12.4059V19.5153H27.9055V12.4059H28.8479ZM36.0305 12.4059V19.5153H35.0833L31.5042 14.0319V19.5153H30.5618V12.4059H31.5042L35.0979 17.9039V12.4059H36.0305ZM40.4202 13.0358L38.0667 19.5153H37.1048L39.8147 12.4059H40.4348L40.4202 13.0358ZM42.3928 19.5153L40.0344 13.0358L40.0198 12.4059H40.6399L43.3596 19.5153H42.3928ZM42.2708 16.8834V17.6549H38.2766V16.8834H42.2708ZM48.6233 18.7487V19.5153H45.0686V18.7487H48.6233ZM45.2542 12.4059V19.5153H44.3118V12.4059H45.2542Z" fill="#393B40"/>
</svg>
