<svg width="26" height="34" viewBox="0 0 26 34" fill="none" xmlns="http://www.w3.org/2000/svg">
<rect x="0.770752" y="1.23364" width="24.4672" height="31.5415" rx="2.5" stroke="#393B40"/>
<line x1="5.22272" y1="6.85046" x2="20.786" y2="6.85046" stroke="#393B40" stroke-width="0.5"/>
<line x1="5.22272" y1="9.68018" x2="20.786" y2="9.68018" stroke="#393B40" stroke-width="0.5"/>
<line x1="5.22272" y1="12.5098" x2="20.786" y2="12.5098" stroke="#393B40" stroke-width="0.5"/>
<path d="M17.48 20.9928L14.9564 28.2257L14.6214 26.9458L14.5328 26.6072L14.2412 26.8009L13.1391 27.5328L16.0717 20.4558L17.48 20.9928Z" fill="white" stroke="#393B40" stroke-width="0.5"/>
<path d="M16.1329 20.9928L18.6566 28.2257L18.9916 26.9458L19.0802 26.6072L19.3718 26.8009L20.4738 27.5328L17.5413 20.4558L16.1329 20.9928Z" fill="white" stroke="#393B40" stroke-width="0.5"/>
<circle cx="16.8952" cy="20.8952" r="4.14083" fill="#F1F1F1" stroke="#393B40" stroke-width="0.5"/>
<path d="M17.133 19.0493L16.8952 18.3176L16.6574 19.0493L16.3165 20.0986H15.2132H14.4438L15.0663 20.5509L15.9588 21.1994L15.6179 22.2487L15.3801 22.9804L16.0026 22.5282L16.8952 21.8797L17.7878 22.5282L18.4103 22.9804L18.1725 22.2487L17.8316 21.1994L18.7242 20.5509L19.3466 20.0986H18.5772H17.4739L17.133 19.0493Z" stroke="#393B40" stroke-width="0.5"/>
</svg>
