<svg width="33" height="34" viewBox="0 0 33 34" fill="none" xmlns="http://www.w3.org/2000/svg">
<path d="M4.82376 10.7991C5.02951 9.59893 6.07009 8.72156 7.28782 8.72156H25.9733C27.1911 8.72156 28.2316 9.59893 28.4374 10.7991L31.726 29.9827C31.9878 31.5099 30.8115 32.9051 29.2619 32.9051H3.99921C2.44967 32.9051 1.27334 31.5099 1.53515 29.9827L4.82376 10.7991Z" stroke="#393B40"/>
<path d="M11.2341 11.8192V6.42272C11.2341 3.44233 13.6502 1.02625 16.6306 1.02625V1.02625C19.611 1.02625 22.0271 3.44233 22.0271 6.42272V11.8192" stroke="#393B40" stroke-linecap="round" stroke-linejoin="round"/>
<circle cx="16.7119" cy="20.8341" r="4.49454" stroke="#393B40" stroke-width="0.5"/>
<path d="M14.5896 20.6768L16.4761 22.2489L18.8341 19.4192" stroke="#393B40" stroke-width="0.5"/>
</svg>
