<svg width="32" height="30" viewBox="0 0 32 30" fill="none" xmlns="http://www.w3.org/2000/svg">
<path d="M6.5 6C6.5 5.72386 6.72386 5.5 7 5.5H24C24.2761 5.5 24.5 5.72386 24.5 6V15C24.5 16.3807 23.3807 17.5 22 17.5H9C7.61929 17.5 6.5 16.3807 6.5 15V6Z" stroke="#393B40"/>
<path d="M23.2094 2.20943L24.3063 5.5H6.69371L7.79057 2.20943C8.13085 1.18858 9.0862 0.5 10.1623 0.5H20.8377C21.9138 0.5 22.8691 1.18858 23.2094 2.20943Z" stroke="#393B40"/>
<path d="M20 29.0001C20 29.0001 20.2599 25.0748 22 23.5C23.1673 22.4437 25.7252 21.7748 27 20.5C28.5 19 29 16 29 16L30 12" stroke="#393B40" stroke-linecap="round"/>
<path d="M11.612 29.0001C11.612 29.0001 11.3522 25.0748 9.61203 23.5C8.4448 22.4437 5.88682 21.7748 4.61206 20.5C3.11206 19 2.61206 16 2.61206 16L1.61205 12" stroke="#393B40" stroke-linecap="round"/>
</svg>
