<svg width="77" height="29" viewBox="0 0 77 29" fill="none" xmlns="http://www.w3.org/2000/svg">
<path fill-rule="evenodd" clip-rule="evenodd" d="M0.727536 11.428H0V13.2469L2.30386 13.6106C2.30386 13.6106 2.54282 16.7093 3.15266 18.5821C3.77557 20.4951 5.45652 23.1899 5.45652 23.1899C5.45652 23.1899 6.66908 25.0087 9.0942 26.4638C11.5193 27.9188 14.0657 28.1614 14.672 28.1614C14.7597 28.1614 14.8629 28.163 14.9788 28.1649H14.9789H14.979H14.979C15.6643 28.176 16.7955 28.1942 17.8246 27.9188C19.5246 27.464 20.4147 26.9648 21.9473 26.1C24.6721 24.5626 25.9949 23.2927 28.1314 21.0073C30.1689 18.8277 32.6179 14.8232 32.6179 14.8232C32.6179 14.8232 34.1489 12.1285 34.4367 10.2155C34.4463 10.1517 34.4557 10.0903 34.4648 10.0309C34.5558 9.43544 34.6161 9.04137 34.5579 8.39664C34.5261 8.04371 34.4716 7.71083 34.3951 7.39826C34.5042 6.42848 35.1952 5.00154 38.3172 5.00154C41.5107 5.00154 42.1605 6.49454 42.2459 7.46409C42.1776 7.75747 42.1283 8.06841 42.0987 8.39669C42.0406 9.04142 42.1009 9.43549 42.1919 10.031C42.201 10.0903 42.2104 10.1517 42.22 10.2155C42.5078 12.1285 44.0388 14.8233 44.0388 14.8233C44.0388 14.8233 46.4878 18.8277 48.5253 21.0073C50.6618 23.2928 51.9846 24.5627 54.7094 26.1001C56.242 26.9648 57.1321 27.464 58.8321 27.9189C59.8612 28.1943 60.9924 28.176 61.6777 28.165C61.7937 28.1631 61.8969 28.1614 61.9847 28.1614C62.591 28.1614 65.1374 27.9189 67.5625 26.4638C69.9876 25.0088 71.2002 23.1899 71.2002 23.1899C71.2002 23.1899 72.8811 20.4951 73.504 18.5822C74.1139 16.7094 74.3528 13.6107 74.3528 13.6107L76.6567 13.2469V11.4281H75.9291L74.3528 11.7919C74.3528 11.7919 74.3577 8.59534 73.504 6.82036C73.003 5.77854 72.6509 5.18479 71.8064 4.39524C70.9226 3.56879 69.1388 2.81891 69.1388 2.81891C69.1388 2.81891 66.807 1.95716 65.2586 1.60635C62.7081 1.02847 61.2047 1.00428 58.5895 1.00007C55.9272 0.995785 51.7992 1.60635 51.7992 1.60635C51.7992 1.60635 51.3119 1.65988 50.583 1.78773L50.6851 1.60628L50.4426 1.36377L42.9247 1.60628H37.4682H32.4967L26.0701 1.36377L25.8276 1.60628L25.9443 1.76532C25.2877 1.65356 24.8575 1.6063 24.8575 1.6063C24.8575 1.6063 20.7295 0.995735 18.0671 1.00002C15.452 1.00423 13.9486 1.02843 11.3981 1.6063C9.84973 1.95711 7.51787 2.81886 7.51787 2.81886C7.51787 2.81886 5.73412 3.56874 4.85024 4.39519C4.00582 5.18474 3.6537 5.77849 3.15266 6.82031C2.29902 8.59529 2.30386 11.7918 2.30386 11.7918L0.727536 11.428ZM28.7348 2.41365C29.6599 2.698 30.5815 3.0695 31.284 3.5464C32.2276 4.18693 32.8604 4.75898 33.4666 5.48649C33.731 5.8037 33.9516 6.16773 34.1253 6.57764L34.1945 6.45661C34.1945 6.45661 34.3158 4.39526 38.3172 4.39526C42.3186 4.39526 42.5612 6.45661 42.5612 6.45661L42.5419 6.55306C42.714 6.15318 42.931 5.79738 43.19 5.48654C43.7963 4.75903 44.4291 4.18698 45.3726 3.54645C46.1114 3.04494 47.0924 2.65999 48.065 2.37039L48.0175 2.33382H39.1658H28.859L28.7348 2.41365Z" fill="#393B40"/>
<path d="M2.97314 11.8309C2.97314 11.8309 2.96854 8.70058 3.7805 6.96233C4.25708 5.94206 4.59202 5.3606 5.39522 4.58739C6.23595 3.77804 7.93262 3.04368 7.93262 3.04368C7.93262 3.04368 10.1507 2.19976 11.6234 1.85621C14.0494 1.29029 15.4794 1.2666 17.9669 1.26247C20.4993 1.25827 24.4258 1.85621 24.4258 1.85621C24.4258 1.85621 28.4755 2.31418 30.5386 3.75616C31.4361 4.38343 32.038 4.94365 32.6147 5.65611C33.1914 6.36857 33.5491 7.32219 33.6527 8.50604C33.7135 9.20037 33.6381 9.59785 33.5374 10.2872C33.2636 12.1607 31.8073 14.7996 31.8073 14.7996C31.8073 14.7996 29.4779 18.7212 27.5399 20.8557C25.5077 23.0939 24.2494 24.3375 21.6577 25.8431C20.1999 26.6899 19.3532 27.1788 17.7362 27.6243C16.5916 27.9396 15.3142 27.8618 14.7375 27.8618C14.1608 27.8618 11.7387 27.6243 9.432 26.1993C7.12527 24.7744 5.9719 22.9932 5.9719 22.9932C5.9719 22.9932 4.37301 20.3542 3.7805 18.4808C3.20044 16.6467 2.97314 13.6122 2.97314 13.6122V11.8309Z" fill="white" stroke="#393B40" stroke-width="0.8"/>
<path d="M73.5859 11.8309C73.5859 11.8309 73.5905 8.70058 72.7786 6.96233C72.302 5.94206 71.9671 5.3606 71.1639 4.58739C70.3231 3.77804 68.6265 3.04368 68.6265 3.04368C68.6265 3.04368 66.4084 2.19976 64.9357 1.85621C62.5097 1.29029 61.0797 1.2666 58.5922 1.26247C56.0598 1.25827 52.1333 1.85621 52.1333 1.85621C52.1333 1.85621 48.0836 2.31418 46.0205 3.75616C45.123 4.38343 44.5211 4.94365 43.9444 5.65611C43.3677 6.36857 43.01 7.32219 42.9064 8.50604C42.8456 9.20037 42.921 9.59785 43.0217 10.2872C43.2955 12.1607 44.7518 14.7996 44.7518 14.7996C44.7518 14.7996 47.0812 18.7212 49.0192 20.8557C51.0514 23.0939 52.3097 24.3375 54.9014 25.8431C56.3592 26.6899 57.2059 27.1788 58.8228 27.6243C59.9674 27.9396 61.2449 27.8618 61.8216 27.8618C62.3983 27.8618 64.8203 27.6243 67.1271 26.1993C69.4338 24.7744 70.5872 22.9932 70.5872 22.9932C70.5872 22.9932 72.1861 20.3542 72.7786 18.4808C73.3586 16.6467 73.5859 13.6122 73.5859 13.6122V11.8309Z" fill="white" stroke="#393B40" stroke-width="0.8"/>
</svg>
