<svg width="33" height="30" viewBox="0 0 33 30" fill="none" xmlns="http://www.w3.org/2000/svg">
<path d="M30.2256 13.4254C30.2256 13.4254 30.23 10.4455 29.457 8.79083C29.0034 7.81962 28.6845 7.26611 27.92 6.53007C27.1197 5.75964 25.5045 5.06058 25.5045 5.06058C25.5045 5.06058 23.3932 4.25723 21.9912 3.9302C19.6818 3.39149 18.3206 3.36894 15.9527 3.36501C13.542 3.36101 9.80434 3.9302 9.80434 3.9302C9.80434 3.9302 5.94934 4.36616 3.98538 5.73881C3.13104 6.33592 2.55809 6.86921 2.00913 7.54742C1.46017 8.22562 1.11965 9.13339 1.02101 10.2603C0.963148 10.9213 1.03489 11.2997 1.1308 11.9559C1.39142 13.7393 2.77767 16.2513 2.77767 16.2513C2.77767 16.2513 4.99508 19.9844 6.83996 22.0163C8.77444 24.1468 9.9722 25.3307 12.4393 26.7639C13.827 27.57 14.633 28.0354 16.1723 28.4594C17.2618 28.7596 18.4779 28.6855 19.0268 28.6855C19.5758 28.6855 21.8814 28.4594 24.0773 27.103C26.2731 25.7465 27.371 24.051 27.371 24.051C27.371 24.051 28.893 21.5388 29.457 19.7555C30.0092 18.0096 30.2256 15.121 30.2256 15.121V13.4254Z" fill="white" stroke="#393B40" stroke-width="0.8"/>
<path d="M32.3408 11.0604C32.3408 11.0604 32.3452 8.08053 31.5723 6.42584C31.1186 5.45463 30.7998 4.90112 30.0352 4.16508C29.2349 3.39465 27.6198 2.69559 27.6198 2.69559C27.6198 2.69559 25.5084 1.89224 24.1064 1.56521C21.7971 1.0265 20.4358 1.00395 18.0679 1.00002C15.6573 0.996024 11.9196 1.56521 11.9196 1.56521C11.9196 1.56521 8.06457 2.00117 6.10061 3.37382C5.24627 3.97093 4.67332 4.50422 4.12436 5.18243C3.57541 5.86063 3.23489 6.7684 3.13624 7.89534C3.07838 8.55629 3.15013 8.93466 3.24603 9.5909C3.50665 11.3743 4.89291 13.8863 4.89291 13.8863C4.89291 13.8863 7.11032 17.6194 8.9552 19.6513C10.8897 21.7818 12.0874 22.9657 14.5546 24.3989C15.9423 25.205 16.7483 25.6704 18.2875 26.0944C19.3771 26.3946 20.5931 26.3205 21.1421 26.3205C21.691 26.3205 23.9967 26.0944 26.1925 24.738C28.3883 23.3815 29.4862 21.686 29.4862 21.686C29.4862 21.686 31.0083 19.1738 31.5723 17.3905C32.1245 15.6447 32.3408 12.756 32.3408 12.756V11.0604Z" fill="white" stroke="#393B40" stroke-width="0.8"/>
</svg>
