<svg width="41" height="25" viewBox="0 0 41 25" fill="none" xmlns="http://www.w3.org/2000/svg">
<path d="M32.4639 12.1216C32.4639 18.6443 27.0568 23.9432 20.3729 23.9432C13.689 23.9432 8.28193 18.6443 8.28193 12.1216C8.28193 5.59889 13.689 0.3 20.3729 0.3C27.0568 0.3 32.4639 5.59889 32.4639 12.1216Z" fill="white" stroke="#393B40" stroke-width="0.6"/>
<rect y="6.76416" width="41" height="12" fill="white"/>
<path d="M8.15773 12.553V12.8899C8.15773 13.2903 8.10768 13.6492 8.00759 13.9666C7.90749 14.2839 7.76344 14.5537 7.57546 14.7759C7.38747 14.998 7.16164 15.1677 6.89797 15.2849C6.63674 15.4021 6.34377 15.4607 6.01906 15.4607C5.70412 15.4607 5.41481 15.4021 5.15114 15.2849C4.88991 15.1677 4.66286 14.998 4.46999 14.7759C4.27956 14.5537 4.13185 14.2839 4.02687 13.9666C3.92189 13.6492 3.8694 13.2903 3.8694 12.8899V12.553C3.8694 12.1526 3.92067 11.7949 4.02321 11.48C4.12819 11.1626 4.2759 10.8928 4.46633 10.6707C4.65676 10.446 4.88259 10.2751 5.14382 10.158C5.40749 10.0408 5.69679 9.98218 6.01174 9.98218C6.33644 9.98218 6.62941 10.0408 6.89064 10.158C7.15431 10.2751 7.38014 10.446 7.56813 10.6707C7.75856 10.8928 7.90383 11.1626 8.00392 11.48C8.10646 11.7949 8.15773 12.1526 8.15773 12.553ZM7.45827 12.8899V12.5457C7.45827 12.2283 7.42531 11.9475 7.35939 11.7034C7.29592 11.4592 7.20192 11.2542 7.07741 11.0881C6.9529 10.9221 6.80031 10.7964 6.61965 10.7109C6.44142 10.6255 6.23879 10.5828 6.01174 10.5828C5.79201 10.5828 5.59303 10.6255 5.41481 10.7109C5.23903 10.7964 5.08766 10.9221 4.96071 11.0881C4.8362 11.2542 4.73976 11.4592 4.6714 11.7034C4.60304 11.9475 4.56886 12.2283 4.56886 12.5457V12.8899C4.56886 13.2097 4.60304 13.4929 4.6714 13.7395C4.73976 13.9836 4.83742 14.1899 4.96437 14.3584C5.09377 14.5244 5.24636 14.6501 5.42214 14.7356C5.60036 14.821 5.79933 14.8638 6.01906 14.8638C6.24855 14.8638 6.45241 14.821 6.63063 14.7356C6.80886 14.6501 6.959 14.5244 7.08107 14.3584C7.20558 14.1899 7.29958 13.9836 7.36305 13.7395C7.42653 13.4929 7.45827 13.2097 7.45827 12.8899ZM9.21608 10.0554H10.9812C11.3816 10.0554 11.7197 10.1165 11.9956 10.2385C12.2739 10.3606 12.4851 10.5413 12.6292 10.7805C12.7757 11.0173 12.8489 11.3091 12.8489 11.6558C12.8489 11.8999 12.7988 12.1233 12.6987 12.3259C12.6011 12.5261 12.4595 12.697 12.2739 12.8386C12.0908 12.9778 11.8711 13.0815 11.6148 13.1499L11.417 13.2268H9.75807L9.75075 12.6519H11.0032C11.2571 12.6519 11.4683 12.6079 11.6367 12.52C11.8052 12.4297 11.9321 12.3088 12.0176 12.1575C12.103 12.0061 12.1458 11.8389 12.1458 11.6558C12.1458 11.4507 12.1055 11.2712 12.0249 11.1174C11.9444 10.9636 11.8174 10.8452 11.6441 10.7622C11.4732 10.6768 11.2522 10.634 10.9812 10.634H9.92287V15.3875H9.21608V10.0554ZM12.3325 15.3875L11.0361 12.9705L11.7722 12.9668L13.0869 15.3435V15.3875H12.3325ZM14.5957 10.0554V15.3875H13.8889V10.0554H14.5957ZM19.8216 12.7324V14.6843C19.7556 14.782 19.6507 14.8918 19.5066 15.0139C19.3626 15.1335 19.1636 15.2385 18.9097 15.3289C18.6582 15.4167 18.3335 15.4607 17.9356 15.4607C17.6109 15.4607 17.3118 15.4045 17.0383 15.2922C16.7674 15.1775 16.5318 15.0115 16.3316 14.7942C16.1338 14.5745 15.98 14.3083 15.8701 13.9958C15.7627 13.6809 15.709 13.3245 15.709 12.9265V12.5127C15.709 12.1147 15.7554 11.7595 15.8482 11.447C15.9434 11.1345 16.0825 10.8696 16.2656 10.6523C16.4487 10.4326 16.6734 10.2666 16.9395 10.1543C17.2056 10.0396 17.5108 9.98218 17.855 9.98218C18.2627 9.98218 18.6033 10.053 18.8767 10.1946C19.1526 10.3337 19.3674 10.5266 19.5213 10.7732C19.6775 11.0198 19.7776 11.3005 19.8216 11.6155H19.1148C19.083 11.4226 19.0195 11.2468 18.9243 11.0881C18.8316 10.9294 18.6985 10.8025 18.5252 10.7073C18.3518 10.6096 18.1284 10.5608 17.855 10.5608C17.6084 10.5608 17.3948 10.606 17.2141 10.6963C17.0335 10.7866 16.8845 10.916 16.7674 11.0845C16.6502 11.2529 16.5623 11.4568 16.5037 11.696C16.4475 11.9353 16.4195 12.2051 16.4195 12.5054V12.9265C16.4195 13.2341 16.4549 13.5088 16.5257 13.7505C16.5989 13.9922 16.7027 14.1985 16.8369 14.3694C16.9712 14.5378 17.1311 14.666 17.3167 14.7539C17.5047 14.8418 17.7122 14.8857 17.9392 14.8857C18.1907 14.8857 18.3945 14.865 18.5508 14.8235C18.707 14.7795 18.8291 14.7283 18.917 14.6697C19.0049 14.6086 19.072 14.5513 19.1184 14.4976V13.3037H17.8843V12.7324H19.8216ZM21.7515 10.0554V15.3875H21.0447V10.0554H21.7515ZM27.1384 10.0554V15.3875H26.428L23.7437 11.2749V15.3875H23.0369V10.0554H23.7437L26.439 14.179V10.0554H27.1384ZM30.4307 10.5278L28.6655 15.3875H27.9441L29.9766 10.0554H30.4417L30.4307 10.5278ZM31.9102 15.3875L30.1414 10.5278L30.1304 10.0554H30.5955L32.6353 15.3875H31.9102ZM31.8186 13.4136V13.9922H28.823V13.4136H31.8186ZM36.583 14.8125V15.3875H33.917V14.8125H36.583ZM34.0562 10.0554V15.3875H33.3494V10.0554H34.0562Z" fill="#393B40"/>
</svg>
