<svg width="33" height="17" viewBox="0 0 33 17" fill="none" xmlns="http://www.w3.org/2000/svg">
<path d="M25.2692 6.58442H29.6555C30.0421 6.58442 30.3555 6.89782 30.3555 7.28442V14.0076C30.3555 14.3942 30.0421 14.7076 29.6555 14.7076H25.2692V6.58442Z" stroke="#393B40" stroke-width="0.6"/>
<path d="M18.8945 3.67793H23.4114C23.798 3.67793 24.1114 3.99133 24.1114 4.37793V5.25021H18.1945V4.37793C18.1945 3.99133 18.5079 3.67793 18.8945 3.67793Z" stroke="#393B40" stroke-width="0.6"/>
<path d="M11.7539 0.962598H16.1509C16.5375 0.962598 16.8509 1.276 16.8509 1.6626V5.45113H11.0539V1.6626C11.0539 1.276 11.3673 0.962598 11.7539 0.962598Z" stroke="#393B40" stroke-width="0.6"/>
<path d="M4.77539 3.67793H9.29223C9.67883 3.67793 9.99223 3.99133 9.99223 4.37793V5.25021H4.07539V4.37793C4.07539 3.99133 4.38879 3.67793 4.77539 3.67793Z" stroke="#393B40" stroke-width="0.6"/>
<rect x="1.81367" y="5.13057" width="23.5665" height="9.57706" rx="0.7" fill="white" stroke="#393B40" stroke-width="0.6"/>
<rect x="7.49971" y="7.31147" width="12.9048" height="7.39626" rx="0.7" stroke="#393B40" stroke-width="0.6"/>
<line x1="11.8644" y1="7.01147" x2="11.8644" y2="15.0077" stroke="#393B40" stroke-width="0.8"/>
<line x1="16.1295" y1="7.01147" x2="16.1295" y2="15.0077" stroke="#393B40" stroke-width="0.8"/>
<line x1="0.0922852" y1="16.1614" x2="32.0773" y2="16.1614" stroke="#393B40" stroke-width="0.6"/>
</svg>
