<svg width="37" height="43" viewBox="0 0 37 43" fill="none" xmlns="http://www.w3.org/2000/svg">
<path d="M24.6267 0H3.01367C2.24471 0.000843764 1.5075 0.292801 0.963763 0.811823C0.420025 1.33084 0.114165 2.03455 0.113281 2.76855V40.186C0.114165 40.92 0.420025 41.6237 0.963763 42.1427C1.5075 42.6617 2.24471 42.9537 3.01367 42.9545H24.6267C25.3956 42.9537 26.1329 42.6617 26.6766 42.1427C27.2203 41.6237 27.5262 40.92 27.5271 40.186V32.4798H34.5434C35.1647 32.479 35.7602 32.243 36.1995 31.8237C36.6388 31.4043 36.8859 30.8358 36.8867 30.2428V18.1173C36.8859 17.5242 36.6387 16.9556 36.1994 16.5363C35.7601 16.1169 35.1644 15.881 34.5431 15.8802H27.5268V2.76855C27.5259 2.03459 27.2201 1.33093 26.6764 0.811912C26.1327 0.292897 25.3956 0.000910361 24.6267 0V0ZM26.1208 40.186C26.1204 40.5641 25.9628 40.9266 25.6827 41.194C25.4026 41.4614 25.0228 41.6118 24.6267 41.6122H3.01367C2.61754 41.6118 2.23775 41.4614 1.95764 41.194C1.67753 40.9266 1.51997 40.5641 1.51953 40.186V2.76855C1.51997 2.39043 1.67753 2.0279 1.95764 1.76053C2.23775 1.49315 2.61754 1.34275 3.01367 1.34233H24.6267C25.0228 1.34275 25.4026 1.49315 25.6827 1.76053C25.9628 2.0279 26.1204 2.39043 26.1208 2.76855V15.8802H24.8025V3.27193C24.8025 3.09392 24.7284 2.92321 24.5965 2.79734C24.4647 2.67148 24.2858 2.60076 24.0993 2.60076H3.54102C3.35454 2.60076 3.17569 2.67148 3.04383 2.79734C2.91197 2.92321 2.83789 3.09392 2.83789 3.27193V37.4594C2.83789 37.6374 2.91197 37.8081 3.04383 37.934C3.17569 38.0598 3.35454 38.1305 3.54102 38.1305H24.0993C24.2858 38.1305 24.4647 38.0598 24.5965 37.934C24.7284 37.8081 24.8025 37.6374 24.8025 37.4594V32.4798H26.1208V40.186ZM35.4805 23.5088H12.7179V21.0368H35.4805V23.5088ZM11.3116 18.1173V30.2428C11.3124 30.8358 11.5596 31.4044 11.9989 31.8237C12.4382 32.2431 13.0338 32.479 13.6551 32.4798H23.3962V36.7882H4.24414V3.94309H23.3962V15.8802H13.6551C13.0338 15.881 12.4382 16.1169 11.9989 16.5363C11.5596 16.9557 11.3124 17.5242 11.3116 18.1173ZM34.5434 31.1378H13.6551C13.4066 31.1376 13.1684 31.0432 12.9926 30.8755C12.8169 30.7077 12.7181 30.4803 12.7179 30.2431V24.8511H35.4805V30.2428C35.4802 30.4799 35.3814 30.7073 35.2057 30.8751C35.03 31.0428 34.7919 31.1372 34.5434 31.1375V31.1378ZM35.4805 18.1173V19.6945H12.7179V18.1173C12.7181 17.88 12.8169 17.6526 12.9926 17.4849C13.1684 17.3171 13.4066 17.2228 13.6551 17.2225H34.5434C34.7919 17.2228 35.03 17.3172 35.2057 17.485C35.3814 17.6527 35.4802 17.8801 35.4805 18.1173ZM14.5231 39.8347V39.9081C14.5231 40.0861 14.449 40.2568 14.3172 40.3827C14.1853 40.5086 14.0065 40.5793 13.82 40.5793C13.6335 40.5793 13.4547 40.5086 13.3228 40.3827C13.191 40.2568 13.1169 40.0861 13.1169 39.9081V39.8347C13.1169 39.6567 13.191 39.486 13.3228 39.3601C13.4547 39.2343 13.6335 39.1636 13.82 39.1636C14.0065 39.1636 14.1853 39.2343 14.3172 39.3601C14.449 39.486 14.5231 39.6567 14.5231 39.8347ZM19.3613 28.713C19.3613 28.891 19.2873 29.0617 19.1554 29.1876C19.0235 29.3135 18.8447 29.3842 18.6582 29.3842H15.3774C15.1909 29.3842 15.0121 29.3135 14.8802 29.1876C14.7484 29.0617 14.6743 28.891 14.6743 28.713C14.6743 28.535 14.7484 28.3643 14.8802 28.2384C15.0121 28.1126 15.1909 28.0419 15.3774 28.0419H18.6582C18.8447 28.0419 19.0235 28.1126 19.1554 28.2384C19.2873 28.3643 19.3613 28.535 19.3613 28.713ZM16.8536 12.8025C16.3229 12.8019 15.814 12.6004 15.4387 12.2422C15.0634 11.8839 14.8524 11.3982 14.8518 10.8916C14.8518 10.7136 14.9259 10.5429 15.0578 10.417C15.1896 10.2911 15.3685 10.2204 15.555 10.2204C15.7414 10.2204 15.9203 10.2911 16.0521 10.417C16.184 10.5429 16.2581 10.7136 16.2581 10.8916C16.2581 11.004 16.293 11.114 16.3585 11.2075C16.4239 11.301 16.517 11.3738 16.6258 11.4169C16.7346 11.4599 16.8544 11.4712 16.97 11.4492C17.0855 11.4273 17.1916 11.3731 17.2749 11.2936C17.3582 11.2141 17.415 11.1127 17.4379 11.0024C17.4609 10.8922 17.4491 10.7778 17.404 10.6739C17.3589 10.5701 17.2825 10.4813 17.1846 10.4188C17.0866 10.3563 16.9714 10.323 16.8536 10.323C16.4577 10.323 16.0707 10.2109 15.7414 10.001C15.4122 9.791 15.1557 9.49256 15.0041 9.14339C14.8526 8.79422 14.813 8.41001 14.8902 8.03933C14.9675 7.66865 15.1581 7.32817 15.4381 7.06092C15.7181 6.79368 16.0748 6.61169 16.4631 6.53795C16.8514 6.46422 17.2539 6.50206 17.6197 6.6467C17.9855 6.79133 18.2982 7.03625 18.5181 7.35049C18.7381 7.66474 18.8555 8.03419 18.8555 8.41213C18.8555 8.59013 18.7814 8.76085 18.6496 8.88671C18.5177 9.01258 18.3389 9.08329 18.1524 9.08329C17.9659 9.08329 17.7871 9.01258 17.6552 8.88671C17.5233 8.76085 17.4493 8.59013 17.4493 8.41213C17.4493 8.29968 17.4143 8.18975 17.3489 8.09625C17.2834 8.00275 17.1904 7.92988 17.0816 7.88685C16.9727 7.84381 16.853 7.83255 16.7374 7.85449C16.6219 7.87643 16.5158 7.93058 16.4325 8.01009C16.3492 8.08961 16.2924 8.19092 16.2694 8.30121C16.2465 8.4115 16.2583 8.52582 16.3033 8.62971C16.3484 8.7336 16.4248 8.82239 16.5227 8.88487C16.6207 8.94734 16.7358 8.98069 16.8536 8.98069C17.1165 8.98069 17.3768 9.03011 17.6197 9.12615C17.8626 9.22218 18.0833 9.36293 18.2692 9.54037C18.4551 9.71782 18.6025 9.92847 18.7031 10.1603C18.8037 10.3922 18.8555 10.6406 18.8555 10.8916C18.8555 11.1425 18.8037 11.391 18.7031 11.6228C18.6025 11.8547 18.4551 12.0653 18.2692 12.2428C18.0833 12.4202 17.8626 12.561 17.6197 12.657C17.3768 12.753 17.1165 12.8025 16.8536 12.8025ZM22.3957 9.65185C22.3957 8.60556 22.0707 7.58275 21.4618 6.71277C20.8528 5.8428 19.9873 5.16472 18.9746 4.7643C17.9619 4.36388 16.8476 4.25909 15.7725 4.46319C14.6975 4.66729 13.71 5.17112 12.9349 5.91095C12.1598 6.65078 11.632 7.59338 11.4181 8.61957C11.2043 9.64576 11.314 10.7094 11.7334 11.6761C12.1529 12.6427 12.8632 13.469 13.7746 14.0502C14.686 14.6315 15.7575 14.9418 16.8536 14.9418C18.3229 14.9402 19.7315 14.3824 20.7705 13.3907C21.8094 12.399 22.3939 11.0545 22.3957 9.65202V9.65185ZM12.7179 9.65185C12.7178 8.87105 12.9603 8.10776 13.4148 7.45853C13.8692 6.8093 14.5151 6.30327 15.2708 6.00445C16.0265 5.70562 16.8581 5.62742 17.6604 5.77973C18.4627 5.93204 19.1996 6.30801 19.778 6.86012C20.3564 7.41222 20.7503 8.11565 20.9099 8.88145C21.0695 9.64725 20.9876 10.441 20.6746 11.1624C20.3616 11.8838 19.8315 12.5003 19.1514 12.9341C18.4712 13.3679 17.6716 13.5995 16.8536 13.5995C15.7572 13.5983 14.706 13.182 13.9307 12.442C13.1554 11.702 12.7192 10.6986 12.7179 9.65202V9.65185Z" fill="#393B40"/>
</svg>
