<svg width="45" height="37" viewBox="0 0 45 37" fill="none" xmlns="http://www.w3.org/2000/svg">
<path d="M1.39509 36.2954H9.35341C9.72328 36.295 10.0779 36.1546 10.3394 35.905C10.601 35.6553 10.7481 35.3168 10.7485 34.9638V33.8438L15.5116 32.6367C15.5924 32.6135 15.6776 32.6076 15.7611 32.6195C15.8446 32.6315 15.9243 32.6609 15.9944 32.7058L22.1133 36.3401C22.6633 36.6754 23.2964 36.8659 23.9485 36.8924C24.6005 36.919 25.2483 36.7805 25.8262 36.4911L43.9621 27.668C44.0104 27.6445 44.0556 27.6158 44.097 27.5824C44.507 27.2515 44.7971 26.8055 44.9259 26.308C45.0548 25.8105 45.0158 25.2869 44.8146 24.8117C44.6134 24.3366 44.2602 23.9342 43.8053 23.6619C43.3505 23.3896 42.8172 23.2614 42.2815 23.2954C42.223 23.2991 42.1654 23.3097 42.1097 23.3271L30.7991 26.8534C30.7459 26.3626 30.5699 25.8912 30.2859 25.4788C30.2101 25.3691 30.1023 25.2829 29.9757 25.2311L18.6027 20.5786C18.1301 20.3799 17.6191 20.2779 17.1026 20.2794C16.5862 20.2808 16.0758 20.3856 15.6045 20.587L10.7484 22.6064V22.2148C10.748 21.8618 10.6008 21.5233 10.3393 21.2737C10.0778 21.024 9.72318 20.8836 9.35332 20.8832H1.39509C1.02523 20.8836 0.670642 21.024 0.409105 21.2737C0.147569 21.5233 0.000441981 21.8618 0 22.2148L0 34.9638C0.000418723 35.3168 0.147535 35.6553 0.409074 35.905C0.670613 36.1546 1.02522 36.295 1.39509 36.2954ZM16.1663 21.8177C16.4612 21.6877 16.782 21.62 17.1069 21.6191C17.4318 21.6181 17.753 21.6841 18.0488 21.8124L29.21 26.3783C29.3574 26.6516 29.4266 26.9573 29.4105 27.2644C29.3945 27.5714 29.2937 27.869 29.1185 28.127C28.9433 28.3849 28.6998 28.5941 28.4127 28.7335C28.1256 28.8728 27.805 28.9372 27.4834 28.9203L21.8797 26.6279C21.7946 26.5918 21.7028 26.5723 21.6097 26.5703C21.5166 26.5684 21.4241 26.5841 21.3374 26.6166C21.2507 26.6491 21.1717 26.6977 21.1049 26.7595C21.038 26.8214 20.9847 26.8953 20.9481 26.977C20.9114 27.0587 20.8921 27.1466 20.8913 27.2354C20.8905 27.3243 20.9081 27.4124 20.9433 27.4947C20.9785 27.577 21.0304 27.6518 21.0961 27.7148C21.1618 27.7778 21.2399 27.8277 21.326 27.8617L27.0343 30.1975C27.0984 30.2236 27.1662 30.2406 27.2355 30.2478C27.8454 30.3093 28.4611 30.2047 29.0113 29.9462C29.5616 29.6877 30.024 29.2859 30.3451 28.7871C30.4377 28.6423 30.5176 28.4905 30.5838 28.3331L42.4524 24.6333C42.6804 24.6336 42.9031 24.6991 43.0919 24.8212C43.2807 24.9433 43.4269 25.1164 43.5118 25.3184C43.5967 25.5204 43.6164 25.7421 43.5684 25.9548C43.5204 26.1676 43.4068 26.3618 43.2423 26.5125L25.1872 35.2964C24.8251 35.4809 24.4179 35.5695 24.0079 35.5528C23.5979 35.5361 23.2 35.4147 22.8558 35.2014L16.7375 31.5672C16.5043 31.4256 16.2426 31.3322 15.9693 31.2932C15.696 31.2542 15.4171 31.2704 15.1508 31.3406L10.7485 32.4564V24.0707L16.1663 21.8177ZM1.40625 22.2255H9.34225V34.9531H1.40625V22.2255ZM7.3125 24.1621V24.2355C7.3125 24.4135 7.23842 24.5842 7.10656 24.7101C6.9747 24.836 6.79586 24.9067 6.60937 24.9067C6.42289 24.9067 6.24405 24.836 6.11219 24.7101C5.98033 24.5842 5.90625 24.4135 5.90625 24.2355V24.1621C5.90625 23.9841 5.98033 23.8134 6.11219 23.6875C6.24405 23.5617 6.42289 23.4909 6.60937 23.4909C6.79586 23.4909 6.9747 23.5617 7.10656 23.6875C7.23842 23.8134 7.3125 23.9841 7.3125 24.1621ZM29.4082 13.8637C29.4082 13.6857 29.3341 13.515 29.2023 13.3892C29.0704 13.2633 28.8916 13.1926 28.7051 13.1926C28.5186 13.1926 28.3398 13.2633 28.2079 13.3892C28.076 13.515 28.002 13.6857 28.002 13.8637C28.0031 14.662 28.2937 15.4353 28.8244 16.0522C29.3552 16.6691 30.0933 17.0916 30.9134 17.2479V18.048C30.9134 18.226 30.9875 18.3967 31.1194 18.5225C31.2512 18.6484 31.4301 18.7191 31.6165 18.7191C31.803 18.7191 31.9819 18.6484 32.1137 18.5225C32.2456 18.3967 32.3197 18.226 32.3197 18.048V17.2479C33.1403 17.0926 33.8791 16.6704 34.41 16.0533C34.9409 15.4362 35.2312 14.6623 35.2312 13.8637C35.2312 13.0652 34.9409 12.2913 34.41 11.6742C33.8791 11.0571 33.1403 10.6349 32.3197 10.4796V6.30785C32.7579 6.44883 33.1387 6.71738 33.4087 7.07572C33.6787 7.43406 33.8243 7.86418 33.8249 8.30557C33.8249 8.48358 33.899 8.65429 34.0308 8.78016C34.1627 8.90603 34.3415 8.97674 34.528 8.97674C34.7145 8.97674 34.8933 8.90603 35.0252 8.78016C35.1571 8.65429 35.2311 8.48358 35.2311 8.30557C35.23 7.50725 34.9393 6.73392 34.4085 6.11699C33.8777 5.50007 33.1395 5.07761 32.3193 4.92139V4.12128C32.3193 3.94328 32.2452 3.77256 32.1134 3.64669C31.9815 3.52083 31.8027 3.45011 31.6162 3.45011C31.4297 3.45011 31.2509 3.52083 31.119 3.64669C30.9871 3.77256 30.9131 3.94328 30.9131 4.12128V4.92139C30.0924 5.07668 29.3537 5.49889 28.8227 6.11603C28.2918 6.73317 28.0016 7.50701 28.0016 8.30557C28.0016 9.10414 28.2918 9.87798 28.8227 10.4951C29.3537 11.1123 30.0924 11.5345 30.9131 11.6898V15.8615C30.4749 15.7204 30.0941 15.4518 29.8242 15.0935C29.5543 14.7352 29.4088 14.3051 29.4082 13.8637ZM33.8249 13.8637C33.8243 14.3051 33.6787 14.7352 33.4087 15.0936C33.1387 15.4519 32.7579 15.7205 32.3197 15.8615V11.8663C32.7578 12.0073 33.1385 12.2758 33.4085 12.6341C33.6784 12.9924 33.8239 13.4224 33.8245 13.8637H33.8249ZM29.4082 8.30557C29.4088 7.86418 29.5543 7.43406 29.8243 7.07572C30.0943 6.71738 30.4752 6.44883 30.9134 6.30785V10.3033C30.4752 10.1623 30.0944 9.89374 29.8244 9.53541C29.5544 9.17707 29.4088 8.74697 29.4082 8.30557ZM31.6162 22.1099C37.9852 22.1099 43.1668 17.1639 43.1668 11.0843C43.1668 5.0047 37.9852 0.0587158 31.6162 0.0587158C25.2472 0.0587158 20.0654 5.00512 20.0654 11.0846C20.0654 17.1641 25.2471 22.1099 31.6162 22.1099ZM31.6162 1.40105C33.6226 1.40106 35.5839 1.96899 37.2521 3.033C38.9203 4.09702 40.2205 5.60934 40.9883 7.37872C41.7561 9.1481 41.957 11.0951 41.5656 12.9734C41.1742 14.8518 40.2081 16.5772 38.7894 17.9314C37.3707 19.2857 35.5631 20.2079 33.5953 20.5816C31.6275 20.9553 29.5878 20.7635 27.7342 20.0307C25.8805 19.2978 24.2962 18.0567 23.1814 16.4643C22.0667 14.8719 21.4717 12.9998 21.4717 11.0846C21.4747 8.51733 22.5445 6.05602 24.4463 4.24069C26.3481 2.42536 28.9266 1.40425 31.6162 1.40138V1.40105Z" fill="#393B40"/>
</svg>
