<svg width="45" height="35" viewBox="0 0 45 35" fill="none" xmlns="http://www.w3.org/2000/svg">
<path d="M7.30215 16.5683V19.8115H5.95312C5.76664 19.8115 5.58779 19.8855 5.45593 20.0174C5.32407 20.1493 5.24999 20.3281 5.24999 20.5146V23.9219C5.24999 24.1084 5.32407 24.2873 5.45593 24.4191C5.58779 24.551 5.76664 24.6251 5.95312 24.6251H7.30215V30.981C7.30215 31.1675 7.37623 31.3464 7.50809 31.4782C7.63995 31.6101 7.81879 31.6842 8.00527 31.6842H11.9516C12.113 32.4552 12.5349 33.1471 13.1463 33.6438C13.7577 34.1405 14.5215 34.4116 15.3092 34.4116C16.0969 34.4116 16.8607 34.1405 17.4721 33.6438C18.0835 33.1471 18.5054 32.4552 18.6668 31.6842H34.4716C34.6332 32.455 35.0552 33.1466 35.6665 33.6431C36.2779 34.1395 37.0415 34.4105 37.829 34.4105C38.6166 34.4105 39.3801 34.1395 39.9915 33.6431C40.6028 33.1466 41.0248 32.455 41.1864 31.6842H44.2966C44.4831 31.6842 44.6619 31.6101 44.7938 31.4782C44.9257 31.3464 44.9997 31.1675 44.9997 30.981V25.0405C44.9998 24.8921 44.9529 24.7475 44.8658 24.6274L38.8717 16.3646C38.8064 16.2747 38.7208 16.2016 38.6219 16.1512C38.523 16.1008 38.4135 16.0745 38.3025 16.0745H32.6863V11.134C32.6863 10.9475 32.6122 10.7687 32.4803 10.6368C32.3485 10.505 32.1696 10.4309 31.9831 10.4309H15.7983C16.1731 8.84188 16.0533 7.17623 15.4548 5.65724C14.8563 4.13825 13.8078 2.83852 12.4497 1.93229C11.0917 1.02606 9.48905 0.556636 7.85669 0.586952C6.22432 0.617269 4.64024 1.14588 3.31678 2.10191C1.99333 3.05794 0.993762 4.39571 0.452078 5.93587C-0.0896065 7.47604 -0.147518 9.14499 0.286108 10.719C0.719733 12.293 1.62417 13.6968 2.87817 14.7423C4.13218 15.7878 5.67581 16.4249 7.30215 16.5683ZM37.8292 33.0049C37.4288 33.0049 37.0375 32.8862 36.7046 32.6638C36.3717 32.4414 36.1122 32.1253 35.959 31.7554C35.8058 31.3855 35.7657 30.9785 35.8438 30.5858C35.9219 30.1932 36.1146 29.8325 36.3977 29.5494C36.6808 29.2663 37.0415 29.0735 37.4342 28.9954C37.8268 28.9173 38.2338 28.9574 38.6037 29.1106C38.9736 29.2638 39.2897 29.5232 39.5122 29.8561C39.7346 30.189 39.8533 30.5803 39.8533 30.9807C39.8528 31.5174 39.6394 32.032 39.2599 32.4115C38.8804 32.791 38.3659 33.0045 37.8292 33.0052V33.0049ZM42.918 24.337H37.6821V17.4808H37.9435L42.918 24.337ZM32.6863 17.4808H36.2755V25.0404C36.2755 25.2269 36.3495 25.4058 36.4814 25.5376C36.6133 25.6695 36.7921 25.7436 36.9786 25.7436H43.5935V30.2778H41.1869C41.0252 29.5071 40.6033 28.8154 39.9919 28.3189C39.3806 27.8225 38.617 27.5515 37.8294 27.5515C37.0419 27.5515 36.2783 27.8225 35.667 28.3189C35.0556 28.8154 34.6337 29.5071 34.472 30.2778H32.6863V17.4808ZM6.65624 21.2177H12.4945C12.6809 21.2177 12.8598 21.1436 12.9916 21.0118C13.1235 20.8799 13.1976 20.7011 13.1976 20.5146V18.9677L18.8285 22.2187L13.1976 25.4697V23.9218C13.1976 23.7354 13.1235 23.5565 12.9916 23.4247C12.8598 23.2928 12.6809 23.2187 12.4945 23.2187H6.65624V21.2177ZM15.3092 33.0053C14.9088 33.0053 14.5174 32.8866 14.1845 32.6642C13.8517 32.4417 13.5922 32.1256 13.439 31.7557C13.2857 31.3859 13.2456 30.9789 13.3237 30.5862C13.4018 30.1935 13.5946 29.8328 13.8777 29.5497C14.1608 29.2666 14.5215 29.0739 14.9141 28.9957C15.3068 28.9176 15.7138 28.9577 16.0837 29.1109C16.4536 29.2641 16.7697 29.5236 16.9921 29.8564C17.2146 30.1893 17.3333 30.5807 17.3333 30.981C17.3326 31.5177 17.1192 32.0322 16.7397 32.4116C16.3603 32.7911 15.8458 33.0045 15.3092 33.0052V33.0053ZM31.28 30.2778H18.6668C18.5051 29.5071 18.0832 28.8154 17.4718 28.3189C16.8604 27.8225 16.0969 27.5515 15.3093 27.5515C14.5218 27.5515 13.7582 27.8225 13.1469 28.3189C12.5355 28.8154 12.1136 29.5071 11.9519 30.2778H8.70875V24.625H11.7917V26.687C11.7917 26.8104 11.8242 26.9317 11.8859 27.0386C11.9476 27.1455 12.0363 27.2342 12.1432 27.2959C12.2501 27.3577 12.3714 27.3902 12.4948 27.3902C12.6182 27.3902 12.7395 27.3577 12.8464 27.296L20.5866 22.8271C20.6935 22.7654 20.7823 22.6766 20.844 22.5697C20.9057 22.4628 20.9382 22.3416 20.9382 22.2182C20.9382 22.0948 20.9057 21.9735 20.844 21.8666C20.7823 21.7597 20.6935 21.671 20.5866 21.6093L12.8464 17.1404C12.7395 17.0787 12.6182 17.0462 12.4948 17.0462C12.3714 17.0462 12.2501 17.0787 12.1433 17.1404C12.0364 17.2021 11.9476 17.2908 11.8859 17.3977C11.8242 17.5046 11.7917 17.6259 11.7917 17.7493V19.8115H8.7084V11.8372H31.28V30.2778ZM8.00527 1.99472C9.02866 1.99532 10.0379 2.23378 10.9533 2.69129C11.8687 3.14879 12.6653 3.81281 13.2801 4.63093C13.8949 5.44905 14.3112 6.39888 14.496 7.40544C14.6808 8.412 14.6291 9.44774 14.345 10.4309H8.00527C7.81879 10.4309 7.63995 10.505 7.50809 10.6368C7.37623 10.7687 7.30215 10.9475 7.30215 11.134V15.1548C5.62238 14.9751 4.07552 14.1579 2.98022 12.8718C1.88492 11.5856 1.32463 9.92834 1.41476 8.2414C1.50489 6.55445 2.23858 4.96632 3.46469 3.80418C4.6908 2.64205 6.31592 1.99442 8.00527 1.99472ZM4.66754 6.08163C4.77969 5.93272 4.94639 5.83444 5.13098 5.8084C5.31557 5.78236 5.50295 5.83069 5.65192 5.94277L7.9107 7.64319L10.6177 4.60419C10.7418 4.46496 10.9161 4.38071 11.1022 4.36998C11.1944 4.36467 11.2868 4.37757 11.374 4.40793C11.4612 4.4383 11.5415 4.48555 11.6105 4.54697C11.6794 4.6084 11.7356 4.6828 11.7757 4.76594C11.8159 4.84907 11.8394 4.9393 11.8447 5.03149C11.85 5.12367 11.8371 5.216 11.8067 5.3032C11.7763 5.3904 11.7291 5.47076 11.6677 5.5397L8.52998 9.062C8.41261 9.19374 8.25 9.27653 8.07442 9.29395C7.89885 9.31137 7.72314 9.26215 7.58217 9.15605L4.80641 7.06618C4.73262 7.01065 4.6705 6.94112 4.62359 6.86158C4.57668 6.78203 4.5459 6.69403 4.533 6.60259C4.52011 6.51114 4.52535 6.41805 4.54844 6.32864C4.57152 6.23922 4.61199 6.15523 4.66754 6.08146V6.08163Z" fill="#393B40"/>
</svg>
