<svg width="72" height="72" viewBox="0 0 72 72" fill="none" xmlns="http://www.w3.org/2000/svg">
<circle cx="36" cy="36" r="36" fill="white"/>
<mask id="mask0_1118_3680" style="mask-type:alpha" maskUnits="userSpaceOnUse" x="0" y="0" width="72" height="72">
<circle cx="36" cy="36" r="36" fill="#C4C4C4"/>
</mask>
<g mask="url(#mask0_1118_3680)">
<path d="M6.68018 63.9906H67.0641V6.99939H6.68018V63.9906Z" fill="white"/>
<path d="M129.515 7.00879H70.9448V64H131.319V7.00879H129.515Z" fill="white"/>
<path d="M12.209 38.2323V50.1148H14.2844V46.6648C14.6901 46.9973 15.1369 47.197 15.6155 47.197C16.3013 47.197 16.8651 46.8563 17.3076 46.1749C17.8042 45.4164 18.0518 44.2969 18.0518 42.8318C18.0518 41.8097 17.8533 40.8898 17.4657 40.1062L17.3978 39.978L17.33 39.8718L17.2845 39.7655L17.2166 39.6803L17.1488 39.574L17.0585 39.4677L16.9907 39.3825L16.9228 39.2973L16.8326 39.2122L16.7647 39.127L16.6745 39.0418L16.5843 38.9778L16.494 38.8926L16.4038 38.8285L16.3136 38.7645L16.2233 38.7004L16.1107 38.6582L16.0205 38.5941L15.9302 38.5519L15.8176 38.5096L15.705 38.4667L15.5924 38.4238L15.4798 38.3815L15.3672 38.3604L15.2546 38.3393L15.142 38.3181L15.007 38.2759H14.8944L14.7594 38.2548H14.6468L14.511 38.2336H14.376H12.209V38.2323ZM14.1718 39.9147H14.3746C14.898 39.9147 15.3044 40.2002 15.5924 40.7453C15.8812 41.2905 16.0212 42.1334 16.0212 43.3006C16.0212 43.9309 15.9396 44.4291 15.7505 44.7698C15.57 45.1105 15.3354 45.2808 15.0741 45.2808C14.8214 45.2808 14.6135 45.1193 14.4425 44.812C14.2714 44.5142 14.1718 44.0843 14.1718 43.5132V39.9147Z" fill="#393B40"/>
<path d="M61.0371 37.6545L60.866 37.816C60.866 37.816 56.5261 42.0919 56.2013 42.4156V38.2249H54.1714V50.1326H56.2013V45.2434C56.2554 45.1842 58.8628 42.5771 59.161 42.2793C59.179 42.7133 59.4584 50.1326 59.4584 50.1326H61.5338L61.0371 37.6545Z" fill="#393B40"/>
<path d="M51.1381 37.8167L51.1287 37.8338L51.1107 37.8419L51.0926 37.8678L51.0652 37.893L51.0291 37.9271L50.993 37.9612L50.9475 38.0041L50.9028 38.047L50.8486 38.0981L50.7945 38.1581L50.7309 38.2174L50.6681 38.2767L50.6046 38.3448L50.5324 38.4129L50.4516 38.4893L50.2892 38.6515L50.1181 38.8218L49.9376 39.001L49.7485 39.1884L49.55 39.384L49.3421 39.5795L49.1349 39.784L48.927 39.9972L48.5033 40.4143L48.2961 40.6187L48.0889 40.8149L47.8904 41.0105L47.7013 41.2068L47.5121 41.386L47.3403 41.5563L47.1779 41.7178L47.0971 41.7941L47.0249 41.8711L46.9527 41.9393L46.8892 42.0074L46.8264 42.0674L46.7722 42.1273L46.7181 42.1784L46.6639 42.2295L46.6192 42.2725L46.5831 42.3066L46.547 42.3406L46.5196 42.3747L46.4921 42.3917L46.4741 42.4176V38.2269H44.4341V50.1346H46.4734V45.2455C46.5275 45.1862 49.1356 42.5791 49.433 42.2813C49.4511 42.7154 49.7312 50.1346 49.7312 50.1346H51.7971L51.3005 37.6545L51.1381 37.8167Z" fill="#393B40"/>
<path d="M39.3352 47.1773L39.2089 47.0329L39.1006 46.8885L38.9924 46.7263L38.9021 46.5648L38.8119 46.3944L38.7303 46.2241L38.6487 46.0456L38.5859 45.8663L38.5318 45.6707L38.4777 45.4834L38.4322 45.279L38.3961 45.0745L38.3687 44.8612L38.3506 44.648L38.3412 44.4265L38.3318 44.205C38.3318 42.9533 38.6567 41.9564 39.2883 41.2239C39.9835 40.4232 40.9941 40.0232 42.3115 40.0232H42.4104V37.9449H42.3115C40.2542 37.9449 38.6747 38.5412 37.6013 39.7418C36.6268 40.8239 36.1309 42.3312 36.1309 44.2221C36.1309 46.0449 36.6723 47.5521 37.7276 48.6853C38.8465 49.8778 40.3899 50.4911 42.339 50.4911H42.4378V48.4046H42.339C41.0591 48.4039 40.0485 47.995 39.3352 47.1773Z" fill="#393B40"/>
<path d="M23.0152 37.9345C21.9237 37.9345 21.0524 38.5178 20.4208 39.6592C19.8072 40.7835 19.4961 42.2786 19.4961 44.1095C19.4961 46.0004 19.7892 47.5295 20.3761 48.645C20.9716 49.7863 21.8602 50.3696 23.0152 50.3696C24.1976 50.3696 25.131 49.7523 25.7901 48.5598C26.4037 47.4437 26.7148 45.9363 26.7148 44.0877C26.7148 42.2649 26.3986 40.774 25.767 39.6585L25.6991 39.5522L25.6313 39.4459L25.5858 39.3396L25.4956 39.2544L25.4501 39.1693L25.3599 39.0841L25.292 38.9989L25.2241 38.9137L25.1563 38.8286L25.0661 38.7434L24.9982 38.6793L24.908 38.6152L24.8401 38.5512L24.7499 38.4872L24.682 38.4231L24.5918 38.3591L24.5016 38.3161L24.4113 38.2739L24.3211 38.2316L24.2309 38.1894L24.1406 38.1464L24.0504 38.1035L23.9602 38.0824L23.8475 38.0395L23.7573 38.0183L23.6447 37.9972L23.5545 37.9761H23.4642L23.3516 37.955L23.239 37.9338H23.1264H23.0152V37.9345ZM23.0152 39.8507C23.5927 39.8507 24.0172 40.2384 24.2785 41.022C24.5312 41.7286 24.6394 42.7596 24.6394 44.0884C24.6394 45.3742 24.5131 46.4433 24.2337 47.261L24.1883 47.3462L24.1659 47.4103L24.1435 47.4743L24.1211 47.5384L24.0987 47.6024L24.054 47.6665L24.0316 47.7305L23.9861 47.7734L23.9638 47.8375L23.9183 47.8804L23.8959 47.9445L23.8735 47.9874L23.8288 48.0297L23.7833 48.0719L23.7609 48.1141L23.7162 48.1353L23.6938 48.1775L23.6483 48.2198L23.6035 48.2409L23.5581 48.2831L23.5126 48.3043L23.4671 48.3254L23.4447 48.3465L23.3993 48.3676H23.3538L23.3083 48.3887L23.2635 48.4099H23.2181L23.1726 48.431H23.1271H23.0816H23.0138C22.5178 48.431 22.1432 48.031 21.8631 47.2385C21.5744 46.412 21.4343 45.3517 21.4343 44.1081C21.4343 42.8393 21.5744 41.7913 21.8631 40.9995C22.1266 40.2425 22.5099 39.8507 23.0152 39.8507Z" fill="#393B40"/>
<path d="M31.5129 47.1773L31.4588 47.1092L31.3952 47.0329L31.2776 46.8885L31.1787 46.7263L31.0791 46.5648L30.9888 46.3944L30.908 46.2241L30.8358 46.0456L30.7636 45.8663L30.7095 45.6707L30.6553 45.4834L30.6192 45.279L30.5831 45.0745L30.5564 44.8612L30.5384 44.648L30.5203 44.4265V44.205C30.5203 42.9533 30.8358 41.9564 31.4768 41.2239C32.1626 40.4232 33.1732 40.0232 34.4906 40.0232H34.5989V37.9449H34.4906C32.442 37.9449 30.8538 38.5412 29.7898 39.7418C28.8059 40.8239 28.3193 42.3312 28.3193 44.2221C28.3193 46.0449 28.8514 47.5521 29.9161 48.6853C31.0256 49.8778 32.5777 50.4911 34.5275 50.4911H34.6263V48.4046H34.5275C33.236 48.4039 32.2254 47.995 31.5129 47.1773Z" fill="#393B40"/>
<path d="M12.2295 20.7644V32.7314H14.5669V22.7487H17.4544V32.7314H19.7824V20.7644H12.2295Z" fill="#393B40"/>
<path d="M26.9395 20.4516C25.703 20.4516 24.7104 21.039 24.0073 22.1981C23.3121 23.3313 22.9692 24.8304 22.9692 26.6695C22.9692 28.5686 23.2941 30.1236 23.9618 31.2479C24.6382 32.3981 25.6402 32.9726 26.9395 32.9726C28.2656 32.9726 29.3123 32.3723 30.0523 31.1627C30.7474 30.0384 31.1127 28.5182 31.1127 26.6695C31.1127 24.8297 30.7337 23.3217 30.0299 22.1981L29.962 22.0918L29.8942 21.9855L29.8263 21.8792L29.7361 21.794L29.6682 21.6877L29.578 21.6025L29.5101 21.5173L29.4199 21.4322L29.3297 21.347L29.2618 21.2829L29.1716 21.1978L29.0813 21.1337L28.9911 21.0697L28.9009 21.0056L28.7883 20.9416L28.698 20.8986L28.6078 20.8346L28.5176 20.7916L28.4049 20.7487L28.3147 20.7065L28.2021 20.6635L28.0895 20.6206L27.9992 20.5995L27.8866 20.5566L27.774 20.5354L27.6614 20.5143L27.5488 20.4932L27.4362 20.4721H27.3005H27.1879L27.0753 20.4509H26.9395V20.4516ZM26.9626 22.4747C27.5943 22.4747 28.0411 22.8584 28.3385 23.625C28.6092 24.3234 28.7442 25.3414 28.7442 26.6702C28.7442 27.939 28.5861 28.9999 28.2707 29.8006C27.9639 30.5842 27.5401 30.9501 26.9626 30.9501H26.8948H26.8493H26.8038H26.7591L26.7136 30.929L26.6681 30.9079H26.6226L26.5772 30.8868L26.5324 30.8656L26.4869 30.8445L26.4414 30.8234L26.396 30.8023L26.3505 30.7593L26.3057 30.7382L26.2603 30.696L26.2148 30.6749L26.1924 30.6319L26.1469 30.5897L26.1014 30.5468L26.0791 30.5038L26.0336 30.4609L25.9881 30.3968L25.9657 30.3539L25.9203 30.311L25.8979 30.2469L25.8531 30.1828L25.8307 30.1399L25.8084 30.0547L25.7629 29.9907L25.7405 29.9266L25.7181 29.8626L25.6727 29.7985C25.3572 28.972 25.1991 27.9247 25.1991 26.6893C25.1991 25.4205 25.3572 24.3854 25.6727 23.6018C25.9744 22.8454 26.3938 22.4747 26.9626 22.4747Z" fill="#393B40"/>
<path d="M43.8203 20.7644V22.7487H45.76V32.7314H48.0974V22.7487H50.0645V20.7644H43.8203Z" fill="#393B40"/>
<path d="M38.704 24.9292H37.4321C36.9087 24.9292 36.5117 24.8188 36.2677 24.5973C36.0872 24.444 36.0056 24.2307 36.0056 23.9582V20.7637H33.6689V24.1796C33.6689 24.9632 34.0025 25.6358 34.6521 26.1639C35.2924 26.6838 36.0872 26.9475 36.9982 26.9475H38.7033V32.7306H41.0407V20.7637H38.7033V24.9292H38.704Z" fill="#393B40"/>
<path d="M53.1075 20.7713L52.6787 32.7389H55.0024C55.0024 32.7389 55.219 27.1472 55.2276 26.8829H58.1375C58.1649 27.1302 58.8139 32.7389 58.8139 32.7389H61.16L60.0772 23.9869V23.8805V23.7742V23.6679L60.0548 23.5616V23.4553L60.0324 23.3702V23.2638L60.01 23.1787L59.9876 23.0724L59.9653 22.9872L59.9429 22.902L59.9205 22.8168L59.8981 22.7317L59.8527 22.6465L59.8303 22.5613L59.8079 22.4761L59.7624 22.391L59.7169 22.3269L59.6715 22.2417L59.6491 22.1777L59.6036 22.0925L59.5581 22.0285L59.4903 21.9644L59.4448 21.8792L59.3993 21.8363L59.3315 21.7511L59.286 21.7082L59.2181 21.6442L59.1503 21.5801L59.0824 21.5372L59.0369 21.4731L58.9467 21.4091C58.3606 20.9743 57.5658 20.7699 56.5559 20.7699H53.1075V20.7713ZM55.341 22.7515H56.1755C56.7797 22.7515 57.1861 22.9347 57.4387 23.2836C57.6466 23.5732 57.7859 24.1265 57.8675 24.902H55.2731V24.8809V24.8597V24.8386V24.8175V24.7964V24.7752V24.7541V24.6901V24.626V24.562L55.2955 24.4979V24.4127V24.3487V24.2635V24.1783V24.0932V24.008V23.8165V23.6461L55.3179 23.561V23.4758V23.3906V23.3054V23.2203V23.1562V23.071V23.007V22.9429L55.3402 22.9V22.8788V22.8577V22.8366V22.8155V22.7944V22.7733V22.7515H55.341Z" fill="#393B40"/>
</g>
</svg>
