<svg width="62" height="31" viewBox="0 0 62 31" fill="none" xmlns="http://www.w3.org/2000/svg">
<mask id="path-1-inside-1_769_15572" fill="white">
<path d="M48.1099 10.8156H58.0493C58.6016 10.8156 59.0493 11.2633 59.0493 11.8156V26.5976C59.0493 27.1499 58.6016 27.5976 58.0493 27.5976H48.1099V10.8156Z"/>
</mask>
<path d="M48.1099 10.8156H58.0493C58.6016 10.8156 59.0493 11.2633 59.0493 11.8156V26.5976C59.0493 27.1499 58.6016 27.5976 58.0493 27.5976H48.1099V10.8156Z" stroke="#393B40" stroke-width="3" mask="url(#path-1-inside-1_769_15572)"/>
<mask id="path-2-inside-2_769_15572" fill="white">
<path d="M34.5 6.22363C34.5 5.67135 34.9477 5.22363 35.5 5.22363H46.0374C46.5897 5.22363 47.0374 5.67135 47.0374 6.22363V9.40276H34.5V6.22363Z"/>
</mask>
<path d="M34.5 6.22363C34.5 5.67135 34.9477 5.22363 35.5 5.22363H46.0374C46.5897 5.22363 47.0374 5.67135 47.0374 6.22363V9.40276H34.5V6.22363Z" stroke="#393B40" stroke-width="3" mask="url(#path-2-inside-2_769_15572)"/>
<mask id="path-3-inside-3_769_15572" fill="white">
<path d="M20.7617 0.999999C20.7617 0.447715 21.2094 0 21.7617 0H32.0686C32.6209 0 33.0686 0.447715 33.0686 1V9.78955H20.7617V0.999999Z"/>
</mask>
<path d="M20.7617 0.999999C20.7617 0.447715 21.2094 0 21.7617 0H32.0686C32.6209 0 33.0686 0.447715 33.0686 1V9.78955H20.7617V0.999999Z" stroke="#393B40" stroke-width="3" mask="url(#path-3-inside-3_769_15572)"/>
<mask id="path-4-inside-4_769_15572" fill="white">
<path d="M7.33496 6.22363C7.33496 5.67135 7.78268 5.22363 8.33496 5.22363H18.8723C19.4246 5.22363 19.8723 5.67135 19.8723 6.22363V9.40276H7.33496V6.22363Z"/>
</mask>
<path d="M7.33496 6.22363C7.33496 5.67135 7.78268 5.22363 8.33496 5.22363H18.8723C19.4246 5.22363 19.8723 5.67135 19.8723 6.22363V9.40276H7.33496V6.22363Z" stroke="#393B40" stroke-width="3" mask="url(#path-4-inside-4_769_15572)"/>
<mask id="path-5-inside-5_769_15572" fill="white">
<rect x="2.98438" y="8.01855" width="46.4926" height="19.5791" rx="1"/>
</mask>
<rect x="2.98438" y="8.01855" width="46.4926" height="19.5791" rx="1" fill="white" stroke="#393B40" stroke-width="3" mask="url(#path-5-inside-5_769_15572)"/>
<mask id="path-6-inside-6_769_15572" fill="white">
<rect x="13.9238" y="12.2141" width="25.9811" height="15.3836" rx="1"/>
</mask>
<rect x="13.9238" y="12.2141" width="25.9811" height="15.3836" rx="1" stroke="#393B40" stroke-width="3" mask="url(#path-6-inside-6_769_15572)"/>
<line x1="22.8789" y1="12.2141" x2="22.8789" y2="27.5977" stroke="#393B40" stroke-width="1.5"/>
<line x1="31.0835" y1="12.2141" x2="31.0835" y2="27.5977" stroke="#393B40" stroke-width="1.5"/>
<line x1="0.25" y1="29.6448" x2="61.7843" y2="29.6448" stroke="#393B40" stroke-width="1.5"/>
</svg>
