<svg width="333" height="173" viewBox="0 0 333 173" fill="none" xmlns="http://www.w3.org/2000/svg">
<mask id="path-1-inside-1_1074_3671" fill="white">
<path fill-rule="evenodd" clip-rule="evenodd" d="M26.6233 36.8408C18.3185 38.626 6.49084 42.3059 2.3813 43.6121C1.51189 43.8884 0.947031 44.721 1.00394 45.6315L2.26134 65.75C2.32089 66.7027 2.83027 67.5702 3.63323 68.0864L5.82324 69.4943C6.85603 70.1582 7.60843 71.1789 7.93704 72.3619L9.2378 77.0447C9.2378 77.0447 12.2679 96.8513 15.3952 109.28C15.5321 109.824 15.6762 110.382 15.8265 110.952C20.1823 127.443 34.7641 139.069 51.7312 140.819C57.6417 141.429 62.9455 141.878 65.7406 141.878H83.8504L94.508 141.585C112.268 141.096 128.334 130.921 136.369 115.075C136.369 115.075 144.381 97.684 147.959 89.7216C150.467 84.1421 152.807 78.4174 154.294 74.6889C155.291 72.1884 154.597 69.3419 152.585 67.5535C151.063 66.2011 151.389 63.7397 153.209 62.8294L153.291 62.7888C155.025 61.9217 156.937 61.4702 158.876 61.4702H174.438C176.377 61.4702 178.289 61.9217 180.023 62.7888L180.105 62.8294C181.925 63.7397 182.251 66.2011 180.729 67.5535C178.717 69.3419 178.023 72.1884 179.02 74.6889C180.507 78.4174 182.847 84.1421 185.355 89.7216C188.933 97.684 196.945 115.075 196.945 115.075C204.98 130.921 221.046 141.096 238.806 141.585L249.464 141.878H267.573C270.368 141.878 275.672 141.429 281.583 140.819C298.55 139.069 313.132 127.443 317.487 110.952C317.638 110.382 317.782 109.824 317.919 109.28C321.046 96.8513 324.076 77.0447 324.076 77.0447L325.377 72.3619C325.706 71.1789 326.458 70.1582 327.491 69.4943L329.681 68.0864C330.484 67.5702 330.993 66.7027 331.053 65.75L332.31 45.6315C332.367 44.721 331.802 43.8884 330.933 43.6121C326.823 42.3059 314.995 38.626 306.691 36.8408C301.633 35.7536 294.874 34.7224 290.027 34.0405C285.925 33.4633 281.815 33.0087 277.688 32.6505C270.66 32.0402 259.062 31.1444 250.55 31.0457C234.686 30.8616 225.716 31.1669 209.984 33.2188C204.22 33.9707 199.86 34.9015 195.414 35.8505C191.5 36.686 187.519 37.5357 182.457 38.2896C181.002 38.5062 179.723 38.7161 178.522 38.9131L178.521 38.9132L178.52 38.9134L178.52 38.9134C175.294 39.4424 172.637 39.8782 168.694 40.1006C168.059 40.1364 167.37 40.161 166.657 40.1772C165.944 40.161 165.255 40.1364 164.62 40.1006C160.677 39.8782 158.02 39.4424 154.794 38.9134L154.794 38.9134L154.793 38.9132L154.792 38.9131C153.591 38.7161 152.311 38.5062 150.857 38.2896C145.795 37.5357 141.814 36.686 137.9 35.8505C133.454 34.9015 129.094 33.9707 123.33 33.2188C107.598 31.1669 98.6275 30.8616 82.7638 31.0457C74.2519 31.1444 62.654 32.0402 55.6259 32.6505C51.4993 33.0087 47.3886 33.4633 43.287 34.0405C38.44 34.7224 31.6809 35.7536 26.6233 36.8408ZM20.3335 61.0611C18.835 67.7164 17.9603 78.4785 19.6357 89.4336C21.8329 103.8 24.5021 115.866 33.5726 123.922C37.5285 127.436 41.3241 130.513 48.2426 132.168C55.4434 133.889 67.0812 134.269 67.0812 134.269H89.4085C89.4085 134.269 103.363 134.804 114.527 128.315C120.419 124.89 124.932 116.245 127.088 112.118C127.357 111.602 127.59 111.156 127.783 110.801C129.528 107.598 133.065 97.9723 135.458 89.4336C138.499 78.5864 139.994 68.0664 139.994 68.0664C139.994 68.0664 142.087 53.6292 137.203 47.4001C133.547 42.7375 123.597 40.7448 123.597 40.7448C123.597 40.7448 113.131 38.2704 89.4085 37.9425C73.2968 37.7198 56.9648 39.3435 48.2426 40.7448C48.0383 40.7776 47.8046 40.814 47.5445 40.8546C43.3133 41.5146 32.1 43.2639 27.3107 48.1006C22.227 53.2347 20.8068 58.9594 20.3335 61.0611ZM7.42681 51.3288C6.42663 51.3288 5.61582 50.5179 5.61582 49.5178C5.61582 48.5176 6.42663 47.7068 7.42681 47.7068C8.42699 47.7068 9.23779 48.5176 9.23779 49.5178C9.23779 50.5179 8.42699 51.3288 7.42681 51.3288ZM5.6159 59.2969C5.6159 60.2971 6.4267 61.1079 7.42688 61.1079C8.42706 61.1079 9.23787 60.2971 9.23787 59.2969C9.23787 58.2967 8.42706 57.4859 7.42688 57.4859C6.4267 57.4859 5.6159 58.2967 5.6159 59.2969ZM312.98 61.0611C314.479 67.7164 315.354 78.4785 313.678 89.4336C311.481 103.8 308.812 115.866 299.741 123.922C295.785 127.436 291.99 130.513 285.071 132.168C277.871 133.889 266.233 134.269 266.233 134.269H243.906C243.906 134.269 229.951 134.804 218.787 128.315C212.895 124.89 208.382 116.245 206.226 112.118C205.957 111.602 205.724 111.156 205.531 110.801C203.786 107.598 200.249 97.9723 197.855 89.4336C194.815 78.5864 193.32 68.0664 193.32 68.0664C193.32 68.0664 191.226 53.6292 196.111 47.4001C199.767 42.7375 209.717 40.7448 209.717 40.7448C209.717 40.7448 220.183 38.2704 243.906 37.9425C260.017 37.7198 276.349 39.3435 285.071 40.7448C285.276 40.7776 285.509 40.814 285.769 40.8546C290.001 41.5146 301.214 43.2639 306.003 48.1006C311.087 53.2347 312.507 58.9594 312.98 61.0611ZM325.887 51.3288C326.887 51.3288 327.698 50.5179 327.698 49.5178C327.698 48.5176 326.887 47.7068 325.887 47.7068C324.887 47.7068 324.076 48.5176 324.076 49.5178C324.076 50.5179 324.887 51.3288 325.887 51.3288ZM327.698 59.2968C327.698 60.297 326.887 61.1078 325.887 61.1078C324.887 61.1078 324.076 60.297 324.076 59.2968C324.076 58.2966 324.887 57.4858 325.887 57.4858C326.887 57.4858 327.698 58.2966 327.698 59.2968Z"/>
</mask>
<path d="M2.3813 43.6121L2.22985 43.1356H2.22985L2.3813 43.6121ZM26.6233 36.8408L26.7283 37.3296L26.6233 36.8408ZM1.00394 45.6315L0.504911 45.6627L1.00394 45.6315ZM2.26134 65.75L1.76232 65.7812L2.26134 65.75ZM3.63323 68.0864L3.36285 68.507L3.63323 68.0864ZM5.82324 69.4943L5.55286 69.9149H5.55286L5.82324 69.4943ZM7.93704 72.3619L7.45528 72.4958L7.93704 72.3619ZM9.2378 77.0447L9.73205 76.9691L9.72754 76.9396L9.71956 76.9109L9.2378 77.0447ZM15.3952 109.28L14.9103 109.402L15.3952 109.28ZM15.8265 110.952L16.31 110.824L15.8265 110.952ZM51.7312 140.819L51.7826 140.322L51.7312 140.819ZM83.8504 141.878V142.378L83.8642 142.378L83.8504 141.878ZM94.508 141.585L94.5218 142.084L94.508 141.585ZM136.369 115.075L136.815 115.302L136.819 115.293L136.823 115.285L136.369 115.075ZM147.959 89.7216L147.503 89.5166L147.959 89.7216ZM154.294 74.6889L154.759 74.8741L154.294 74.6889ZM152.585 67.5535L152.917 67.1798V67.1798L152.585 67.5535ZM153.209 62.8294L153.433 63.2766L153.433 63.2766L153.209 62.8294ZM153.291 62.7888L153.067 62.3416L153.067 62.3416L153.291 62.7888ZM180.023 62.7888L180.247 62.3416L180.247 62.3416L180.023 62.7888ZM180.105 62.8294L179.881 63.2766L179.881 63.2766L180.105 62.8294ZM180.729 67.5535L180.397 67.1798V67.1798L180.729 67.5535ZM179.02 74.6889L178.555 74.8741L179.02 74.6889ZM185.355 89.7216L185.811 89.5166L185.355 89.7216ZM196.945 115.075L196.491 115.285L196.495 115.293L196.499 115.302L196.945 115.075ZM238.806 141.585L238.792 142.084L238.806 141.585ZM249.464 141.878L249.45 142.378H249.464V141.878ZM281.583 140.819L281.634 141.316L281.583 140.819ZM317.487 110.952L317.971 111.079L317.487 110.952ZM317.919 109.28L318.404 109.402V109.402L317.919 109.28ZM324.076 77.0447L323.594 76.9109L323.586 76.9396L323.582 76.9691L324.076 77.0447ZM325.377 72.3619L324.895 72.2281V72.2281L325.377 72.3619ZM327.491 69.4943L327.22 69.0737V69.0737L327.491 69.4943ZM329.681 68.0864L329.41 67.6658V67.6658L329.681 68.0864ZM331.053 65.75L330.554 65.7188V65.7188L331.053 65.75ZM332.31 45.6315L331.811 45.6003V45.6003L332.31 45.6315ZM330.933 43.6121L330.781 44.0886L330.933 43.6121ZM306.691 36.8408L306.796 36.352L306.691 36.8408ZM290.027 34.0405L289.957 34.5356L290.027 34.0405ZM277.688 32.6505L277.731 32.1523L277.688 32.6505ZM250.55 31.0457L250.544 31.5456L250.55 31.0457ZM209.984 33.2188L210.049 33.7146L209.984 33.2188ZM195.414 35.8505L195.518 36.3395L195.414 35.8505ZM182.457 38.2896L182.531 38.7841L182.457 38.2896ZM178.522 38.9131L178.441 38.4197L178.439 38.4199L178.522 38.9131ZM178.521 38.9132L178.602 39.4066L178.603 39.4064L178.521 38.9132ZM178.52 38.9134L178.439 38.4199L178.431 38.4213L178.52 38.9134ZM178.52 38.9134L178.601 39.4069L178.608 39.4055L178.52 38.9134ZM168.694 40.1006L168.665 39.6014L168.694 40.1006ZM166.657 40.1772L166.646 40.6771L166.657 40.6774L166.668 40.6771L166.657 40.1772ZM164.62 40.1006L164.649 39.6014L164.62 40.1006ZM154.794 38.9134L154.706 39.4056L154.713 39.4068L154.794 38.9134ZM154.794 38.9134L154.882 38.4212L154.875 38.42L154.794 38.9134ZM154.793 38.9132L154.711 39.4064L154.712 39.4066L154.793 38.9132ZM154.792 38.9131L154.875 38.4199L154.873 38.4197L154.792 38.9131ZM150.857 38.2896L150.783 38.7841L150.857 38.2896ZM137.9 35.8505L137.796 36.3395L137.9 35.8505ZM123.33 33.2188L123.395 32.723L123.33 33.2188ZM82.7638 31.0457L82.758 30.5457L82.7638 31.0457ZM55.6259 32.6505L55.6691 33.1486L55.6259 32.6505ZM43.287 34.0405L43.3566 34.5356L43.287 34.0405ZM19.6357 89.4336L20.13 89.358L19.6357 89.4336ZM20.3335 61.0611L20.8213 61.1709L20.3335 61.0611ZM33.5726 123.922L33.9046 123.548L33.5726 123.922ZM48.2426 132.168L48.1263 132.654L48.2426 132.168ZM67.0812 134.269L67.0649 134.769L67.073 134.769H67.0812V134.269ZM89.4085 134.269L89.4276 133.77L89.418 133.769H89.4085V134.269ZM114.527 128.315L114.778 128.747L114.527 128.315ZM127.088 112.118L127.531 112.349L127.088 112.118ZM127.783 110.801L128.223 111.04L127.783 110.801ZM135.458 89.4336L135.94 89.5685L135.458 89.4336ZM139.994 68.0664L139.499 67.9947L139.499 67.9961L139.994 68.0664ZM137.203 47.4001L137.596 47.0915L137.203 47.4001ZM123.597 40.7448L123.482 41.2313L123.49 41.2333L123.499 41.235L123.597 40.7448ZM89.4085 37.9425L89.4015 38.4425L89.4085 37.9425ZM48.2426 40.7448L48.3219 41.2384L48.2426 40.7448ZM47.5445 40.8546L47.6216 41.3486H47.6216L47.5445 40.8546ZM27.3107 48.1006L26.9555 47.7488L27.3107 48.1006ZM313.678 89.4336L314.172 89.5092L313.678 89.4336ZM312.98 61.0611L313.468 60.9513V60.9513L312.98 61.0611ZM299.741 123.922L300.073 124.296L299.741 123.922ZM285.071 132.168L285.188 132.654L285.071 132.168ZM266.233 134.269V134.769H266.241L266.249 134.769L266.233 134.269ZM243.906 134.269V133.769H243.896L243.886 133.77L243.906 134.269ZM218.787 128.315L218.536 128.747L218.787 128.315ZM206.226 112.118L205.783 112.349L206.226 112.118ZM205.531 110.801L205.091 111.04L205.531 110.801ZM197.855 89.4336L198.337 89.2986L197.855 89.4336ZM193.32 68.0664L193.815 67.9961L193.814 67.9947L193.32 68.0664ZM196.111 47.4001L196.505 47.7086L196.111 47.4001ZM209.717 40.7448L209.815 41.235L209.824 41.2333L209.832 41.2313L209.717 40.7448ZM243.906 37.9425L243.912 38.4425L243.906 37.9425ZM285.071 40.7448L285.151 40.2511V40.2511L285.071 40.7448ZM285.767 40.8543L285.69 41.3483L285.691 41.3484L285.767 40.8543ZM285.769 40.8546L285.847 40.3606L285.846 40.3605L285.769 40.8546ZM306.003 48.1006L306.359 47.7488V47.7488L306.003 48.1006ZM2.53276 44.0886C6.64451 42.7818 18.4504 39.1091 26.7283 37.3296L26.5182 36.352C18.1866 38.143 6.33718 41.8301 2.22985 43.1356L2.53276 44.0886ZM1.50296 45.6003C1.46024 44.9167 1.88391 44.2948 2.53276 44.0886L2.22985 43.1356C1.13987 43.482 0.433827 44.5254 0.504911 45.6627L1.50296 45.6003ZM2.76037 65.7188L1.50296 45.6003L0.504911 45.6627L1.76232 65.7812L2.76037 65.7188ZM3.90361 67.6658C3.23447 67.2357 2.80999 66.5127 2.76037 65.7188L1.76232 65.7812C1.83179 66.8927 2.42606 67.9048 3.36285 68.507L3.90361 67.6658ZM6.09361 69.0737L3.90361 67.6658L3.36285 68.507L5.55286 69.9149L6.09361 69.0737ZM8.4188 72.2281C8.05732 70.9268 7.22969 69.804 6.09361 69.0737L5.55286 69.9149C6.48237 70.5124 7.15953 71.4311 7.45528 72.4958L8.4188 72.2281ZM9.71956 76.9109L8.4188 72.2281L7.45528 72.4958L8.75604 77.1785L9.71956 76.9109ZM15.88 109.158C14.321 102.962 12.7842 94.9178 11.6362 88.4147C11.0624 85.1648 10.5863 82.3029 10.2537 80.2536C10.0873 79.2289 9.95689 78.4075 9.86804 77.8424C9.82362 77.5598 9.7896 77.3413 9.76669 77.1936C9.75524 77.1197 9.74657 77.0635 9.74076 77.0258C9.73786 77.007 9.73568 76.9927 9.73422 76.9832C9.73349 76.9785 9.73295 76.9749 9.73259 76.9726C9.7324 76.9714 9.73227 76.9705 9.73218 76.9699C9.73213 76.9696 9.7321 76.9694 9.73208 76.9693C9.73206 76.9691 9.73205 76.9691 9.2378 77.0447C8.74355 77.1203 8.74357 77.1204 8.74359 77.1206C8.74361 77.1207 8.74365 77.121 8.7437 77.1213C8.74379 77.1219 8.74394 77.1228 8.74412 77.124C8.7445 77.1265 8.74506 77.1301 8.7458 77.1349C8.74728 77.1446 8.74949 77.159 8.75241 77.178C8.75827 77.216 8.76699 77.2725 8.77849 77.3468C8.8015 77.4952 8.83564 77.7144 8.88018 77.9977C8.96926 78.5643 9.09997 79.3874 9.26658 80.4138C9.5998 82.4666 10.0767 85.3331 10.6514 88.5885C11.8002 95.096 13.3421 103.17 14.9103 109.402L15.88 109.158ZM16.31 110.824C16.1601 110.256 16.0164 109.7 15.88 109.158L14.9103 109.402C15.0477 109.948 15.1923 110.508 15.3431 111.079L16.31 110.824ZM51.7826 140.322C35.0062 138.591 20.6086 127.099 16.31 110.824L15.3431 111.079C19.7561 127.787 34.522 139.546 51.6799 141.316L51.7826 140.322ZM65.7406 141.378C62.9758 141.378 57.6981 140.932 51.7826 140.322L51.6799 141.316C57.5852 141.925 62.9153 142.378 65.7406 142.378V141.378ZM83.8504 141.378H65.7406V142.378H83.8504V141.378ZM94.4943 141.085L83.8367 141.378L83.8642 142.378L94.5218 142.084L94.4943 141.085ZM135.923 114.849C127.971 130.532 112.071 140.601 94.4943 141.085L94.5218 142.084C112.465 141.591 128.697 131.311 136.815 115.302L135.923 114.849ZM147.503 89.5166C145.715 93.4959 142.818 99.8327 140.368 105.176C139.143 107.847 138.029 110.27 137.222 112.025C136.819 112.902 136.492 113.612 136.266 114.103C136.153 114.349 136.065 114.54 136.006 114.669C135.976 114.734 135.953 114.783 135.938 114.816C135.93 114.833 135.925 114.845 135.921 114.854C135.919 114.858 135.917 114.861 135.916 114.863C135.916 114.864 135.915 114.865 135.915 114.865C135.915 114.866 135.915 114.866 135.915 114.866C135.915 114.866 135.915 114.866 136.369 115.075C136.823 115.285 136.823 115.285 136.823 115.284C136.823 115.284 136.823 115.284 136.824 115.284C136.824 115.283 136.824 115.282 136.825 115.281C136.826 115.279 136.827 115.276 136.829 115.272C136.833 115.264 136.839 115.251 136.846 115.234C136.862 115.201 136.884 115.152 136.914 115.087C136.974 114.958 137.061 114.767 137.174 114.522C137.401 114.03 137.727 113.32 138.131 112.442C138.938 110.688 140.051 108.265 141.277 105.593C143.727 100.25 146.625 93.9097 148.415 89.9266L147.503 89.5166ZM153.83 74.5037C152.344 78.2291 150.007 83.9464 147.503 89.5166L148.415 89.9266C150.927 84.3379 153.27 78.6058 154.759 74.8741L153.83 74.5037ZM152.252 67.9272C154.109 69.5779 154.748 72.2018 153.83 74.5037L154.759 74.8741C155.835 72.1751 155.084 69.1059 152.917 67.1798L152.252 67.9272ZM152.986 62.3822C150.849 63.4507 150.467 66.3398 152.252 67.9272L152.917 67.1798C151.66 66.0624 151.929 64.0287 153.433 63.2766L152.986 62.3822ZM153.067 62.3416L152.986 62.3822L153.433 63.2766L153.514 63.236L153.067 62.3416ZM158.876 60.9702C156.859 60.9702 154.871 61.4397 153.067 62.3416L153.514 63.236C155.179 62.4036 157.015 61.9702 158.876 61.9702V60.9702ZM158.876 61.9702H174.438V60.9702H158.876V61.9702ZM174.438 61.9702C176.299 61.9702 178.135 62.4036 179.8 63.236L180.247 62.3416C178.443 61.4397 176.454 60.9702 174.438 60.9702V61.9702ZM179.8 63.236L179.881 63.2766L180.328 62.3822L180.247 62.3416L179.8 63.236ZM179.881 63.2766C181.385 64.0287 181.654 66.0624 180.397 67.1798L181.062 67.9272C182.847 66.3398 182.465 63.4507 180.328 62.3822L179.881 63.2766ZM180.397 67.1798C178.23 69.1059 177.479 72.1751 178.555 74.8741L179.484 74.5037C178.566 72.2018 179.205 69.5779 181.062 67.9272L180.397 67.1798ZM178.555 74.8741C180.043 78.6058 182.387 84.3379 184.899 89.9266L185.811 89.5166C183.307 83.9464 180.97 78.2291 179.484 74.5037L178.555 74.8741ZM184.899 89.9266C186.689 93.9097 189.587 100.25 192.037 105.593C193.263 108.265 194.376 110.688 195.183 112.442C195.587 113.32 195.913 114.03 196.14 114.522C196.253 114.767 196.34 114.958 196.4 115.087C196.43 115.152 196.452 115.201 196.468 115.234C196.475 115.251 196.481 115.264 196.485 115.272C196.487 115.276 196.488 115.279 196.489 115.281C196.49 115.282 196.49 115.283 196.49 115.284C196.491 115.284 196.491 115.284 196.491 115.284C196.491 115.285 196.491 115.285 196.945 115.075C197.399 114.866 197.399 114.866 197.399 114.866C197.399 114.866 197.399 114.866 197.399 114.865C197.398 114.865 197.398 114.864 197.398 114.863C197.397 114.861 197.395 114.858 197.393 114.854C197.389 114.845 197.384 114.833 197.376 114.816C197.361 114.783 197.338 114.734 197.308 114.669C197.249 114.54 197.161 114.349 197.048 114.103C196.822 113.612 196.495 112.902 196.092 112.025C195.285 110.27 194.171 107.847 192.946 105.176C190.496 99.8327 187.599 93.4959 185.811 89.5166L184.899 89.9266ZM196.499 115.302C204.617 131.311 220.849 141.591 238.792 142.084L238.82 141.085C221.243 140.601 205.343 130.532 197.391 114.849L196.499 115.302ZM238.792 142.084L249.45 142.378L249.477 141.378L238.82 141.085L238.792 142.084ZM249.464 142.378H267.573V141.378H249.464V142.378ZM267.573 142.378C270.399 142.378 275.729 141.925 281.634 141.316L281.531 140.322C275.616 140.932 270.338 141.378 267.573 141.378V142.378ZM281.634 141.316C298.792 139.546 313.558 127.787 317.971 111.079L317.004 110.824C312.705 127.099 298.308 138.591 281.531 140.322L281.634 141.316ZM317.971 111.079C318.122 110.508 318.266 109.948 318.404 109.402L317.434 109.158C317.298 109.7 317.154 110.256 317.004 110.824L317.971 111.079ZM318.404 109.402C319.972 103.17 321.514 95.096 322.663 88.5885C323.237 85.3331 323.714 82.4666 324.047 80.4138C324.214 79.3874 324.345 78.5643 324.434 77.9977C324.478 77.7144 324.512 77.4952 324.535 77.3468C324.547 77.2725 324.556 77.216 324.562 77.178C324.564 77.159 324.567 77.1446 324.568 77.1349C324.569 77.1301 324.569 77.1265 324.57 77.124C324.57 77.1228 324.57 77.1219 324.57 77.1213C324.57 77.121 324.57 77.1207 324.57 77.1206C324.57 77.1204 324.57 77.1203 324.076 77.0447C323.582 76.9691 323.582 76.9691 323.582 76.9693C323.582 76.9694 323.582 76.9696 323.582 76.9699C323.582 76.9705 323.582 76.9714 323.581 76.9726C323.581 76.9749 323.58 76.9785 323.58 76.9832C323.578 76.9927 323.576 77.007 323.573 77.0258C323.567 77.0635 323.559 77.1197 323.547 77.1936C323.524 77.3413 323.49 77.5598 323.446 77.8424C323.357 78.4075 323.227 79.2289 323.06 80.2536C322.728 82.3029 322.252 85.1648 321.678 88.4147C320.53 94.9178 318.993 102.962 317.434 109.158L318.404 109.402ZM324.558 77.1785L325.859 72.4958L324.895 72.2281L323.594 76.9109L324.558 77.1785ZM325.859 72.4958C326.154 71.4311 326.832 70.5124 327.761 69.9149L327.22 69.0737C326.084 69.804 325.257 70.9268 324.895 72.2281L325.859 72.4958ZM327.761 69.9149L329.951 68.507L329.41 67.6658L327.22 69.0737L327.761 69.9149ZM329.951 68.507C330.888 67.9048 331.482 66.8927 331.552 65.7812L330.554 65.7188C330.504 66.5127 330.079 67.2357 329.41 67.6658L329.951 68.507ZM331.552 65.7812L332.809 45.6627L331.811 45.6003L330.554 65.7188L331.552 65.7812ZM332.809 45.6627C332.88 44.5254 332.174 43.482 331.084 43.1356L330.781 44.0886C331.43 44.2949 331.854 44.9167 331.811 45.6003L332.809 45.6627ZM331.084 43.1356C326.977 41.8301 315.127 38.143 306.796 36.352L306.586 37.3296C314.864 39.1091 326.669 42.7818 330.781 44.0886L331.084 43.1356ZM306.796 36.352C301.719 35.2607 294.945 34.2275 290.097 33.5453L289.957 34.5356C294.803 35.2174 301.547 36.2465 306.586 37.3296L306.796 36.352ZM290.097 33.5453C285.985 32.9668 281.866 32.5113 277.731 32.1523L277.645 33.1486C281.764 33.5062 285.865 33.9598 289.957 34.5356L290.097 33.5453ZM277.731 32.1523C270.703 31.5421 259.089 30.6447 250.556 30.5457L250.544 31.5456C259.036 31.6442 270.617 32.5384 277.645 33.1486L277.731 32.1523ZM250.556 30.5457C234.675 30.3614 225.68 30.6673 209.919 32.723L210.049 33.7146C225.751 31.6665 234.698 31.3617 250.544 31.5456L250.556 30.5457ZM209.919 32.723C204.134 33.4777 199.756 34.4124 195.309 35.3615L195.518 36.3395C199.963 35.3906 204.307 34.4636 210.049 33.7146L209.919 32.723ZM195.309 35.3615C191.395 36.197 187.429 37.0436 182.383 37.7951L182.531 38.7841C187.61 38.0277 191.604 37.1751 195.518 36.3395L195.309 35.3615ZM182.383 37.7951C180.925 38.0123 179.641 38.2228 178.441 38.4197L178.602 39.4065C179.804 39.2095 181.08 39.0002 182.531 38.7841L182.383 37.7951ZM178.439 38.4199L178.439 38.42L178.603 39.4064L178.604 39.4063L178.439 38.4199ZM178.44 38.4197L178.439 38.42L178.601 39.4068L178.602 39.4066L178.44 38.4197ZM178.431 38.4213L178.431 38.4213L178.608 39.4055L178.608 39.4055L178.431 38.4213ZM178.439 38.42C175.215 38.9487 172.581 39.3806 168.665 39.6014L168.722 40.5998C172.694 40.3758 175.373 39.9362 178.601 39.4068L178.439 38.42ZM168.665 39.6014C168.038 39.6367 167.354 39.6613 166.646 39.6774L166.668 40.6771C167.385 40.6608 168.08 40.636 168.722 40.5998L168.665 39.6014ZM164.592 40.5998C165.233 40.636 165.929 40.6608 166.646 40.6771L166.668 39.6774C165.96 39.6613 165.276 39.6367 164.649 39.6014L164.592 40.5998ZM154.713 39.4068C157.941 39.9362 160.62 40.3758 164.592 40.5998L164.649 39.6014C160.733 39.3806 158.099 38.9487 154.875 38.42L154.713 39.4068ZM154.706 39.4055L154.706 39.4055L154.883 38.4213L154.882 38.4213L154.706 39.4055ZM154.712 39.4066L154.713 39.4068L154.875 38.42L154.874 38.4197L154.712 39.4066ZM154.71 39.4063L154.711 39.4064L154.875 38.42L154.875 38.4199L154.71 39.4063ZM150.783 38.7841C152.234 39.0002 153.51 39.2095 154.712 39.4065L154.873 38.4197C153.673 38.2228 152.389 38.0123 150.931 37.7951L150.783 38.7841ZM137.796 36.3395C141.71 37.1751 145.704 38.0277 150.783 38.7841L150.931 37.7951C145.885 37.0436 141.919 36.197 138.004 35.3615L137.796 36.3395ZM123.265 33.7146C129.007 34.4636 133.351 35.3906 137.796 36.3395L138.004 35.3615C133.558 34.4124 129.18 33.4777 123.395 32.723L123.265 33.7146ZM82.7696 31.5456C98.6162 31.3617 107.563 31.6665 123.265 33.7146L123.395 32.723C107.634 30.6673 98.6388 30.3614 82.758 30.5457L82.7696 31.5456ZM55.6691 33.1486C62.6971 32.5384 74.2784 31.6442 82.7696 31.5456L82.758 30.5457C74.2255 30.6447 62.6109 31.5421 55.5826 32.1523L55.6691 33.1486ZM43.3566 34.5356C47.4486 33.9598 51.5504 33.5062 55.6691 33.1486L55.5826 32.1523C51.4483 32.5113 47.3287 32.9668 43.2173 33.5453L43.3566 34.5356ZM26.7283 37.3296C31.767 36.2465 38.5109 35.2174 43.3566 34.5356L43.2173 33.5453C38.3692 34.2275 31.5947 35.2607 26.5182 36.352L26.7283 37.3296ZM20.13 89.358C18.4646 78.468 19.3357 67.7689 20.8213 61.1709L19.8458 60.9513C18.3344 67.6639 17.4561 78.4889 19.1415 89.5092L20.13 89.358ZM33.9046 123.548C24.9857 115.627 22.3297 103.741 20.13 89.358L19.1415 89.5092C21.3361 103.859 24.0185 116.105 33.2406 124.296L33.9046 123.548ZM48.3588 131.681C41.5605 130.056 37.8397 127.043 33.9046 123.548L33.2406 124.296C37.2174 127.828 41.0877 130.971 48.1263 132.654L48.3588 131.681ZM67.0812 134.269C67.0975 133.77 67.0975 133.77 67.0974 133.77C67.0973 133.77 67.0972 133.77 67.0971 133.77C67.0968 133.77 67.0963 133.769 67.0956 133.769C67.0943 133.769 67.0923 133.769 67.0895 133.769C67.0841 133.769 67.0759 133.769 67.0649 133.768C67.043 133.768 67.0103 133.767 66.9671 133.765C66.8809 133.762 66.7531 133.757 66.5877 133.75C66.257 133.736 65.7761 133.715 65.1762 133.684C63.9763 133.621 62.3016 133.52 60.4028 133.366C56.5978 133.056 51.92 132.533 48.3588 131.681L48.1263 132.654C51.766 133.524 56.5075 134.052 60.3216 134.362C62.2323 134.518 63.9171 134.62 65.1243 134.682C65.728 134.714 66.2125 134.735 66.5464 134.749C66.7133 134.756 66.8426 134.761 66.9303 134.764C66.9742 134.766 67.0077 134.767 67.0302 134.768C67.0415 134.768 67.0501 134.769 67.0559 134.769C67.0588 134.769 67.061 134.769 67.0625 134.769C67.0632 134.769 67.0638 134.769 67.0642 134.769C67.0644 134.769 67.0646 134.769 67.0647 134.769C67.0648 134.769 67.0649 134.769 67.0812 134.269ZM89.4085 133.769H67.0812V134.769H89.4085V133.769ZM114.275 127.882C108.771 131.082 102.563 132.557 97.7125 133.23C95.2905 133.566 93.2148 133.701 91.746 133.752C91.0118 133.777 90.4296 133.781 90.0323 133.78C89.8336 133.779 89.6811 133.776 89.579 133.774C89.5279 133.773 89.4894 133.772 89.464 133.771C89.4513 133.77 89.4419 133.77 89.4358 133.77C89.4327 133.77 89.4305 133.77 89.4292 133.77C89.4285 133.77 89.428 133.77 89.4277 133.77C89.4276 133.77 89.4276 133.77 89.4275 133.77C89.4275 133.77 89.4276 133.77 89.4085 134.269C89.3893 134.769 89.3895 134.769 89.3897 134.769C89.3899 134.769 89.3902 134.769 89.3904 134.769C89.391 134.769 89.3918 134.769 89.3928 134.769C89.3949 134.769 89.3977 134.769 89.4014 134.769C89.4088 134.77 89.4196 134.77 89.4336 134.77C89.4617 134.771 89.5029 134.772 89.5568 134.774C89.6645 134.776 89.8228 134.779 90.0275 134.78C90.4368 134.782 91.0321 134.777 91.7806 134.751C93.2771 134.699 95.3878 134.562 97.8499 134.221C102.768 133.538 109.118 132.037 114.778 128.747L114.275 127.882ZM126.645 111.886C125.566 113.951 123.912 117.119 121.796 120.196C119.675 123.282 117.125 126.226 114.275 127.882L114.778 128.747C117.821 126.978 120.473 123.887 122.62 120.763C124.774 117.63 126.454 114.412 127.531 112.349L126.645 111.886ZM127.344 110.561C127.148 110.922 126.913 111.372 126.645 111.886L127.531 112.349C127.801 111.832 128.031 111.391 128.223 111.04L127.344 110.561ZM134.977 89.2986C132.585 97.8305 129.06 107.411 127.344 110.561L128.223 111.04C129.995 107.785 133.545 98.114 135.94 89.5685L134.977 89.2986ZM139.994 68.0664C139.499 67.9961 139.499 67.9961 139.499 67.9961C139.499 67.9962 139.499 67.9963 139.499 67.9964C139.499 67.9967 139.499 67.9971 139.499 67.9977C139.499 67.9989 139.499 68.0007 139.498 68.0032C139.498 68.0081 139.496 68.0155 139.495 68.0255C139.492 68.0453 139.488 68.0752 139.482 68.1146C139.47 68.1936 139.453 68.3111 139.43 68.4647C139.383 68.7719 139.313 69.2235 139.22 69.7995C139.033 70.9516 138.751 72.6013 138.375 74.5894C137.623 78.5667 136.492 83.8935 134.977 89.2986L135.94 89.5685C137.465 84.1265 138.602 78.7697 139.358 74.7752C139.736 72.7775 140.018 71.1192 140.207 69.9598C140.301 69.3801 140.371 68.925 140.418 68.6146C140.442 68.4594 140.46 68.3403 140.471 68.2598C140.477 68.2196 140.482 68.189 140.485 68.1684C140.486 68.1581 140.487 68.1503 140.488 68.145C140.489 68.1424 140.489 68.1403 140.489 68.139C140.489 68.1383 140.489 68.1378 140.489 68.1374C140.489 68.1372 140.489 68.1371 140.489 68.137C140.489 68.1369 140.489 68.1368 139.994 68.0664ZM136.809 47.7086C137.966 49.1836 138.729 51.1727 139.211 53.3646C139.693 55.5514 139.887 57.9049 139.93 60.0791C139.974 62.2516 139.866 64.2332 139.747 65.6721C139.687 66.3912 139.625 66.9737 139.578 67.3757C139.555 67.5767 139.535 67.7324 139.521 67.8374C139.514 67.8899 139.509 67.9297 139.505 67.9562C139.503 67.9694 139.502 67.9793 139.501 67.9857C139.5 67.989 139.5 67.9913 139.5 67.9928C139.5 67.9936 139.5 67.9941 139.5 67.9944C139.499 67.9946 139.499 67.9946 139.499 67.9947C139.499 67.9947 139.499 67.9947 139.994 68.0664C140.489 68.1382 140.489 68.138 140.489 68.1378C140.489 68.1377 140.489 68.1374 140.489 68.1371C140.489 68.1366 140.489 68.1358 140.49 68.1348C140.49 68.1328 140.49 68.1299 140.491 68.1261C140.492 68.1187 140.493 68.1077 140.495 68.0934C140.499 68.0649 140.505 68.0229 140.512 67.9681C140.527 67.8586 140.547 67.6981 140.571 67.4921C140.62 67.0802 140.683 66.4862 140.743 65.7545C140.864 64.2918 140.974 62.2747 140.93 60.0592C140.886 57.8455 140.688 55.4218 140.188 53.1496C139.689 50.8825 138.882 48.7311 137.596 47.0915L136.809 47.7086ZM123.597 40.7448C123.499 41.235 123.499 41.235 123.499 41.235C123.499 41.235 123.499 41.235 123.499 41.235C123.499 41.2351 123.5 41.2351 123.5 41.2352C123.501 41.2354 123.503 41.2357 123.505 41.2362C123.509 41.2371 123.516 41.2384 123.525 41.2403C123.543 41.244 123.57 41.2496 123.605 41.2573C123.677 41.2725 123.783 41.2957 123.921 41.327C124.195 41.3895 124.593 41.4843 125.082 41.6126C126.061 41.8694 127.403 42.2596 128.857 42.7933C131.791 43.8708 135.074 45.4958 136.809 47.7086L137.596 47.0915C135.675 44.6417 132.155 42.9391 129.201 41.8546C127.71 41.3072 126.337 40.9079 125.336 40.6453C124.835 40.514 124.427 40.4166 124.143 40.352C124.001 40.3196 123.89 40.2955 123.814 40.2793C123.776 40.2712 123.747 40.2651 123.727 40.261C123.717 40.2589 123.709 40.2573 123.704 40.2562C123.701 40.2557 123.699 40.2553 123.698 40.255C123.697 40.2549 123.697 40.2547 123.696 40.2547C123.696 40.2546 123.696 40.2546 123.696 40.2545C123.695 40.2545 123.695 40.2545 123.597 40.7448ZM89.4015 38.4425C101.247 38.6062 109.776 39.3057 115.34 39.9631C118.122 40.2919 120.162 40.61 121.505 40.8455C122.176 40.9632 122.673 41.0602 123 41.1276C123.164 41.1612 123.286 41.1875 123.366 41.2051C123.406 41.214 123.436 41.2207 123.455 41.2251C123.465 41.2273 123.472 41.2289 123.476 41.23C123.478 41.2305 123.48 41.2309 123.481 41.2311C123.482 41.2312 123.482 41.2313 123.482 41.2313C123.482 41.2314 123.482 41.2314 123.482 41.2314C123.482 41.2314 123.482 41.2313 123.597 40.7448C123.712 40.2582 123.712 40.2581 123.712 40.2581C123.712 40.2581 123.711 40.258 123.711 40.2579C123.711 40.2578 123.71 40.2577 123.709 40.2575C123.708 40.2571 123.706 40.2566 123.703 40.2559C123.697 40.2546 123.689 40.2527 123.678 40.2502C123.656 40.2452 123.624 40.238 123.582 40.2286C123.497 40.2099 123.37 40.1827 123.202 40.148C122.864 40.0787 122.358 39.9799 121.678 39.8605C120.316 39.6218 118.257 39.3009 115.457 38.97C109.858 38.3083 101.293 37.6067 89.4154 37.4426L89.4015 38.4425ZM48.3219 41.2384C57.0183 39.8413 73.3214 38.2202 89.4015 38.4425L89.4154 37.4426C73.2722 37.2195 56.9112 38.8457 48.1632 40.2511L48.3219 41.2384ZM47.6216 41.3486C47.8813 41.3081 48.1163 41.2714 48.3219 41.2384L48.1632 40.2511C47.9604 40.2837 47.7279 40.3199 47.4674 40.3606L47.6216 41.3486ZM27.666 48.4524C29.9645 46.1312 33.8568 44.5127 37.7744 43.3921C41.6723 42.2771 45.5057 41.6787 47.6216 41.3486L47.4674 40.3606C45.3521 40.6906 41.4633 41.2968 37.4994 42.4306C33.5552 43.5588 29.4463 45.2333 26.9555 47.7488L27.666 48.4524ZM20.8213 61.1709C21.2875 59.1003 22.6814 53.4865 27.666 48.4524L26.9555 47.7488C21.7727 52.9829 20.326 58.8185 19.8458 60.9513L20.8213 61.1709ZM5.11582 49.5178C5.11582 50.7941 6.15049 51.8288 7.42681 51.8288V50.8288C6.70277 50.8288 6.11582 50.2418 6.11582 49.5178H5.11582ZM7.42681 47.2068C6.15049 47.2068 5.11582 48.2414 5.11582 49.5178H6.11582C6.11582 48.7937 6.70277 48.2068 7.42681 48.2068V47.2068ZM9.73779 49.5178C9.73779 48.2414 8.70313 47.2068 7.42681 47.2068V48.2068C8.15084 48.2068 8.73779 48.7937 8.73779 49.5178H9.73779ZM7.42681 51.8288C8.70313 51.8288 9.73779 50.7941 9.73779 49.5178H8.73779C8.73779 50.2418 8.15084 50.8288 7.42681 50.8288V51.8288ZM7.42688 60.6079C6.70285 60.6079 6.1159 60.0209 6.1159 59.2969H5.1159C5.1159 60.5732 6.15056 61.6079 7.42688 61.6079V60.6079ZM8.73787 59.2969C8.73787 60.0209 8.15092 60.6079 7.42688 60.6079V61.6079C8.70321 61.6079 9.73787 60.5732 9.73787 59.2969H8.73787ZM7.42688 57.9859C8.15092 57.9859 8.73787 58.5728 8.73787 59.2969H9.73787C9.73787 58.0206 8.70321 56.9859 7.42688 56.9859V57.9859ZM6.1159 59.2969C6.1159 58.5728 6.70285 57.9859 7.42688 57.9859V56.9859C6.15056 56.9859 5.1159 58.0206 5.1159 59.2969H6.1159ZM314.172 89.5092C315.858 78.4889 314.98 67.6639 313.468 60.9513L312.493 61.1709C313.978 67.7689 314.849 78.468 313.184 89.358L314.172 89.5092ZM300.073 124.296C309.295 116.105 311.978 103.859 314.172 89.5092L313.184 89.358C310.984 103.741 308.328 115.627 299.409 123.548L300.073 124.296ZM285.188 132.654C292.226 130.971 296.097 127.828 300.073 124.296L299.409 123.548C295.474 127.043 291.753 130.056 284.955 131.681L285.188 132.654ZM266.233 134.269C266.249 134.769 266.249 134.769 266.249 134.769C266.249 134.769 266.25 134.769 266.25 134.769C266.25 134.769 266.251 134.769 266.251 134.769C266.253 134.769 266.255 134.769 266.258 134.769C266.264 134.769 266.272 134.768 266.284 134.768C266.306 134.767 266.34 134.766 266.384 134.764C266.471 134.761 266.601 134.756 266.768 134.749C267.101 134.735 267.586 134.714 268.19 134.682C269.397 134.62 271.082 134.518 272.992 134.362C276.807 134.052 281.548 133.524 285.188 132.654L284.955 131.681C281.394 132.533 276.716 133.056 272.911 133.366C271.012 133.52 269.338 133.621 268.138 133.684C267.538 133.715 267.057 133.736 266.726 133.75C266.561 133.757 266.433 133.762 266.347 133.765C266.304 133.767 266.271 133.768 266.249 133.768C266.238 133.769 266.23 133.769 266.224 133.769C266.222 133.769 266.22 133.769 266.218 133.769C266.218 133.769 266.217 133.77 266.217 133.77C266.217 133.77 266.217 133.77 266.217 133.77C266.216 133.77 266.216 133.77 266.233 134.269ZM243.906 134.769H266.233V133.769H243.906V134.769ZM218.536 128.747C224.196 132.037 230.546 133.538 235.464 134.221C237.926 134.562 240.037 134.699 241.533 134.751C242.282 134.777 242.877 134.782 243.287 134.78C243.491 134.779 243.649 134.776 243.757 134.774C243.811 134.772 243.852 134.771 243.88 134.77C243.894 134.77 243.905 134.77 243.913 134.769C243.916 134.769 243.919 134.769 243.921 134.769C243.922 134.769 243.923 134.769 243.924 134.769C243.924 134.769 243.924 134.769 243.924 134.769C243.924 134.769 243.925 134.769 243.906 134.269C243.886 133.77 243.886 133.77 243.886 133.77C243.886 133.77 243.886 133.77 243.886 133.77C243.886 133.77 243.885 133.77 243.885 133.77C243.883 133.77 243.881 133.77 243.878 133.77C243.872 133.77 243.863 133.77 243.85 133.771C243.825 133.772 243.786 133.773 243.735 133.774C243.633 133.776 243.48 133.779 243.282 133.78C242.884 133.781 242.302 133.777 241.568 133.752C240.099 133.701 238.023 133.566 235.602 133.23C230.751 132.557 224.543 131.082 219.039 127.882L218.536 128.747ZM205.783 112.349C206.86 114.412 208.54 117.63 210.693 120.763C212.841 123.887 215.493 126.978 218.536 128.747L219.039 127.882C216.189 126.226 213.639 123.282 211.518 120.196C209.402 117.119 207.748 113.951 206.669 111.886L205.783 112.349ZM205.091 111.04C205.283 111.391 205.513 111.832 205.783 112.349L206.669 111.886C206.401 111.372 206.166 110.922 205.97 110.561L205.091 111.04ZM197.374 89.5685C199.769 98.114 203.319 107.785 205.091 111.04L205.97 110.561C204.254 107.411 200.729 97.8305 198.337 89.2986L197.374 89.5685ZM193.32 68.0664C192.825 68.1368 192.825 68.1369 192.825 68.137C192.825 68.1371 192.825 68.1372 192.825 68.1374C192.825 68.1378 192.825 68.1383 192.825 68.139C192.825 68.1403 192.825 68.1424 192.826 68.145C192.827 68.1503 192.828 68.1581 192.829 68.1684C192.832 68.189 192.837 68.2196 192.842 68.2598C192.854 68.3403 192.872 68.4594 192.896 68.6146C192.943 68.925 193.013 69.3801 193.107 69.9598C193.296 71.1192 193.578 72.7775 193.956 74.7752C194.712 78.7697 195.849 84.1265 197.374 89.5685L198.337 89.2986C196.822 83.8935 195.691 78.5667 194.939 74.5894C194.563 72.6013 194.281 70.9516 194.094 69.7995C194.001 69.2235 193.931 68.7719 193.884 68.4647C193.861 68.3111 193.843 68.1936 193.832 68.1146C193.826 68.0752 193.822 68.0453 193.819 68.0255C193.817 68.0155 193.816 68.0081 193.816 68.0032C193.815 68.0007 193.815 67.9989 193.815 67.9977C193.815 67.9971 193.815 67.9967 193.815 67.9964C193.815 67.9963 193.815 67.9962 193.815 67.9961C193.815 67.9961 193.815 67.9961 193.32 68.0664ZM195.718 47.0915C194.432 48.7311 193.625 50.8825 193.126 53.1496C192.626 55.4218 192.428 57.8455 192.384 60.0592C192.34 62.2747 192.45 64.2918 192.571 65.7545C192.631 66.4862 192.694 67.0802 192.743 67.4921C192.767 67.6981 192.787 67.8586 192.802 67.9681C192.809 68.0229 192.815 68.0649 192.819 68.0934C192.821 68.1077 192.822 68.1187 192.823 68.1261C192.824 68.1299 192.824 68.1328 192.824 68.1348C192.824 68.1358 192.825 68.1366 192.825 68.1371C192.825 68.1374 192.825 68.1377 192.825 68.1378C192.825 68.138 192.825 68.1382 193.32 68.0664C193.814 67.9947 193.814 67.9947 193.814 67.9947C193.814 67.9946 193.814 67.9946 193.814 67.9944C193.814 67.9941 193.814 67.9936 193.814 67.9928C193.814 67.9913 193.814 67.9889 193.813 67.9857C193.812 67.9793 193.811 67.9694 193.809 67.9562C193.805 67.9297 193.8 67.8899 193.793 67.8374C193.779 67.7324 193.759 67.5767 193.736 67.3757C193.689 66.9737 193.627 66.3912 193.567 65.6721C193.448 64.2332 193.34 62.2516 193.384 60.0791C193.427 57.9049 193.621 55.5514 194.103 53.3646C194.585 51.1727 195.348 49.1836 196.505 47.7086L195.718 47.0915ZM209.717 40.7448C209.619 40.2545 209.619 40.2545 209.618 40.2545C209.618 40.2546 209.618 40.2546 209.618 40.2547C209.617 40.2547 209.617 40.2549 209.616 40.255C209.615 40.2553 209.613 40.2557 209.61 40.2562C209.605 40.2573 209.597 40.2589 209.587 40.261C209.567 40.2651 209.538 40.2712 209.5 40.2793C209.424 40.2955 209.313 40.3196 209.171 40.352C208.887 40.4166 208.479 40.514 207.978 40.6453C206.977 40.9079 205.604 41.3072 204.113 41.8546C201.159 42.9391 197.639 44.6417 195.718 47.0915L196.505 47.7086C198.24 45.4958 201.523 43.8708 204.457 42.7933C205.911 42.2596 207.253 41.8694 208.232 41.6126C208.721 41.4843 209.119 41.3895 209.393 41.327C209.53 41.2957 209.637 41.2725 209.709 41.2573C209.744 41.2496 209.771 41.244 209.789 41.2403C209.798 41.2384 209.805 41.2371 209.809 41.2362C209.811 41.2357 209.813 41.2354 209.814 41.2352C209.814 41.2351 209.815 41.2351 209.815 41.235C209.815 41.235 209.815 41.235 209.815 41.235C209.815 41.235 209.815 41.235 209.717 40.7448ZM243.899 37.4426C232.021 37.6067 223.456 38.3083 217.857 38.97C215.057 39.3009 212.998 39.6218 211.636 39.8605C210.956 39.9799 210.45 40.0787 210.112 40.148C209.944 40.1827 209.817 40.2099 209.732 40.2286C209.69 40.238 209.658 40.2452 209.636 40.2502C209.625 40.2527 209.617 40.2546 209.611 40.2559C209.608 40.2566 209.606 40.2571 209.605 40.2575C209.604 40.2577 209.603 40.2578 209.603 40.2579C209.603 40.258 209.602 40.2581 209.602 40.2581C209.602 40.2581 209.602 40.2582 209.717 40.7448C209.832 41.2313 209.832 41.2314 209.832 41.2314C209.832 41.2314 209.832 41.2314 209.832 41.2313C209.832 41.2313 209.832 41.2312 209.833 41.2311C209.834 41.2309 209.835 41.2305 209.838 41.23C209.842 41.2289 209.849 41.2273 209.859 41.2251C209.878 41.2207 209.908 41.214 209.948 41.2051C210.028 41.1875 210.15 41.1612 210.314 41.1276C210.641 41.0602 211.138 40.9632 211.809 40.8455C213.152 40.61 215.192 40.2919 217.974 39.9631C223.538 39.3057 232.067 38.6062 243.912 38.4425L243.899 37.4426ZM285.151 40.2511C276.403 38.8457 260.042 37.2195 243.899 37.4426L243.912 38.4425C259.993 38.2202 276.296 39.8413 284.992 41.2384L285.151 40.2511ZM285.844 40.3602C285.585 40.3197 285.353 40.2836 285.151 40.2511L284.992 41.2384C285.197 41.2714 285.431 41.3079 285.69 41.3483L285.844 40.3602ZM285.846 40.3605L285.844 40.3602L285.691 41.3484L285.693 41.3487L285.846 40.3605ZM306.359 47.7488C303.868 45.2333 299.759 43.5588 295.815 42.4306C291.851 41.2968 287.962 40.6906 285.847 40.3606L285.692 41.3486C287.808 41.6787 291.642 42.2771 295.54 43.3921C299.457 44.5127 303.349 46.1312 305.648 48.4524L306.359 47.7488ZM313.468 60.9513C312.988 58.8185 311.541 52.9829 306.359 47.7488L305.648 48.4524C310.633 53.4865 312.026 59.1003 312.493 61.1709L313.468 60.9513ZM327.198 49.5178C327.198 50.2418 326.611 50.8288 325.887 50.8288V51.8288C327.163 51.8288 328.198 50.7941 328.198 49.5178H327.198ZM325.887 48.2068C326.611 48.2068 327.198 48.7937 327.198 49.5178H328.198C328.198 48.2414 327.163 47.2068 325.887 47.2068V48.2068ZM324.576 49.5178C324.576 48.7937 325.163 48.2068 325.887 48.2068V47.2068C324.611 47.2068 323.576 48.2414 323.576 49.5178H324.576ZM325.887 50.8288C325.163 50.8288 324.576 50.2418 324.576 49.5178H323.576C323.576 50.7941 324.611 51.8288 325.887 51.8288V50.8288ZM325.887 61.6078C327.163 61.6078 328.198 60.5732 328.198 59.2968H327.198C327.198 60.0209 326.611 60.6078 325.887 60.6078V61.6078ZM323.576 59.2968C323.576 60.5731 324.611 61.6078 325.887 61.6078V60.6078C325.163 60.6078 324.576 60.0209 324.576 59.2968H323.576ZM325.887 56.9858C324.611 56.9858 323.576 58.0205 323.576 59.2968H324.576C324.576 58.5728 325.163 57.9858 325.887 57.9858V56.9858ZM328.198 59.2968C328.198 58.0205 327.163 56.9858 325.887 56.9858V57.9858C326.611 57.9858 327.198 58.5728 327.198 59.2968H328.198Z" fill="#767678" mask="url(#path-1-inside-1_1074_3671)"/>
<path d="M0.823223 170.823C0.725592 170.921 0.725592 171.079 0.823223 171.177L2.41421 172.768C2.51184 172.865 2.67014 172.865 2.76777 172.768C2.8654 172.67 2.8654 172.512 2.76777 172.414L1.35355 171L2.76777 169.586C2.8654 169.488 2.8654 169.33 2.76777 169.232C2.67014 169.135 2.51184 169.135 2.41421 169.232L0.823223 170.823ZM332.177 171.177C332.274 171.079 332.274 170.921 332.177 170.823L330.586 169.232C330.488 169.135 330.33 169.135 330.232 169.232C330.135 169.33 330.135 169.488 330.232 169.586L331.646 171L330.232 172.414C330.135 172.512 330.135 172.67 330.232 172.768C330.33 172.865 330.488 172.865 330.586 172.768L332.177 171.177ZM1 171.25L332 171.25V170.75L1 170.75L1 171.25Z" fill="#767678"/>
<path d="M140.823 1.82322C140.726 1.92085 140.726 2.07915 140.823 2.17678L142.414 3.76777C142.512 3.8654 142.67 3.8654 142.768 3.76777C142.865 3.67014 142.865 3.51184 142.768 3.41421L141.354 2L142.768 0.585786C142.865 0.488155 142.865 0.329864 142.768 0.232233C142.67 0.134602 142.512 0.134602 142.414 0.232233L140.823 1.82322ZM193.177 2.17678C193.274 2.07915 193.274 1.92085 193.177 1.82322L191.586 0.232233C191.488 0.134602 191.33 0.134602 191.232 0.232233C191.135 0.329864 191.135 0.488155 191.232 0.585786L192.646 2L191.232 3.41421C191.135 3.51184 191.135 3.67014 191.232 3.76777C191.33 3.8654 191.488 3.8654 191.586 3.76777L193.177 2.17678ZM141 2.25H193V1.75H141V2.25Z" fill="#767678"/>
</svg>
