<svg width="332" height="142" viewBox="0 0 332 142" fill="none" xmlns="http://www.w3.org/2000/svg">
<mask id="path-1-inside-1_1074_3672" fill="white">
<path fill-rule="evenodd" clip-rule="evenodd" d="M25.6233 5.84081C17.3185 7.62605 5.49084 11.3059 1.3813 12.6121C0.511893 12.8884 -0.0529686 13.721 0.00393705 14.6315L1.26134 34.75C1.32089 35.7027 1.83027 36.5702 2.63323 37.0864L4.82324 38.4943C5.85603 39.1582 6.60843 40.1789 6.93704 41.3619L8.2378 46.0447C8.2378 46.0447 11.2679 65.8513 14.3952 78.2803C14.5321 78.8244 14.6762 79.3824 14.8265 79.9516C19.1823 96.4432 33.7641 108.069 50.7312 109.819C56.6417 110.429 61.9455 110.878 64.7406 110.878H82.8504L93.508 110.585C111.268 110.096 127.334 99.9215 135.369 84.0754C135.369 84.0754 143.381 66.684 146.959 58.7216C149.467 53.1421 151.807 47.4174 153.294 43.6889C154.291 41.1884 153.597 38.3419 151.585 36.5535C150.063 35.2011 150.389 32.7397 152.209 31.8294L152.291 31.7888C154.025 30.9217 155.937 30.4702 157.876 30.4702H173.438C175.377 30.4702 177.29 30.9217 179.024 31.7888L179.105 31.8294C180.926 32.7397 181.251 35.2011 179.73 36.5535C177.718 38.3419 177.023 41.1884 178.02 43.6889C179.507 47.4174 181.847 53.1421 184.355 58.7216C187.934 66.684 195.945 84.0754 195.945 84.0754C203.98 99.9215 220.047 110.096 237.806 110.585L248.464 110.878H266.574C269.369 110.878 274.673 110.429 280.583 109.819C297.55 108.069 312.132 96.4432 316.488 79.9516C316.638 79.3824 316.782 78.8244 316.919 78.2803C320.047 65.8513 323.077 46.0447 323.077 46.0447L324.377 41.3619C324.706 40.1789 325.458 39.1582 326.491 38.4943L328.681 37.0864C329.484 36.5702 329.994 35.7027 330.053 34.75L331.311 14.6315C331.367 13.721 330.803 12.8884 329.933 12.6121C325.824 11.3059 313.996 7.62605 305.691 5.84081C300.634 4.75359 293.874 3.72244 289.027 3.04046C284.926 2.46334 280.815 2.00873 276.689 1.65045C269.66 1.04025 258.063 0.144441 249.551 0.0456564C233.687 -0.138448 224.716 0.166878 208.985 2.21884C203.221 2.97067 198.86 3.90149 194.414 4.85047C190.5 5.68603 186.52 6.53567 181.458 7.2896C180.003 7.50624 178.723 7.71614 177.522 7.91311L177.522 7.91316L177.52 7.91338L177.52 7.91341C174.295 8.44243 171.638 8.87817 167.694 9.10059C167.06 9.13636 166.37 9.16105 165.657 9.17723C164.944 9.16105 164.255 9.13636 163.62 9.10059C159.677 8.87817 157.02 8.44243 153.794 7.91341L153.794 7.91338L153.793 7.91316L153.792 7.91311C152.591 7.71614 151.311 7.50624 149.857 7.2896C144.795 6.53567 140.814 5.68603 136.9 4.85047C132.454 3.90149 128.094 2.97067 122.33 2.21884C106.598 0.166878 97.6275 -0.138448 81.7638 0.0456564C73.2519 0.144441 61.654 1.04025 54.6259 1.65045C50.4993 2.00873 46.3886 2.46334 42.287 3.04046C37.44 3.72244 30.6809 4.75359 25.6233 5.84081ZM19.3335 30.0611C17.835 36.7164 16.9603 47.4785 18.6357 58.4336C20.8329 72.8002 23.5021 84.8657 32.5726 92.9221C36.5285 96.4358 40.3241 99.5134 47.2426 101.168C54.4434 102.889 66.0812 103.269 66.0812 103.269H88.4085C88.4085 103.269 102.363 103.804 113.527 97.3145C119.419 93.8897 123.932 85.2453 126.088 81.1176C126.357 80.6017 126.59 80.1564 126.783 79.8006C128.528 76.5982 132.065 66.9723 134.458 58.4336C137.499 47.5864 138.994 37.0664 138.994 37.0664C138.994 37.0664 141.087 22.6292 136.203 16.4001C132.547 11.7375 122.597 9.74475 122.597 9.74475C122.597 9.74475 112.131 7.27039 88.4085 6.94252C72.2968 6.71984 55.9648 8.34354 47.2426 9.74475C47.0383 9.77756 46.8046 9.81402 46.5445 9.8546C42.3133 10.5146 31.1 12.2639 26.3107 17.1006C21.227 22.2347 19.8068 27.9594 19.3335 30.0611ZM6.42681 20.3288C5.42663 20.3288 4.61582 19.5179 4.61582 18.5178C4.61582 17.5176 5.42663 16.7068 6.42681 16.7068C7.42699 16.7068 8.23779 17.5176 8.23779 18.5178C8.23779 19.5179 7.42699 20.3288 6.42681 20.3288ZM4.61582 28.2971C4.61582 29.2972 5.42663 30.1081 6.42681 30.1081C7.42699 30.1081 8.23779 29.2972 8.23779 28.2971C8.23779 27.2969 7.42699 26.4861 6.42681 26.4861C5.42663 26.4861 4.61582 27.2969 4.61582 28.2971ZM311.981 30.0611C313.479 36.7164 314.354 47.4785 312.679 58.4336C310.482 72.8002 307.812 84.8657 298.742 92.9221C294.786 96.4358 290.99 99.5134 284.072 101.168C276.871 102.889 265.233 103.269 265.233 103.269H242.906C242.906 103.269 228.951 103.804 217.788 97.3145C211.896 93.8897 207.382 85.2453 205.227 81.1176C204.957 80.6017 204.725 80.1564 204.531 79.8006C202.787 76.5982 199.249 66.9723 196.856 58.4336C193.815 47.5864 192.32 37.0664 192.32 37.0664C192.32 37.0664 190.227 22.6292 195.112 16.4001C198.768 11.7375 208.717 9.74475 208.717 9.74475C208.717 9.74475 219.183 7.27039 242.906 6.94252C259.018 6.71984 275.35 8.34354 284.072 9.74475C284.276 9.77747 284.509 9.81382 284.768 9.85426L284.77 9.8546C289.001 10.5146 300.214 12.2639 305.004 17.1006C310.087 22.2347 311.508 27.9594 311.981 30.0611ZM324.887 20.3288C325.887 20.3288 326.698 19.5179 326.698 18.5178C326.698 17.5176 325.887 16.7068 324.887 16.7068C323.886 16.7068 323.076 17.5176 323.076 18.5178C323.076 19.5179 323.886 20.3288 324.887 20.3288ZM326.698 28.2971C326.698 29.2972 325.887 30.1081 324.887 30.1081C323.886 30.1081 323.076 29.2972 323.076 28.2971C323.076 27.2969 323.886 26.4861 324.887 26.4861C325.887 26.4861 326.698 27.2969 326.698 28.2971Z"/>
</mask>
<path d="M1.3813 12.6121L1.22985 12.1356H1.22985L1.3813 12.6121ZM25.6233 5.84081L25.7283 6.32964L25.6233 5.84081ZM0.00393705 14.6315L-0.495089 14.6627L0.00393705 14.6315ZM1.26134 34.75L0.762317 34.7812L1.26134 34.75ZM2.63323 37.0864L2.36285 37.507L2.63323 37.0864ZM4.82324 38.4943L4.55286 38.9149H4.55286L4.82324 38.4943ZM6.93704 41.3619L6.45528 41.4958L6.93704 41.3619ZM8.2378 46.0447L8.73205 45.9691L8.72754 45.9396L8.71956 45.9109L8.2378 46.0447ZM14.3952 78.2803L13.9103 78.4023L14.3952 78.2803ZM14.8265 79.9516L15.31 79.8239L14.8265 79.9516ZM50.7312 109.819L50.7826 109.322L50.7312 109.819ZM82.8504 110.878V111.378L82.8642 111.378L82.8504 110.878ZM93.508 110.585L93.5218 111.084L93.508 110.585ZM135.369 84.0754L135.815 84.3015L135.819 84.2931L135.823 84.2846L135.369 84.0754ZM146.959 58.7216L146.503 58.5166L146.959 58.7216ZM153.294 43.6889L153.759 43.8741L153.294 43.6889ZM151.585 36.5535L151.917 36.1798V36.1798L151.585 36.5535ZM152.209 31.8294L152.433 32.2766L152.433 32.2766L152.209 31.8294ZM152.291 31.7888L152.067 31.3416L152.067 31.3416L152.291 31.7888ZM179.024 31.7888L179.248 31.3416L179.248 31.3416L179.024 31.7888ZM179.105 31.8294L178.881 32.2766L178.881 32.2766L179.105 31.8294ZM179.73 36.5535L179.398 36.1798V36.1798L179.73 36.5535ZM178.02 43.6889L177.556 43.8741L178.02 43.6889ZM184.355 58.7216L184.811 58.5166L184.355 58.7216ZM195.945 84.0754L195.491 84.2846L195.495 84.2931L195.499 84.3015L195.945 84.0754ZM237.806 110.585L237.793 111.084L237.806 110.585ZM248.464 110.878L248.45 111.378H248.464V110.878ZM280.583 109.819L280.635 110.316L280.583 109.819ZM316.488 79.9516L316.971 80.0793L316.488 79.9516ZM316.919 78.2803L317.404 78.4023V78.4023L316.919 78.2803ZM323.077 46.0447L322.595 45.9109L322.587 45.9396L322.582 45.9691L323.077 46.0447ZM324.377 41.3619L323.896 41.2281V41.2281L324.377 41.3619ZM326.491 38.4943L326.221 38.0737V38.0737L326.491 38.4943ZM328.681 37.0864L328.411 36.6658V36.6658L328.681 37.0864ZM330.053 34.75L329.554 34.7188V34.7188L330.053 34.75ZM331.311 14.6315L330.811 14.6003V14.6003L331.311 14.6315ZM329.933 12.6121L329.782 13.0886L329.933 12.6121ZM305.691 5.84081L305.796 5.35198L305.691 5.84081ZM289.027 3.04046L288.958 3.53558L289.027 3.04046ZM276.689 1.65045L276.732 1.15233L276.689 1.65045ZM249.551 0.0456564L249.545 0.545623L249.551 0.0456564ZM208.985 2.21884L209.049 2.71464L208.985 2.21884ZM194.414 4.85047L194.519 5.33945L194.414 4.85047ZM181.458 7.2896L181.531 7.78415L181.458 7.2896ZM177.522 7.91311L177.441 7.4197L177.44 7.41992L177.522 7.91311ZM177.522 7.91316L177.603 8.40659L177.604 8.40636L177.522 7.91316ZM177.52 7.91338L177.44 7.41989L177.432 7.42126L177.52 7.91338ZM177.52 7.91341L177.601 8.40687L177.609 8.40553L177.52 7.91341ZM167.694 9.10059L167.666 8.60138L167.694 9.10059ZM165.657 9.17723L165.646 9.67711L165.657 9.67736L165.669 9.67711L165.657 9.17723ZM163.62 9.10059L163.649 8.60138L163.62 9.10059ZM153.794 7.91341L153.706 8.40558L153.713 8.40682L153.794 7.91341ZM153.794 7.91338L153.882 7.4212L153.875 7.41995L153.794 7.91338ZM153.793 7.91316L153.711 8.40636L153.712 8.40658L153.793 7.91316ZM153.792 7.91311L153.875 7.41991L153.873 7.4197L153.792 7.91311ZM149.857 7.2896L149.783 7.78415L149.857 7.2896ZM136.9 4.85047L136.796 5.33945L136.9 4.85047ZM122.33 2.21884L122.395 1.72304L122.33 2.21884ZM81.7638 0.0456564L81.758 -0.45431L81.7638 0.0456564ZM54.6259 1.65045L54.6691 2.14858L54.6259 1.65045ZM42.287 3.04046L42.3566 3.53558L42.287 3.04046ZM18.6357 58.4336L19.13 58.358L18.6357 58.4336ZM19.3335 30.0611L19.8213 30.1709L19.3335 30.0611ZM32.5726 92.9221L32.9046 92.5483L32.5726 92.9221ZM47.2426 101.168L47.1263 101.654L47.2426 101.168ZM66.0812 103.269L66.0649 103.769L66.073 103.769H66.0812V103.269ZM88.4085 103.269L88.4276 102.77L88.418 102.769H88.4085V103.269ZM113.527 97.3145L113.778 97.7468L113.527 97.3145ZM126.088 81.1176L126.531 81.349L126.088 81.1176ZM126.783 79.8006L127.223 80.0397L126.783 79.8006ZM134.458 58.4336L134.94 58.5685L134.458 58.4336ZM138.994 37.0664L138.499 36.9947L138.499 36.9961L138.994 37.0664ZM136.203 16.4001L136.596 16.0915L136.203 16.4001ZM122.597 9.74475L122.482 10.2313L122.49 10.2333L122.499 10.235L122.597 9.74475ZM88.4085 6.94252L88.4015 7.44247L88.4085 6.94252ZM47.2426 9.74475L47.3219 10.2384L47.2426 9.74475ZM46.5445 9.8546L46.6216 10.3486H46.6216L46.5445 9.8546ZM26.3107 17.1006L25.9555 16.7488L26.3107 17.1006ZM312.679 58.4336L313.173 58.5092L312.679 58.4336ZM311.981 30.0611L312.469 29.9513V29.9513L311.981 30.0611ZM298.742 92.9221L298.41 92.5483L298.742 92.9221ZM284.072 101.168L284.188 101.654L284.072 101.168ZM265.233 103.269V103.769H265.241L265.25 103.769L265.233 103.269ZM242.906 103.269V102.769H242.896L242.887 102.77L242.906 103.269ZM217.788 97.3145L217.537 97.7468L217.788 97.3145ZM205.227 81.1176L204.783 81.349L205.227 81.1176ZM204.531 79.8006L204.092 80.0397L204.531 79.8006ZM196.856 58.4336L196.375 58.5685L196.856 58.4336ZM192.32 37.0664L192.815 36.9961L192.815 36.9947L192.32 37.0664ZM195.112 16.4001L194.718 16.0915L195.112 16.4001ZM208.717 9.74475L208.816 10.235L208.824 10.2333L208.832 10.2313L208.717 9.74475ZM242.906 6.94252L242.913 7.44247L242.906 6.94252ZM284.072 9.74475L284.151 9.25108V9.25108L284.072 9.74475ZM284.768 9.85426L284.691 10.3483L284.691 10.3484L284.768 9.85426ZM284.77 9.8546L284.847 9.36057L284.847 9.36049L284.77 9.8546ZM305.004 17.1006L305.359 16.7488V16.7488L305.004 17.1006ZM1.53276 13.0886C5.64451 11.7818 17.4504 8.10912 25.7283 6.32964L25.5182 5.35198C17.1866 7.14298 5.33718 10.8301 1.22985 12.1356L1.53276 13.0886ZM0.502963 14.6003C0.460236 13.9167 0.883913 13.2948 1.53276 13.0886L1.22985 12.1356C0.139874 12.482 -0.566173 13.5254 -0.495089 14.6627L0.502963 14.6003ZM1.76037 34.7188L0.502963 14.6003L-0.495089 14.6627L0.762317 34.7812L1.76037 34.7188ZM2.90361 36.6658C2.23447 36.2357 1.80999 35.5127 1.76037 34.7188L0.762317 34.7812C0.831786 35.8927 1.42606 36.9048 2.36285 37.507L2.90361 36.6658ZM5.09361 38.0737L2.90361 36.6658L2.36285 37.507L4.55286 38.9149L5.09361 38.0737ZM7.4188 41.2281C7.05732 39.9268 6.22969 38.804 5.09361 38.0737L4.55286 38.9149C5.48237 39.5124 6.15953 40.4311 6.45528 41.4958L7.4188 41.2281ZM8.71956 45.9109L7.4188 41.2281L6.45528 41.4958L7.75604 46.1785L8.71956 45.9109ZM14.88 78.1582C13.321 71.962 11.7842 63.9178 10.6362 57.4147C10.0624 54.1648 9.58632 51.3029 9.25366 49.2536C9.08734 48.2289 8.95689 47.4075 8.86804 46.8424C8.82362 46.5598 8.7896 46.3413 8.76669 46.1936C8.75524 46.1197 8.74657 46.0635 8.74076 46.0258C8.73786 46.007 8.73568 45.9927 8.73422 45.9832C8.73349 45.9785 8.73295 45.9749 8.73259 45.9726C8.7324 45.9714 8.73227 45.9705 8.73218 45.9699C8.73213 45.9696 8.7321 45.9694 8.73208 45.9693C8.73206 45.9691 8.73205 45.9691 8.2378 46.0447C7.74355 46.1203 7.74357 46.1204 7.74359 46.1206C7.74361 46.1207 7.74365 46.121 7.7437 46.1213C7.74379 46.1219 7.74394 46.1228 7.74412 46.124C7.7445 46.1265 7.74506 46.1301 7.7458 46.1349C7.74728 46.1446 7.74949 46.159 7.75241 46.178C7.75827 46.216 7.76699 46.2725 7.77849 46.3468C7.8015 46.4952 7.83564 46.7144 7.88018 46.9977C7.96926 47.5643 8.09997 48.3874 8.26658 49.4138C8.5998 51.4666 9.07668 54.3331 9.65139 57.5885C10.8002 64.096 12.3421 72.1695 13.9103 78.4023L14.88 78.1582ZM15.31 79.8239C15.1601 79.2564 15.0164 78.7003 14.88 78.1582L13.9103 78.4023C14.0477 78.9485 14.1923 79.5084 14.3431 80.0793L15.31 79.8239ZM50.7826 109.322C34.0062 107.591 19.6086 96.0992 15.31 79.8239L14.3431 80.0793C18.7561 96.7873 33.522 108.546 50.6799 110.316L50.7826 109.322ZM64.7406 110.378C61.9758 110.378 56.6981 109.932 50.7826 109.322L50.6799 110.316C56.5852 110.925 61.9153 111.378 64.7406 111.378V110.378ZM82.8504 110.378H64.7406V111.378H82.8504V110.378ZM93.4943 110.085L82.8367 110.378L82.8642 111.378L93.5218 111.084L93.4943 110.085ZM134.923 83.8493C126.971 99.5318 111.071 109.601 93.4943 110.085L93.5218 111.084C111.465 110.591 127.697 100.311 135.815 84.3015L134.923 83.8493ZM146.503 58.5166C144.715 62.4959 141.818 68.8327 139.368 74.176C138.143 76.8474 137.029 79.2699 136.222 81.0247C135.819 81.902 135.492 82.6124 135.266 83.1035C135.153 83.349 135.065 83.5397 135.006 83.669C134.976 83.7337 134.953 83.783 134.938 83.8161C134.93 83.8327 134.925 83.8452 134.921 83.8536C134.919 83.8578 134.917 83.8609 134.916 83.863C134.916 83.8641 134.915 83.8649 134.915 83.8654C134.915 83.8657 134.915 83.8659 134.915 83.866C134.915 83.8661 134.915 83.8662 135.369 84.0754C135.823 84.2846 135.823 84.2845 135.823 84.2844C135.823 84.2843 135.823 84.2841 135.824 84.2838C135.824 84.2833 135.824 84.2825 135.825 84.2814C135.826 84.2793 135.827 84.2761 135.829 84.2719C135.833 84.2635 135.839 84.251 135.846 84.2344C135.862 84.2013 135.884 84.1519 135.914 84.0873C135.974 83.9579 136.061 83.7672 136.174 83.5216C136.401 83.0305 136.727 82.32 137.131 81.4425C137.938 79.6875 139.051 77.2646 140.277 74.5928C142.727 69.2498 145.625 62.9097 147.415 58.9266L146.503 58.5166ZM152.83 43.5037C151.344 47.2291 149.007 52.9464 146.503 58.5166L147.415 58.9266C149.927 53.3379 152.27 47.6058 153.759 43.8741L152.83 43.5037ZM151.252 36.9272C153.109 38.5779 153.748 41.2018 152.83 43.5037L153.759 43.8741C154.835 41.1751 154.084 38.1059 151.917 36.1798L151.252 36.9272ZM151.986 31.3822C149.849 32.4507 149.467 35.3398 151.252 36.9272L151.917 36.1798C150.66 35.0624 150.929 33.0287 152.433 32.2766L151.986 31.3822ZM152.067 31.3416L151.986 31.3822L152.433 32.2766L152.514 32.236L152.067 31.3416ZM157.876 29.9702C155.859 29.9702 153.871 30.4397 152.067 31.3416L152.514 32.236C154.179 31.4036 156.015 30.9702 157.876 30.9702V29.9702ZM157.876 30.9702H173.438V29.9702H157.876V30.9702ZM173.438 30.9702C175.3 30.9702 177.135 31.4036 178.8 32.236L179.248 31.3416C177.444 30.4397 175.455 29.9702 173.438 29.9702V30.9702ZM178.8 32.236L178.881 32.2766L179.329 31.3822L179.248 31.3416L178.8 32.236ZM178.881 32.2766C180.386 33.0287 180.655 35.0624 179.398 36.1798L180.062 36.9272C181.848 35.3398 181.466 32.4507 179.329 31.3822L178.881 32.2766ZM179.398 36.1798C177.231 38.1059 176.48 41.1751 177.556 43.8741L178.485 43.5037C177.567 41.2018 178.205 38.5779 180.062 36.9272L179.398 36.1798ZM177.556 43.8741C179.044 47.6058 181.387 53.3379 183.899 58.9266L184.811 58.5166C182.308 52.9464 179.97 47.2291 178.485 43.5037L177.556 43.8741ZM183.899 58.9266C185.689 62.9097 188.588 69.2498 191.038 74.5928C192.263 77.2646 193.376 79.6875 194.183 81.4425C194.587 82.32 194.914 83.0305 195.14 83.5216C195.253 83.7672 195.341 83.9579 195.4 84.0873C195.43 84.1519 195.453 84.2013 195.468 84.2344C195.476 84.251 195.482 84.2635 195.485 84.2719C195.487 84.2761 195.489 84.2793 195.49 84.2814C195.49 84.2825 195.491 84.2833 195.491 84.2838C195.491 84.2841 195.491 84.2843 195.491 84.2844C195.491 84.2845 195.491 84.2846 195.945 84.0754C196.4 83.8662 196.4 83.8661 196.399 83.866C196.399 83.8659 196.399 83.8657 196.399 83.8654C196.399 83.8649 196.399 83.8641 196.398 83.863C196.397 83.8609 196.396 83.8578 196.394 83.8536C196.39 83.8452 196.384 83.8327 196.377 83.8161C196.361 83.783 196.339 83.7337 196.309 83.669C196.249 83.5397 196.161 83.349 196.048 83.1035C195.822 82.6124 195.495 81.902 195.092 81.0247C194.285 79.2699 193.172 76.8474 191.947 74.176C189.497 68.8327 186.6 62.4959 184.811 58.5166L183.899 58.9266ZM195.499 84.3015C203.617 100.311 219.849 110.591 237.793 111.084L237.82 110.085C220.244 109.601 204.343 99.5318 196.391 83.8493L195.499 84.3015ZM237.793 111.084L248.45 111.378L248.478 110.378L237.82 110.085L237.793 111.084ZM248.464 111.378H266.574V110.378H248.464V111.378ZM266.574 111.378C269.399 111.378 274.729 110.925 280.635 110.316L280.532 109.322C274.616 109.932 269.339 110.378 266.574 110.378V111.378ZM280.635 110.316C297.792 108.546 312.558 96.7873 316.971 80.0793L316.004 79.8239C311.706 96.0992 297.308 107.591 280.532 109.322L280.635 110.316ZM316.971 80.0793C317.122 79.5084 317.267 78.9485 317.404 78.4023L316.434 78.1582C316.298 78.7003 316.154 79.2564 316.004 79.8239L316.971 80.0793ZM317.404 78.4023C318.972 72.1695 320.514 64.096 321.663 57.5885C322.238 54.3331 322.715 51.4666 323.048 49.4138C323.214 48.3874 323.345 47.5643 323.434 46.9977C323.479 46.7144 323.513 46.4952 323.536 46.3468C323.547 46.2725 323.556 46.216 323.562 46.178C323.565 46.159 323.567 46.1446 323.569 46.1349C323.569 46.1301 323.57 46.1265 323.57 46.124C323.571 46.1228 323.571 46.1219 323.571 46.1213C323.571 46.121 323.571 46.1207 323.571 46.1206C323.571 46.1204 323.571 46.1203 323.077 46.0447C322.582 45.9691 322.582 45.9691 322.582 45.9693C322.582 45.9694 322.582 45.9696 322.582 45.9699C322.582 45.9705 322.582 45.9714 322.582 45.9726C322.582 45.9749 322.581 45.9785 322.58 45.9832C322.579 45.9927 322.577 46.007 322.574 46.0258C322.568 46.0635 322.559 46.1197 322.548 46.1936C322.525 46.3413 322.491 46.5598 322.446 46.8424C322.358 47.4075 322.227 48.2289 322.061 49.2536C321.728 51.3029 321.252 54.1648 320.678 57.4147C319.53 63.9178 317.993 71.962 316.434 78.1582L317.404 78.4023ZM323.558 46.1785L324.859 41.4958L323.896 41.2281L322.595 45.9109L323.558 46.1785ZM324.859 41.4958C325.155 40.4311 325.832 39.5124 326.762 38.9149L326.221 38.0737C325.085 38.804 324.257 39.9268 323.896 41.2281L324.859 41.4958ZM326.762 38.9149L328.952 37.507L328.411 36.6658L326.221 38.0737L326.762 38.9149ZM328.952 37.507C329.888 36.9048 330.483 35.8927 330.552 34.7812L329.554 34.7188C329.504 35.5127 329.08 36.2357 328.411 36.6658L328.952 37.507ZM330.552 34.7812L331.81 14.6627L330.811 14.6003L329.554 34.7188L330.552 34.7812ZM331.81 14.6627C331.881 13.5254 331.175 12.482 330.085 12.1356L329.782 13.0886C330.431 13.2949 330.854 13.9167 330.811 14.6003L331.81 14.6627ZM330.085 12.1356C325.977 10.8301 314.128 7.14298 305.796 5.35198L305.586 6.32964C313.864 8.10912 325.67 11.7818 329.782 13.0886L330.085 12.1356ZM305.796 5.35198C300.72 4.26069 293.945 3.22748 289.097 2.54534L288.958 3.53558C293.804 4.2174 300.547 5.2465 305.586 6.32964L305.796 5.35198ZM289.097 2.54534C284.986 1.96685 280.866 1.51128 276.732 1.15233L276.645 2.14858C280.764 2.50618 284.866 2.95984 288.958 3.53558L289.097 2.54534ZM276.732 1.15233C269.704 0.542108 258.089 -0.355286 249.556 -0.45431L249.545 0.545623C258.036 0.644168 269.617 1.53839 276.645 2.14858L276.732 1.15233ZM249.556 -0.45431C233.676 -0.638613 224.68 -0.332702 208.92 1.72304L209.049 2.71464C224.752 0.666459 233.698 0.361717 249.545 0.545623L249.556 -0.45431ZM208.92 1.72304C203.134 2.47771 198.756 3.41237 194.31 4.36149L194.519 5.33945C198.964 4.39061 203.307 3.46363 209.049 2.71464L208.92 1.72304ZM194.31 4.36149C190.396 5.197 186.429 6.04365 181.384 6.79505L181.531 7.78415C186.61 7.02768 190.604 6.17506 194.519 5.33945L194.31 4.36149ZM181.384 6.79505C179.925 7.0123 178.642 7.22276 177.441 7.4197L177.603 8.40652C178.804 8.20951 180.081 8.00017 181.531 7.78415L181.384 6.79505ZM177.44 7.41992L177.44 7.41996L177.604 8.40636L177.604 8.40631L177.44 7.41992ZM177.441 7.41973L177.44 7.41995L177.601 8.4068L177.603 8.40658L177.441 7.41973ZM177.432 7.42126L177.432 7.42129L177.609 8.40553L177.609 8.40549L177.432 7.42126ZM177.439 7.42C174.216 7.9487 171.581 8.38057 167.666 8.60138L167.722 9.59979C171.694 9.37577 174.374 8.93616 177.601 8.40682L177.439 7.42ZM167.666 8.60138C167.039 8.63675 166.355 8.66127 165.646 8.67736L165.669 9.67711C166.385 9.66083 167.081 9.63596 167.722 9.59979L167.666 8.60138ZM163.592 9.59979C164.234 9.63596 164.929 9.66083 165.646 9.67711L165.669 8.67736C164.96 8.66127 164.276 8.63675 163.649 8.60138L163.592 9.59979ZM153.713 8.40682C156.941 8.93616 159.62 9.37577 163.592 9.59979L163.649 8.60138C159.733 8.38057 157.099 7.9487 153.875 7.42L153.713 8.40682ZM153.706 8.40549L153.706 8.40553L153.883 7.42129L153.882 7.42126L153.706 8.40549ZM153.712 8.40658L153.713 8.4068L153.875 7.41995L153.874 7.41973L153.712 8.40658ZM153.71 8.40631L153.711 8.40636L153.875 7.41996L153.875 7.41992L153.71 8.40631ZM149.783 7.78415C151.234 8.00017 152.51 8.20951 153.712 8.40652L153.873 7.4197C152.673 7.22276 151.389 7.0123 149.931 6.79505L149.783 7.78415ZM136.796 5.33945C140.71 6.17506 144.704 7.02768 149.783 7.78415L149.931 6.79505C144.885 6.04365 140.919 5.197 137.004 4.36149L136.796 5.33945ZM122.265 2.71464C128.007 3.46363 132.351 4.39061 136.796 5.33945L137.004 4.36149C132.558 3.41237 128.18 2.47771 122.395 1.72304L122.265 2.71464ZM81.7696 0.545623C97.6162 0.361717 106.563 0.666459 122.265 2.71464L122.395 1.72304C106.634 -0.332702 97.6388 -0.638613 81.758 -0.45431L81.7696 0.545623ZM54.6691 2.14858C61.6971 1.53839 73.2784 0.644168 81.7696 0.545623L81.758 -0.45431C73.2255 -0.355286 61.6109 0.542108 54.5826 1.15233L54.6691 2.14858ZM42.3566 3.53558C46.4486 2.95984 50.5504 2.50618 54.6691 2.14858L54.5826 1.15233C50.4483 1.51128 46.3287 1.96685 42.2173 2.54534L42.3566 3.53558ZM25.7283 6.32964C30.767 5.2465 37.5109 4.2174 42.3566 3.53558L42.2173 2.54534C37.3692 3.22748 30.5947 4.26069 25.5182 5.35198L25.7283 6.32964ZM19.13 58.358C17.4646 47.468 18.3357 36.7689 19.8213 30.1709L18.8458 29.9513C17.3344 36.6639 16.4561 47.4889 18.1415 58.5092L19.13 58.358ZM32.9046 92.5483C23.9857 84.6265 21.3297 72.7413 19.13 58.358L18.1415 58.5092C20.3361 72.8592 23.0185 85.1049 32.2406 93.296L32.9046 92.5483ZM47.3588 100.681C40.5605 99.0558 36.8397 96.0435 32.9046 92.5483L32.2406 93.296C36.2174 96.8282 40.0877 99.971 47.1263 101.654L47.3588 100.681ZM66.0812 103.269C66.0975 102.77 66.0975 102.77 66.0974 102.77C66.0973 102.77 66.0972 102.77 66.0971 102.77C66.0968 102.77 66.0963 102.769 66.0956 102.769C66.0943 102.769 66.0923 102.769 66.0895 102.769C66.0841 102.769 66.0759 102.769 66.0649 102.768C66.043 102.768 66.0103 102.767 65.9671 102.765C65.8809 102.762 65.7531 102.757 65.5877 102.75C65.257 102.736 64.7761 102.715 64.1762 102.684C62.9763 102.621 61.3016 102.52 59.4028 102.366C55.5978 102.056 50.92 101.533 47.3588 100.681L47.1263 101.654C50.766 102.524 55.5075 103.052 59.3216 103.362C61.2323 103.518 62.9171 103.62 64.1243 103.682C64.728 103.714 65.2125 103.735 65.5464 103.749C65.7133 103.756 65.8426 103.761 65.9303 103.764C65.9742 103.766 66.0077 103.767 66.0302 103.768C66.0415 103.768 66.0501 103.769 66.0559 103.769C66.0588 103.769 66.061 103.769 66.0625 103.769C66.0632 103.769 66.0638 103.769 66.0642 103.769C66.0644 103.769 66.0646 103.769 66.0647 103.769C66.0648 103.769 66.0649 103.769 66.0812 103.269ZM88.4085 102.769H66.0812V103.769H88.4085V102.769ZM113.275 96.8822C107.771 100.082 101.563 101.557 96.7125 102.23C94.2905 102.566 92.2148 102.701 90.746 102.752C90.0118 102.777 89.4296 102.781 89.0323 102.78C88.8336 102.779 88.6811 102.776 88.579 102.774C88.5279 102.773 88.4894 102.772 88.464 102.771C88.4513 102.77 88.4419 102.77 88.4358 102.77C88.4327 102.77 88.4305 102.77 88.4292 102.77C88.4285 102.77 88.428 102.77 88.4277 102.77C88.4276 102.77 88.4276 102.77 88.4275 102.77C88.4275 102.77 88.4276 102.77 88.4085 103.269C88.3893 103.769 88.3895 103.769 88.3897 103.769C88.3899 103.769 88.3902 103.769 88.3904 103.769C88.391 103.769 88.3918 103.769 88.3928 103.769C88.3949 103.769 88.3977 103.769 88.4014 103.769C88.4088 103.77 88.4196 103.77 88.4336 103.77C88.4617 103.771 88.5029 103.772 88.5568 103.774C88.6645 103.776 88.8228 103.779 89.0275 103.78C89.4368 103.782 90.0321 103.777 90.7806 103.751C92.2771 103.699 94.3878 103.562 96.8499 103.221C101.768 102.538 108.118 101.037 113.778 97.7468L113.275 96.8822ZM125.645 80.8862C124.566 82.951 122.912 86.1192 120.796 89.1964C118.675 92.2823 116.125 95.226 113.275 96.8822L113.778 97.7468C116.821 95.9782 119.473 92.8873 121.62 89.7628C123.774 86.6298 125.454 83.4119 126.531 81.349L125.645 80.8862ZM126.344 79.5614C126.148 79.9219 125.913 80.3717 125.645 80.8862L126.531 81.349C126.801 80.8317 127.031 80.3908 127.223 80.0397L126.344 79.5614ZM133.977 58.2986C131.585 66.8305 128.06 76.411 126.344 79.5614L127.223 80.0397C128.995 76.7853 132.545 67.114 134.94 58.5685L133.977 58.2986ZM138.994 37.0664C138.499 36.9961 138.499 36.9961 138.499 36.9961C138.499 36.9962 138.499 36.9963 138.499 36.9964C138.499 36.9967 138.499 36.9971 138.499 36.9977C138.499 36.9989 138.499 37.0007 138.498 37.0032C138.498 37.0081 138.496 37.0155 138.495 37.0255C138.492 37.0453 138.488 37.0752 138.482 37.1146C138.47 37.1936 138.453 37.3111 138.43 37.4647C138.383 37.7719 138.313 38.2235 138.22 38.7995C138.033 39.9516 137.751 41.6013 137.375 43.5894C136.623 47.5667 135.492 52.8935 133.977 58.2986L134.94 58.5685C136.465 53.1265 137.602 47.7697 138.358 43.7752C138.736 41.7775 139.018 40.1192 139.207 38.9598C139.301 38.3801 139.371 37.925 139.418 37.6146C139.442 37.4594 139.46 37.3403 139.471 37.2598C139.477 37.2196 139.482 37.189 139.485 37.1684C139.486 37.1581 139.487 37.1503 139.488 37.145C139.489 37.1424 139.489 37.1403 139.489 37.139C139.489 37.1383 139.489 37.1378 139.489 37.1374C139.489 37.1372 139.489 37.1371 139.489 37.137C139.489 37.1369 139.489 37.1368 138.994 37.0664ZM135.809 16.7086C136.966 18.1836 137.729 20.1727 138.211 22.3646C138.693 24.5514 138.887 26.9049 138.93 29.0791C138.974 31.2516 138.866 33.2332 138.747 34.6721C138.687 35.3912 138.625 35.9737 138.578 36.3757C138.555 36.5767 138.535 36.7324 138.521 36.8374C138.514 36.8899 138.509 36.9297 138.505 36.9562C138.503 36.9694 138.502 36.9793 138.501 36.9857C138.5 36.989 138.5 36.9913 138.5 36.9928C138.5 36.9936 138.5 36.9941 138.5 36.9944C138.499 36.9946 138.499 36.9946 138.499 36.9947C138.499 36.9947 138.499 36.9947 138.994 37.0664C139.489 37.1382 139.489 37.138 139.489 37.1378C139.489 37.1377 139.489 37.1374 139.489 37.1371C139.489 37.1366 139.489 37.1358 139.49 37.1348C139.49 37.1328 139.49 37.1299 139.491 37.1261C139.492 37.1187 139.493 37.1077 139.495 37.0934C139.499 37.0649 139.505 37.0229 139.512 36.9681C139.527 36.8586 139.547 36.6981 139.571 36.4921C139.62 36.0802 139.683 35.4862 139.743 34.7545C139.864 33.2918 139.974 31.2747 139.93 29.0592C139.886 26.8455 139.688 24.4218 139.188 22.1496C138.689 19.8825 137.882 17.7311 136.596 16.0915L135.809 16.7086ZM122.597 9.74475C122.499 10.235 122.499 10.235 122.499 10.235C122.499 10.235 122.499 10.235 122.499 10.235C122.499 10.2351 122.5 10.2351 122.5 10.2352C122.501 10.2354 122.503 10.2357 122.505 10.2362C122.509 10.2371 122.516 10.2384 122.525 10.2403C122.543 10.244 122.57 10.2496 122.605 10.2573C122.677 10.2725 122.783 10.2957 122.921 10.327C123.195 10.3895 123.593 10.4843 124.082 10.6126C125.061 10.8694 126.403 11.2596 127.857 11.7933C130.791 12.8708 134.074 14.4958 135.809 16.7086L136.596 16.0915C134.675 13.6417 131.155 11.9391 128.201 10.8546C126.71 10.3072 125.337 9.90789 124.336 9.64533C123.835 9.51397 123.427 9.41663 123.143 9.35197C123.001 9.31964 122.89 9.29546 122.814 9.27927C122.776 9.27117 122.747 9.26508 122.727 9.26095C122.717 9.25889 122.709 9.25732 122.704 9.25625C122.701 9.25571 122.699 9.25529 122.698 9.255C122.697 9.25485 122.697 9.25474 122.696 9.25465C122.696 9.25461 122.696 9.25457 122.696 9.25455C122.695 9.25451 122.695 9.25449 122.597 9.74475ZM88.4015 7.44247C100.247 7.60618 108.776 8.3057 114.34 8.96313C117.122 9.29185 119.162 9.61005 120.505 9.84549C121.176 9.96321 121.673 10.0602 122 10.1276C122.164 10.1612 122.286 10.1875 122.366 10.2051C122.406 10.214 122.436 10.2207 122.455 10.2251C122.465 10.2273 122.472 10.2289 122.476 10.23C122.478 10.2305 122.48 10.2309 122.481 10.2311C122.482 10.2312 122.482 10.2313 122.482 10.2313C122.482 10.2314 122.482 10.2314 122.482 10.2314C122.482 10.2314 122.482 10.2313 122.597 9.74475C122.712 9.25817 122.712 9.25813 122.712 9.25808C122.712 9.25806 122.711 9.258 122.711 9.25795C122.711 9.25783 122.71 9.25769 122.709 9.2575C122.708 9.25713 122.706 9.25661 122.703 9.25595C122.697 9.25461 122.689 9.2527 122.678 9.25021C122.656 9.24525 122.624 9.23801 122.582 9.22864C122.497 9.20991 122.37 9.18266 122.202 9.14802C121.864 9.07874 121.358 8.9799 120.678 8.86053C119.316 8.62178 117.257 8.3009 114.457 7.97004C108.858 7.30833 100.293 6.60673 88.4154 6.44257L88.4015 7.44247ZM47.3219 10.2384C56.0183 8.84134 72.3214 7.22023 88.4015 7.44247L88.4154 6.44257C72.2722 6.21945 55.9112 7.84573 47.1632 9.25108L47.3219 10.2384ZM46.6216 10.3486C46.8813 10.3081 47.1163 10.2714 47.3219 10.2384L47.1632 9.25108C46.9604 9.28367 46.7279 9.31995 46.4674 9.36057L46.6216 10.3486ZM26.666 17.4524C28.9645 15.1312 32.8568 13.5127 36.7744 12.3921C40.6723 11.2771 44.5057 10.6787 46.6216 10.3486L46.4674 9.36057C44.3521 9.69056 40.4633 10.2968 36.4994 11.4306C32.5552 12.5588 28.4463 14.2333 25.9555 16.7488L26.666 17.4524ZM19.8213 30.1709C20.2875 28.1003 21.6814 22.4865 26.666 17.4524L25.9555 16.7488C20.7727 21.9829 19.326 27.8185 18.8458 29.9513L19.8213 30.1709ZM4.11582 18.5178C4.11582 19.7941 5.15049 20.8288 6.42681 20.8288V19.8288C5.70277 19.8288 5.11582 19.2418 5.11582 18.5178H4.11582ZM6.42681 16.2068C5.15049 16.2068 4.11582 17.2414 4.11582 18.5178H5.11582C5.11582 17.7937 5.70277 17.2068 6.42681 17.2068V16.2068ZM8.73779 18.5178C8.73779 17.2414 7.70313 16.2068 6.42681 16.2068V17.2068C7.15084 17.2068 7.73779 17.7937 7.73779 18.5178H8.73779ZM6.42681 20.8288C7.70313 20.8288 8.73779 19.7941 8.73779 18.5178H7.73779C7.73779 19.2418 7.15084 19.8288 6.42681 19.8288V20.8288ZM6.42681 29.6081C5.70277 29.6081 5.11582 29.0211 5.11582 28.2971H4.11582C4.11582 29.5734 5.15048 30.6081 6.42681 30.6081V29.6081ZM7.73779 28.2971C7.73779 29.0211 7.15084 29.6081 6.42681 29.6081V30.6081C7.70313 30.6081 8.73779 29.5734 8.73779 28.2971H7.73779ZM6.42681 26.9861C7.15084 26.9861 7.73779 27.573 7.73779 28.2971H8.73779C8.73779 27.0207 7.70313 25.9861 6.42681 25.9861V26.9861ZM5.11582 28.2971C5.11582 27.573 5.70277 26.9861 6.42681 26.9861V25.9861C5.15048 25.9861 4.11582 27.0207 4.11582 28.2971H5.11582ZM313.173 58.5092C314.858 47.4889 313.98 36.6639 312.469 29.9513L311.493 30.1709C312.979 36.7689 313.85 47.468 312.184 58.358L313.173 58.5092ZM299.074 93.296C308.296 85.1049 310.978 72.8592 313.173 58.5092L312.184 58.358C309.985 72.7413 307.329 84.6265 298.41 92.5483L299.074 93.296ZM284.188 101.654C291.227 99.971 295.097 96.8282 299.074 93.296L298.41 92.5483C294.475 96.0435 290.754 99.0558 283.956 100.681L284.188 101.654ZM265.233 103.269C265.25 103.769 265.25 103.769 265.25 103.769C265.25 103.769 265.25 103.769 265.25 103.769C265.251 103.769 265.251 103.769 265.252 103.769C265.253 103.769 265.256 103.769 265.259 103.769C265.264 103.769 265.273 103.768 265.284 103.768C265.307 103.767 265.34 103.766 265.384 103.764C265.472 103.761 265.601 103.756 265.768 103.749C266.102 103.735 266.586 103.714 267.19 103.682C268.397 103.62 270.082 103.518 271.993 103.362C275.807 103.052 280.548 102.524 284.188 101.654L283.956 100.681C280.394 101.533 275.717 102.056 271.912 102.366C270.013 102.52 268.338 102.621 267.138 102.684C266.538 102.715 266.057 102.736 265.727 102.75C265.561 102.757 265.434 102.762 265.347 102.765C265.304 102.767 265.271 102.768 265.25 102.768C265.239 102.769 265.23 102.769 265.225 102.769C265.222 102.769 265.22 102.769 265.219 102.769C265.218 102.769 265.218 102.77 265.217 102.77C265.217 102.77 265.217 102.77 265.217 102.77C265.217 102.77 265.217 102.77 265.233 103.269ZM242.906 103.769H265.233V102.769H242.906V103.769ZM217.537 97.7468C223.196 101.037 229.547 102.538 234.465 103.221C236.927 103.562 239.037 103.699 240.534 103.751C241.282 103.777 241.878 103.782 242.287 103.78C242.492 103.779 242.65 103.776 242.758 103.774C242.812 103.772 242.853 103.771 242.881 103.77C242.895 103.77 242.906 103.77 242.913 103.769C242.917 103.769 242.92 103.769 242.922 103.769C242.923 103.769 242.923 103.769 242.924 103.769C242.924 103.769 242.925 103.769 242.925 103.769C242.925 103.769 242.925 103.769 242.906 103.269C242.887 102.77 242.887 102.77 242.887 102.77C242.887 102.77 242.887 102.77 242.887 102.77C242.886 102.77 242.886 102.77 242.885 102.77C242.884 102.77 242.882 102.77 242.879 102.77C242.873 102.77 242.863 102.77 242.85 102.771C242.825 102.772 242.787 102.773 242.735 102.774C242.633 102.776 242.481 102.779 242.282 102.78C241.885 102.781 241.303 102.777 240.568 102.752C239.1 102.701 237.024 102.566 234.602 102.23C229.752 101.557 223.543 100.082 218.039 96.8822L217.537 97.7468ZM204.783 81.349C205.861 83.4119 207.54 86.6298 209.694 89.7628C211.842 92.8873 214.494 95.9782 217.537 97.7468L218.039 96.8822C215.19 95.226 212.639 92.2823 210.518 89.1964C208.403 86.1192 206.748 82.951 205.67 80.8862L204.783 81.349ZM204.092 80.0397C204.283 80.3908 204.513 80.8317 204.783 81.349L205.67 80.8862C205.401 80.3717 205.166 79.9219 204.97 79.5614L204.092 80.0397ZM196.375 58.5685C198.77 67.114 202.319 76.7853 204.092 80.0397L204.97 79.5614C203.254 76.411 199.729 66.8305 197.337 58.2986L196.375 58.5685ZM192.32 37.0664C191.825 37.1368 191.825 37.1369 191.825 37.137C191.825 37.1371 191.825 37.1372 191.825 37.1374C191.825 37.1378 191.825 37.1383 191.825 37.139C191.826 37.1403 191.826 37.1424 191.826 37.145C191.827 37.1503 191.828 37.1581 191.83 37.1684C191.833 37.189 191.837 37.2196 191.843 37.2598C191.855 37.3403 191.872 37.4594 191.896 37.6146C191.943 37.925 192.014 38.3801 192.108 38.9598C192.296 40.1192 192.579 41.7775 192.957 43.7752C193.712 47.7697 194.849 53.1265 196.375 58.5685L197.337 58.2986C195.822 52.8935 194.691 47.5667 193.939 43.5894C193.563 41.6013 193.282 39.9516 193.095 38.7995C193.001 38.2235 192.931 37.7719 192.885 37.4647C192.861 37.3111 192.844 37.1936 192.832 37.1146C192.827 37.0752 192.822 37.0453 192.819 37.0255C192.818 37.0155 192.817 37.0081 192.816 37.0032C192.816 37.0007 192.816 36.9989 192.815 36.9977C192.815 36.9971 192.815 36.9967 192.815 36.9964C192.815 36.9963 192.815 36.9962 192.815 36.9961C192.815 36.9961 192.815 36.9961 192.32 37.0664ZM194.718 16.0915C193.433 17.7311 192.625 19.8825 192.126 22.1496C191.626 24.4218 191.428 26.8455 191.384 29.0592C191.34 31.2747 191.45 33.2918 191.571 34.7545C191.632 35.4862 191.695 36.0802 191.743 36.4921C191.767 36.6981 191.788 36.8586 191.802 36.9681C191.809 37.0229 191.815 37.0649 191.819 37.0934C191.821 37.1077 191.823 37.1187 191.824 37.1261C191.824 37.1299 191.825 37.1328 191.825 37.1348C191.825 37.1358 191.825 37.1366 191.825 37.1371C191.825 37.1374 191.825 37.1377 191.825 37.1378C191.825 37.138 191.825 37.1382 192.32 37.0664C192.815 36.9947 192.815 36.9947 192.815 36.9947C192.815 36.9946 192.815 36.9946 192.815 36.9944C192.815 36.9941 192.815 36.9936 192.815 36.9928C192.814 36.9913 192.814 36.989 192.814 36.9857C192.813 36.9793 192.811 36.9694 192.81 36.9562C192.806 36.9297 192.8 36.8899 192.794 36.8374C192.78 36.7324 192.76 36.5767 192.736 36.3757C192.689 35.9737 192.627 35.3912 192.568 34.6721C192.449 33.2332 192.341 31.2516 192.384 29.0791C192.427 26.9049 192.622 24.5514 193.103 22.3646C193.585 20.1727 194.348 18.1836 195.505 16.7086L194.718 16.0915ZM208.717 9.74475C208.619 9.25449 208.619 9.25451 208.619 9.25455C208.619 9.25457 208.619 9.25461 208.618 9.25465C208.618 9.25474 208.617 9.25485 208.617 9.255C208.615 9.25529 208.613 9.25571 208.61 9.25625C208.605 9.25732 208.598 9.25889 208.588 9.26095C208.568 9.26508 208.538 9.27117 208.5 9.27927C208.425 9.29546 208.314 9.31964 208.172 9.35197C207.888 9.41663 207.48 9.51397 206.979 9.64533C205.978 9.90789 204.604 10.3072 203.113 10.8546C200.159 11.9391 196.639 13.6417 194.718 16.0915L195.505 16.7086C197.24 14.4958 200.523 12.8708 203.458 11.7933C204.911 11.2596 206.254 10.8694 207.232 10.6126C207.722 10.4843 208.119 10.3895 208.394 10.327C208.531 10.2957 208.637 10.2725 208.709 10.2573C208.745 10.2496 208.772 10.244 208.79 10.2403C208.799 10.2384 208.805 10.2371 208.81 10.2362C208.812 10.2357 208.813 10.2354 208.814 10.2352C208.815 10.2351 208.815 10.2351 208.815 10.235C208.816 10.235 208.816 10.235 208.816 10.235C208.816 10.235 208.816 10.235 208.717 9.74475ZM242.899 6.44257C231.021 6.60673 222.457 7.30833 216.857 7.97004C214.057 8.3009 211.998 8.62178 210.637 8.86053C209.956 8.9799 209.45 9.07874 209.113 9.14802C208.944 9.18266 208.818 9.20991 208.733 9.22864C208.69 9.23801 208.658 9.24525 208.637 9.25021C208.626 9.2527 208.618 9.25461 208.612 9.25595C208.609 9.25661 208.607 9.25713 208.605 9.2575C208.604 9.25769 208.604 9.25783 208.603 9.25795C208.603 9.258 208.603 9.25806 208.603 9.25808C208.602 9.25813 208.602 9.25817 208.717 9.74475C208.832 10.2313 208.832 10.2314 208.832 10.2314C208.832 10.2314 208.832 10.2314 208.832 10.2313C208.833 10.2313 208.833 10.2312 208.833 10.2311C208.834 10.2309 208.836 10.2305 208.838 10.23C208.843 10.2289 208.85 10.2273 208.859 10.2251C208.879 10.2207 208.908 10.214 208.948 10.2051C209.029 10.1875 209.15 10.1612 209.314 10.1276C209.642 10.0602 210.138 9.96321 210.81 9.84549C212.152 9.61005 214.192 9.29185 216.974 8.96313C222.538 8.3057 231.068 7.60618 242.913 7.44247L242.899 6.44257ZM284.151 9.25108C275.403 7.84573 259.042 6.21945 242.899 6.44257L242.913 7.44247C258.993 7.22023 275.296 8.84134 283.993 10.2384L284.151 9.25108ZM284.845 9.36024C284.585 9.31974 284.354 9.28358 284.151 9.25108L283.993 10.2384C284.198 10.2714 284.432 10.3079 284.691 10.3483L284.845 9.36024ZM284.847 9.36049L284.844 9.36015L284.691 10.3484L284.693 10.3487L284.847 9.36049ZM305.359 16.7488C302.868 14.2333 298.759 12.5588 294.815 11.4306C290.851 10.2968 286.962 9.69056 284.847 9.36057L284.693 10.3486C286.809 10.6787 290.642 11.2771 294.54 12.3921C298.458 13.5127 302.35 15.1312 304.648 17.4524L305.359 16.7488ZM312.469 29.9513C311.988 27.8185 310.542 21.9829 305.359 16.7488L304.648 17.4524C309.633 22.4865 311.027 28.1003 311.493 30.1709L312.469 29.9513ZM326.198 18.5178C326.198 19.2418 325.611 19.8288 324.887 19.8288V20.8288C326.163 20.8288 327.198 19.7941 327.198 18.5178H326.198ZM324.887 17.2068C325.611 17.2068 326.198 17.7937 326.198 18.5178H327.198C327.198 17.2414 326.163 16.2068 324.887 16.2068V17.2068ZM323.576 18.5178C323.576 17.7937 324.163 17.2068 324.887 17.2068V16.2068C323.61 16.2068 322.576 17.2414 322.576 18.5178H323.576ZM324.887 19.8288C324.163 19.8288 323.576 19.2418 323.576 18.5178H322.576C322.576 19.7941 323.61 20.8288 324.887 20.8288V19.8288ZM324.887 30.6081C326.163 30.6081 327.198 29.5734 327.198 28.2971H326.198C326.198 29.0211 325.611 29.6081 324.887 29.6081V30.6081ZM322.576 28.2971C322.576 29.5734 323.61 30.6081 324.887 30.6081V29.6081C324.163 29.6081 323.576 29.0211 323.576 28.2971H322.576ZM324.887 25.9861C323.61 25.9861 322.576 27.0208 322.576 28.2971H323.576C323.576 27.573 324.163 26.9861 324.887 26.9861V25.9861ZM327.198 28.2971C327.198 27.0207 326.163 25.9861 324.887 25.9861V26.9861C325.611 26.9861 326.198 27.573 326.198 28.2971H327.198Z" fill="#767678" mask="url(#path-1-inside-1_1074_3672)"/>
<path d="M18.8232 139.823C18.7256 139.921 18.7256 140.079 18.8232 140.177L20.4142 141.768C20.5118 141.865 20.6701 141.865 20.7678 141.768C20.8654 141.67 20.8654 141.512 20.7678 141.414L19.3536 140L20.7678 138.586C20.8654 138.488 20.8654 138.33 20.7678 138.232C20.6701 138.135 20.5118 138.135 20.4142 138.232L18.8232 139.823ZM134.177 140.177C134.274 140.079 134.274 139.921 134.177 139.823L132.586 138.232C132.488 138.135 132.33 138.135 132.232 138.232C132.135 138.33 132.135 138.488 132.232 138.586L133.646 140L132.232 141.414C132.135 141.512 132.135 141.67 132.232 141.768C132.33 141.865 132.488 141.865 132.586 141.768L134.177 140.177ZM19 140.25L134 140.25L134 139.75L19 139.75L19 140.25Z" fill="#767678"/>
<path d="M78.1768 13.8232C78.0791 13.7256 77.9209 13.7256 77.8232 13.8232L76.2322 15.4142C76.1346 15.5118 76.1346 15.6701 76.2322 15.7678C76.3299 15.8654 76.4882 15.8654 76.5858 15.7678L78 14.3536L79.4142 15.7678C79.5118 15.8654 79.6701 15.8654 79.7678 15.7678C79.8654 15.6701 79.8654 15.5118 79.7678 15.4142L78.1768 13.8232ZM77.8232 95.1768C77.9209 95.2744 78.0791 95.2744 78.1768 95.1768L79.7678 93.5858C79.8654 93.4882 79.8654 93.3299 79.7678 93.2322C79.6701 93.1346 79.5118 93.1346 79.4142 93.2322L78 94.6464L76.5858 93.2322C76.4882 93.1346 76.3299 93.1346 76.2322 93.2322C76.1346 93.3299 76.1346 93.4882 76.2322 93.5858L77.8232 95.1768ZM77.75 14L77.75 95L78.25 95L78.25 14L77.75 14Z" fill="#767678"/>
</svg>
