<svg width="373" height="196" viewBox="0 0 373 196" fill="none" xmlns="http://www.w3.org/2000/svg">
<path d="M44.8232 193.823C44.7256 193.921 44.7256 194.079 44.8232 194.177L46.4142 195.768C46.5118 195.865 46.6701 195.865 46.7678 195.768C46.8654 195.67 46.8654 195.512 46.7678 195.414L45.3536 194L46.7678 192.586C46.8654 192.488 46.8654 192.33 46.7678 192.232C46.6701 192.135 46.5118 192.135 46.4142 192.232L44.8232 193.823ZM365.177 194.177C365.274 194.079 365.274 193.921 365.177 193.823L363.586 192.232C363.488 192.135 363.33 192.135 363.232 192.232C363.135 192.33 363.135 192.488 363.232 192.586L364.646 194L363.232 195.414C363.135 195.512 363.135 195.67 363.232 195.768C363.33 195.865 363.488 195.865 363.586 195.768L365.177 194.177ZM45 194.25H365V193.75H45V194.25Z" fill="#767678"/>
<path d="M44.8203 63.998L45.4619 85.8123" stroke="#767678" stroke-width="0.5"/>
<path d="M35.838 63.998L37.4597 85.5346M37.4597 85.5346L31.2842 92.7471M37.4597 85.5346H45.6466" stroke="#767678" stroke-width="0.5"/>
<path d="M16.7446 61.564C22.234 63.5489 27.2488 67.8319 28.3094 71.1798C29.3699 74.5277 31.054 79.9136 31.054 91.0292C31.054 102.145 34.0751 133.679 34.0751 140.031C34.0751 146.383 33.3344 153.852 32.2303 156.135C30.7777 159.139 28.0751 163.126 20.2331 162.729" stroke="#767678" stroke-width="0.5"/>
<path d="M17.0231 54.3735C13.918 54.6841 14.299 58.7822 14.5352 60.2406C14.5875 60.5636 14.8125 60.8239 15.1162 60.9454L16.6245 61.5487C16.6245 61.5487 14.2483 102.147 14.6314 116.559C14.9621 129 20.6108 162.799 20.6108 162.799L19.5918 162.799C18.2885 162.799 17.3334 164.026 17.6529 165.289L18.1618 167.302C18.4411 168.406 19.3222 169.258 20.4513 169.41C23.8155 169.864 30.9449 170.315 34.3976 166.713C38.1502 162.799 39.2232 158.305 40.1771 151.239C41.6307 140.472 40.3766 124.864 40.1977 122.773C40.1839 122.612 40.1737 122.457 40.1669 122.295L38.9474 93.4386L45.724 85.4661L73.4416 84.2702L191.666 86.5918C191.666 86.5918 216.668 86.8895 232.822 86.423C243.353 86.1189 253.52 84.1455 262.321 81.6901C279.782 76.8187 299.834 79.9562 316.506 87.0759C332.982 94.1124 334.72 99.8888 338.959 103.647C341.532 105.929 353.122 106.907 361.832 107.324C365.449 107.497 367.2 103.204 364.518 100.77C358.966 95.7289 351.64 89.3503 347.57 86.9176C334.238 78.9507 325.972 76.5648 310.948 72.6281C297.8 69.1826 280.638 67.4364 275.785 67.3902C195.313 66.6238 35.7584 63.9405 35.7584 63.9405C35.7584 63.9405 24.9956 53.5763 17.0231 54.3735Z" stroke="#767678" stroke-width="0.5"/>
<line x1="33.6128" y1="67.626" x2="33.6858" y2="71.8115" stroke="#767678" stroke-width="0.5"/>
<line x1="33.6126" y1="79.3875" x2="33.7587" y2="83.5711" stroke="#767678" stroke-width="0.5"/>
</svg>
