<svg width="39" height="30" viewBox="0 0 39 30" fill="none" xmlns="http://www.w3.org/2000/svg">
<path fill-rule="evenodd" clip-rule="evenodd" d="M3 0C1.34315 0 0 1.34315 0 3V27C0 28.6569 1.34315 30 3 30H36C37.6569 30 39 28.6569 39 27V3C39 1.34315 37.6569 0 36 0H3ZM5 18.9997V14.9999V11L6.43504 11.0034L7.87007 11.0067L7.98737 11.0384C8.44102 11.1608 8.75068 11.459 8.94688 11.9624C8.9695 12.0204 9.03728 12.2312 9.09751 12.4306L9.60459 14.1127C9.82326 14.8384 10.0264 15.5117 10.056 15.6091C10.0888 15.7168 10.1183 15.792 10.1313 15.8013C10.1584 15.8208 10.21 15.821 10.2358 15.8019C10.248 15.7928 10.3092 15.6113 10.3943 15.3315C10.54 14.8528 11.0202 13.2597 11.195 12.675C11.4386 11.8605 11.5045 11.7041 11.7074 11.4583C11.866 11.2661 12.1176 11.1088 12.3776 11.0391L12.4984 11.0068L13.9365 11.0067L15.3746 11.0066L15.3776 15.0031L15.3806 18.9997H14.1057H12.8308V16.634V14.2683L12.7989 14.2437C12.7545 14.2095 12.6731 14.2105 12.6317 14.2458C12.6053 14.2684 12.5425 14.4529 12.2194 15.4557C11.7836 16.8089 11.3173 18.2635 11.179 18.7009L11.0846 18.9996L10.1843 18.9995L9.28396 18.9993L8.87996 17.7363C7.91419 14.7172 7.76903 14.2741 7.73635 14.2458C7.69786 14.2125 7.61937 14.2102 7.56796 14.2409L7.53171 14.2626V16.6311V18.9997H6.26585H5ZM16.5263 15.0092C16.524 12.8143 16.5239 11.0144 16.5261 11.0095C16.5283 11.0046 17.1007 11.0007 17.7982 11.0007H19.0664V13.3729V15.7451L19.0968 15.7646C19.1135 15.7753 19.1505 15.7867 19.1791 15.7898C19.2216 15.7945 19.2371 15.7905 19.2637 15.7676C19.2861 15.7484 19.549 15.2196 20.113 14.0595C20.5622 13.1353 20.9843 12.2647 21.0509 12.1248C21.2537 11.6988 21.3368 11.5492 21.4592 11.3895C21.593 11.2149 21.7827 11.0674 21.9293 11.0239C22.0071 11.0009 22.0403 11.0004 23.3322 11.0035L24.6555 11.0066L24.6585 15.0031L24.6615 18.9997H23.3927H22.1239L22.1208 16.6157L22.1177 14.2317L22.0928 14.2073C22.0295 14.1453 21.908 14.1739 21.8704 14.2596C21.7948 14.4318 20.1709 17.9398 20.0994 18.0855C19.8675 18.5576 19.6461 18.8396 19.4219 18.9481L19.3275 18.9938L17.929 18.9969L16.5305 19L16.5263 15.0092ZM25.5853 11.1668C25.5699 11.0858 25.5601 11.0152 25.5633 11.0101C25.5666 11.0049 26.9037 11.0007 28.5347 11.0007C31.3917 11.0007 31.6131 10.9981 31.8222 11.0474C31.8511 11.0542 31.8797 11.0619 31.9149 11.0709C32.9781 11.3397 33.7887 12.2068 33.9732 13.2726C34.0099 13.4849 34.0087 13.9854 33.9708 14.2107L33.9633 14.2554L31.6296 14.2515L29.2959 14.2477L29.1086 14.2213C28.6232 14.153 28.2094 14.0448 27.8337 13.8881C26.6256 13.3839 25.8199 12.4089 25.5853 11.1668ZM25.882 14.6575L26.163 14.6541C26.3175 14.6522 28.1039 14.6494 30.1328 14.6479C33.6965 14.6453 33.8216 14.6459 33.8216 14.6668C33.8216 14.6787 33.808 14.7275 33.7913 14.7754C33.7004 15.0372 33.5033 15.3276 33.2195 15.618C32.7945 16.0528 32.2611 16.3232 31.6222 16.4277C31.507 16.4465 31.3549 16.4488 29.9655 16.4526L28.4358 16.4567L28.4276 16.8774C28.4231 17.1087 28.423 17.6503 28.4275 18.0808C28.432 18.5114 28.4317 18.8942 28.4268 18.9317L28.4181 18.9997H27.1501H25.882V16.8286V14.6575Z" fill="#F7F7F7"/>
</svg>
