<svg width="39" height="30" viewBox="0 0 39 30" fill="none" xmlns="http://www.w3.org/2000/svg">
<path fill-rule="evenodd" clip-rule="evenodd" d="M3 0C1.34315 0 0 1.34315 0 3V27C0 28.6569 1.34315 30 3 30H36C37.6569 30 39 28.6569 39 27V3C39 1.34315 37.6569 0 36 0H3ZM22.2249 9.02823C23.2203 9.12268 24.1184 9.40455 24.9632 9.88774C26.3885 10.7029 27.4368 12.0202 27.8254 13.4846C27.9809 14.0704 28.0018 14.2545 27.9999 15.0197C27.9983 15.6869 27.9898 15.7894 27.9049 16.1645C27.7815 16.7101 27.6409 17.1004 27.3928 17.5858C27.0444 18.2677 26.6526 18.7844 26.0954 19.2971C25.1714 20.1473 24.0138 20.7098 22.7234 20.9356C22.2353 21.0211 20.9552 21.0215 20.5009 20.9365C19.3855 20.7277 18.3944 20.2997 17.584 19.6767C17.2872 19.4486 16.7378 18.9185 16.5149 18.6452C15.8423 17.8207 15.3701 16.7203 15.2457 15.6874C15.2241 15.5079 15.2129 16.068 15.2098 17.4869L15.2053 19.547H12.9287L12.105 17.0798C11.652 15.7228 11.0076 13.7918 10.673 12.7886C10.3383 11.7854 10.05 10.9243 10.0323 10.8751L10 10.7855H15.2053L15.2091 12.6827C15.2127 14.3913 15.2175 14.5476 15.258 14.2543C15.5419 12.1958 16.8955 10.452 18.9009 9.56112C19.9019 9.11643 21.1112 8.92257 22.2249 9.02823ZM21.3864 12.7914C20.992 12.856 20.8795 12.8825 20.6865 12.9557C20.0378 13.2021 19.542 13.6966 19.3191 14.3197C18.8259 15.6977 19.9267 17.1592 21.508 17.2259C21.9655 17.2452 22.2824 17.1817 22.7053 16.9858C22.9733 16.8617 23.087 16.7841 23.3178 16.5676C23.5513 16.3486 23.6295 16.2473 23.7619 15.992C24.1027 15.3349 24.116 14.671 23.8006 14.0593C23.5016 13.4793 22.8986 13.0158 22.2372 12.8574C22.0178 12.8049 21.5335 12.7673 21.3864 12.7914Z" fill="#F7F7F7"/>
</svg>
