<svg width="119" height="41" viewBox="0 0 119 41" fill="none" xmlns="http://www.w3.org/2000/svg">
<path fill-rule="evenodd" clip-rule="evenodd" d="M4.30944 0.158264C2.53521 0.685358 1.32351 1.7065 0.586541 3.29547C0.113682 4.31516 0.0785062 4.49458 0.0183896 6.19397C-0.0329329 7.64801 0.0153631 8.31989 0.263038 9.59827C1.12889 14.066 3.65912 22.5588 5.89352 28.4961C8.2917 34.8689 9.49028 36.7657 11.8567 37.9331C14.2401 39.1087 16.2504 39.0419 23.4112 37.549C27.3856 36.7204 27.1712 36.7673 30.6195 35.9715C34.8452 34.9963 34.3056 34.987 35.3429 36.0525C38.2802 39.0702 41.409 41.2661 42.2881 40.927C42.6782 40.7765 42.8347 40.1047 42.7379 38.9958C42.6399 37.8708 42.024 35.2143 41.4354 33.3765C41.1423 32.4616 41.0957 32.1352 41.2078 31.7823C41.6203 30.4831 42.34 26.1537 42.715 22.7155C43.2245 18.0447 43.2912 16.9008 43.2983 12.7156C43.3056 8.48235 43.2917 8.24945 42.9699 7.20845C42.0916 4.36777 40.9301 3.53749 36.6023 2.65736C33.1008 1.9452 30.2442 1.47042 27.3037 1.11173C20.7678 0.31464 5.86339 -0.303324 4.30944 0.158264ZM17.6328 7.7312C17.7583 7.7796 17.8609 7.87323 17.8609 7.93931C17.8609 8.0054 18.3799 9.14799 19.0142 10.4783C19.6485 11.8085 20.1675 12.9152 20.1675 12.9374C20.1675 12.9597 20.6274 13.9434 21.1894 15.1234L22.2112 17.2689L22.4837 16.9125C22.6335 16.7166 22.7576 16.5144 22.7593 16.4633C22.7611 16.4122 23.2046 15.434 23.7451 14.2894C24.2856 13.1449 25.0141 11.5888 25.3639 10.8316C25.7137 10.0744 26.1961 9.0635 26.4357 8.58525L26.8712 7.71569L30.0327 7.67656C31.7715 7.65497 33.2481 7.69163 33.314 7.75786C33.3801 7.82424 33.055 8.59177 32.5919 9.46364C32.1289 10.3357 31.2761 11.962 30.697 13.0779C29.4706 15.4415 28.6866 16.9427 27.2156 19.7445L26.1504 21.7735L26.0783 25.9763L26.0062 30.1791L22.5462 30.22C20.6433 30.2425 18.9404 30.2249 18.7619 30.181L18.4376 30.1012V25.9646V21.828L17.8086 20.6413C17.1497 19.3984 16.0607 17.3099 14.545 14.3823C14.0496 13.4258 13.4016 12.1866 13.1048 11.6287C12.8079 11.0707 12.2597 10.0384 11.8862 9.33451C11.5128 8.63075 11.2426 7.96236 11.2859 7.84903C11.3503 7.68033 11.9082 7.64323 14.3847 7.64323C16.0457 7.64323 17.5074 7.68279 17.6328 7.7312ZM51.3238 23.5897C50.8971 23.652 50.5042 23.7737 50.4511 23.8601C50.3315 24.0549 50.6156 26.0779 51.0336 28.0053C51.4989 30.1519 52.3352 32.9285 53.0424 34.6755C53.1934 35.0485 53.1505 35.5186 52.7537 37.8306C52.4974 39.3248 52.3244 40.6438 52.3695 40.7617C52.4927 41.0845 56.0351 41.077 56.1585 40.7536C56.2052 40.6313 56.4506 39.3108 56.7038 37.8189L57.1645 35.1066L58.4198 33.3061C60.47 30.3654 63.7052 24.6488 63.7052 23.9666C63.7052 23.6862 63.2998 23.5981 61.5114 23.4898L59.9663 23.3963L59.8171 23.7911C59.1753 25.488 56.1027 31.0728 55.8376 31.0243C55.6725 30.9942 55.1012 28.7948 54.9028 27.4256C54.8218 26.8676 54.6969 26.1176 54.6251 25.7589C54.5533 25.4002 54.4539 24.7318 54.4041 24.2734L54.3137 23.4401L53.2068 23.4582C52.598 23.4681 51.7506 23.5274 51.3238 23.5897ZM76.5958 23.5807C76.3535 23.6792 76.2651 23.9084 76.1384 24.767C76.0519 25.3524 75.452 28.9618 74.8051 32.7878C74.1584 36.6138 73.5924 39.9628 73.5476 40.2297C73.4919 40.5606 73.5302 40.7561 73.6674 40.8435C73.7781 40.9139 75.7918 40.9726 78.1423 40.9739C81.9312 40.9758 82.4258 40.9497 82.5044 40.7438C82.6846 40.2718 83.0229 38.4232 83.0231 37.9103L83.0232 37.3808L81.4735 37.2908C80.621 37.2412 79.5993 37.1712 79.2029 37.1354C78.8064 37.0995 78.4264 37.0686 78.3584 37.0666C78.2902 37.0647 78.272 36.9131 78.3179 36.7298C78.3636 36.5464 78.497 35.7801 78.6145 35.0269C78.732 34.2736 78.8921 33.2987 78.9703 32.8603C79.2608 31.2335 79.8812 27.6553 80.2015 25.7589C80.4988 23.9992 80.5096 23.7842 80.3085 23.6213C80.0513 23.413 77.0878 23.3805 76.5958 23.5807ZM86.8662 23.6229C86.6781 23.7613 86.4944 24.5457 86.1114 26.8474C85.591 29.9757 85.2176 32.1662 84.4319 36.7008C84.1833 38.1356 83.9754 39.6681 83.9701 40.1065L83.9603 40.9036L88.2368 40.942C91.8712 40.9746 92.5456 40.9478 92.7284 40.7642C92.9412 40.5502 93.2355 39.1254 93.2984 38.0051L93.331 37.4254L92.3939 37.3337C91.8785 37.2832 90.9054 37.2332 90.2315 37.2228C89.5575 37.2122 88.916 37.1461 88.8057 37.076C88.6034 36.9472 88.6282 36.7451 89.3877 32.353C89.4566 31.9545 89.6056 31.0414 89.7189 30.3241C89.8323 29.6067 90.0511 28.3024 90.2052 27.4256C90.8462 23.7795 90.8548 23.7039 90.6442 23.5697C90.3253 23.3666 87.1541 23.4114 86.8662 23.6229ZM64.2819 23.6484C64.2819 23.7097 63.5917 27.8232 62.396 34.8892C61.4642 40.3964 61.4327 40.6052 61.5058 40.7977C61.6043 41.057 70.9647 41.0477 71.1741 40.7881C71.3612 40.5561 71.6197 39.2128 71.6677 38.2225L71.7063 37.4254L68.823 37.353L65.9397 37.2805L65.9792 36.9182C66.0515 36.254 66.3192 34.6765 66.4218 34.3095C66.5226 33.9494 66.5392 33.946 69.1869 33.7517C70.6519 33.6442 71.9001 33.5095 71.9608 33.4524C72.0791 33.341 72.4234 31.7282 72.5417 30.7304C72.6287 29.9974 72.6135 29.9918 70.9134 30.1267C67.4774 30.3993 67.3018 30.4007 67.2084 30.156C67.1597 30.028 67.2434 29.2963 67.3946 28.5296L67.6697 27.1357L70.6251 27.0632L73.5805 26.9908L73.7654 26.2662C73.8671 25.8676 73.99 25.1012 74.0386 24.5633L74.1268 23.585H69.2043C66.4969 23.585 64.2819 23.6136 64.2819 23.6484ZM101.444 29.4077C101.27 29.5415 101.123 30.0591 100.957 31.1212C100.826 31.9581 100.673 32.9363 100.617 33.295C100.561 33.6537 100.265 35.4173 99.9597 37.2143C99.6542 39.011 99.4477 40.5954 99.5009 40.7348C99.5835 40.9512 99.7596 40.9822 100.702 40.9459C101.968 40.8974 101.954 40.9109 102.176 39.5268C102.624 36.7269 102.642 36.6593 102.968 36.6035C103.748 36.4698 103.851 36.5783 104.13 37.8299C104.276 38.4842 104.566 39.4435 104.775 39.9616L105.155 40.9036L106.49 40.9454C107.513 40.9772 107.842 40.9409 107.9 40.7896C107.941 40.6809 107.773 40.0849 107.526 39.4652C107.279 38.8455 106.948 37.8221 106.789 37.1908L106.5 36.0433L107.181 35.285C107.86 34.5292 108.684 33.019 108.684 32.5306C108.685 32.1242 108.161 30.7341 107.834 30.2725C107.305 29.5252 106.787 29.3894 104.121 29.2986C102.227 29.2341 101.638 29.2581 101.444 29.4077ZM110.878 29.4183C110.796 29.518 110.593 30.4473 110.427 31.4835C110.261 32.5197 110.064 33.661 109.989 34.0197C109.31 37.2824 109.267 39.0218 109.844 39.8693C110.401 40.6858 111.067 40.9036 113.005 40.9036C114.538 40.9036 114.732 40.8717 115.499 40.4932C116.881 39.8107 117.567 38.648 117.908 36.4109C117.981 35.9327 118.137 34.987 118.256 34.3095C118.854 30.8851 119.06 29.4923 118.985 29.3709C118.888 29.2129 116.759 29.1932 116.523 29.348C116.434 29.4065 116.316 29.748 116.262 30.1067C116.208 30.4654 116.07 31.2806 115.954 31.9182C115.687 33.3918 115.513 34.4095 115.311 35.6863C115.075 37.1744 114.756 38.1427 114.433 38.345C114.277 38.4432 113.783 38.5279 113.336 38.5332C112.447 38.544 112.144 38.3266 112.144 37.6757C112.144 37.4851 112.438 35.5921 112.797 33.469C113.155 31.3458 113.417 29.525 113.378 29.4229C113.281 29.1686 111.086 29.1645 110.878 29.4183ZM105.721 32.023C106.128 32.6074 105.875 33.5776 105.206 33.9978C104.859 34.2158 103.271 34.3885 103.169 34.2194C103.076 34.0646 103.298 32.5819 103.492 32.0703C103.622 31.7269 103.697 31.7009 104.564 31.7009C105.364 31.7009 105.528 31.7465 105.721 32.023Z" fill="#FFFFFF"/>
</svg>
