<svg width="106" height="45" viewBox="0 0 106 45" fill="none" xmlns="http://www.w3.org/2000/svg">
<path fill-rule="evenodd" clip-rule="evenodd" d="M21.4791 0.0261414C16.6351 0.405185 12.8193 1.78422 9.04614 4.51961C7.74366 5.46393 5.1668 8.0933 4.16719 9.49788C3.14184 10.9389 1.605 13.9823 1.09923 15.5735C-0.69423 21.2161 -0.284814 27.1081 2.26681 32.3744C4.92436 37.8593 9.51983 41.8838 15.4279 43.8998C17.9468 44.7594 19.5207 44.9989 22.6602 45C25.0146 45.0009 25.4271 44.9684 26.8571 44.6694C30.6345 43.8797 33.5013 42.5545 36.69 40.1239C37.0031 39.8852 37.2615 39.6481 37.2642 39.5969C37.2668 39.5457 33.6324 39.5039 29.1876 39.5039H21.1061L21.1054 38.109C21.105 37.3419 21.0708 36.2677 21.0295 35.7222L20.9546 34.7302L22.0989 33.7487C22.7284 33.2089 23.308 32.7059 23.387 32.6311C23.4659 32.5563 24.3698 31.7474 25.3955 30.8334C27.8883 28.6122 32.0098 24.4716 33.1804 23.0126C34.3916 21.5028 35.2985 20.1158 35.9134 18.8326C36.6502 17.2954 36.832 16.4914 36.833 14.7675C36.8341 12.9361 36.6145 12.1972 35.8165 11.3464C35.0686 10.549 34.2534 10.2133 32.8952 10.1438C31.4124 10.0676 30.3324 10.3917 29.459 11.175C28.173 12.328 27.7043 13.6989 27.6052 16.5964L27.5385 18.5493H24.7026C23.0663 18.5493 21.8362 18.4999 21.7945 18.4327C21.7548 18.3686 21.6589 17.6951 21.5814 16.936C20.9697 10.9452 24.1132 6.09704 29.5049 4.71539C31.1012 4.30634 33.4943 4.19314 35.0311 4.45414C35.6123 4.55284 36.1065 4.61669 36.1294 4.59611C36.1523 4.57553 35.6742 4.2255 35.067 3.81831C33.1495 2.53251 30.4556 1.30909 28.3358 0.761291C26.3485 0.247717 23.0996 -0.100578 21.4791 0.0261414ZM60.27 5.12035C55.1577 5.66629 52.0553 8.25052 50.737 13.0608L50.4052 14.2716L50.3557 20.9418C50.3252 25.0554 50.3561 28.1051 50.4361 28.8984C50.7603 32.1105 51.9792 34.4612 54.0965 35.9573C55.4091 36.8847 56.5436 37.3487 58.4449 37.7354C59.6964 37.99 63.2197 38.0191 64.6837 37.7869C67.153 37.3953 69.4705 36.5317 70.5593 35.5974L71.0887 35.1431L71.0566 28.1171L71.0245 21.0911H66.0513H61.0782V23.633V26.1748L63.2871 26.2086L65.4962 26.2425L65.4629 29.2996L65.4297 32.3567L65.0567 32.4614C61.9076 33.3456 59.3005 32.9743 57.7424 31.4193C56.9754 30.6537 56.5245 29.7694 56.2364 28.4654C56.0555 27.6466 56.0357 26.7423 56.075 21.0879C56.124 14.0641 56.1186 14.1208 56.8838 12.494C57.3501 11.5027 58.4066 10.479 59.3384 10.1156C60.3631 9.71598 62.3556 9.70892 63.3836 10.1014C65.0256 10.7283 66.1135 12.6438 66.1135 14.9084V15.5735H68.8488H71.584L71.5836 14.9845C71.5825 12.998 70.9718 10.5979 70.0887 9.1093C69.0892 7.42437 67.0538 5.97614 64.9945 5.48489C63.4271 5.1108 61.6457 4.97342 60.27 5.12035ZM94.2742 5.32878C90.4291 5.96275 87.8965 7.88326 86.9314 10.8971C86.2235 13.1084 86.412 16.3037 87.3663 18.2691C88.577 20.7624 90.4169 22.0553 95.3668 23.8911C98.1521 24.924 99.7971 26.1292 100.238 27.4593C100.533 28.3506 100.459 30.0219 100.089 30.8463C99.7032 31.7063 98.9295 32.473 98.0348 32.8819C97.3249 33.2064 97.1353 33.2371 95.8283 33.2394C94.4402 33.2418 94.3733 33.2293 93.5321 32.8081C91.9297 32.0059 91.2334 30.6639 91.1517 28.2207L91.104 26.7948H88.4619H85.8198L85.8338 28.5926C85.858 31.6659 86.5583 33.6113 88.2558 35.3206C89.0525 36.1228 89.4053 36.3735 90.3752 36.8267C91.7921 37.4886 92.8222 37.7507 94.5486 37.8886C96.7829 38.0669 99.0185 37.7623 100.761 37.0423C104.315 35.5744 106.241 32.2675 105.976 28.0891C105.784 25.0518 104.68 22.8253 102.604 21.2851C101.521 20.4813 100.418 19.943 97.7547 18.918C94.7597 17.7654 93.8877 17.3309 93.1662 16.6316C92.1153 15.613 91.737 14.0589 92.1788 12.5756C92.5435 11.3503 93.1127 10.695 94.2746 10.1624C94.9318 9.86106 95.1675 9.82076 96.2635 9.82225C97.6674 9.82423 98.2903 10.0252 99.1063 10.7398C99.9579 11.4855 100.502 12.9749 100.578 14.7675L100.615 15.6355L103.257 15.669L105.899 15.7024V14.7789C105.899 12.9626 105.44 10.7978 104.778 9.49788C103.773 7.52071 101.902 6.10113 99.5498 5.53101C98.1921 5.20181 95.638 5.10398 94.2742 5.32878ZM76.4329 21.5251V37.5201H79.106H81.7791V21.5251V5.53014H79.106H76.4329V21.5251ZM43.6378 16.0614C43.2679 18.7697 41.8463 21.7221 39.544 24.5629C38.3044 26.0923 35.9509 28.4554 33.8499 30.2799C33.3713 30.6955 32.6983 31.281 32.3542 31.581C32.0103 31.881 31.4928 32.3197 31.2042 32.556C30.9156 32.7924 30.6795 33.0294 30.6795 33.083C30.6795 33.2092 42.2564 33.207 42.4557 33.0806C42.8187 32.8506 44.081 29.6986 44.5263 27.9107C44.7656 26.9492 45.0698 24.8489 45.1639 23.509C45.3022 21.5387 44.8735 18.3392 44.1546 15.9765C43.9834 15.4138 43.8313 14.9535 43.8163 14.9535C43.8013 14.9535 43.7211 15.4521 43.6378 16.0614Z" fill="#FFFFFF"/>
</svg>
