<svg width="127" height="52" viewBox="0 0 127 52" fill="none" xmlns="http://www.w3.org/2000/svg">
<path fill-rule="evenodd" clip-rule="evenodd" d="M29.4662 0.0695573C20.6763 0.63899 12.4304 6.085 8.29999 14.0487C7.32699 15.9244 6.22548 18.9672 5.91604 20.6338C5.59888 22.3421 5.63269 22.31 4.14589 22.31C1.6542 22.31 -0.00193079 23.735 1.6894e-06 25.8774C0.00169261 28.125 1.52884 29.4914 4.04058 29.4928C5.40708 29.4938 5.55588 29.5433 5.65734 30.0325C6.19119 32.612 6.43877 33.476 7.17553 35.3315C8.66426 39.081 10.5521 41.8527 13.5571 44.7008C16.5783 47.5647 19.5929 49.3763 23.5019 50.677C25.6575 51.3944 29.3845 52 31.6434 52C36.57 52 42.0007 50.3362 46.3785 47.4852C48.3231 46.219 51.7134 42.8943 53.1267 40.8678C56.4832 36.0544 58.2652 29.7507 57.8355 24.2099L57.6765 22.1587L59.4522 21.2336C60.9465 20.4554 61.5161 20.2926 63.043 20.2083C65.0192 20.0991 66.727 20.5672 68.3324 21.6584L69.1499 22.214L69.2042 26.0336C69.2644 30.2634 69.748 32.6831 71.2478 36.2539C74.1069 43.0624 80.6559 48.7953 87.9768 50.8982C102.898 55.1846 118.317 45.8038 121.191 30.691L121.396 29.6135L123.124 29.4938C125.086 29.3577 125.946 28.8862 126.65 27.5611C127.209 26.5094 127.084 24.7898 126.378 23.8069C125.659 22.8064 124.47 22.31 122.79 22.31H121.372L121.084 20.8134C119.609 13.1502 114.321 6.29357 107.131 2.72132C103.294 0.814992 99.8785 0.0233416 95.4934 0.0233416C91.1671 0.0233416 87.9621 0.684248 84.3855 2.314C78.2736 5.09939 72.9018 10.8351 70.7546 16.8685C70.515 17.5419 70.3379 17.7303 70.061 17.6063C69.8564 17.5146 68.8194 17.137 67.7566 16.767C64.6218 15.6758 61.0637 15.8487 57.8744 17.2471C57.2236 17.5326 56.6625 17.7378 56.6277 17.7033C56.5929 17.6688 56.3308 17.0479 56.0453 16.3235C54.1609 11.5447 50.6073 7.25236 46.042 4.24093C41.179 1.03338 35.7349 -0.336565 29.4662 0.0695573ZM36.9137 4.82832C44.625 6.67263 50.8153 12.7348 52.9308 20.5141C53.6381 23.1153 53.7017 28.0623 53.062 30.7655C52.069 34.963 49.8848 38.7153 46.686 41.7186C39.2718 48.6801 28.0719 49.6696 19.5393 44.1165C15.9446 41.7773 12.6715 37.7462 11.0917 33.7137C9.62762 29.9755 9.27807 24.4831 10.2675 20.7535C12.6015 11.9551 19.5221 5.79693 28.6997 4.35275C30.6687 4.04313 34.5757 4.26918 36.9137 4.82832ZM100.246 4.71697C111.264 7.28133 118.587 17.5963 117.156 28.5381C115.972 37.5978 109.832 44.5619 100.85 47.0324C98.2381 47.751 93.9219 47.855 91.0647 47.2683C83.2007 45.6534 77.081 40.3075 74.5057 32.8038C72.8153 27.8781 73.1419 21.7458 75.3517 16.9145C78.3719 10.3114 85.0494 5.36016 92.2896 4.35515C94.3108 4.0745 98.2569 4.2541 100.246 4.71697Z" fill="#767678"/>
</svg>
