<svg width="127" height="39" viewBox="0 0 127 39" fill="none" xmlns="http://www.w3.org/2000/svg">
<path fill-rule="evenodd" clip-rule="evenodd" d="M18.2874 0.222382C14.5872 0.472095 10.7064 1.0331 7.651 1.76026C4.99807 2.39179 1.5149 3.59641 0.590271 4.20233L0 4.58947L0.0999526 9.45814C0.217281 15.1631 0.401722 15.8577 2.12713 17.0973C3.82092 18.3143 4.30327 19.273 5.35947 23.5235C6.61966 28.5955 7.87215 31.1929 10.1622 33.4837C12.8528 36.1753 16.4729 37.7448 21.391 38.3519C24.8995 38.7852 32.6937 39.1153 35.7785 38.9617C44.7293 38.5154 49.6646 37.1691 52.22 34.4763C54.252 32.3352 55.5946 29.2896 57.3842 22.7596C58.6002 18.3237 59.1415 17.1633 60.6161 15.8304C62.6476 13.9945 64.6518 14.0829 66.6568 16.0968C68.1094 17.5557 68.3535 18.1102 69.6977 23.0047C72.1802 32.0446 74.1953 35.2301 78.4742 36.8783C82.353 38.3725 86.7424 38.9267 94.5636 38.9098C105.184 38.8869 110.609 37.9513 114.395 35.4897C118.283 32.9621 120.166 29.8177 121.725 23.2537C122.615 19.5051 123.023 18.6975 124.803 17.1548C125.736 16.3465 126.325 15.6128 126.529 15.0064C126.913 13.8665 127.171 6.19786 126.865 5.03455C126.663 4.26584 126.479 4.12773 124.691 3.40322C118.243 0.790652 107.661 -0.441023 96.7994 0.156695C85.7087 0.766729 78.4059 2.1602 72.0826 4.87251C69.1784 6.11818 67.8289 6.35242 63.5415 6.35508C58.9971 6.35774 57.7905 6.11746 53.7641 4.40762C45.968 1.09639 31.1817 -0.647992 18.2874 0.222382ZM32.8364 5.0418C41.1906 5.64073 48.3166 7.13828 51.1853 8.89786C51.6558 9.18645 52.173 9.81147 52.439 10.4126C54.4365 14.9301 52.6811 28.7578 49.6931 32.0405C48.5609 33.2847 45.2624 34.3889 40.4862 35.1226C36.1694 35.7855 27.087 35.729 23.1541 35.0144C19.3498 34.3232 16.0779 33.2082 14.2412 31.9775C9.7808 28.9882 7.2179 20.2217 8.62899 12.781C9.30447 9.21931 10.3365 7.43703 12.2184 6.58308C15.6163 5.04133 24.042 4.41148 32.8364 5.0418ZM107.117 5.03262C111.785 5.46225 114.835 6.25994 116.023 7.36215C117.055 8.31971 118.036 10.662 118.484 13.2403C119.535 19.2851 117.681 27.0513 114.333 30.6323C111.272 33.9054 104.818 35.5561 95.0465 35.565C85.8043 35.5735 79.259 34.1882 77.1461 31.7768C74.8247 29.1273 73.0237 18.4568 73.936 12.7573C74.3508 10.1655 74.9227 9.2577 76.6587 8.43345C80.0895 6.80476 86.8369 5.53423 95.1672 4.94858C97.8283 4.76142 104.696 4.80971 107.117 5.03262Z" fill="#767678"/>
</svg>
