<svg width="127" height="42" viewBox="0 0 127 42" fill="none" xmlns="http://www.w3.org/2000/svg">
<path fill-rule="evenodd" clip-rule="evenodd" d="M26.5811 0.0981137C18.8699 0.407549 10.0256 1.73342 2.99074 3.63411C0.897542 4.19972 -0.27175 6.05374 0.053993 8.29002C0.311692 10.0587 0.831666 10.8685 2.42443 11.9809C3.23589 12.5477 4.07534 13.3115 4.29034 13.6784C4.96474 14.8313 5.65846 17.2165 7.14264 23.4865C10.0169 35.63 11.2349 38.1283 15.2141 40.0405C18.5794 41.658 22.8244 42.1399 32.1771 41.9667C41.3595 41.7965 44.8864 41.0933 48.5451 38.7031C52.6241 36.0386 53.7572 33.6491 57.6886 19.4193C58.7037 15.745 59.3711 14.2042 60.4825 12.9679C61.4696 11.8696 62.3733 11.3999 63.4987 11.3999C65.9422 11.3999 67.6262 13.5771 69.0636 18.5954C72.8996 31.9877 73.1021 32.5811 74.6398 34.9291C76.3732 37.5754 79.0694 39.5324 82.44 40.5904C85.5889 41.579 87.8539 41.8354 94.589 41.9664C108.971 42.2462 113.787 40.7829 116.344 35.3566C117.455 33.0011 118.196 30.4928 119.855 23.4865C121.263 17.5387 121.994 14.9734 122.64 13.7236C122.817 13.3814 123.656 12.6176 124.505 12.0261C126.169 10.8661 126.683 10.0792 126.943 8.29002C127.227 6.34126 126.434 4.73422 124.779 3.90654C124.262 3.64777 120.607 2.79983 115.98 1.86469C103.062 -0.745368 85.0585 -0.573326 67.1711 2.33108L63.6046 2.91014L59.8284 2.31484C48.3337 0.502999 36.3676 -0.294985 26.5811 0.0981137ZM36.5947 4.10452C40.8095 4.39534 44.1 4.86997 47.3184 5.65122C50.4243 6.40489 51.5012 6.88542 52.4494 7.94029C53.6342 9.25839 53.7917 10.1884 53.4865 14.0611C52.6314 24.9124 50.4781 32.6308 47.487 35.5661C44.6632 38.3373 37.9715 39.6086 27.4051 39.3804C21.5147 39.2534 20.3312 39.0559 17.7086 37.7628C15.861 36.8519 14.3302 35.4575 13.6684 34.0821C12.0804 30.7825 10.2177 20.8169 9.66727 12.6759C9.36613 8.22474 10.416 6.93091 15.3827 5.63284C21.0948 4.13986 28.9271 3.57544 36.5947 4.10452ZM101.381 4.10429C107.084 4.51577 112.507 5.55742 114.739 6.66979C115.926 7.26132 116.85 8.32749 117.22 9.53318C118.093 12.3777 115.409 29.4735 113.406 33.8339C112.322 36.193 110.001 37.8705 106.449 38.8624C105.335 39.1735 103.691 39.2928 99.3261 39.3795C88.1886 39.6008 81.2982 38.117 78.9683 34.9955C75.9408 30.9396 74.2607 24.215 73.3868 12.6572C73.0576 8.3044 74.4878 6.7895 80.127 5.51688C86.382 4.10521 94.1982 3.58581 101.381 4.10429Z" fill="#767678"/>
</svg>
