<svg width="127" height="44" viewBox="0 0 127 44" fill="none" xmlns="http://www.w3.org/2000/svg">
<path fill-rule="evenodd" clip-rule="evenodd" d="M23.0061 0.300593C17.6306 0.918249 12.6697 1.93742 7.79586 3.4251C5.00732 4.27618 0.332689 6.01196 0.0270358 6.30978C-0.211258 6.54226 1.18374 11.6509 1.93145 13.2846C2.61591 14.7803 3.09178 15.1104 4.56379 15.1104C5.73595 15.1104 6.48875 15.9894 7.08243 18.0509C9.68628 27.0951 12.6737 33.6156 16.181 37.9108C18.1922 40.3741 20.02 41.5311 23.6927 42.6662C27.1445 43.733 29.8778 44.0545 34.3534 43.9202C37.5802 43.8234 38.7926 43.6847 40.7342 43.1894C46.9052 41.6156 52.4174 37.4572 55.9257 31.7288C56.57 30.677 57.9056 27.919 58.8938 25.6001C60.875 20.9507 61.5667 19.7919 62.6138 19.3665C64.3031 18.6804 65.5142 19.8002 67.0926 23.5085C70.3133 31.0731 71.5775 33.2695 74.4336 36.2634C76.2842 38.2034 79.255 40.4316 81.405 41.4927C89.753 45.6122 104.043 44.4986 109.513 39.3022C110.866 38.0171 113.167 34.6128 114.634 31.7281C116.763 27.5411 117.888 24.5599 119.821 17.9851C120.432 15.9065 121.127 15.1104 122.329 15.1104C123.766 15.1104 124.29 14.7704 124.863 13.4643C125.498 12.0173 126.183 9.86277 126.656 7.82799L127 6.34552L125.885 5.86068C123.933 5.01149 119.054 3.34413 116.682 2.71511C110.072 0.962757 104.899 0.205661 98.333 0.029763C88.5659 -0.231835 81.5344 1.20234 71.6547 5.47171C66.7474 7.5922 65.4014 8.00815 63.446 8.00815C61.4832 8.00815 60.2876 7.63457 54.7958 5.30528C48.1339 2.47979 44.6377 1.42487 38.9778 0.53189C35.7337 0.0202937 26.5974 -0.112045 23.0061 0.300593ZM38.6992 4.80482C47.5996 6.16157 53.2093 8.89285 54.9433 12.7141C56.219 15.5251 55.4735 22.1775 53.322 27.1796C52.0722 30.0858 50.4012 32.5401 48.2416 34.6414C45.4132 37.3938 42.6063 38.8786 38.7499 39.6629C36.0036 40.2214 28.9647 40.2252 26.869 39.6693C21.4312 38.2269 17.5454 34.5188 14.5299 27.8943C11.6409 21.548 9.5547 12.2115 10.4388 9.58484C11.33 6.93714 14.1762 5.65992 21.3161 4.70349C25.6442 4.12371 34.5731 4.1758 38.6992 4.80482ZM104.25 4.57613C113.759 5.65448 116.661 7.26171 116.677 11.4584C116.692 15.5218 114.149 24.5546 111.55 29.6699C109.677 33.3548 106.561 36.7811 103.755 38.2385C102.955 38.6544 101.434 39.2404 100.377 39.5406C98.6758 40.0235 97.9658 40.0839 94.2287 40.064C86.6054 40.0233 82.8309 38.7094 78.6505 34.6414C74.774 30.8695 72.3397 25.705 71.5164 19.5064C70.7904 14.0401 71.8546 11.2314 75.5671 8.81496C78.8538 6.67578 85.1911 4.95964 91.9351 4.38247C94.6476 4.15047 101.437 4.25724 104.25 4.57613Z" fill="#767678"/>
</svg>
