<svg width="127" height="42" viewBox="0 0 127 42" fill="none" xmlns="http://www.w3.org/2000/svg">
<path fill-rule="evenodd" clip-rule="evenodd" d="M22.3662 0.205184C14.9283 0.6941 6.32273 1.64518 3.57087 2.28223C0.651132 2.95819 -0.270497 4.05449 0.0657375 6.45115C0.343842 8.43113 0.978683 9.55978 2.45749 10.702C4.44016 12.2335 4.92811 13.4531 7.28054 22.7581C9.45689 31.3657 10.7056 35.4738 11.6299 37.0638C13.9276 41.018 19.1028 42.2223 32.7 41.9669C39.6261 41.8367 41.8434 41.5845 45.2222 40.5415C47.9706 39.693 49.9326 38.5021 51.7358 36.5878C54.4394 33.7173 55.2402 31.7057 58.427 19.7769C58.9988 17.6364 59.6858 15.3039 59.9535 14.5937C60.9526 11.9435 62.5966 10.6033 64.1955 11.1355C65.8719 11.6935 66.9264 13.5536 68.0608 17.9526C69.6633 24.1674 71.6843 30.8551 72.454 32.4911C73.837 35.4302 75.9577 37.8013 78.3791 39.1163C82.7212 41.4745 87.5464 42.1649 98.3107 41.9683C109.397 41.7659 112.826 40.8253 115.145 37.3506C116.156 35.8352 117.715 30.8434 119.798 22.4526C121.411 15.9553 122.265 13.1965 122.987 12.1571C123.167 11.8976 123.894 11.2231 124.603 10.6585C127.27 8.53256 127.855 4.16905 125.629 3.00806C122.495 1.37396 104.352 -0.252353 92.4351 0.0327261C83.6939 0.241914 81.8579 0.543777 71.3565 3.49843C65.4688 5.15491 63.9531 5.40788 61.9072 5.07537C61.0536 4.93672 57.8047 4.10727 54.6871 3.23208C47.6684 1.26158 46.6728 1.0271 43.2887 0.547428C40.0453 0.0877016 27.3202 -0.120273 22.3662 0.205184ZM41.3005 3.94697C42.6271 4.16054 44.748 4.60105 46.0138 4.92578C50.9847 6.20085 52.9811 7.32682 54.0161 9.43913C56.8866 15.2983 54.0308 29.5224 48.8074 35.3813C46.1764 38.3324 40.3555 39.6279 29.7474 39.6227C22.8308 39.6193 20.8177 39.3202 17.9764 37.8738C14.9162 36.3159 13.9102 34.7652 12.2529 29.049C10.8013 24.0436 10.461 21.9695 10.4721 18.1958C10.4863 13.3765 11.5344 9.98934 13.8593 7.25044C15.4179 5.41396 18.952 4.11262 23.728 3.61665C27.0419 3.27222 38.4432 3.48676 41.3005 3.94697ZM103.299 3.62468C108.181 4.12016 111.331 5.26705 113.087 7.18817C114.214 8.42092 115.515 11.0579 116.117 13.331C116.737 15.6666 116.68 21.1935 116.004 24.3155C115.356 27.3047 113.935 32.0441 113.199 33.665C110.964 38.5887 105.314 40.27 93.2366 39.6052C86.3402 39.2258 81.6929 38.2338 79.5795 36.69C77.4666 35.1461 75.4236 31.8667 73.9538 27.6582C72.4381 23.3187 71.9704 20.6275 71.9504 16.1283C71.9185 8.99497 72.9902 7.36525 78.9611 5.46675C81.2337 4.74432 85.317 3.92192 88.0935 3.62735C90.9729 3.32208 100.301 3.32038 103.299 3.62468Z" fill="#767678"/>
</svg>
