<svg width="127" height="51" viewBox="0 0 127 51" fill="none" xmlns="http://www.w3.org/2000/svg">
<path fill-rule="evenodd" clip-rule="evenodd" d="M23.7008 0.154735C14.6257 0.998381 7.7914 3.39677 4.11726 7.02726C2.06376 9.05631 1.22363 10.6145 0.637708 13.4801C-0.963133 21.3076 0.523518 32.0258 4.27201 39.6859C5.71955 42.6437 7.26704 44.6179 9.39997 46.2273C17.381 52.2501 29.6554 52.588 39.6165 47.0593C44.49 44.3545 48.9683 40.225 51.974 35.6645L53.6673 33.0954L54.4297 33.4904L55.1923 33.8853L54.4461 35.213C54.0359 35.9432 53.0611 37.3279 52.2801 38.2903C50.8543 40.0477 50.6129 40.6705 51.15 41.2087C51.6872 41.7469 52.2591 41.5045 53.3684 40.2686C55.9084 37.4379 58.0756 33.3745 59.6429 28.5027C60.6522 25.3659 60.7481 24.225 60.0342 23.8424C59.2385 23.4157 58.6716 23.9207 58.3428 25.349C58.1816 26.0502 57.7243 27.6235 57.3267 28.8452L56.6039 31.0666L55.7768 30.6714C55.1846 30.3886 54.9961 30.1697 55.1124 29.9012C55.721 28.4977 56.9318 24.6132 57.2647 22.9958C57.4836 21.9316 57.7234 19.7274 57.7972 18.0979L57.9317 15.135H63.5333H69.1352L69.2841 18.2189C69.4814 22.3021 70.2604 25.6871 71.982 29.9399C72.1092 30.2544 71.9559 30.4329 71.3427 30.6844L70.5359 31.0155L69.9804 29.5452C69.6747 28.7366 69.1975 27.1679 68.9196 26.0589C68.388 23.9386 67.9013 23.3932 66.975 23.8794C66.3345 24.2158 66.447 25.3637 67.4245 28.4585C68.9553 33.3056 71.138 37.4121 73.7011 40.2686C74.8104 41.5045 75.3823 41.7469 75.9195 41.2087C76.4484 40.6788 76.2218 40.0499 74.9401 38.4935C74.2421 37.6455 73.2646 36.2634 72.7678 35.4219L71.8644 33.8921L72.6333 33.4937L73.4022 33.0954L75.0955 35.6645C83.1929 47.9506 98.2272 53.824 110.973 49.681C114.39 48.5703 118.049 46.3356 119.904 44.2265C122.194 41.6221 124.253 37.16 125.573 31.9361C126.677 27.5679 127.007 24.8563 127 20.2143C126.989 13.1679 126.041 10.0652 122.978 7.0495C119.561 3.6858 114.214 1.59557 106.113 0.457566C102.034 -0.115426 91.6723 -0.116163 87.1309 0.456346C83.5589 0.906467 79.9992 1.6033 77.7012 2.30182C76.1954 2.75944 76.1691 2.75945 75.7095 2.29892C75.2621 1.85074 74.7793 1.8321 63.5348 1.8321C52.3105 1.8321 51.8069 1.85121 51.3625 2.2965C50.9055 2.75436 50.878 2.75436 49.4113 2.29698C47.2504 1.62313 43.6354 0.921222 40.0837 0.485612C36.3644 0.0294433 27.0676 -0.158246 23.7008 0.154735ZM37.0995 2.32335C45.3164 3.04945 51.1327 4.58121 52.9928 6.50892C54.7346 8.314 55.7375 11.9443 55.743 16.4653C55.7582 28.6899 48.5702 40.2156 37.4539 45.7917C28.2907 50.388 17.7137 49.8837 10.5788 44.5105C5.45568 40.6519 1.70622 29.1592 2.17916 18.7631C2.42613 13.3287 3.22885 10.8307 5.43903 8.61635C8.86885 5.18009 14.9267 3.15612 24.5458 2.23242C26.5474 2.04037 34.5516 2.09841 37.0995 2.32335ZM106.628 2.66729C115.747 4.06918 121.341 6.90487 123.516 11.2302C124.302 12.7937 124.724 15.107 124.89 18.7631C125.269 27.1207 122.917 36.4167 119.038 41.8978C116.34 45.7087 110.362 48.4506 103.748 48.9104C94.1125 49.5801 82.9846 43.7174 77.0764 34.8584C73.3025 29.1998 71.362 23.0132 71.3451 16.5862C71.333 11.9394 72.3081 8.34182 74.0768 6.50892C75.8876 4.63224 81.3408 3.16409 89.6079 2.32746C92.9211 1.99222 103.626 2.20604 106.628 2.66729ZM72.4247 5.15784C71.0762 6.62817 69.4495 10.6144 69.4495 12.4488C69.4495 12.9528 69.3875 12.9582 63.5348 12.9582C57.6821 12.9582 57.62 12.9528 57.62 12.4488C57.62 10.6144 55.9934 6.62817 54.6448 5.15784L53.8129 4.25081H63.5348H73.2567L72.4247 5.15784Z" fill="#767678"/>
</svg>
