<svg width="37" height="32" viewBox="0 0 37 32" fill="none" xmlns="http://www.w3.org/2000/svg">
<rect width="37" height="32" rx="3" fill="#CECECE"/>
<path d="M9.82617 17.0967H7.16699V16.0234H9.82617C10.3411 16.0234 10.7581 15.9414 11.0771 15.7773C11.3962 15.6133 11.6286 15.3854 11.7744 15.0938C11.9248 14.8021 12 14.4694 12 14.0957C12 13.7539 11.9248 13.4326 11.7744 13.1318C11.6286 12.8311 11.3962 12.5895 11.0771 12.4072C10.7581 12.2204 10.3411 12.127 9.82617 12.127H7.47461V21H6.15527V11.0469H9.82617C10.5781 11.0469 11.2139 11.1768 11.7334 11.4365C12.2529 11.6963 12.6471 12.0563 12.916 12.5166C13.1849 12.9723 13.3193 13.4941 13.3193 14.082C13.3193 14.7201 13.1849 15.2646 12.916 15.7158C12.6471 16.167 12.2529 16.5111 11.7334 16.748C11.2139 16.9805 10.5781 17.0967 9.82617 17.0967ZM22.6504 15.709V16.3379C22.6504 17.0853 22.557 17.7552 22.3701 18.3477C22.1833 18.9401 21.9144 19.4437 21.5635 19.8584C21.2126 20.2731 20.791 20.5898 20.2988 20.8086C19.8112 21.0273 19.2643 21.1367 18.6582 21.1367C18.0703 21.1367 17.5303 21.0273 17.0381 20.8086C16.5505 20.5898 16.1266 20.2731 15.7666 19.8584C15.4111 19.4437 15.1354 18.9401 14.9395 18.3477C14.7435 17.7552 14.6455 17.0853 14.6455 16.3379V15.709C14.6455 14.9616 14.7412 14.2939 14.9326 13.7061C15.1286 13.1136 15.4043 12.61 15.7598 12.1953C16.1152 11.776 16.5368 11.457 17.0244 11.2383C17.5166 11.0195 18.0566 10.9102 18.6445 10.9102C19.2507 10.9102 19.7975 11.0195 20.2852 11.2383C20.7773 11.457 21.1989 11.776 21.5498 12.1953C21.9053 12.61 22.1764 13.1136 22.3633 13.7061C22.5547 14.2939 22.6504 14.9616 22.6504 15.709ZM21.3447 16.3379V15.6953C21.3447 15.1029 21.2832 14.5788 21.1602 14.123C21.0417 13.6673 20.8662 13.2845 20.6338 12.9746C20.4014 12.6647 20.1165 12.43 19.7793 12.2705C19.4466 12.111 19.0684 12.0312 18.6445 12.0312C18.2344 12.0312 17.863 12.111 17.5303 12.2705C17.2021 12.43 16.9196 12.6647 16.6826 12.9746C16.4502 13.2845 16.2702 13.6673 16.1426 14.123C16.015 14.5788 15.9512 15.1029 15.9512 15.6953V16.3379C15.9512 16.9349 16.015 17.4635 16.1426 17.9238C16.2702 18.3796 16.4525 18.7646 16.6895 19.0791C16.931 19.389 17.2158 19.6237 17.5439 19.7832C17.8766 19.9427 18.248 20.0225 18.6582 20.0225C19.0866 20.0225 19.4671 19.9427 19.7998 19.7832C20.1325 19.6237 20.4128 19.389 20.6406 19.0791C20.873 18.7646 21.0485 18.3796 21.167 17.9238C21.2855 17.4635 21.3447 16.9349 21.3447 16.3379ZM30.6621 19.9268V21H25.6855V19.9268H30.6621ZM25.9453 11.0469V21H24.626V11.0469H25.9453Z" fill="white"/>
</svg>
