<svg width="36" height="32" viewBox="0 0 36 32" fill="none" xmlns="http://www.w3.org/2000/svg">
<rect width="36" height="32" rx="3" fill="#CECECE"/>
<circle cx="16.4167" cy="16.5834" r="5.91667" stroke="white"/>
<circle cx="18.5834" cy="14.4167" r="5.91667" fill="#CECECE" stroke="white"/>
<path fill-rule="evenodd" clip-rule="evenodd" d="M18.5834 19.8333C21.5749 19.8333 24 17.4082 24 14.4167C24 12.5918 23.0976 10.9777 21.7147 9.99632C21.7067 10.0081 21.6974 10.0194 21.6868 10.0301L18.2138 13.5492C18.1169 13.6475 17.9484 13.6603 17.8377 13.5779C17.7269 13.4954 17.7158 13.3489 17.8128 13.2506L21.2858 9.73153C21.2879 9.72933 21.2901 9.72717 21.2924 9.72506C21.188 9.66468 21.0815 9.60769 20.9729 9.55422L17.5766 12.9956C17.4796 13.0939 17.3112 13.1067 17.2005 13.0243C17.0897 12.9418 17.0786 12.7953 17.1756 12.6971L20.4853 9.34333C19.8936 9.12138 19.2526 9 18.5834 9C15.5918 9 13.1667 11.4251 13.1667 14.4167C13.1667 16.6566 14.5263 18.579 16.4652 19.4035L19.6486 16.1779C19.7455 16.0797 19.9139 16.0668 20.0247 16.1493C20.1354 16.2317 20.1466 16.3782 20.0496 16.4765L16.9761 19.5909C17.1025 19.6301 17.231 19.6649 17.3612 19.6949L20.2858 16.7315C20.3827 16.6333 20.5511 16.6204 20.6619 16.7029C20.7726 16.7853 20.7838 16.9318 20.6868 17.0301L17.9558 19.7974C18.1617 19.8211 18.3711 19.8333 18.5834 19.8333ZM12.1667 14.4167C12.1667 17.3731 14.1661 19.8625 16.8865 20.6066C16.9152 20.6196 16.946 20.6276 16.9774 20.6307C17.4907 20.763 18.0288 20.8333 18.5834 20.8333C22.1272 20.8333 25 17.9605 25 14.4167C25 10.8728 22.1272 8 18.5834 8C15.0395 8 12.1667 10.8728 12.1667 14.4167Z" fill="white"/>
<mask id="path-5-inside-1_901_8237" fill="white">
<path d="M12.5 5L12.8359 7.16412L15 7.5L12.8359 7.83588L12.5 10L12.1641 7.83588L10 7.5L12.1641 7.16412L12.5 5Z"/>
</mask>
<path d="M12.5 5L13.4882 4.84663H11.5118L12.5 5ZM12.8359 7.16412L11.8477 7.31749L11.9599 8.04014L12.6825 8.15229L12.8359 7.16412ZM15 7.5L15.1534 8.48817V6.51183L15 7.5ZM12.8359 7.83588L12.6825 6.84771L11.9599 6.95986L11.8477 7.68251L12.8359 7.83588ZM12.5 10L11.5118 10.1534H13.4882L12.5 10ZM12.1641 7.83588L13.1523 7.68251L13.0401 6.95986L12.3175 6.84771L12.1641 7.83588ZM10 7.5L9.84663 6.51183V8.48817L10 7.5ZM12.1641 7.16412L12.3175 8.15229L13.0401 8.04014L13.1523 7.31749L12.1641 7.16412ZM11.5118 5.15337L11.8477 7.31749L13.824 7.01076L13.4882 4.84663L11.5118 5.15337ZM12.6825 8.15229L14.8466 8.48817L15.1534 6.51183L12.9892 6.17595L12.6825 8.15229ZM14.8466 6.51183L12.6825 6.84771L12.9892 8.82405L15.1534 8.48817L14.8466 6.51183ZM11.8477 7.68251L11.5118 9.84663L13.4882 10.1534L13.824 7.98924L11.8477 7.68251ZM13.4882 9.84663L13.1523 7.68251L11.176 7.98924L11.5118 10.1534L13.4882 9.84663ZM12.3175 6.84771L10.1534 6.51183L9.84663 8.48817L12.0108 8.82405L12.3175 6.84771ZM10.1534 8.48817L12.3175 8.15229L12.0108 6.17595L9.84663 6.51183L10.1534 8.48817ZM13.1523 7.31749L13.4882 5.15337L11.5118 4.84663L11.176 7.01076L13.1523 7.31749Z" fill="white" mask="url(#path-5-inside-1_901_8237)"/>
<mask id="path-7-inside-2_901_8237" fill="white">
<path d="M26.5 17L26.8359 19.1641L29 19.5L26.8359 19.8359L26.5 22L26.1641 19.8359L24 19.5L26.1641 19.1641L26.5 17Z"/>
</mask>
<path d="M26.5 17L27.4882 16.8466H25.5118L26.5 17ZM26.8359 19.1641L25.8477 19.3175L25.9599 20.0401L26.6825 20.1523L26.8359 19.1641ZM29 19.5L29.1534 20.4882V18.5118L29 19.5ZM26.8359 19.8359L26.6825 18.8477L25.9599 18.9599L25.8477 19.6825L26.8359 19.8359ZM26.5 22L25.5118 22.1534H27.4882L26.5 22ZM26.1641 19.8359L27.1523 19.6825L27.0401 18.9599L26.3175 18.8477L26.1641 19.8359ZM24 19.5L23.8466 18.5118V20.4882L24 19.5ZM26.1641 19.1641L26.3175 20.1523L27.0401 20.0401L27.1523 19.3175L26.1641 19.1641ZM25.5118 17.1534L25.8477 19.3175L27.824 19.0108L27.4882 16.8466L25.5118 17.1534ZM26.6825 20.1523L28.8466 20.4882L29.1534 18.5118L26.9892 18.176L26.6825 20.1523ZM28.8466 18.5118L26.6825 18.8477L26.9892 20.824L29.1534 20.4882L28.8466 18.5118ZM25.8477 19.6825L25.5118 21.8466L27.4882 22.1534L27.824 19.9892L25.8477 19.6825ZM27.4882 21.8466L27.1523 19.6825L25.176 19.9892L25.5118 22.1534L27.4882 21.8466ZM26.3175 18.8477L24.1534 18.5118L23.8466 20.4882L26.0108 20.824L26.3175 18.8477ZM24.1534 20.4882L26.3175 20.1523L26.0108 18.176L23.8466 18.5118L24.1534 20.4882ZM27.1523 19.3175L27.4882 17.1534L25.5118 16.8466L25.176 19.0108L27.1523 19.3175Z" fill="white" mask="url(#path-7-inside-2_901_8237)"/>
<mask id="path-9-inside-3_901_8237" fill="white">
<path d="M9.5 10L9.70153 11.2985L11 11.5L9.70153 11.7015L9.5 13L9.29847 11.7015L8 11.5L9.29847 11.2985L9.5 10Z"/>
</mask>
<path d="M9.5 10L10.4882 9.84663H8.51183L9.5 10ZM9.70153 11.2985L8.71336 11.4518L8.82551 12.1745L9.54816 12.2866L9.70153 11.2985ZM11 11.5L11.1534 12.4882V10.5118L11 11.5ZM9.70153 11.7015L9.54816 10.7134L8.82551 10.8255L8.71336 11.5482L9.70153 11.7015ZM9.5 13L8.51183 13.1534H10.4882L9.5 13ZM9.29847 11.7015L10.2866 11.5482L10.1745 10.8255L9.45184 10.7134L9.29847 11.7015ZM8 11.5L7.84663 10.5118V12.4882L8 11.5ZM9.29847 11.2985L9.45184 12.2866L10.1745 12.1745L10.2866 11.4518L9.29847 11.2985ZM8.51183 10.1534L8.71336 11.4518L10.6897 11.1451L10.4882 9.84663L8.51183 10.1534ZM9.54816 12.2866L10.8466 12.4882L11.1534 10.5118L9.85489 10.3103L9.54816 12.2866ZM10.8466 10.5118L9.54816 10.7134L9.85489 12.6897L11.1534 12.4882L10.8466 10.5118ZM8.71336 11.5482L8.51183 12.8466L10.4882 13.1534L10.6897 11.8549L8.71336 11.5482ZM10.4882 12.8466L10.2866 11.5482L8.31031 11.8549L8.51183 13.1534L10.4882 12.8466ZM9.45184 10.7134L8.15337 10.5118L7.84663 12.4882L9.14511 12.6897L9.45184 10.7134ZM8.15337 12.4882L9.45184 12.2866L9.14511 10.3103L7.84663 10.5118L8.15337 12.4882ZM10.2866 11.4518L10.4882 10.1534L8.51183 9.84663L8.31031 11.1451L10.2866 11.4518Z" fill="white" mask="url(#path-9-inside-3_901_8237)"/>
<mask id="path-11-inside-4_901_8237" fill="white">
<path d="M22.5 21L22.7015 22.2985L24 22.5L22.7015 22.7015L22.5 24L22.2985 22.7015L21 22.5L22.2985 22.2985L22.5 21Z"/>
</mask>
<path d="M22.5 21L23.4882 20.8466H21.5118L22.5 21ZM22.7015 22.2985L21.7134 22.4518L21.8255 23.1745L22.5482 23.2866L22.7015 22.2985ZM24 22.5L24.1534 23.4882V21.5118L24 22.5ZM22.7015 22.7015L22.5482 21.7134L21.8255 21.8255L21.7134 22.5482L22.7015 22.7015ZM22.5 24L21.5118 24.1534H23.4882L22.5 24ZM22.2985 22.7015L23.2866 22.5482L23.1745 21.8255L22.4518 21.7134L22.2985 22.7015ZM21 22.5L20.8466 21.5118V23.4882L21 22.5ZM22.2985 22.2985L22.4518 23.2866L23.1745 23.1745L23.2866 22.4518L22.2985 22.2985ZM21.5118 21.1534L21.7134 22.4518L23.6897 22.1451L23.4882 20.8466L21.5118 21.1534ZM22.5482 23.2866L23.8466 23.4882L24.1534 21.5118L22.8549 21.3103L22.5482 23.2866ZM23.8466 21.5118L22.5482 21.7134L22.8549 23.6897L24.1534 23.4882L23.8466 21.5118ZM21.7134 22.5482L21.5118 23.8466L23.4882 24.1534L23.6897 22.8549L21.7134 22.5482ZM23.4882 23.8466L23.2866 22.5482L21.3103 22.8549L21.5118 24.1534L23.4882 23.8466ZM22.4518 21.7134L21.1534 21.5118L20.8466 23.4882L22.1451 23.6897L22.4518 21.7134ZM21.1534 23.4882L22.4518 23.2866L22.1451 21.3103L20.8466 21.5118L21.1534 23.4882ZM23.2866 22.4518L23.4882 21.1534L21.5118 20.8466L21.3103 22.1451L23.2866 22.4518Z" fill="white" mask="url(#path-11-inside-4_901_8237)"/>
</svg>
