<svg width="36" height="32" viewBox="0 0 36 32" fill="none" xmlns="http://www.w3.org/2000/svg">
<rect width="36" height="32" rx="3" fill="#CECECE"/>
<path fill-rule="evenodd" clip-rule="evenodd" d="M10.2897 8.05119C9.49696 8.23147 8.72244 8.82891 8.40973 9.50125C8.18716 9.97982 5.93298 19.5849 6.00153 19.7626C6.02773 19.8305 6.11046 19.9431 6.18541 20.013C6.3145 20.1332 6.35776 20.1408 7.00334 20.1565L7.68498 20.1732L7.71413 20.3089C8.12454 22.2175 9.22442 23.7256 10.7044 24.4095C11.3344 24.7005 11.7834 24.7987 12.4838 24.7987C13.2262 24.7987 13.6934 24.6888 14.3739 24.3538C16.0667 23.5205 17.219 21.6405 17.3638 19.4754C17.4012 18.9171 17.4344 18.8508 17.765 18.6759C18.043 18.5288 18.8424 18.5204 19.1107 18.6617C19.4511 18.8409 19.5169 18.9359 19.5173 19.2474C19.5174 19.4031 19.5505 19.7476 19.5909 20.013C19.9475 22.3613 21.4134 24.1607 23.4017 24.6905C23.9633 24.8402 24.8672 24.8416 25.4177 24.6938C27.3015 24.1878 28.6899 22.5724 29.1864 20.3089L29.2161 20.1732L29.8985 20.1565C30.5702 20.1402 30.5833 20.1376 30.7323 19.9947C30.8156 19.9149 30.8969 19.7971 30.9129 19.7331C30.93 19.6652 30.4657 17.5895 29.7981 14.7494C28.5554 9.46256 28.5431 9.42082 28.0807 8.90909C27.5594 8.33227 26.8569 8.01478 26.0931 8.01087C25.48 8.00773 25.3141 8.0972 25.1842 8.50117C25.1461 8.61949 25.2609 8.88959 25.4032 9.01634C25.4946 9.0978 25.5977 9.11689 25.9827 9.12375C26.374 9.13065 26.4983 9.15432 26.7374 9.26741C27.0564 9.41833 27.3392 9.70108 27.4937 10.0236C27.5501 10.1413 28.0601 12.2142 28.6271 14.6302L29.6581 19.0227L29.5084 19.039C29.4261 19.048 29.3482 19.0448 29.3354 19.0319C29.3225 19.019 29.2931 18.8207 29.2699 18.5912C29.2067 17.9639 29.1445 17.9062 28.0736 17.4805C26.8513 16.9946 25.8283 16.802 24.4428 16.7969C23.6237 16.7939 23.3384 16.8134 22.7924 16.9099C22.0022 17.0496 21.1552 17.2983 20.4371 17.6017L19.9099 17.8243L19.6636 17.6995C18.9527 17.3393 17.9472 17.3399 17.2346 17.701L16.9854 17.8273L16.4612 17.603C15.7547 17.3007 14.9063 17.0508 14.1088 16.9101C13.1985 16.7494 11.7501 16.748 10.8723 16.9069C9.62706 17.1325 8.09697 17.6766 7.7904 18.0029C7.68452 18.1157 7.59647 18.5269 7.5856 18.9593C7.58393 19.0268 7.54005 19.0481 7.40223 19.0481C7.25299 19.0481 7.22592 19.0325 7.24877 18.9593C7.26401 18.9104 7.73546 16.9166 8.29639 14.5286C8.85737 12.1406 9.36173 10.0915 9.41718 9.97509C9.54485 9.70737 9.90737 9.37095 10.2151 9.23475C10.3892 9.15767 10.5691 9.12781 10.8895 9.12293C11.2152 9.11796 11.3619 9.09318 11.465 9.02553C11.6236 8.92164 11.7605 8.6366 11.7169 8.50117C11.6469 8.28342 11.564 8.16748 11.428 8.09715C11.2201 7.98965 10.6598 7.967 10.2897 8.05119ZM13.9107 18.008C14.1593 18.0505 14.3916 18.0957 14.4269 18.1084C14.4699 18.1239 14.0374 19.0389 13.1177 20.8779C11.8411 23.4308 11.7364 23.6221 11.6316 23.5931C11.5696 23.576 11.3019 23.4567 11.0366 23.3279C9.98355 22.8166 9.14703 21.6468 8.85427 20.2761C8.74707 19.7739 8.67451 18.9564 8.72346 18.802C8.7909 18.5895 10.3029 18.1019 11.2644 17.9826C11.4882 17.9548 11.7512 17.9224 11.849 17.9106C12.1829 17.8703 13.458 17.9305 13.9107 18.008ZM25.2118 17.9321C25.6951 17.9798 26.2028 18.0586 26.3605 18.1103C26.403 18.1243 25.9591 19.0624 25.0505 20.8794C24.1914 22.5974 23.6534 23.619 23.6152 23.605C23.5816 23.5926 23.4343 23.5431 23.288 23.495C22.722 23.3089 21.9354 22.6626 21.5021 22.0276C21.0135 21.3115 20.6977 20.3107 20.6501 19.3274L20.6206 18.718L20.7924 18.6498C22.4079 18.0081 23.7592 17.7886 25.2118 17.9321ZM15.9812 18.5982L16.2794 18.718L16.2494 19.3274C16.1502 21.3446 15.0517 23.0058 13.4646 23.5385C13.2504 23.6104 13.0507 23.6692 13.0208 23.6692C12.9908 23.6692 13.5547 22.4921 14.2739 21.0534C14.993 19.6147 15.6043 18.4468 15.6322 18.458C15.6601 18.4692 15.8172 18.5323 15.9812 18.5982ZM28.0849 18.6775C28.1889 18.7193 28.2096 18.996 28.1514 19.5663C28.0727 20.3387 27.9378 20.8202 27.6209 21.4602C27.3324 22.043 26.9455 22.5609 26.5665 22.8714C26.1163 23.2403 25.5042 23.5518 25.0656 23.6351L24.9014 23.6664L26.2056 21.0573L27.5098 18.4482L27.7663 18.5504C27.9074 18.6066 28.0508 18.6638 28.0849 18.6775Z" fill="white"/>
</svg>
