<svg width="36" height="32" viewBox="0 0 36 32" fill="none" xmlns="http://www.w3.org/2000/svg">
<rect width="36" height="32" rx="3" fill="#CECECE"/>
<path fill-rule="evenodd" clip-rule="evenodd" d="M6.14225 13.9528C6.5965 16.096 7.81382 17.7894 9.4519 18.5573C10.1491 18.8841 10.6461 18.9944 11.4212 18.9944C12.2429 18.9944 12.76 18.871 13.5132 18.4948C15.3868 17.5591 16.6621 15.4481 16.8225 13.0169C16.8638 12.39 16.9006 12.3156 17.2665 12.1192C17.5741 11.954 18.4589 11.9446 18.7559 12.1033C19.1326 12.3045 19.2055 12.4111 19.2059 12.7609C19.206 12.9358 19.2427 13.3226 19.2873 13.6206C19.682 16.2575 21.3045 18.2779 23.5051 18.8729C24.1267 19.0409 25.1271 19.0425 25.7363 18.8766C27.8214 18.3085 29.358 16.4945 29.9075 13.9528C29.9075 13.9528 30 13.5353 30 13.2551V12.0241C29.93 11.3197 29.8612 11.2549 28.6759 10.7769C27.323 10.2313 26.1909 10.015 24.6573 10.0093C23.7508 10.0059 23.4351 10.0278 22.8307 10.1362C21.9561 10.293 21.0187 10.5723 20.2239 10.913L19.6404 11.163L19.3678 11.0228C18.581 10.6183 17.4681 10.619 16.6794 11.0245L16.4036 11.1663L15.8234 10.9144C15.0415 10.575 14.1025 10.2944 13.2198 10.1364C12.2123 9.95591 10.6092 9.95437 9.63765 10.1328C8.25947 10.3861 6.56598 10.9971 6.22667 11.3635C6.10949 11.4901 6.01203 11.9518 6 12.4374C6.01377 12.8017 6 13.2817 6.14225 13.9528ZM13.5719 11.482C13.5328 11.4677 13.2757 11.417 13.0006 11.3692C12.4995 11.2822 11.0882 11.2145 10.7187 11.2598C10.6105 11.2731 10.3194 11.3095 10.0717 11.3407C9.00749 11.4747 7.33401 12.0222 7.25937 12.2608C7.20519 12.4341 7.2855 13.3521 7.40415 13.916C7.72817 15.4552 8.65402 16.7687 9.81958 17.3428C10.1131 17.4875 10.4095 17.6215 10.4781 17.6407C10.594 17.6732 10.7099 17.4584 12.1229 14.5917C13.1407 12.5268 13.6195 11.4993 13.5719 11.482ZM26.7799 11.4841C26.6054 11.426 26.0434 11.3375 25.5085 11.284C23.9008 11.1229 22.4052 11.3694 20.6171 12.0899L20.427 12.1665L20.4597 12.8508C20.5123 13.9549 20.8619 15.0787 21.4027 15.8828C21.8822 16.5958 22.7528 17.3215 23.3793 17.5305C23.5412 17.5845 23.7042 17.64 23.7414 17.654C23.7837 17.6698 24.3792 16.5226 25.33 14.5935C26.3356 12.5532 26.8269 11.4998 26.7799 11.4841ZM15.6222 12.1665L15.2922 12.0319L14.9059 11.8745C14.875 11.862 14.1985 13.1734 13.4025 14.7889C12.6065 16.4043 11.9824 17.7261 12.0156 17.7261C12.0488 17.7261 12.2698 17.6601 12.5068 17.5793C14.2634 16.9811 15.4792 15.1158 15.5891 12.8508L15.6222 12.1665ZM28.762 13.1191C28.8264 12.4786 28.8035 12.1679 28.6885 12.121L28.3358 11.9783L28.052 11.8635L26.6084 14.7932L25.1649 17.7229L25.3467 17.6878C25.8322 17.5942 26.5096 17.2445 27.0079 16.8303C27.4273 16.4816 27.8556 15.9 28.1749 15.2457C28.5256 14.527 28.6749 13.9863 28.762 13.1191Z" fill="white"/>
<circle cx="27" cy="19" r="3.5" fill="#CECECE" stroke="white"/>
<path d="M26.25 20.05L25.2 19L24.85 19.35L26.25 20.75L29.25 17.75L28.9 17.4L26.25 20.05Z" fill="white"/>
</svg>
