<svg width="36" height="32" viewBox="0 0 36 32" fill="none" xmlns="http://www.w3.org/2000/svg">
<rect width="36" height="32" rx="3" fill="#CECECE"/>
<path d="M9.32431 7.7048L9.32429 7.70481C8.69633 7.82661 8.1996 8.08004 7.71571 8.52908L7.71569 8.52909C7.04568 9.15079 6.54759 10.002 6.24863 11.0769C6.09205 11.6398 5.96511 12.8357 5.99793 13.4528L5.99793 13.4528C6.10994 15.5611 6.87243 17.522 8.36755 19.4877C9.5374 21.0256 11.2936 22.2549 13.1688 22.8456L13.1688 22.8456C14.0916 23.1362 14.5537 23.2184 15.7904 23.3029C17.0264 23.3873 17.5168 23.3761 18.4938 23.2467L18.4938 23.2467C19.1079 23.1654 19.2812 23.168 20.503 23.2457C21.8198 23.3295 22.0867 23.3209 22.9639 23.1834C23.6554 23.0751 24.3452 22.8801 25.0089 22.6102C24.186 22.8533 23.3295 23.0117 22.4096 23.0967C22.05 23.1299 21.314 23.1089 20.6149 23.0658C19.9168 23.0228 19.1875 22.9537 18.8439 22.8768M9.32431 7.7048L18.9313 22.4864M9.32431 7.7048C9.89564 7.59395 10.6237 7.71446 11.1456 8.01004L11.1456 8.01004M9.32431 7.7048L11.1456 8.01004M18.8439 22.8768L18.9313 22.4864M18.8439 22.8768C18.8439 22.8768 18.8439 22.8768 18.8439 22.8768L18.9313 22.4864M18.8439 22.8768C16.9113 22.4441 15.8816 22.0199 14.5561 21.0913M18.9313 22.4864C17.0375 22.0625 16.0591 21.6559 14.7856 20.7637M14.5561 21.0913L14.7856 20.7637M14.5561 21.0913C13.4433 20.3117 12.4214 19.3087 11.3792 17.9845L11.4297 17.9447M14.5561 21.0913C14.5561 21.0913 14.5561 21.0913 14.5561 21.0913L14.7856 20.7637M14.7856 20.7637L11.7269 18.1972M13.8719 12.6875L13.4811 12.7726C13.4811 12.7726 13.4811 12.7726 13.4811 12.7726M13.8719 12.6875L16.637 20.3927C15.1017 19.0187 14.5077 17.4856 13.4811 12.7726M13.8719 12.6875L13.4811 12.7726M13.8719 12.6875L13.4811 12.7726M12.5287 12.7571C12.5278 12.712 12.519 12.6554 12.49 12.5952C12.4843 12.5833 12.4782 12.572 12.4717 12.5612C12.7229 12.3633 12.9674 12.095 13.1561 11.8154C13.0214 12.1877 12.8327 12.5249 12.5916 12.8103M12.5287 12.7571L12.3791 12.6307C12.3791 12.6307 12.3791 12.6307 12.3791 12.6307L12.5287 12.7571M12.5287 12.7571L12.5917 12.8102C12.5917 12.8102 12.5917 12.8102 12.5916 12.8103M12.5287 12.7571C12.5287 12.7571 12.5287 12.7571 12.5287 12.7571M12.5287 12.7571C12.5295 12.7977 12.5238 12.8288 12.5205 12.8445C12.5118 12.8853 12.4985 12.9139 12.4938 12.9238C12.4878 12.9363 12.4829 12.9442 12.4817 12.9461C12.4812 12.9469 12.4809 12.9474 12.4809 12.9474C12.4809 12.9474 12.4838 12.9431 12.4912 12.9333C12.5103 12.9081 12.5422 12.8688 12.5916 12.8103M12.5287 12.7571L12.5916 12.8103M12.3689 12.4486C12.5473 12.213 12.6911 11.9378 12.7965 11.6325C12.5924 11.9238 12.3188 12.2018 12.0612 12.3623C12.0612 12.3623 12.0612 12.3623 12.0612 12.3623C12.0556 12.3658 12.0501 12.3692 12.0445 12.3725L12.3689 12.4486ZM12.3689 12.4486C12.3141 12.4085 12.2549 12.387 12.2059 12.3781C12.1513 12.3681 12.1055 12.3719 12.0779 12.3763C12.0778 12.3763 12.0778 12.3763 12.0778 12.3763C12.0677 12.3779 12.06 12.3796 12.0551 12.3807C12.0534 12.3811 12.0518 12.3815 12.0502 12.3819M12.3689 12.4486L12.0502 12.3819M12.0502 12.3819L12.2092 12.6448L12.0501 12.3819C12.0501 12.3819 12.0501 12.3819 12.0502 12.3819ZM11.7269 18.1972C12.1841 18.5955 12.63 18.9634 13.0631 19.2994C12.6751 18.9078 12.2898 18.4757 11.9013 17.9971M11.7269 18.1972L11.9013 17.9971M11.7269 18.1972C11.7269 18.1972 11.7269 18.1972 11.7269 18.1972L11.9013 17.9971M11.9013 17.9971C11.873 17.9622 11.8447 17.9271 11.8164 17.8918C11.7986 17.9047 11.7791 17.9166 11.7581 17.9269C11.658 17.9763 11.5677 17.9693 11.5305 17.9642C11.491 17.9588 11.4585 17.9479 11.437 17.939M11.437 17.939L11.6936 17.7371L11.437 17.939M11.437 17.939L11.4298 17.9447C11.4298 17.9447 11.4297 17.9447 11.4297 17.9447M11.437 17.939C11.437 17.939 11.437 17.939 11.437 17.939M11.437 17.939C11.4192 17.9317 11.4089 17.9258 11.4084 17.9255C11.4025 17.9223 11.3991 17.9203 11.3989 17.9205C11.3987 17.9208 11.4077 17.9273 11.4297 17.9447M11.437 17.939L11.4297 17.9447M11.1456 8.01004C11.909 8.44239 12.3929 9.11288 12.5706 9.99394L11.1456 8.01004ZM28.0761 20.7603C27.9195 20.8592 27.7633 20.9541 27.6072 21.0449L27.8386 21.3729C27.9911 21.2449 28.139 21.1125 28.282 20.976C28.5252 20.7437 28.753 20.5119 28.9168 20.335C28.9112 20.3305 28.9057 20.3257 28.9002 20.3208C28.8746 20.2979 28.8539 20.2738 28.8372 20.2495C28.5818 20.4307 28.3284 20.6009 28.0761 20.7603ZM13.6646 11.7463C13.6449 11.658 13.6267 11.5767 13.6103 11.5041C13.5992 11.5067 13.5876 11.509 13.5755 11.5108C13.5187 11.5193 13.4501 11.5167 13.3791 11.4905C13.3698 11.487 13.3607 11.4833 13.352 11.4794C13.3191 11.5469 13.2817 11.6151 13.2406 11.6832C13.2747 11.8352 13.3151 12.0167 13.3594 12.2176C13.4759 12.0649 13.5797 11.9054 13.6646 11.7463ZM19.9483 21.8168C19.3675 21.5973 18.9102 21.4054 18.5189 21.2091C18.0165 21.08 17.5146 20.9249 17.0705 20.7598C17.4764 21.0824 17.8786 21.3383 18.3781 21.5858C18.9171 21.7259 19.4583 21.8371 19.9368 21.9018L20.0611 21.9186L20.3102 21.9522L20.0805 21.8664C20.0357 21.8497 19.9917 21.8332 19.9483 21.8168ZM11.896 17.8144C11.9251 17.8395 11.9563 17.8665 11.9897 17.8956C12.4498 18.2965 12.8967 18.6647 13.3289 18.9993C12.9428 18.6083 12.558 18.1744 12.1681 17.6908C12.1681 17.6908 12.1681 17.6908 12.1681 17.6908C12.1148 17.6247 12.0614 17.5577 12.0079 17.4897L12.0079 17.4897C11.9835 17.4587 11.9647 17.4343 11.9509 17.4156C11.9356 17.3949 11.9316 17.3882 11.933 17.3906C11.9332 17.3908 11.9417 17.4046 11.9509 17.4268C11.9556 17.4379 11.9644 17.4607 11.9709 17.4915C11.9722 17.4975 11.9738 17.5055 11.9752 17.5154C11.9752 17.5154 11.9752 17.5154 11.9752 17.5154C11.9801 17.5482 11.9834 17.6011 11.9686 17.6633C11.9564 17.714 11.9327 17.7669 11.896 17.8144Z" stroke="white" stroke-width="0.8"/>
</svg>
