<svg width="36" height="32" viewBox="0 0 36 32" fill="none" xmlns="http://www.w3.org/2000/svg">
<rect width="36" height="32" rx="3" fill="#CECECE"/>
<path fill-rule="evenodd" clip-rule="evenodd" d="M10.2897 5.05119C9.49696 5.23147 8.72244 5.82891 8.40973 6.50125C8.18716 6.97982 5.93298 16.5849 6.00153 16.7626C6.02773 16.8305 6.11046 16.9431 6.18541 17.013C6.3145 17.1332 6.35776 17.1408 7.00334 17.1565L7.68498 17.1732L7.71413 17.3089C8.12454 19.2175 9.22442 20.7256 10.7044 21.4095C11.3344 21.7005 11.7834 21.7987 12.4838 21.7987C13.2262 21.7987 13.6934 21.6888 14.3739 21.3538C16.0667 20.5205 17.219 18.6405 17.3638 16.4754C17.4012 15.9171 17.4344 15.8508 17.765 15.6759C18.043 15.5288 18.8424 15.5204 19.1107 15.6617C19.4511 15.8409 19.5169 15.9359 19.5173 16.2474C19.5174 16.4031 19.5505 16.7476 19.5909 17.013C19.9475 19.3613 21.4134 21.1607 23.4017 21.6905C23.9633 21.8402 24.8672 21.8416 25.4177 21.6938C27.3015 21.1878 28.6899 19.5724 29.1864 17.3089L29.2161 17.1732L29.8985 17.1565C30.5702 17.1402 30.5833 17.1376 30.7323 16.9947C30.8156 16.9149 30.8969 16.7971 30.9129 16.7331C30.93 16.6652 30.4657 14.5895 29.7981 11.7494C28.5554 6.46256 28.5431 6.42082 28.0807 5.90909C27.5594 5.33227 26.8569 5.01478 26.0931 5.01087C25.48 5.00773 25.3141 5.0972 25.1842 5.50117C25.1461 5.61949 25.2609 5.88959 25.4032 6.01634C25.4946 6.0978 25.5977 6.11689 25.9827 6.12375C26.374 6.13065 26.4983 6.15432 26.7374 6.26741C27.0564 6.41833 27.3392 6.70108 27.4937 7.02364C27.5501 7.1413 28.0601 9.21424 28.6271 11.6302L29.6581 16.0227L29.5084 16.039C29.4261 16.048 29.3482 16.0448 29.3354 16.0319C29.3225 16.019 29.2931 15.8207 29.2699 15.5912C29.2067 14.9639 29.1445 14.9062 28.0736 14.4805C26.8513 13.9946 25.8283 13.802 24.4428 13.7969C23.6237 13.7939 23.3384 13.8134 22.7924 13.9099C22.0022 14.0496 21.1552 14.2983 20.4371 14.6017L19.9099 14.8243L19.6636 14.6995C18.9527 14.3393 17.9472 14.3399 17.2346 14.701L16.9854 14.8273L16.4612 14.603C15.7547 14.3007 14.9063 14.0508 14.1088 13.9101C13.1985 13.7494 11.7501 13.748 10.8723 13.9069C9.62706 14.1325 8.09697 14.6766 7.7904 15.0029C7.68452 15.1157 7.59647 15.5269 7.5856 15.9593C7.58393 16.0268 7.54005 16.0481 7.40223 16.0481C7.25299 16.0481 7.22592 16.0325 7.24877 15.9593C7.26401 15.9104 7.73546 13.9166 8.29639 11.5286C8.85737 9.14061 9.36173 7.09153 9.41718 6.97509C9.54485 6.70737 9.90737 6.37095 10.2151 6.23475C10.3892 6.15767 10.5691 6.12781 10.8895 6.12293C11.2152 6.11796 11.3619 6.09318 11.465 6.02553C11.6236 5.92164 11.7605 5.6366 11.7169 5.50117C11.6469 5.28342 11.564 5.16748 11.428 5.09715C11.2201 4.98965 10.6598 4.967 10.2897 5.05119ZM25.2118 14.9321C25.6951 14.9798 26.2028 15.0586 26.3605 15.1103C26.6866 15.2002 27.373 15.3937 27.5098 15.4482L27.7663 15.5504L28.0849 15.6775C28.1889 15.7193 28.2096 15.996 28.1514 16.5663C28.0727 17.3387 27.9378 17.8202 27.6209 18.4602C27.3324 19.043 26.9455 19.5609 26.5665 19.8714C26.1163 20.2403 25.5042 20.5518 25.0656 20.6351L24.9014 20.6664C24.5649 20.7455 23.9037 20.6584 23.6152 20.605C23.5816 20.5926 23.4343 20.5431 23.288 20.495C22.722 20.3089 21.9354 19.6626 21.5021 19.0276C21.0135 18.3115 20.6977 17.3107 20.6501 16.3274L20.6206 15.718L20.7924 15.6498C22.4079 15.0081 23.7592 14.7886 25.2118 14.9321ZM14.4269 15.1084C14.3916 15.0957 14.1593 15.0505 13.9107 15.008C13.458 14.9305 12.1829 14.8703 11.849 14.9106C11.7512 14.9224 11.4882 14.9548 11.2644 14.9826C10.3029 15.1019 8.7909 15.5895 8.72346 15.802C8.67451 15.9564 8.74707 16.7739 8.85427 17.2761C9.14703 18.6468 9.98355 19.8166 11.0366 20.3279C11.3019 20.4567 11.5696 20.576 11.6316 20.5931C12.1798 20.7446 12.6658 20.7738 13.0208 20.6692C13.0507 20.6692 13.2504 20.6104 13.4646 20.5385C15.0517 20.0058 16.1502 18.3446 16.2494 16.3274L16.2794 15.718L15.9812 15.5982L15.6322 15.458C15.4802 15.3969 14.7653 15.1995 14.4269 15.1084Z" fill="white"/>
<path fill-rule="evenodd" clip-rule="evenodd" d="M5.12447 20.5136C5.52193 22.4186 6.5871 23.9239 8.02041 24.6065C8.63047 24.897 9.06536 24.995 9.74358 24.995C10.4626 24.995 10.915 24.8853 11.5741 24.5509C13.2134 23.7192 14.3293 21.8427 14.4697 19.6817C14.5058 19.1245 14.538 19.0583 14.8582 18.8838C15.1274 18.7369 15.9015 18.7285 16.1614 18.8696C16.491 19.0484 16.5548 19.1432 16.5551 19.4541C16.5553 19.6096 16.5873 19.9534 16.6264 20.2183C16.9718 22.5622 18.3915 24.3582 20.317 24.887C20.8609 25.0364 21.7362 25.0378 22.2693 24.8903C24.0937 24.3853 25.4383 22.7729 25.9191 20.5136C25.9191 20.5136 26 20.1425 26 19.8934V18.7992C25.9388 18.1731 25.8785 18.1155 24.8414 17.6906C23.6577 17.2056 22.667 17.0133 21.3252 17.0082C20.532 17.0053 20.2557 17.0247 19.7269 17.1211C18.9616 17.2605 18.1414 17.5087 17.4459 17.8115L16.9354 18.0338L16.6969 17.9092C16.0084 17.5496 15.0346 17.5502 14.3445 17.9107L14.1032 18.0367L13.5955 17.8128C12.9113 17.5112 12.0897 17.2617 11.3173 17.1212C10.4357 16.9608 9.03305 16.9594 8.18295 17.1181C6.97703 17.3432 5.49523 17.8863 5.19834 18.212C5.0958 18.3246 5.01052 18.735 5 19.1665C5.01205 19.4904 5 19.917 5.12447 20.5136ZM11.6254 18.3173C11.5912 18.3046 11.3662 18.2595 11.1255 18.2171C10.6871 18.1397 9.4522 18.0796 9.12885 18.1198C9.03418 18.1316 8.77943 18.164 8.5627 18.1917C7.63155 18.3108 6.16726 18.7975 6.10195 19.0096C6.05454 19.1637 6.12482 19.9796 6.22863 20.4809C6.51215 21.849 7.32227 23.0166 8.34214 23.5269C8.599 23.6555 8.85832 23.7746 8.91832 23.7917C9.01977 23.8206 9.12118 23.6297 10.3575 21.0816C11.2482 19.246 11.6671 18.3327 11.6254 18.3173ZM23.1824 18.3192C23.0297 18.2676 22.538 18.1889 22.0699 18.1413C20.6632 17.9981 19.3546 18.2172 17.79 18.8577L17.6236 18.9258L17.6522 19.534C17.6983 20.5155 18.0041 21.5144 18.4773 22.2291C18.8969 22.8629 19.6587 23.508 20.2069 23.6937C20.3486 23.7417 20.4912 23.7912 20.5238 23.8035C20.5607 23.8176 21.0818 22.7979 21.9137 21.0831C22.7937 19.2695 23.2235 18.3332 23.1824 18.3192ZM13.4194 18.9258L13.1307 18.8062L12.7927 18.6662C12.7656 18.6551 12.1737 19.8208 11.4772 21.2568C10.7807 22.6927 10.2346 23.8676 10.2636 23.8676C10.2927 23.8676 10.486 23.8089 10.6934 23.7372C12.2305 23.2054 13.2943 21.5474 13.3904 19.534L13.4194 18.9258ZM24.9168 19.7725C24.9731 19.2032 24.9531 18.927 24.8524 18.8853L24.5439 18.7585L24.2955 18.6564L23.0324 21.2606L21.7693 23.8648L21.9283 23.8336C22.3532 23.7504 22.9459 23.4395 23.3819 23.0714C23.7489 22.7614 24.1236 22.2445 24.4031 21.6628C24.7099 21.024 24.8406 20.5434 24.9168 19.7725Z" fill="#CECECE"/>
<path d="M24.8524 18.8853C24.9531 18.927 24.9731 19.2032 24.9168 19.7725C24.8406 20.5434 24.7099 21.024 24.4031 21.6628C24.1236 22.2445 23.7489 22.7614 23.3819 23.0714C22.9459 23.4395 22.3532 23.7504 21.9283 23.8336L21.7693 23.8648L23.0324 21.2606L24.2955 18.6564L24.5439 18.7585L24.8524 18.8853Z" fill="#CECECE"/>
<path d="M11.1255 18.2171C11.3662 18.2595 11.5912 18.3046 11.6254 18.3173C11.6671 18.3327 11.2482 19.246 10.3575 21.0816C9.12118 23.6297 9.01977 23.8206 8.91832 23.7917C8.85832 23.7746 8.599 23.6555 8.34214 23.5269C7.32227 23.0166 6.51215 21.849 6.22863 20.4809C6.12482 19.9796 6.05454 19.1637 6.10195 19.0096C6.16726 18.7975 7.63155 18.3108 8.5627 18.1917C8.77943 18.164 9.03418 18.1316 9.12885 18.1198C9.4522 18.0796 10.6871 18.1397 11.1255 18.2171Z" fill="#CECECE"/>
<path d="M13.1307 18.8062L13.4194 18.9258L13.3904 19.534C13.2943 21.5474 12.2305 23.2054 10.6934 23.7372C10.486 23.8089 10.2927 23.8676 10.2636 23.8676C10.2346 23.8676 10.7807 22.6927 11.4772 21.2568C12.1737 19.8208 12.7656 18.6551 12.7927 18.6662L13.1307 18.8062Z" fill="#CECECE"/>
<path d="M22.0699 18.1413C22.538 18.1889 23.0297 18.2676 23.1824 18.3192C23.2235 18.3332 22.7937 19.2695 21.9137 21.0831C21.0818 22.7979 20.5607 23.8176 20.5238 23.8035C20.4912 23.7912 20.3486 23.7417 20.2069 23.6937C19.6587 23.508 18.8969 22.8629 18.4773 22.2291C18.0041 21.5144 17.6983 20.5155 17.6522 19.534L17.6236 18.9258L17.79 18.8577C19.3546 18.2172 20.6632 17.9981 22.0699 18.1413Z" fill="#CECECE"/>
<path fill-rule="evenodd" clip-rule="evenodd" d="M5.12447 20.5136C5.52193 22.4186 6.5871 23.9239 8.02041 24.6065C8.63047 24.897 9.06536 24.995 9.74358 24.995C10.4626 24.995 10.915 24.8853 11.5741 24.5509C13.2134 23.7192 14.3293 21.8427 14.4697 19.6817C14.5058 19.1245 14.538 19.0583 14.8582 18.8838C15.1274 18.7369 15.9015 18.7285 16.1614 18.8696C16.491 19.0484 16.5548 19.1432 16.5551 19.4541C16.5553 19.6096 16.5873 19.9534 16.6264 20.2183C16.9718 22.5622 18.3915 24.3582 20.317 24.887C20.8609 25.0364 21.7362 25.0378 22.2693 24.8903C24.0937 24.3853 25.4383 22.7729 25.9191 20.5136C25.9191 20.5136 26 20.1425 26 19.8934V18.7992C25.9388 18.1731 25.8785 18.1155 24.8414 17.6906C23.6577 17.2056 22.667 17.0133 21.3252 17.0082C20.532 17.0053 20.2557 17.0247 19.7269 17.1211C18.9616 17.2605 18.1414 17.5087 17.4459 17.8115L16.9354 18.0338L16.6969 17.9092C16.0084 17.5496 15.0346 17.5502 14.3445 17.9107L14.1032 18.0367L13.5955 17.8128C12.9113 17.5112 12.0897 17.2617 11.3173 17.1212C10.4357 16.9608 9.03305 16.9594 8.18295 17.1181C6.97703 17.3432 5.49523 17.8863 5.19834 18.212C5.0958 18.3246 5.01052 18.735 5 19.1665C5.01205 19.4904 5 19.917 5.12447 20.5136ZM11.6254 18.3173C11.5912 18.3046 11.3662 18.2595 11.1255 18.2171C10.6871 18.1397 9.4522 18.0796 9.12885 18.1198C9.03418 18.1316 8.77943 18.164 8.5627 18.1917C7.63155 18.3108 6.16726 18.7975 6.10195 19.0096C6.05454 19.1637 6.12482 19.9796 6.22863 20.4809C6.51215 21.849 7.32227 23.0166 8.34214 23.5269C8.599 23.6555 8.85832 23.7746 8.91832 23.7917C9.01977 23.8206 9.12118 23.6297 10.3575 21.0816C11.2482 19.246 11.6671 18.3327 11.6254 18.3173ZM23.1824 18.3192C23.0297 18.2676 22.538 18.1889 22.0699 18.1413C20.6632 17.9981 19.3546 18.2172 17.79 18.8577L17.6236 18.9258L17.6522 19.534C17.6983 20.5155 18.0041 21.5144 18.4773 22.2291C18.8969 22.8629 19.6587 23.508 20.2069 23.6937C20.3486 23.7417 20.4912 23.7912 20.5238 23.8035C20.5607 23.8176 21.0818 22.7979 21.9137 21.0831C22.7937 19.2695 23.2235 18.3332 23.1824 18.3192ZM13.4194 18.9258L13.1307 18.8062L12.7927 18.6662C12.7656 18.6551 12.1737 19.8208 11.4772 21.2568C10.7807 22.6927 10.2346 23.8676 10.2636 23.8676C10.2927 23.8676 10.486 23.8089 10.6934 23.7372C12.2305 23.2054 13.2943 21.5474 13.3904 19.534L13.4194 18.9258ZM24.9168 19.7725C24.9731 19.2032 24.9531 18.927 24.8524 18.8853L24.5439 18.7585L24.2955 18.6564L23.0324 21.2606L21.7693 23.8648L21.9283 23.8336C22.3532 23.7504 22.9459 23.4395 23.3819 23.0714C23.7489 22.7614 24.1236 22.2445 24.4031 21.6628C24.7099 21.024 24.8406 20.5434 24.9168 19.7725Z" fill="white"/>
</svg>
