<svg width="122" height="45" viewBox="0 0 122 45" fill="none" xmlns="http://www.w3.org/2000/svg">
<path fill-rule="evenodd" clip-rule="evenodd" d="M47.8955 0.0411642C45.161 0.20769 42.3655 1.1168 40.2096 2.54059C36.1096 5.24833 33.3841 9.39676 32.7387 13.9116C32.4733 15.7682 32.5602 18.1936 32.9584 20.0396C33.841 24.1318 36.3227 27.5494 40.3075 30.1603C41.8867 31.195 42.792 31.6497 44.1246 32.0774C46.2558 32.7615 48.8014 32.94 51.3301 32.5827C53.1081 32.3315 55.1248 31.6851 56.6703 30.8711C60.3461 28.9353 62.8571 26.2807 64.262 22.8454C65.074 20.8596 65.4419 19.1786 65.5096 17.1447C65.6321 13.461 64.5482 9.76701 62.4798 6.81839C61.0042 4.71493 59.0279 3.03978 56.6142 1.84641C54.3759 0.73979 52.3252 0.186892 49.9122 0.0394753C49.0443 -0.0135562 48.7901 -0.0133149 47.8955 0.0411642ZM79.744 0.119867C79.276 0.154996 78.1568 0.333537 77.6784 0.449347C76.1605 0.816756 74.7101 1.46124 73.307 2.39158C72.6559 2.82336 71.7798 3.67385 71.4148 4.22867C70.8275 5.12104 70.3844 6.23427 70.1822 7.32491C70.0516 8.02942 70.004 9.40983 70.0856 10.1264C70.2105 11.2232 70.4178 11.9317 70.7978 12.5603C71.895 14.375 73.5244 15.7563 75.9271 16.9087C76.7216 17.2898 77.6872 17.6834 79.6264 18.4166C80.4733 18.7368 81.4568 19.1211 81.8121 19.2705C82.1674 19.4199 82.7619 19.6681 83.1333 19.8222C84.7189 20.4799 85.8876 21.1849 86.7159 21.9835C87.5071 22.7464 87.9593 23.4502 88.2284 24.3375C88.3465 24.7272 88.3595 24.8434 88.3622 25.5409C88.3649 26.2407 88.3528 26.3582 88.2325 26.7955C87.9886 27.6827 87.6418 28.2613 86.9913 28.8664C85.7972 29.9769 84.2158 30.514 81.9728 30.5708C81.3775 30.586 80.8156 30.5735 80.5077 30.5384C77.4912 30.1946 74.9673 28.4935 73.1805 25.5998C72.7542 24.9095 72.2044 23.7188 71.7439 22.4888L71.3239 21.3669L70.9585 21.3665C70.7574 21.3663 70.4795 21.3524 70.3408 21.3356L70.0886 21.3052V25.6673V30.0294L72.0701 30.6899C73.16 31.0532 74.2894 31.4189 74.58 31.5027C78.4724 32.6246 83.1966 32.6438 86.9044 31.5527C88.2017 31.171 88.5279 31.0227 89.6876 30.2874C90.6067 29.7046 90.9105 29.4847 91.4214 29.0325C93.0091 27.6271 93.9149 25.2306 93.9149 22.4352C93.9149 19.1646 92.5914 16.5894 89.8475 14.5212C89.1404 13.9882 88.4832 13.5867 87.502 13.0883C86.4441 12.551 85.7962 12.2927 83.8625 11.6372C81.6049 10.8719 80.8334 10.5883 79.652 10.0891C77.765 9.29176 77.1506 8.93337 76.4535 8.22355C75.836 7.5948 75.557 7.07963 75.394 6.26645C75.2419 5.50872 75.3647 4.74562 75.7437 4.09317C75.9636 3.71433 76.5687 3.06628 77.0077 2.73945C77.4639 2.39964 78.2484 2.03764 78.9136 1.85992C79.471 1.711 79.4973 1.70864 80.6087 1.70777C81.6601 1.707 81.7803 1.71607 82.362 1.84013C83.6381 2.11229 85.0874 2.70133 85.8927 3.27512C86.3867 3.62704 87.1343 4.36562 87.5255 4.88807C88.3374 5.97229 89.0103 7.45756 89.404 9.03432L89.5073 9.4481H90.0778H90.6484L90.6494 7.65063C90.65 6.66199 90.6615 5.66858 90.675 5.44299C90.6885 5.2174 90.6826 4.41397 90.6619 3.65758L90.6244 2.28234L89.6876 1.888C87.6844 1.04476 86.2276 0.657372 83.7463 0.308204C82.362 0.113401 80.8053 0.0401508 79.744 0.119867ZM107.629 0.140375C105.413 0.348351 103.433 1.06406 101.476 2.36393C100.031 3.32415 99.1229 4.5114 98.5738 6.16039C97.8714 8.26944 98.0013 11.0954 98.8666 12.5352C99.9539 14.3443 101.552 15.7057 103.963 16.8763C104.918 17.3401 105.36 17.5222 107.605 18.3757C108.57 18.7423 109.651 19.1653 110.007 19.3158C110.364 19.4664 110.872 19.6762 111.136 19.7822C111.854 20.0702 113.096 20.697 113.586 21.018C115.127 22.0287 116.038 23.1918 116.382 24.5885C116.437 24.8121 116.462 25.1171 116.461 25.565C116.459 27.2319 115.781 28.4893 114.388 29.4112C113.24 30.1711 111.928 30.5217 110.051 30.5704C108.636 30.6071 107.796 30.4914 106.628 30.0992C104.148 29.2669 102.022 27.2721 100.69 24.5301C100.349 23.8285 100.04 23.0729 99.5785 21.8138L99.4151 21.3678L99.0548 21.367C98.8567 21.3665 98.581 21.3524 98.4424 21.3356L98.1902 21.3052V25.6671V30.0289L100.244 30.7148C102.988 31.6315 103.799 31.8474 105.444 32.0985C106.813 32.3078 107.352 32.3446 108.998 32.3419C110.681 32.3392 111.398 32.2837 112.793 32.0484C114.133 31.8226 115.722 31.3832 116.529 31.0154C116.92 30.8373 118.429 29.8884 118.964 29.4839C119.494 29.0834 120.252 28.2879 120.592 27.7744C122.049 25.5744 122.423 22.0007 121.49 19.1904C121.069 17.922 120.424 16.8883 119.374 15.7997C118.034 14.4096 116.264 13.2723 114.073 12.3944C113.747 12.2637 112.802 11.9253 111.972 11.6424C109.182 10.691 108.95 10.6058 107.701 10.0752C106.675 9.63914 105.878 9.25122 105.474 8.99171C104.495 8.36281 103.851 7.57805 103.569 6.67348C103.423 6.2016 103.385 5.3404 103.493 4.9122C103.834 3.55582 105.25 2.31066 106.948 1.87444C107.5 1.73257 107.983 1.67916 108.712 1.67916C110.125 1.67916 111.544 2.01245 112.922 2.66827C115.199 3.75197 116.672 5.84524 117.548 9.24302L117.601 9.4481H118.176H118.751L118.738 5.8686L118.726 2.28909L117.933 1.95585C115.774 1.04804 114.448 0.687917 111.953 0.331559C110.285 0.0934236 108.82 0.0286663 107.629 0.140375ZM0.033914 1.30055C0.0167168 1.54347 0.00269006 1.84423 0.00269006 1.96888V2.19548L0.854625 2.22979C1.8757 2.2709 2.13659 2.31939 2.31821 2.50189L2.45257 2.63681V16.3617C2.45257 26.2821 2.43783 30.1291 2.39935 30.24C2.36918 30.3269 2.28579 30.4247 2.20696 30.4657C2.00516 30.5705 1.46863 30.6286 0.685871 30.6302L0 30.6317L0.0133543 31.2952L0.0267085 31.9587L8.72139 31.9735C17.9391 31.9892 18.1082 31.9859 19.4817 31.7604C23.7213 31.0644 26.7664 29.1564 28.1759 26.313C28.6888 25.2783 28.9235 24.4127 29.0133 23.2247C29.1262 21.7321 28.8859 20.4903 28.2422 19.2392C27.6967 18.1792 26.7204 17.0647 25.7008 16.338C24.6308 15.5755 23.0274 14.9191 21.8911 14.7786L21.6106 14.7439L21.9632 14.5888C23.3351 13.9855 24.3992 13.2719 25.2477 12.3862C26.4902 11.0894 26.9602 9.84446 26.9677 7.83158C26.9703 7.11742 26.9518 6.8664 26.8635 6.41952C26.5226 4.69442 25.6577 3.35812 24.3065 2.46879C23.4241 1.88795 22.3359 1.40884 21.3002 1.14513C20.1256 0.845998 20.6375 0.858833 9.8798 0.858833H0.06509L0.033914 1.30055ZM50.1917 1.78232C51.7279 2.07499 53.0197 2.86771 54.1202 4.19311C55.5113 5.86855 56.4961 8.40875 57.0928 11.8608C57.7077 15.4188 57.4856 20.0049 56.5191 23.7073C55.724 26.7528 54.4672 28.8058 52.6481 30.0308C51.5146 30.7941 50.4148 31.1062 49.0521 31.0512C46.0497 30.9301 43.4271 28.8783 42.1628 25.6616C41.8264 24.8057 41.623 24.0704 41.3641 22.774C40.3867 17.8804 40.3634 13.8025 41.292 10.1478C41.8141 8.09297 42.614 6.19972 43.5676 4.76164C44.6973 3.05788 45.7413 2.24402 47.3117 1.84288C48.1909 1.61831 49.2173 1.59669 50.1917 1.78232ZM15.3514 2.394C17.3228 2.81892 18.8108 4.54624 19.2997 6.97738C19.4185 7.5684 19.4169 8.92777 19.2968 9.4952C18.9482 11.1409 18.0961 12.6507 17.0391 13.4956C16.6694 13.7911 16.1138 14.0954 15.7588 14.1969C15.0585 14.397 14.7586 14.4165 12.3602 14.4174L10.0424 14.4183V8.36397V2.30965L10.5828 2.29088C10.8801 2.28055 11.9771 2.27852 13.0207 2.28634C14.6803 2.29884 14.9724 2.31235 15.3514 2.394ZM15.648 15.9999C17.031 16.3227 18.0861 16.8952 19.0013 17.8193C19.813 18.639 20.3835 19.5706 20.7263 20.6365C20.9992 21.4851 21.0599 21.9019 21.0609 22.9352C21.0619 23.9305 20.9992 24.4325 20.7777 25.2037C20.0914 27.592 18.2255 29.5168 15.9562 30.1774C15.1293 30.4182 14.8514 30.4383 12.3602 30.4385L10.0424 30.4387V23.1496V15.8606L12.6244 15.8787C15.0554 15.8957 15.2322 15.9028 15.648 15.9999ZM32.9667 37.9604C32.0442 38.1957 31.3246 38.7767 30.9194 39.6134C30.3878 40.711 30.3585 42.0818 30.8442 43.1244C31.3512 44.2129 32.2785 44.8888 33.4052 44.9914C33.8065 45.0279 34.8066 44.9429 35.2618 44.8335C35.7758 44.7099 36.2376 44.462 36.6089 44.1102L36.9431 43.7935V42.4965V41.1994H35.4059H33.8687V41.6096V42.0198H34.9684C35.9269 42.0198 36.0719 42.0296 36.0973 42.0961C36.1429 42.2155 36.1292 42.8901 36.0765 43.1197C35.9351 43.7358 35.4021 44.0878 34.4389 44.2013C33.4775 44.3146 32.747 44.0847 32.1989 43.4962C31.682 42.941 31.4632 42.3369 31.4632 41.4648C31.4633 39.9894 32.163 38.929 33.2978 38.6845C33.6776 38.6027 34.4578 38.6547 34.795 38.7845C35.3234 38.9878 35.7275 39.3997 35.8652 39.8756L35.9411 40.1378H36.4169H36.8926L36.8622 39.981C36.7571 39.439 36.5076 38.9829 36.1091 38.6043C35.8208 38.3304 35.5336 38.171 35.0456 38.014C34.5674 37.8601 33.4708 37.8318 32.9667 37.9604ZM47.6267 37.9415C46.0863 38.2782 45.0996 39.6114 45.0903 41.3683C45.0865 42.0957 45.1868 42.5646 45.4754 43.1678C45.9987 44.2617 46.9785 44.8893 48.2583 44.9505C48.9638 44.9843 49.4546 44.8881 50.0373 44.6021C51.2098 44.0266 51.9081 42.6921 51.8181 41.1994C51.7138 39.4715 50.7602 38.2651 49.2405 37.9387C48.8518 37.8551 48.0153 37.8566 47.6267 37.9415ZM86.1636 37.9701C85.5835 38.1132 85.162 38.3569 84.7144 38.8081C84.0395 39.4882 83.7317 40.3053 83.7317 41.4166C83.7317 42.5653 84.0918 43.4735 84.808 44.131C85.1434 44.4389 85.4722 44.6291 85.9648 44.8C86.3134 44.9211 86.4138 44.9337 87.0456 44.9363C87.5737 44.9385 87.8176 44.9183 88.0544 44.8528C88.9625 44.6015 89.6934 43.9978 90.0863 43.1746C90.4012 42.5149 90.4753 42.1732 90.4729 41.3925C90.4713 40.8836 90.4486 40.6588 90.369 40.3653C90.111 39.4138 89.4669 38.5958 88.6789 38.2187C88.4543 38.1113 88.115 37.9888 87.9248 37.9466C87.447 37.8406 86.645 37.8513 86.1636 37.9701ZM100.88 37.9422C100.185 38.0994 99.5723 38.5294 99.3083 39.0461C99.2091 39.2403 99.1774 39.383 99.1608 39.7103C99.1327 40.2655 99.2271 40.5568 99.5358 40.8669C99.9251 41.2579 100.284 41.3976 101.745 41.7261C102.813 41.9662 103.108 42.0763 103.361 42.3294C103.616 42.5833 103.694 42.8445 103.62 43.1944C103.479 43.8558 102.905 44.1887 101.903 44.1905C100.731 44.1926 99.9785 43.6767 99.8463 42.7798L99.8125 42.5506H99.3856H98.9588V42.7875C98.9588 43.0991 99.1024 43.5518 99.2987 43.8591C99.5712 44.2858 100.125 44.6536 100.784 44.8458C101.218 44.9725 102.397 44.9742 102.85 44.849C103.57 44.6495 104.174 44.2261 104.412 43.7551C104.761 43.063 104.608 42.1635 104.058 41.6775C103.662 41.327 103.322 41.2019 101.849 40.8634C100.711 40.602 100.332 40.4184 100.177 40.0549C99.9579 39.5373 100.331 38.8999 100.958 38.7234C101.32 38.6212 102.026 38.6164 102.353 38.7138C102.88 38.8712 103.234 39.2456 103.339 39.7582L103.397 40.0413H103.851H104.304L104.278 39.7639C104.245 39.4043 104.089 38.9963 103.883 38.7242C103.669 38.4434 103.212 38.1389 102.809 38.0093C102.388 37.8739 101.343 37.8376 100.88 37.9422ZM116.082 37.938C115.364 38.1025 114.74 38.5447 114.496 39.0624C114.345 39.3836 114.294 39.8788 114.376 40.2246C114.559 40.9888 115.122 41.3375 116.732 41.6832C118.123 41.9817 118.555 42.17 118.743 42.5603C119.02 43.1358 118.713 43.7929 118.049 44.045C117.704 44.1759 116.94 44.2278 116.521 44.1488C116.182 44.0848 115.781 43.9074 115.537 43.713C115.307 43.53 115.096 43.1376 115.057 42.8227L115.027 42.5747L114.559 42.5609C114.017 42.5449 114.039 42.5159 114.16 43.0877C114.344 43.9633 114.988 44.5769 116.012 44.8537C116.503 44.9864 117.599 44.9727 118.1 44.8275C119.126 44.5301 119.714 43.9342 119.79 43.1167C119.843 42.5475 119.665 42.0675 119.263 41.6947C118.875 41.3358 118.511 41.1928 117.321 40.9313C116.217 40.6888 115.832 40.5609 115.596 40.3579C115.341 40.1384 115.271 39.9625 115.306 39.6248C115.375 38.951 115.953 38.6121 116.966 38.6516C117.591 38.676 117.878 38.7861 118.191 39.1226C118.388 39.3343 118.444 39.4549 118.586 39.981C118.598 40.0237 118.732 40.0413 119.044 40.0413H119.484L119.455 39.7571C119.367 38.9113 118.839 38.2829 117.985 38.0081C117.577 37.877 116.519 37.838 116.082 37.938ZM1.78006 41.4166V44.8185H2.26043H2.74079V43.2744V41.7302H4.5662H6.3916V43.2744V44.8185H6.87197H7.35234V41.4166V38.0147H6.87197H6.3916V39.4623V40.9099H4.5662H2.74079V39.4623V38.0147H2.26043H1.78006V41.4166ZM16.5754 40.376C16.5754 42.9747 16.5921 43.1683 16.8621 43.7055C17.1348 44.2482 17.6839 44.6613 18.3768 44.8449C18.8265 44.9641 19.7392 44.9902 20.2236 44.8977C21.0603 44.738 21.6936 44.294 21.9904 43.6591C22.2638 43.0743 22.2678 43.0277 22.2678 40.4274V38.0388L21.7994 38.025L21.3311 38.0112L21.3307 40.2206C21.3304 42.4813 21.3051 42.8841 21.1403 43.2584C21.0037 43.5687 20.6962 43.8711 20.3582 44.0275C20.0806 44.1561 20.0149 44.1665 19.4817 44.1668C18.811 44.1671 18.557 44.0983 18.1847 43.8153C17.8667 43.5735 17.6479 43.1475 17.5848 42.6471C17.5597 42.448 17.5385 41.3243 17.5377 40.1499L17.5362 38.0147H17.0558H16.5754V40.376ZM69.7523 41.4166V44.8185L71.5657 44.8177C73.4985 44.8168 73.78 44.7911 74.2391 44.5744C74.5909 44.4083 74.963 44.0377 75.1394 43.6776C75.2603 43.4309 75.2974 43.2853 75.3144 42.9897C75.3606 42.1882 75.0127 41.5968 74.3314 41.3186L74.0639 41.2094L74.2019 41.1234C74.5675 40.8956 74.8698 40.4947 74.9604 40.1174C75.0199 39.8699 74.9969 39.3684 74.9147 39.1197C74.8093 38.8011 74.3957 38.3506 74.0854 38.2165C73.7159 38.0568 73.1547 38.0147 71.3988 38.0147H69.7523V41.4166ZM49.1477 38.7197C49.5156 38.8292 49.7447 38.9555 49.9977 39.1882C50.3029 39.4689 50.5639 39.8922 50.7147 40.3512C50.8284 40.6971 50.843 40.8171 50.8444 41.4166C50.846 42.0475 50.8366 42.1194 50.701 42.5044C50.3068 43.6238 49.55 44.19 48.4479 44.19C47.7543 44.19 47.261 43.9947 46.8133 43.5427C46.2885 43.0128 46.0517 42.3517 46.0517 41.4166C46.0517 40.5248 46.2733 39.8666 46.7503 39.3424C47.1968 38.8517 47.6843 38.6488 48.4272 38.6446C48.7169 38.6429 48.9833 38.6707 49.1477 38.7197ZM87.7421 38.7076C88.3527 38.8717 88.8874 39.3092 89.1595 39.8672C89.413 40.3873 89.5097 40.8896 89.4848 41.5576C89.4518 42.4469 89.1954 43.095 88.6782 43.597C88.005 44.2503 86.7979 44.3898 85.929 43.9147C85.6089 43.7397 85.1617 43.2467 84.9843 42.8732C84.5588 41.9776 84.5798 40.7004 85.0342 39.8441C85.3258 39.2945 85.9076 38.8245 86.4573 38.6943C86.7361 38.6283 87.4754 38.636 87.7421 38.7076ZM73.2788 38.86C73.7567 38.9851 73.9488 39.1809 74.0309 39.6268C74.0876 39.9352 74.0258 40.2748 73.874 40.489C73.818 40.5681 73.6512 40.6897 73.5036 40.7593C73.2385 40.8841 73.2183 40.886 71.974 40.902L70.713 40.9182V39.8525V38.7867H71.8558C72.7231 38.7867 73.0662 38.8044 73.2788 38.86ZM73.444 41.7815C74.0214 41.9059 74.3313 42.2768 74.3282 42.84C74.3253 43.3676 74.1323 43.6902 73.6965 43.8955C73.4284 44.0217 73.4207 44.0224 72.0701 44.0371L70.713 44.0519V42.8911V41.7302H71.9597C72.6577 41.7302 73.3109 41.7528 73.444 41.7815Z" fill="#393B40"/>
</svg>
