<svg width="140" height="23" viewBox="0 0 140 23" fill="none" xmlns="http://www.w3.org/2000/svg">
<path fill-rule="evenodd" clip-rule="evenodd" d="M2.9917 22.4779H1.03502C0.871761 22.4779 0.463623 22.4779 0.463623 22.2334C0.463623 22.0712 0.545251 21.9889 0.790133 21.9074C2.58435 21.3369 2.9917 20.3605 2.9917 18.9774V4.40322C2.9917 3.10002 2.58356 2.12282 0.790133 1.47162C0.545251 1.47162 0.463623 1.30862 0.463623 1.22712C0.463623 0.901916 0.871761 0.982626 1.03502 0.982626H17.1806C20.8499 0.982626 23.8677 3.91344 23.8677 7.57695C23.8677 11.2413 20.8499 14.1713 17.1806 14.1713H9.02578V19.138C9.1082 20.4404 9.51555 21.3353 11.2281 21.9058C11.473 21.9881 11.5539 22.0696 11.5539 22.2318C11.5539 22.4763 11.1465 22.4763 10.9833 22.4763H2.9917V22.4779ZM123.353 14.5804H127.186L123.353 8.06674L122.944 7.41474L119.521 14.5804H123.353ZM123.353 0.902711H125.963L136.889 20.1184C137.216 20.605 137.623 21.0948 138.114 21.3377C138.521 21.6637 139.01 21.746 139.417 21.9082C139.581 21.9905 139.744 22.072 139.744 22.2342C139.744 22.4787 139.336 22.4787 139.172 22.4787H129.469C129.307 22.4787 128.816 22.4787 128.816 22.2342C128.816 22.072 128.98 21.9897 129.144 21.9082C129.633 21.746 129.958 21.5015 130.12 21.0133C130.284 20.4428 130.12 20.1184 129.713 19.3841C129.159 18.2091 128.589 17.0422 128.001 15.8836H118.868L118.787 16.0458C118.704 16.3718 118.053 17.5112 117.562 18.7329C116.911 20.0353 116.666 20.3605 116.829 21.0125C116.911 21.5007 117.318 21.7452 117.807 21.9074C117.971 21.9897 118.053 22.0712 118.053 22.2334C118.053 22.4779 117.644 22.4779 117.482 22.4779H112.996C112.834 22.4779 112.425 22.4779 112.425 22.2334C112.425 22.0712 112.507 21.9889 112.751 21.9074C113.16 21.7452 113.648 21.6629 114.056 21.3369C114.545 21.094 114.954 20.6042 115.278 20.1176L115.85 18.8951L122.047 5.95013L121.149 4.40322C120.335 3.10002 119.519 2.28582 118.622 1.79762C118.215 1.55312 117.807 1.55312 117.399 1.39012C117.154 1.30862 117.073 1.22712 117.154 1.06412C117.154 0.901124 117.317 0.982622 117.399 0.901123H123.353V0.902711ZM98.9704 22.3956H99.297C114.302 22.3956 114.14 0.983417 99.297 0.983417H86.9839C86.739 0.983417 86.3325 0.901916 86.3325 1.22791C86.3325 1.30941 86.4949 1.47241 86.6574 1.47241C88.4516 2.04211 88.8597 3.01932 88.9406 4.24101V19.1404C88.8597 20.4428 88.4516 21.3377 86.6574 21.9082C86.4949 21.9905 86.3325 22.072 86.3325 22.2342C86.3325 22.4787 86.7398 22.4787 86.9839 22.4787H94.8938V22.3964H98.9704V22.3956ZM98.9704 2.53032C101.255 2.53032 103.131 4.40323 103.131 6.68204V16.6155C103.131 18.8951 101.255 20.768 98.9704 20.768H94.893V2.53032H98.9704ZM67.9021 14.5804H71.7346L67.9021 8.06674L67.4948 7.41474L64.0704 14.5804H67.9021ZM67.9021 0.902711H70.5934L81.5204 20.1184C81.7653 20.605 82.1734 21.0948 82.6624 21.3377C83.0697 21.6637 83.5603 21.746 84.0493 21.9082C84.2117 21.9905 84.3742 22.072 84.3742 22.2342C84.3742 22.4787 83.8852 22.4787 83.7228 22.4787H74.0202C73.8562 22.4787 73.4488 22.4787 73.4488 22.2342C73.4488 22.072 73.5297 21.9897 73.7737 21.9082C74.1827 21.746 74.5892 21.5015 74.6716 21.0133C74.8341 20.4428 74.6716 20.1184 74.3451 19.3841C73.7737 18.1632 73.1223 17.023 72.5525 15.8836H63.4166L63.3357 16.0458C63.2541 16.3718 62.6827 17.5112 62.1121 18.7329C61.5415 20.0353 61.2158 20.3605 61.3791 21.0125C61.5423 21.5007 61.868 21.7452 62.3578 21.9074C62.5203 21.9897 62.6835 22.0712 62.6835 22.2334C62.6835 22.4779 62.2762 22.4779 62.0321 22.4779H57.6274C57.4641 22.4779 56.9743 22.4779 56.9743 22.2334C56.9743 22.0712 57.1376 21.9889 57.3009 21.9074C57.7906 21.7452 58.198 21.6629 58.6877 21.3369C59.0951 21.094 59.5848 20.6042 59.8289 20.1176L60.3995 18.8951L66.6793 5.95013L65.7822 4.40322C64.9667 3.10002 64.0696 2.28582 63.2541 1.79762C62.7643 1.55312 62.4386 1.55312 61.9489 1.39012C61.7856 1.30862 61.6224 1.22712 61.7048 1.06412C61.7856 0.901124 61.9489 0.982622 62.0313 0.901123H67.9021V0.902711ZM40.992 15.1509C42.8679 15.8013 45.1511 15.9635 46.9445 15.3953L54.0397 21.5015L54.6103 21.9897C54.6927 22.072 54.6927 22.1519 54.6927 22.2342C54.6927 22.4787 54.2846 22.4787 54.1213 22.4787H46.6196L40.9928 17.838L36.4256 14.1736V19.2227C36.5081 20.4436 36.997 21.3385 38.7088 21.909C38.8721 21.9913 38.9537 22.0728 38.9537 22.235C38.9537 22.4795 38.5456 22.4795 38.3823 22.4795H28.5149C28.2708 22.4795 27.8627 22.4795 27.8627 22.235C27.8627 22.0728 28.0259 21.9905 28.1884 21.909C30.1459 21.2586 30.3908 20.2814 30.4716 18.7344V4.64693C30.39 3.18152 30.1451 2.12282 28.1884 1.47162C28.0252 1.47162 27.8627 1.30862 27.8627 1.22712C27.8627 0.901916 28.2708 0.982626 28.5149 0.982626H44.4164C45.2848 0.978962 46.1453 1.14702 46.9484 1.47711C47.7514 1.8072 48.481 2.29278 49.0951 2.90584C49.7092 3.5189 50.1956 4.2473 50.5263 5.04902C50.857 5.85074 51.0255 6.70991 51.0219 7.57695C51.0256 8.44402 50.8572 9.30324 50.5265 10.105C50.1959 10.9068 49.7094 11.6352 49.0953 12.2483C48.4812 12.8614 47.7516 13.347 46.9485 13.677C46.1454 14.0071 45.2848 14.175 44.4164 14.1713H39.2794C39.5243 14.6595 40.0949 14.8233 40.5839 15.0678C40.7471 15.0686 40.8288 15.1509 40.992 15.1509ZM40.992 12.6267H41.6442C43.7642 12.6267 45.5584 10.3463 45.5584 7.41474C45.5584 4.56543 43.7642 2.28582 41.6442 2.28582H36.4248V12.6267H40.992ZM13.6738 2.28662H9.02578V12.6275H14.4084C16.61 12.6275 18.3226 10.3471 18.3226 7.41553C18.3226 4.56622 16.61 2.28662 14.4084 2.28662H13.6738Z" fill="#393B40"/>
</svg>
