<svg width="116" height="36" viewBox="0 0 116 36" fill="none" xmlns="http://www.w3.org/2000/svg">
<path fill-rule="evenodd" clip-rule="evenodd" d="M16.0168 0.0908753C10.7565 0.717251 5.79052 3.80197 2.91199 8.23133C0.894211 11.3363 -0.0142701 14.4892 0.000169344 18.3363C0.0122022 21.5093 0.576811 24.0042 1.86032 26.5551C4.25512 31.3149 8.50754 34.5322 14.0114 35.7483C15.5342 36.0848 19.7144 36.0837 21.2656 35.7463C23.8575 35.1827 27.1799 33.7626 28.1192 32.8169C28.7083 32.224 28.783 31.968 29.5201 28.0202C30.2192 24.2758 30.2404 23.952 29.8127 23.547C28.9738 22.7529 28.3981 23.3363 26.8554 26.5438C26.1753 27.9579 25.3835 29.4225 25.096 29.7984C23.681 31.6488 21.873 32.6359 19.2863 32.9701C16.6038 33.3168 14.248 32.5279 11.9096 30.4997C8.91304 27.9005 7.3092 22.846 7.57552 16.8408C7.78556 12.1051 8.92802 8.81365 11.1875 6.43426C13.5178 3.98036 16.83 2.79713 19.7604 3.3715C22.8397 3.97524 24.9975 6.11804 26.7342 10.2973C27.4006 11.9009 27.7274 12.3407 28.2528 12.3407C29.1578 12.3407 29.3075 11.4969 29.061 7.78577C28.8769 5.0139 28.7785 4.54664 28.2504 3.94061C27.7748 3.39481 25.3848 1.95383 23.8382 1.28044C21.4434 0.237735 18.5187 -0.207155 16.0168 0.0908753ZM38.1735 0.922045C37.9473 1.08871 37.442 1.49197 37.0507 1.81802C36.2801 2.46003 35.2002 3.0057 33.1702 3.77866C31.4836 4.4208 31.3511 4.74254 32.4174 5.60605C33.4581 6.44881 33.3927 5.595 33.4391 18.9426C33.4618 25.5008 33.443 31.1817 33.397 31.5667C33.2956 32.4156 32.8147 33.1813 32.0188 33.7613C31.3788 34.2277 31.3327 34.5326 31.8613 34.8021C32.2953 35.0233 40.9687 35.0499 41.5895 34.8317C42.4287 34.5369 42.2001 34.0182 40.8429 33.1385C39.6384 32.3576 39.6809 32.6464 39.6848 25.2751C39.6867 21.7552 39.7362 18.5829 39.7947 18.2256C39.9276 17.4157 40.635 16.6524 41.734 16.1332C43.0302 15.5207 44.9775 15.7201 45.8804 16.5576C46.5727 17.1996 46.5838 17.3075 46.6918 24.3727C46.7473 27.9989 46.7445 31.2163 46.6857 31.5224C46.6267 31.8287 46.576 32.1291 46.5728 32.1904C46.5696 32.2516 46.1458 32.7168 45.6311 33.2244C45.1163 33.7319 44.6952 34.2411 44.6952 34.356C44.6952 34.4708 44.8889 34.6658 45.1257 34.7892C45.5127 34.9909 45.9887 35.0041 49.8385 34.9193C52.1939 34.8674 54.3403 34.7675 54.6085 34.697C55.291 34.5175 55.3791 34.1841 54.855 33.7633C53.8399 32.9483 53.4083 32.4533 53.2666 31.9413C53.1738 31.6061 53.0898 29.1111 53.042 25.2751C53 21.9034 52.912 18.6067 52.8464 17.9492C52.6976 16.4599 52.1991 15.3221 51.2543 14.3154C49.9582 12.9343 48.1801 12.2735 45.7648 12.2751C43.9284 12.2764 43.1649 12.4477 41.5019 13.2314C40.8119 13.5567 40.1672 13.8228 40.0693 13.8228C39.653 13.8228 39.6146 13.2673 39.6146 7.22972C39.6146 1.33743 39.6067 1.14988 39.3472 0.888362C39.0003 0.538729 38.6809 0.547891 38.1735 0.922045ZM63.3461 1.55893C62.0205 2.56539 60.9073 3.15956 59.2759 3.73137C58.0192 4.17181 57.5302 4.48628 57.5302 4.85397C57.5302 4.96014 57.8048 5.2738 58.1404 5.55095C59.2913 6.50135 59.1969 5.2998 59.2382 19.5155C59.2696 30.3252 59.247 32.2013 59.0815 32.524C58.9751 32.7314 58.5224 33.1693 58.0754 33.4973C57.1107 34.2052 56.9815 34.6418 57.6973 34.7753C58.5308 34.9306 67.7996 34.7863 67.9691 34.6152C68.2927 34.2889 67.9797 33.8009 67.0798 33.228C65.6854 32.3407 65.7793 32.9971 65.6719 23.3888C65.6211 18.8315 65.5724 12.0409 65.5638 8.2987C65.5468 0.872194 65.5448 0.851984 64.8137 0.783943C64.5034 0.754976 64.1801 0.925683 63.3461 1.55893ZM106.376 3.37433C106.144 3.47605 105.916 3.68273 105.868 3.8339C105.768 4.15228 106.04 4.74605 106.464 5.13246C107.498 6.07519 107.315 7.63675 106.071 8.48759C105.736 8.71718 105.231 9.13 104.949 9.40513C104.542 9.803 104.456 9.96818 104.53 10.2135C104.659 10.6449 104.771 10.7395 105.282 10.8468C106.692 11.1433 109.965 9.70693 111.639 8.05618C112.333 7.37241 112.748 6.57869 112.748 5.93588C112.748 5.10579 112.277 4.78 110.066 4.0806C106.892 3.07657 107.006 3.09839 106.376 3.37433ZM78.8673 12.4191C77.5625 12.6682 75.7149 13.3567 74.7085 13.9687C73.6958 14.5845 71.9402 16.2424 71.3119 17.1764C69.549 19.7966 68.8744 22.6277 69.3504 25.4098C69.8666 28.428 71.0142 30.6966 72.9285 32.4836C75.2831 34.6812 77.9798 35.6199 81.5291 35.4774C83.0567 35.4159 83.4423 35.349 84.7137 34.9248C87.026 34.1532 88.4473 33.2093 89.9558 31.4435C93.7343 27.0211 93.5625 20.2059 89.5637 15.8826C87.3438 13.4824 84.8843 12.3664 81.5959 12.2674C80.4738 12.2337 79.5772 12.2834 78.8673 12.4191ZM104.377 12.3388C100.63 12.8715 97.4053 15.4001 95.6837 19.1547C94.6837 21.3362 94.4148 23.7615 94.906 26.1703C95.7975 30.5412 99.276 34.1496 103.604 35.1931C104.958 35.5197 107.424 35.4938 108.87 35.1379C111.203 34.5638 113.272 33.4046 114.623 31.9148C115.606 30.831 115.719 30.0916 114.985 29.5395C114.533 29.1991 114.129 29.311 113.346 29.994C110.417 32.5485 107.508 33.169 104.967 31.781C103.081 30.7505 101.684 27.9958 101.812 25.5576L101.851 24.8035L108.633 24.7362L115.414 24.6688L115.719 24.3605C115.996 24.08 116.02 23.945 115.99 22.8538C115.872 18.6201 113.711 14.9983 110.253 13.2384C108.709 12.4527 106.237 12.0743 104.377 12.3388ZM82.5734 15.3432C83.6282 15.8299 84.3036 16.5106 84.8433 17.6311C85.4267 18.842 85.7062 19.9503 85.8879 21.772C86.1632 24.5322 85.7828 27.7193 84.9308 29.7911C84.3555 31.1899 83.2136 32.4038 82.2094 32.6841C81.4475 32.8967 80.2472 32.7485 79.3753 32.3342C78.0623 31.7101 77.0002 30.0592 76.505 27.8726C76.1564 26.3341 76.0238 23.1995 76.2385 21.5796C76.6595 18.4042 77.9854 15.9974 79.7823 15.1468C80.4907 14.8116 81.5883 14.8888 82.5734 15.3432ZM106.373 15.0451C107.756 15.432 108.76 17.1631 109.204 19.9254C109.424 21.297 109.332 21.7123 108.775 21.8693C108.57 21.927 106.998 21.9741 105.282 21.9741C102.182 21.9741 102.16 21.9721 101.911 21.6624C101.633 21.3154 101.644 21.1574 102.08 19.4142C102.464 17.8742 103.273 16.226 103.909 15.6886C104.758 14.9703 105.455 14.7883 106.373 15.0451Z" fill="#393B40"/>
</svg>
