<svg width="123" height="57" viewBox="0 0 123 57" fill="none" xmlns="http://www.w3.org/2000/svg">
<path fill-rule="evenodd" clip-rule="evenodd" d="M78.0428 0.0602129C62.8538 0.532389 46.8013 3.93026 37.5673 8.6279C34.4555 10.211 31.981 12.1942 31.2481 13.6923C30.8834 14.4376 30.7537 15.4968 30.9613 16.0335L31.1014 16.3959H44.6841C52.1547 16.3959 58.2669 16.3604 58.2669 16.317C58.2669 16.2735 58.0609 15.9029 57.8094 15.4934C55.9071 12.3971 57.3424 9.43744 61.8154 7.23285C65.2731 5.52865 69.9075 4.67154 75.6814 4.66877C80.931 4.66613 85.7829 5.3489 91.0653 6.83342L92.2878 7.17698L93.5041 6.52795C95.0785 5.68771 97.3315 4.80015 99.4007 4.20476C101.042 3.73246 105.264 2.82513 105.828 2.82329C105.991 2.82276 106.125 2.76307 106.125 2.69059C106.125 2.61811 106.093 2.5588 106.054 2.5588C106.015 2.5588 104.815 2.31988 103.387 2.02798C95.7505 0.465838 86.9576 -0.216793 78.0428 0.0602129ZM32.4263 17.9848C32.7526 18.2726 33.554 18.7742 34.2072 19.0993L35.3947 19.6905H53.4587H71.5225L72.6374 18.5703L73.7522 17.4502L52.7926 17.4559L31.8331 17.4614L32.4263 17.9848ZM39.6775 20.9523C44.8431 22.2328 53.1808 23.0284 63.2108 23.1979L67.9571 23.278L69.2729 21.9454L70.5888 20.613L54.5069 20.6273L38.425 20.6418L39.6775 20.9523ZM11.9446 29.9211C9.35459 30.4765 6.50778 32.1629 4.07692 34.5819C2.12636 36.523 0.862415 38.4762 0.253844 40.4895C-0.125589 41.7445 -0.0750948 43.3089 0.374741 44.2376C0.996364 45.5212 2.45161 46.568 4.34284 47.0918C5.28378 47.3525 5.65108 47.3647 12.5189 47.3647H19.7096L20.8245 46.2446L21.9393 45.1244H25.7985H29.6577V46.2446V47.3647H33.5242H37.3908L41.4709 41.138L45.5511 34.9113L47.1637 34.8743C48.7573 34.8378 48.7781 34.8411 48.9216 35.1559C49.1043 35.5567 48.8711 36.0851 48.3367 36.4809C48.0277 36.7098 47.7334 36.7638 46.5935 36.8011L45.2223 36.8459L43.7753 39.081C42.2478 41.4406 42.0788 41.8736 42.2146 43.0781C42.3691 44.4487 43.7044 46.0768 45.3227 46.8682L46.2036 47.2989L51.4771 47.335L56.7507 47.3711L60.8377 41.1115L64.9248 34.852L66.4826 34.8487C67.3393 34.8469 68.1551 34.9068 68.2954 34.9818C68.6032 35.1466 68.6252 35.6025 68.3445 36.0029C67.9543 36.5598 67.3871 36.7455 65.8513 36.8189L64.4046 36.8881L63.0505 38.9796C61.51 41.3588 61.3284 41.8271 61.5424 42.8687C61.9392 44.8007 63.433 46.399 65.488 47.091C66.2745 47.3559 66.5532 47.3647 74.1291 47.3647H81.9575L83.5589 44.9597L85.1604 42.5547L82.2635 42.4888L79.3666 42.4229L79.9083 41.5993L80.45 40.7756H83.3839H86.3177L87.7103 38.6342L89.1029 36.4927L86.213 36.4268L83.3232 36.3609L83.8142 35.6049L84.3051 34.849L87.2408 34.8472L90.1765 34.8454L91.8222 32.364C92.7274 30.9992 93.468 29.8422 93.468 29.7929C93.468 29.7436 90.6715 29.7187 87.2537 29.7376L81.0394 29.7718L76.8714 36.1279L72.7033 42.4841L70.6885 42.4864C68.4418 42.4891 67.9803 42.3784 67.5153 41.7257C66.9801 40.9745 67.0914 40.8352 68.3687 40.6566C70.4103 40.3712 71.8749 39.661 73.4149 38.21C76.1815 35.6032 76.5387 32.4492 74.2621 30.7312C72.9014 29.7042 72.9117 29.7057 66.9339 29.708L61.6288 29.7102L57.4591 36.0665L53.2893 42.4229L51.6666 42.4601C49.6773 42.5057 48.7959 42.3424 48.2425 41.8255C47.6199 41.2444 47.7341 40.8716 48.5767 40.7336C48.9392 40.6742 49.6179 40.531 50.085 40.4156C53.068 39.678 55.8053 36.9563 56.3139 34.2218C56.4326 33.5844 56.4183 33.3207 56.2302 32.6672C55.935 31.6419 54.8738 30.5557 53.7092 30.0867C52.9371 29.7758 52.8622 29.7713 47.711 29.7347C42.8428 29.6999 42.4815 29.713 42.2956 29.9323C42.1861 30.0615 40.4695 32.6521 38.4809 35.6891L34.8654 41.211L34.831 35.4585L34.7967 29.7059H32.7744H30.7522L24.2114 36.0974L17.6706 42.4888L13.3477 42.4856C10.9701 42.4839 8.78754 42.4278 8.4975 42.3607C7.25531 42.0741 7.05148 41.0554 7.9 39.3743C8.80165 37.5877 10.6098 35.8803 12.3641 35.1592C13.0987 34.8572 13.1943 34.8516 17.7935 34.8486L22.475 34.8454L25.0433 32.2757L27.6117 29.7059L20.2299 29.7167C14.2642 29.7253 12.6748 29.7646 11.9446 29.9211ZM95.8802 29.8637C95.8051 29.9582 93.4131 33.5935 90.5649 37.9423C87.7165 42.2911 85.1554 46.1902 84.8736 46.607L84.3612 47.3647H87.7111H91.061L95.1463 41.138L99.2315 34.9113L100.945 34.8747C102.902 34.8328 103.132 34.9231 102.783 35.5937C102.298 36.5271 101.658 36.8222 100.119 36.8222H99.0088L97.7355 38.766C96.198 41.1127 95.9795 41.5679 95.9758 42.4324C95.9699 43.8023 96.729 45.1036 98.1704 46.1944C99.6155 47.288 100.034 47.3647 104.547 47.3647H108.455L109.475 46.2446L110.495 45.1244H114.177H117.858V46.2446V47.3647H120.429H123V38.5353V29.7059H121.031H119.062L112.824 36.1058L106.586 42.5057L104.938 42.4566C103.167 42.4039 102.701 42.264 102.085 41.6002C101.501 40.9705 101.791 40.6479 102.944 40.6421C103.575 40.6388 105.42 39.9032 106.355 39.282C107.661 38.4142 108.892 37.0614 109.507 35.8188C109.977 34.8692 110.014 34.7101 110.014 33.6568C110.014 32.6229 109.978 32.4619 109.618 31.8824C109.135 31.1037 108.234 30.4646 107.068 30.0733C106.231 29.7924 105.957 29.7768 101.104 29.7353C97.0404 29.7007 95.9894 29.7265 95.8802 29.8637ZM29.6136 40.6002C29.5848 40.6288 28.8462 40.6356 27.9721 40.6151L26.383 40.578L27.9873 38.8586L29.5918 37.1391L29.6287 38.8436C29.649 39.7811 29.6422 40.5715 29.6136 40.6002ZM117.814 40.6002C117.785 40.629 117.077 40.6357 116.24 40.6153L114.719 40.578L116.256 38.924L117.792 37.27L117.829 38.9089C117.85 39.8103 117.843 40.5714 117.814 40.6002ZM14.8038 53.2391C14.5112 53.5315 14.4735 53.661 14.5311 54.173C14.568 54.5 14.6595 54.8288 14.7344 54.9036C14.9824 55.1515 15.9881 55.2601 18.0888 55.2659L20.1653 55.2717V55.7988V56.3259H17.7922H15.4191V55.9965C15.4191 55.7233 15.3559 55.667 15.0487 55.667C14.4598 55.667 14.1899 55.9332 14.3506 56.3557C14.5638 56.9162 15.1516 57.0119 18.0752 56.9626C21.1417 56.9109 21.22 56.8803 21.22 55.7329C21.22 54.5914 21.1296 54.5549 18.1741 54.5037L15.6827 54.4604V54.0095V53.5585H17.924C20.1214 53.5585 20.1653 53.564 20.1653 53.8385C20.1653 54.0819 20.2192 54.1078 20.5773 54.0362C20.8039 53.9909 21.0412 53.9539 21.1046 53.9539C21.3318 53.9539 21.2141 53.5406 20.8963 53.2231C20.5737 52.9005 20.5646 52.8996 17.8581 52.8996H15.1434L14.8038 53.2391ZM24.516 54.6693C24.516 56.6815 24.5599 56.7841 25.4789 56.922C25.7892 56.9685 27.147 56.9868 28.4961 56.9627C31.6789 56.9059 31.5035 57.0405 31.5035 54.6582V52.8996H30.9102H30.3169V54.6128V56.3259H28.0097H25.7025V54.6128V52.8996H25.1093H24.516V54.6693ZM34.7995 54.9497V57L35.3598 56.9594L35.9201 56.919V55.4035V53.888L38.7122 55.4364C40.2482 56.2882 41.6569 56.9848 41.8434 56.9848H42.1825V54.9422V52.8996H41.5778H40.9732L41.0175 54.4042C41.0467 55.395 41.0169 55.873 40.93 55.8039C40.8575 55.7462 39.6348 55.0691 38.2129 54.2993C36.4899 53.3664 35.4896 52.8996 35.2136 52.8996H34.7995V54.9497ZM45.874 52.9911C45.4363 53.1475 45.3466 53.4696 45.3466 54.8869C45.3466 56.0787 45.3856 56.3449 45.5987 56.6078L45.8506 56.919H49.0127C52.8187 56.919 52.7296 56.9526 52.7296 55.5148V54.6128H50.8179H48.9063V54.9422V55.2717H50.2247H51.5431V55.7988V56.3259H49.0381H46.5332V54.9422V53.5585H49.0381C51.4551 53.5585 51.5431 53.5677 51.5431 53.8221C51.5431 54.0992 51.844 54.1604 52.433 54.0026C52.8247 53.8976 52.8268 53.378 52.4365 53.1048C52.1909 52.9327 51.6538 52.9013 49.1076 52.91C47.4378 52.9157 45.9827 52.9522 45.874 52.9911ZM55.7619 54.9422V56.9848H58.8601H61.9584V56.6554V56.3259H59.4534H56.9485V54.6128V52.8996H56.3552H55.7619V54.9422ZM64.8009 54.9093L62.9963 56.919L63.5631 56.961C64.0847 56.9997 64.1669 56.9601 64.5933 56.4648L65.0566 55.9265L67.2193 55.9286L69.382 55.9306L69.8334 56.4577C70.236 56.9279 70.3489 56.9848 70.8788 56.9848C71.2055 56.9848 71.453 56.9316 71.4288 56.8666C71.4047 56.8015 70.5948 55.8824 69.6292 54.824L67.8733 52.8996H67.2393H66.6054L64.8009 54.9093ZM73.8056 53.1516C73.3729 53.5017 73.3641 54.4752 73.7895 54.9006C74.0702 55.1811 74.208 55.1983 76.5911 55.2495L79.0975 55.3034V55.8146V56.3259H76.7244H74.3513V55.9965C74.3513 55.6337 74.0942 55.5708 73.5133 55.7916C73.1321 55.9364 73.1619 56.2948 73.5869 56.6798C73.8201 56.891 74.1635 56.924 76.5216 56.9614C79.6835 57.0116 80.0776 56.9232 80.2267 56.1291C80.2763 55.8647 80.2629 55.4599 80.1972 55.2295C80.0185 54.6042 79.5402 54.4971 76.8892 54.4884L74.615 54.481V54.0197V53.5585H76.8562C79.049 53.5585 79.0975 53.5646 79.0975 53.8367C79.0975 54.0868 79.1476 54.1057 79.5919 54.0226C80.2035 53.9085 80.2027 53.9093 80.0984 53.4941C80.0492 53.2981 79.8711 53.0999 79.6785 53.0268C79.4946 52.9568 78.1679 52.8996 76.7304 52.8996C74.3535 52.8996 74.0886 52.9224 73.8056 53.1516ZM83.7413 53.1048C83.5012 53.2728 83.4482 53.4361 83.4482 54.0068C83.4482 55.1541 83.5262 55.186 86.4889 55.2497L88.9854 55.3034V55.8146V56.3259H86.6123H84.2392V55.9965C84.2392 55.6515 84.0631 55.5942 83.4811 55.75C83.0984 55.8526 83.0884 56.3298 83.4618 56.6679C83.7115 56.894 84.0034 56.9232 86.4096 56.9614C89.5518 57.0113 89.9661 56.9204 90.111 56.1486C90.2188 55.574 90.0888 54.9491 89.814 54.7207C89.661 54.5935 88.9193 54.5353 87.0539 54.5039L84.5029 54.4608V54.0097V53.5585H86.7442C88.9369 53.5585 88.9854 53.5646 88.9854 53.8367C88.9854 54.0868 89.0355 54.1057 89.4798 54.0226C90.0914 53.9085 90.0906 53.9093 89.9864 53.4941C89.9372 53.2981 89.7591 53.0999 89.5665 53.0268C89.3825 52.9568 88.0624 52.8996 86.633 52.8996C84.4943 52.8996 83.9824 52.936 83.7413 53.1048ZM93.3361 54.9422V56.9848H96.5662H99.7963V56.6554V56.3259H97.1595H94.5227V55.7329V55.1399H96.1048H97.6868V54.8104V54.481H96.1048H94.5227V54.0225V53.564L97.1265 53.5283C99.7141 53.4929 99.7306 53.4908 99.7725 53.1961L99.8146 52.8996H96.5754H93.3361V54.9422ZM102.594 53.1048C102.354 53.2728 102.301 53.4361 102.301 54.0068C102.301 55.1541 102.379 55.186 105.342 55.2497L107.838 55.3034V55.8146V56.3259H105.465H103.092V55.9965C103.092 55.6515 102.916 55.5942 102.334 55.75C101.951 55.8526 101.941 56.3298 102.315 56.6679C102.565 56.894 102.856 56.9232 105.263 56.9614C108.405 57.0113 108.819 56.9204 108.964 56.1486C109.012 55.895 109.009 55.4995 108.959 55.2697C108.81 54.5915 108.348 54.481 105.667 54.481H103.356V54.0197V53.5585H105.597C107.79 53.5585 107.838 53.5646 107.838 53.8367C107.838 54.0868 107.889 54.1057 108.333 54.0226C108.944 53.9085 108.944 53.9093 108.839 53.4941C108.79 53.2981 108.612 53.0999 108.419 53.0268C108.236 52.9568 106.915 52.8996 105.486 52.8996C103.347 52.8996 102.835 52.936 102.594 53.1048ZM68.0834 54.448L68.8529 55.3376L67.2997 55.3749C66.4454 55.3953 65.7174 55.3832 65.6819 55.3477C65.6079 55.2737 67.0853 53.5585 67.2231 53.5585C67.2729 53.5585 67.66 53.9589 68.0834 54.448Z" fill="#767678"/>
</svg>
