<svg width="151" height="99" viewBox="0 0 151 99" fill="none" xmlns="http://www.w3.org/2000/svg">
<path fill-rule="evenodd" clip-rule="evenodd" d="M70.4009 0.234857C62.3714 1.45729 55.4684 4.84355 49.8158 10.3326C42.6995 17.2433 38.9013 25.8231 38.5896 35.6913C38.3293 43.9384 40.6261 51.4306 45.5263 58.3176C46.9575 60.329 49.8756 63.4385 51.9608 65.1739C61.6377 73.2278 75.1954 75.7473 87.227 71.7277C90.5427 70.6199 93.3227 69.2474 96.2015 67.2968C98.5797 65.6854 99.9726 64.4997 102.265 62.1348C110.989 53.1357 114.404 40.3511 111.408 27.9033C110.267 23.166 108.073 18.6173 104.86 14.334C103.505 12.5264 99.6215 8.70954 97.6606 7.25768C92.6069 3.5159 86.8644 1.15556 80.5981 0.244737C78.3846 -0.0770622 72.4873 -0.0827083 70.4009 0.234857ZM79.6828 7.28967C86.5459 8.11377 93.5513 11.9075 98.118 17.273C99.2751 18.6325 101.157 21.252 101.157 21.5029C101.157 21.573 99.56 21.6304 97.6079 21.6304H94.0588L93.2423 22.3843C89.0703 26.2365 87.2303 27.9454 85.3276 29.7349C84.1059 30.8837 83.0618 31.8239 83.0072 31.8239C82.9526 31.8239 82.9079 29.5293 82.9079 26.7248V21.6257L78.2465 21.6673L73.5849 21.7089L72.3699 24.6885C71.7016 26.3273 70.6449 28.9031 70.0215 30.4125C69.398 31.9219 68.2828 34.6389 67.5432 36.4502C65.9316 40.3967 65.9215 40.4176 65.7542 40.1195C65.6852 39.9968 64.6376 37.3567 63.4261 34.2528C62.2146 31.1488 60.9441 27.9033 60.6028 27.0408C60.2616 26.1783 59.6481 24.6082 59.2395 23.5515L58.4968 21.6304H54.1837C51.8115 21.6304 49.8706 21.573 49.8706 21.5029C49.8706 21.252 51.7526 18.6325 52.9097 17.273C57.4722 11.9126 64.4283 8.14231 71.3448 7.28136C74.4784 6.89118 76.3807 6.89306 79.6828 7.28967ZM49.0462 43.6723L49.0053 50.683L48.3141 49.1358C44.6913 41.0267 44.6921 32.5746 48.3169 24.3671L49.0053 22.8083L49.0462 29.735C49.0689 33.5447 49.0689 39.8165 49.0462 43.6723ZM102.864 24.7106C106.297 32.4749 106.251 41.3196 102.737 49.1136C102.552 49.5232 102.351 49.8549 102.29 49.8505C102.229 49.8461 101.241 48.6287 100.095 47.1453C98.9477 45.6617 96.4107 42.4016 94.4566 39.9002C92.5027 37.3989 90.8677 35.2655 90.8233 35.1594C90.7376 34.9544 101.893 23.5101 102.174 23.5153C102.264 23.517 102.574 24.0548 102.864 24.7106ZM58.2111 42.1742C59.3531 44.8049 60.7622 48.0511 61.3427 49.388L62.3982 51.8187H65.672H68.9459L69.8786 49.7016C71.2476 46.5942 72.1373 44.5572 73.8779 40.5449L75.4352 36.9554L75.4761 44.4263L75.5168 51.8972H79.0301H82.5434L82.6471 48.8139C82.704 47.1181 82.7506 44.935 82.7506 43.9626C82.7506 42.9903 82.8154 42.0247 82.8945 41.8169C83.035 41.449 84.8464 39.8218 85.1157 39.8218C85.19 39.8218 85.8032 40.5017 86.4784 41.3323C87.1537 42.1632 88.2371 43.491 88.8861 44.283C89.535 45.0749 91.1987 47.1106 92.5831 48.8067L95.1002 51.8903L98.1287 51.8937C99.7942 51.8956 101.157 51.9545 101.157 52.0246C101.157 52.0946 100.725 52.7827 100.198 53.5537C94.2214 62.2847 83.7131 67.35 73.359 66.4904C64.1218 65.7236 55.9451 61.0256 50.8221 53.5419C50.2988 52.7775 49.8706 52.0946 49.8706 52.0246C49.8706 51.9545 51.169 51.8972 52.756 51.8972H55.6413L55.7446 48.4863C55.8016 46.6104 55.8504 43.2406 55.8532 40.998C55.8562 38.5771 55.9145 37.0161 55.9967 37.1559C56.0726 37.2852 57.0693 39.5435 58.2111 42.1742ZM27.9244 83.6761C25.1952 84.0881 23.1639 86.0001 22.4164 88.8607C22.116 90.0106 22.1175 92.6129 22.4194 93.8893C23.0899 96.7242 25.1288 98.6393 27.7935 98.9371C29.9612 99.1794 31.5586 98.7282 32.9953 97.4675C33.8302 96.7349 34.2858 96.0453 34.7433 94.8213C35.2794 93.3869 35.2461 93.2983 34.171 93.2983H33.2594L32.9929 94.1609C32.4307 95.9809 31.4786 96.9121 29.8462 97.2389C28.2718 97.5541 26.562 97.0441 25.5872 95.9686C24.7209 95.0126 24.3505 93.8219 24.2646 91.7159C24.182 89.6962 24.4139 88.516 25.0988 87.4678C26.0743 85.9745 27.1862 85.3895 29.0409 85.3938C30.1108 85.3963 30.4576 85.4665 31.2088 85.8329C31.9324 86.1859 32.1917 86.4233 32.5686 87.0784C32.8248 87.5236 33.035 88.0115 33.0359 88.1623C33.0372 88.393 33.1877 88.4368 33.9812 88.4368C34.8934 88.4368 34.9252 88.423 34.9252 88.0282C34.9252 87.509 34.2436 86.1414 33.6946 85.5591C33.0554 84.8811 32.1025 84.2767 31.2281 83.9949C30.3844 83.7228 28.6946 83.5599 27.9244 83.6761ZM114.335 83.7291C112.5 84.0572 111.294 84.7392 110.257 86.0347C109.089 87.4941 108.551 89.1404 108.551 91.255C108.551 93.7753 109.185 95.491 110.699 97.0741C112.155 98.5949 114.14 99.1995 116.763 98.9202C119.945 98.5811 122.3 95.9921 122.706 92.3873C123.133 88.5872 121.184 84.9677 118.218 84.0545C117.037 83.691 115.342 83.5489 114.335 83.7291ZM143.676 83.7406C141.335 84.2011 139.937 85.8105 139.937 88.0447C139.937 88.8527 140.023 89.3081 140.265 89.7698C140.815 90.8214 141.597 91.2117 144.647 91.9565C147.782 92.7221 148.478 93.0227 148.864 93.7795C149.469 94.9628 149.025 96.1753 147.718 96.9052C147.092 97.2547 146.837 97.2969 145.364 97.2946C143.98 97.2922 143.61 97.2373 143.083 96.956C141.935 96.3436 141.274 95.4041 141.274 94.3858C141.274 93.9266 141.271 93.9255 140.308 93.9255H139.342L139.439 94.7393C139.562 95.7734 140.2 97.0816 140.849 97.6287C141.126 97.8621 141.742 98.2347 142.218 98.4568C142.972 98.8087 143.335 98.8675 145.049 98.9158C146.769 98.9642 147.131 98.9283 147.926 98.6307C149.785 97.9349 150.798 96.7262 150.978 94.9902C151.163 93.1966 150.178 91.6108 148.487 90.9799C148.022 90.8063 146.615 90.441 145.362 90.1679C142.174 89.4735 141.669 89.1134 141.794 87.6224C141.916 86.1635 142.912 85.4284 144.809 85.3971C146.942 85.3618 148.322 86.1417 148.688 87.5885L148.866 88.2944L149.75 88.248C150.591 88.2039 150.632 88.1822 150.586 87.8095C150.392 86.2265 149.383 84.7941 148.064 84.2284C146.753 83.6662 145.028 83.4744 143.676 83.7406ZM0 91.332V98.6302H0.942036H1.88423L1.92529 92.4749L1.96651 86.3197L4.01167 92.4357L6.05684 98.5518L7.01775 98.5979L7.97883 98.644L9.34688 94.5989C10.0993 92.3741 11.012 89.6568 11.3751 88.5605C11.738 87.464 12.0704 86.5643 12.1137 86.5609C12.1569 86.5574 12.1713 89.2717 12.1453 92.5924L12.0983 98.6302H13.0499H14.0015V91.338V84.0457H12.6236H11.2454L9.20183 90.1606C8.07778 93.5238 7.11183 96.276 7.05535 96.2766C6.99887 96.2773 6.03733 93.5434 4.91863 90.201L2.88463 84.1241L1.44231 84.079L0 84.034V91.332ZM17.4626 91.338V98.6302H18.4065H19.3504V91.338V84.0457H18.4065H17.4626V91.338ZM37.5996 91.3455V98.6451L38.5728 98.5985L39.5458 98.5518L39.5054 95.8574C39.4832 94.3755 39.5134 92.8406 39.5727 92.4465L39.6805 91.73H43.4384H47.1962V95.1801V98.6302H48.1401H49.084V91.338V84.0457H48.1435H47.2029L47.1603 87.0646L47.1175 90.0834L43.5299 90.1144C41.5568 90.1315 39.8373 90.1052 39.7088 90.0561C39.5137 89.9815 39.4772 89.5107 39.4879 87.2023C39.4948 85.6819 39.4975 84.3497 39.4941 84.2418C39.4895 84.1075 39.1903 84.0457 38.5435 84.0457H37.5996V91.3455ZM56.5024 84.3202C56.4232 84.471 55.4665 86.9587 54.3763 89.8482C53.2862 92.7376 52.1536 95.7368 51.8596 96.5131C50.9689 98.8648 50.9453 98.6534 52.0932 98.5988L53.0834 98.5518L53.7688 96.6699C54.1458 95.6349 54.4826 94.6999 54.5172 94.592C54.5647 94.4443 55.3131 94.396 57.5515 94.396H60.5225L61.2306 96.4739L61.9387 98.5518L63.0039 98.5987C63.9749 98.6413 64.0592 98.6205 63.959 98.3635C63.8984 98.2082 63.5778 97.3051 63.2463 96.3563C62.7632 94.9733 61.3507 91.0557 58.9636 84.477C58.8135 84.0636 58.7625 84.0457 57.7267 84.0457C56.8577 84.0457 56.6182 84.0994 56.5024 84.3202ZM66.1443 84.2477C66.1015 84.3588 66.0861 87.6227 66.1098 91.5008L66.1533 98.5518L71.5415 98.593L76.9297 98.6343V97.7697V96.9052H72.5247H68.1198V94.396V91.8869H72.1314H76.1431V91.1027C76.1431 90.6715 76.0901 90.3177 76.0251 90.3166C75.9602 90.3155 74.1549 90.3099 72.0135 90.3042L68.1198 90.2937V88.0322V85.7708H72.4461H76.7724V84.9083V84.0457H71.4973C67.3391 84.0457 66.2057 84.0886 66.1443 84.2477ZM79.6042 91.3403V98.6349L84.2845 98.5934L88.9647 98.5518L89.0123 97.7285L89.0599 96.9052H85.2759H81.492V90.4755V84.0457H80.5481H79.6042V91.3403ZM96.5948 91.338V98.6302H97.6174H98.64V96.0776V93.525L99.7406 92.4364C100.698 91.4888 100.869 91.3777 101.061 91.5781C101.275 91.803 105.209 97.3424 105.762 98.199C106.026 98.6072 106.105 98.6302 107.234 98.6302C108.155 98.6302 108.409 98.5832 108.348 98.4241C108.305 98.3109 106.94 96.3646 105.317 94.099L102.365 89.9799L105.339 87.0128L108.312 84.0457H106.978H105.643L102.142 87.5338L98.64 91.0217V87.5338V84.0457H97.6174H96.5948V91.338ZM125.384 91.338V98.6302H126.413H127.442L127.397 95.4936L127.351 92.357L130.183 92.3575C132.568 92.3578 133.1 92.4011 133.554 92.6321C134.573 93.1502 134.706 93.5013 134.833 96.0246C134.896 97.272 134.995 98.3686 135.052 98.4615C135.163 98.6409 137.374 98.7017 137.546 98.53C137.601 98.475 137.472 98.2225 137.258 97.9691C137.044 97.7158 136.867 97.3198 136.865 97.0891C136.863 96.8586 136.797 95.8472 136.719 94.8417C136.575 92.9826 136.331 92.1969 135.805 91.8967C135.046 91.4634 135.046 91.4686 135.75 90.7875C136.636 89.9311 136.913 89.2391 136.918 87.8788C136.921 86.9553 136.847 86.6361 136.475 85.9536C135.57 84.2963 134.65 84.0501 129.357 84.0476L125.384 84.0457V91.338ZM117.572 85.7451C119.845 86.7519 121.038 89.3159 120.653 92.3686C120.391 94.4507 119.373 96.0312 117.754 96.8689C117.088 97.214 116.763 97.2762 115.631 97.2762C114.498 97.2762 114.171 97.2135 113.497 96.8677C112.508 96.3605 111.632 95.4103 111.09 94.258C110.708 93.4471 110.675 93.214 110.676 91.338C110.677 89.4707 110.711 89.226 111.086 88.4283C112.083 86.3073 113.864 85.202 115.999 85.3792C116.505 85.4211 117.213 85.5857 117.572 85.7451ZM133.839 85.9795C134.64 86.4012 134.902 86.9346 134.902 88.144C134.902 89.3543 134.608 89.902 133.711 90.3575C133.256 90.589 132.723 90.6318 130.301 90.632L127.43 90.6323V88.1043V85.5762L130.379 85.6438C132.765 85.6983 133.426 85.7626 133.839 85.9795ZM58.7452 89.5257C59.3106 91.2028 59.7495 92.5985 59.7206 92.6274C59.6917 92.6562 58.6798 92.6601 57.4719 92.6362L55.2757 92.5926L56.3881 89.4252C57 87.6831 57.5493 86.307 57.6089 86.3672C57.6683 86.4272 58.1796 87.8487 58.7452 89.5257Z" fill="#393B40"/>
</svg>
