<svg width="117" height="93" viewBox="0 0 117 93" fill="none" xmlns="http://www.w3.org/2000/svg">
<path fill-rule="evenodd" clip-rule="evenodd" d="M70.8413 0.168832C70.7053 0.271979 70.359 0.578551 70.0716 0.850177C69.7843 1.12172 69.3684 1.42407 69.1473 1.5219C68.7876 1.68126 68.6435 1.69476 67.7732 1.65045C66.5728 1.58925 66.4224 1.6372 65.4648 2.3859C64.4641 3.16845 64.0792 3.2499 63.285 2.84736C63.113 2.76016 62.9189 2.68884 62.8536 2.68884C62.7884 2.68884 62.4171 2.90248 62.0284 3.16355C61.1302 3.76699 60.5585 4.03751 60.1793 4.03853C59.8965 4.03929 59.795 3.98653 58.8425 3.34343C58.3842 3.0339 57.9205 3.21589 56.3064 4.33894C55.458 4.9292 54.8583 5.22083 54.3745 5.27823C53.9254 5.33149 53.7963 5.28 53.2656 4.83602C52.9409 4.56431 52.856 4.53274 52.5444 4.56794C52.0372 4.62517 51.559 4.88396 50.7431 5.5426C49.7732 6.32574 49.7158 6.35291 49.3753 6.19144C49.2235 6.11944 48.9149 5.92868 48.6895 5.76746C47.9965 5.2719 47.5774 5.38433 45.6806 6.57466C44.8617 7.08862 44.1971 7.41367 43.9629 7.41486C43.8721 7.41536 43.5637 7.17227 43.2678 6.86705C42.7944 6.37883 42.7 6.31839 42.4109 6.31839C42.0331 6.31839 41.6091 6.5295 40.5369 7.25144C39.6743 7.83217 38.9965 8.17335 38.7027 8.17453C38.5942 8.17504 38.1657 8.05754 37.7503 7.91354C37.2072 7.72523 36.9156 7.66665 36.7121 7.70489C36.5566 7.73409 35.9426 8.06463 35.3477 8.43932C33.1409 9.82978 32.9295 9.85982 31.9038 8.92897C31.2616 8.34613 31.0824 8.25978 30.5158 8.25978C30.0535 8.25978 29.4651 8.53318 28.7278 9.09062C28.1986 9.49071 27.6096 9.77466 27.3033 9.77728C27.184 9.77829 26.8047 9.68164 26.4604 9.56254C25.4035 9.19672 25.3016 9.22769 22.27 10.8352C21.2455 11.3784 21.3544 11.3575 19.8919 11.2921C18.8751 11.2467 18.3003 11.5786 16.5271 13.2354C16.0079 13.7204 15.4506 14.2074 15.2886 14.3177C14.8884 14.59 14.2192 14.8105 13.5652 14.8857C12.6104 14.9953 12.3357 15.2171 11.5271 16.5318C11.0935 17.2367 10.6969 17.6581 10.3402 17.7928C10.2097 17.842 9.86726 17.8823 9.57923 17.8823C9.03562 17.8823 8.8651 17.9543 8.39921 18.3806C8.00084 18.7451 7.78674 19.2684 7.62835 20.2644C7.56007 20.6939 7.25476 21.0287 6.44429 21.5632C5.36079 22.2778 4.80311 22.9483 4.38105 24.0441C4.31842 24.2066 3.95731 24.7954 3.5785 25.3524C2.42689 27.0462 2.44324 27.008 2.44324 27.9948V28.8497L1.89011 29.9111C1.23347 31.171 1.12835 31.6368 1.266 32.6777C1.47547 34.2624 1.47572 34.2555 1.17657 34.9375C0.791772 35.8147 0.781826 36.0699 1.08688 37.242C1.23018 37.7925 1.34743 38.3484 1.34743 38.4774C1.34743 38.6064 1.19815 39.3335 1.01565 40.0932C0.259041 43.2434 -0.00192803 44.9198 1.07108e-05 46.6179C0.00152798 47.9479 0.124257 48.5291 0.62875 49.5957C1.40062 51.2273 2.50435 52.6383 3.32208 53.0389C3.70182 53.2251 3.79909 53.2425 3.98462 53.1579C4.2466 53.0383 4.34978 52.7996 4.46644 52.0431C4.59608 51.2027 4.76593 50.7721 5.26882 50.0082C5.84825 49.128 5.9741 48.9794 6.26803 48.8288C6.5746 48.6717 6.85884 48.7841 6.99641 49.1167C7.11543 49.4043 7.05238 49.5389 6.5156 50.1441C5.90094 50.8372 5.66011 51.4466 5.55264 52.5808C5.5024 53.111 5.48546 53.8192 5.51496 54.1546C5.57835 54.8733 5.56646 54.9022 4.66478 56.2312C4.32382 56.7337 4.0207 57.2412 3.9912 57.3588C3.89738 57.7332 4.0271 58.7086 4.24138 59.2399C4.62601 60.1935 4.99613 60.7015 6.15204 61.8626C6.778 62.4914 7.56412 63.3076 7.89901 63.6766C8.60084 64.4495 8.5565 64.4561 9.05947 63.505C9.23135 63.18 9.48254 62.8097 9.61783 62.682C10.0763 62.2491 10.7242 62.4164 12.2543 63.3622C12.9176 63.7722 13.12 63.8608 13.2427 63.7951C13.3407 63.7426 13.476 63.4434 13.6134 62.9756C14.1498 61.1489 14.4251 60.6773 14.955 60.6773C15.286 60.6773 16.2121 61.0032 16.73 61.302C16.9159 61.4093 17.2479 61.5645 17.4675 61.6469C18.0987 61.8838 18.132 61.8194 18.1112 60.3998L18.0939 59.2202L18.6557 58.6976C19.3031 58.0955 19.3328 57.9686 19.0591 56.9795C18.5312 55.0722 17.5411 54.3546 15.014 54.048C13.4577 53.8592 13.0641 53.7012 13.0641 53.2652C13.0641 53.149 13.2123 52.8605 13.3934 52.6241C13.8568 52.0192 14.2011 51.299 14.4263 50.4639C14.7041 49.434 14.705 47.5994 14.4283 46.6233C14.0175 45.1745 13.1229 43.7766 12.3529 43.38C11.476 42.9284 9.49746 43.0854 8.27446 43.7036C8.00303 43.8409 7.40101 44.2363 6.93673 44.5822C5.96719 45.3048 5.80838 45.3994 5.56494 45.3994C5.13724 45.3994 5.28804 44.7245 5.86233 44.0689C6.97373 42.8 9.00334 41.9338 10.9147 41.9126C12.3419 41.8967 13.3823 42.2699 14.1833 43.0849C14.7323 43.6435 14.9866 44.0882 15.3809 45.1789C16.152 47.3118 16.2616 49.3392 15.7062 51.1917C15.5827 51.6038 15.465 52.0801 15.4447 52.2502C15.3992 52.6338 15.5172 52.71 16.2714 52.7842C17.6092 52.9157 18.4482 53.2835 19.3793 54.1467C20.0407 54.7599 20.3712 55.2405 20.6986 56.0648C20.9631 56.7308 21.1655 56.8944 21.9002 57.0362C22.7649 57.2032 24.3719 57.3785 26.2436 57.5101C27.2567 57.5814 28.6033 57.7033 29.236 57.7811C29.8687 57.8588 31.0122 57.925 31.7772 57.9282C33.0692 57.9336 33.1996 57.9198 33.613 57.7326C34.2321 57.4525 34.6769 56.9215 35.6292 55.3256C36.9539 53.1057 37.7374 52.1465 39.0672 51.117C40.8763 49.7161 43.2179 48.6091 45.2903 48.1748C46.852 47.8475 48.9144 47.9602 50.9837 48.4858C51.8016 48.6935 52.2223 48.8875 52.3719 49.1257C52.4873 49.3094 52.2438 50.0922 52.0797 50.0653C52.0167 50.0551 51.6411 49.933 51.2448 49.7939C49.5645 49.2047 47.5279 49.1277 45.4012 49.5731C42.8047 50.1169 41.0918 50.9418 39.5014 52.4143C38.0038 53.8008 36.5289 56.1581 36.2405 57.6257C35.9208 59.2526 36.6459 60.2255 38.4861 60.6396C40.2673 61.0402 40.5452 61.3468 40.5894 62.9596C40.6332 64.5585 41.1323 65.7401 42.1884 66.7446C43.0711 67.5843 43.1109 67.5987 43.3331 67.1572C43.6495 66.5286 44.2394 65.7637 44.5615 65.5644C45.2583 65.1331 46.0273 65.3928 47.0022 66.3884C47.2904 66.6828 47.5834 66.9235 47.6535 66.9235C47.8767 66.9235 48.0311 66.6839 48.1294 66.1848C48.3901 64.8612 48.6145 64.4346 49.0975 64.3438C49.5672 64.2556 49.9731 64.4547 50.6605 65.1103C51.0118 65.4454 51.3806 65.7455 51.48 65.7771C51.7152 65.8519 52.2556 65.5768 52.5411 65.2369C52.6609 65.0944 52.8253 64.7669 52.9064 64.5091C53.0055 64.1942 53.1498 63.9561 53.3461 63.7835C53.6234 63.5397 53.6667 63.5288 54.1927 63.57C54.4976 63.5939 54.9286 63.696 55.1508 63.7968C55.6945 64.0436 55.8906 64.0018 56.0879 63.5971C56.2198 63.3268 56.2475 63.0903 56.2414 62.2887C56.2293 60.6836 55.9317 59.6203 55.2437 58.723C53.9246 57.0027 52.4447 55.8668 51.0176 55.4791C50.7215 55.3987 49.8752 55.3175 48.8465 55.2709C46.8126 55.1786 46.0385 55.0733 45.4541 54.8093C44.891 54.555 44.7673 54.32 44.9705 53.891C45.2918 53.2133 45.8001 53.0706 46.7844 53.382C47.5226 53.6155 48.5976 53.7472 49.8159 53.7535C50.7332 53.7581 51.5014 53.8839 51.9758 54.1072C52.1821 54.2044 52.6435 54.5509 53.001 54.8775C53.8575 55.6596 54.5264 56.0857 55.2369 56.3019C55.7431 56.4558 55.956 56.4725 56.8842 56.4311C57.4704 56.405 58.4432 56.3206 59.0459 56.2435C60.5934 56.0456 61.8021 56.114 64.1035 56.5298C67.0715 57.0661 67.9421 57.1608 69.9197 57.1621C73.5088 57.1646 76.0424 56.6788 82.1092 54.8247C82.6997 54.6443 83.4519 54.4861 84.0058 54.4259C84.9922 54.3187 85.3068 54.1798 85.0297 53.9739C84.9488 53.9137 84.4999 53.7616 84.0321 53.6356C82.7172 53.2819 81.2553 52.756 80.8281 52.4832C80.3647 52.1874 80.1987 51.8916 80.3433 51.6197C80.6811 50.9845 81.4238 51.0072 84.2917 51.7404C86.5317 52.313 88.0642 52.6084 90.1079 52.8615C93.3704 53.2655 95.6146 53.4307 98.8322 53.5037C100.684 53.5457 102.413 53.6292 103.089 53.7092C108.154 54.3087 110.629 54.32 112.825 53.7536C113.921 53.4709 115.291 52.7542 115.981 52.1031C117.517 50.6512 117.319 49.2982 115.368 47.9242C114.725 47.4714 114.748 47.4714 113.942 47.9268C113.272 48.3056 113.037 48.276 112.474 47.7417L112.006 47.2986L111.28 47.2564L110.555 47.2142L110.48 46.8959C110.387 46.5019 110.202 46.3904 109.823 46.4995C109.257 46.6619 109.111 46.6127 108.683 46.1169C108.26 45.6257 108.118 45.5757 107.726 45.779C107.424 45.9353 107.186 45.858 106.739 45.4576C106.212 44.9859 106.134 44.9655 105.547 45.1485C104.712 45.4086 104.529 45.2412 104.27 43.9861C104.211 43.6962 104.113 43.3927 104.054 43.3116C103.953 43.1725 103.926 43.175 103.581 43.3555C103.38 43.4608 103.045 43.6566 102.836 43.7906C102.627 43.9246 102.373 44.0585 102.271 44.0881C102 44.1669 101.764 43.8853 101.694 43.4008C101.662 43.1769 101.583 42.8654 101.519 42.7085C101.413 42.4492 101.378 42.4273 101.129 42.4689C100.978 42.4941 100.544 42.6921 100.164 42.9089C99.7831 43.1256 99.4069 43.2904 99.3277 43.275C99.2484 43.2596 99.0636 43.0761 98.9172 42.8672C98.592 42.4034 98.3739 42.3594 97.6829 42.6181C97.1061 42.8342 96.7259 42.815 95.9846 42.5323C94.9796 42.1493 94.4576 41.5711 93.6019 39.8936C93.3005 39.3027 92.9797 38.7795 92.8891 38.7309C92.506 38.5256 91.9453 38.9416 92.0272 39.3705C92.1041 39.7735 93.285 42.0549 93.6803 42.564C94.0761 43.0738 94.7183 43.6112 95.248 43.8758C95.8347 44.1689 97.0573 44.5746 98.5793 44.9812C99.5443 45.2389 99.6372 45.2652 100.897 45.6358C101.977 45.9534 106.819 47.5332 107.177 47.6848C107.27 47.7241 107.763 47.8738 108.273 48.0176C109.42 48.3408 110.53 48.7082 111.097 48.9526C111.581 49.1611 111.855 49.5648 111.855 50.0676C111.855 50.5387 111.628 50.6699 110.752 50.7044C109.823 50.7409 109.218 50.5697 108.714 50.1272C108.159 49.6405 108.049 49.602 107.638 49.7475C107.208 49.8993 106.243 49.9102 105.961 49.7663C105.849 49.709 105.694 49.5481 105.618 49.4088L105.478 49.1556L104.315 49.0708L103.152 48.9861L102.786 48.5694L102.419 48.1528L102.017 48.4432C101.655 48.7037 101.557 48.7335 101.059 48.7335C100.583 48.7335 100.462 48.7005 100.198 48.4989C100.029 48.3698 99.7743 48.095 99.6321 47.8882C99.2036 47.2645 99.2333 47.2666 97.8287 47.7576C97.5549 47.8533 97.2276 47.9317 97.1014 47.9317C96.5175 47.9317 95.8884 47.4249 95.5416 46.6753C95.3092 46.1729 95.1895 46.1441 94.7561 46.4855C93.8843 47.1723 93.0575 47.3307 91.1223 47.1813C87.309 46.8869 86.8242 46.7923 85.3453 46.0533C85.0208 45.8912 84.4898 45.675 84.1652 45.5729C83.8407 45.4707 83.4993 45.3553 83.4066 45.3163C83.3139 45.2774 82.8481 45.1404 82.3714 45.0119C81.8948 44.8833 81.3922 44.7096 81.2545 44.6258C80.5566 44.2008 81.421 43.2033 82.4849 43.2058C83.0537 43.2072 83.6175 43.3699 84.4869 43.7835C84.8912 43.9759 85.2408 44.1333 85.2636 44.1333C85.2864 44.1333 85.4658 44.2043 85.6624 44.291C86.4153 44.6235 86.685 44.6705 86.9756 44.52C87.2992 44.3525 87.309 44.2035 87.0389 43.5608C86.3415 41.9015 86.4211 40.9374 87.3364 39.9576C87.6415 39.631 87.8342 39.354 87.8174 39.2664C87.7492 38.9116 86.6927 38.5647 85.6825 38.5654C84.0079 38.5664 83.0723 38.9407 80.3672 40.692C77.6244 42.4677 76.974 42.7405 75.4831 42.7405C74.6534 42.7405 74.5051 42.7167 74.0737 42.5142C73.2353 42.1207 72.5326 41.2089 72.2036 40.0874C72.0064 39.415 72.026 38.2147 72.2461 37.495C72.5101 36.6313 72.9761 35.8048 73.5382 35.2031C74.5341 34.1371 75.529 33.9443 75.7365 34.7772C75.8185 35.1062 75.6723 35.3071 74.9745 35.8239C74.2186 36.3837 73.9861 36.7072 73.704 37.5916C73.4127 38.505 73.3531 39.3363 73.5386 39.8956C73.8844 40.9379 75.2588 41.494 76.6137 41.1397C77.3801 40.9394 78.0965 40.5499 79.4027 39.6235C80.7151 38.6927 82.5401 37.7413 83.6595 37.4042C84.3466 37.1973 84.5451 37.1757 85.7668 37.1749C86.9743 37.1742 87.2037 37.1982 87.9584 37.4042C88.4647 37.5423 89.199 37.8364 89.7969 38.1405C90.3446 38.4189 90.8535 38.6467 90.9281 38.6467C91.0027 38.6467 91.3192 38.3998 91.6313 38.0981C91.9434 37.7963 92.2736 37.5494 92.365 37.5494C92.4564 37.5494 92.6925 37.6064 92.8895 37.6761C93.4871 37.8872 93.5987 37.8519 94.0004 37.3251C94.2008 37.0625 94.4616 36.7757 94.58 36.6879C94.7929 36.53 94.8034 36.5307 95.4651 36.7422C95.8335 36.8601 96.2743 36.9569 96.4449 36.9575C96.7453 36.9586 96.7605 36.9436 96.9359 36.4742C97.0354 36.2079 97.1565 35.942 97.2051 35.8834C97.3652 35.6903 97.7909 35.7719 98.4107 36.1145C98.7466 36.3002 99.0814 36.4521 99.1544 36.4521C99.2276 36.4521 99.4276 36.2842 99.5989 36.0789C100.094 35.4863 100.176 35.503 101.13 36.3892C101.749 36.9636 101.9 36.9279 102.1 36.1608C102.185 35.8381 102.294 35.5248 102.344 35.4645C102.502 35.2745 102.885 35.3438 103.605 35.6925C104.642 36.1945 104.666 36.1841 104.98 35.1042C105.188 34.3867 105.446 34.0043 105.723 34.0043C105.811 34.0043 106.103 34.1266 106.373 34.2761C106.779 34.5014 106.884 34.5296 106.991 34.4409C107.062 34.3819 107.279 33.9554 107.474 33.493C107.895 32.494 107.969 32.4518 108.819 32.7258C109.784 33.0369 109.8 33.0261 109.999 31.9564C110.057 31.6425 110.182 31.2869 110.277 31.1663C110.423 30.9799 110.498 30.9534 110.771 30.9902C110.958 31.0152 111.292 31.1752 111.569 31.3723C111.832 31.5587 112.091 31.694 112.146 31.673C112.201 31.6519 112.359 31.4367 112.496 31.1946C112.651 30.9227 112.813 30.745 112.92 30.7293C113.015 30.7155 113.399 30.839 113.773 31.0037C114.148 31.1684 114.513 31.3032 114.585 31.3032C114.752 31.3032 114.866 31.0871 114.981 30.5488C115.094 30.0233 115.237 29.8683 115.611 29.8683C116.051 29.8683 116.565 29.6274 116.705 29.3556C116.895 28.9889 116.859 28.292 116.626 27.7898C116.18 26.8314 114.904 25.9374 113.681 25.7271C112.612 25.5432 110.398 25.8585 107.937 26.5451C105.565 27.2066 104.73 27.4169 103.284 27.7166C102.458 27.888 100.758 28.2916 99.5065 28.6136C94.245 29.9671 93.9533 30.0349 93.3953 30.0342C92.4206 30.0328 91.7409 29.5595 91.9584 29.0337C92.1798 28.4985 92.9137 28.0121 93.5007 28.0116C94.1936 28.0111 93.9195 27.6073 93.022 27.3065C92.3746 27.0894 91.814 27.1292 90.8186 27.4627C89.5596 27.8844 89.2149 27.8695 87.6293 27.3243C86.3791 26.8944 86.3611 26.891 85.6038 26.9417C84.1501 27.0388 82.8701 27.4973 81.7534 28.3203C80.965 28.9016 80.1085 29.337 79.4436 29.4946C78.9719 29.6065 78.6095 29.6241 77.6211 29.5834C76.0723 29.5197 75.6019 29.6273 73.9095 30.4328L72.7014 31.0078L71.9428 31.0001C71.0308 30.9908 70.3433 30.7789 68.9399 30.0741C67.3681 29.2847 66.2313 28.9583 62.3396 28.1789C61.3694 27.9847 60.3073 27.7383 59.9794 27.6314C59.1728 27.3685 57.0385 26.8183 55.5478 26.4889C54.2415 26.2002 53.3221 26.1406 52.1761 26.2697C51.6419 26.33 51.4328 26.3122 50.8274 26.1552C49.7926 25.8868 48.2854 25.8272 47.6214 26.0286C47.1983 26.1569 47.0478 26.1662 46.6758 26.0872C45.7737 25.8957 44.8615 25.7904 44.0372 25.7825L43.1896 25.7745L42.3687 26.1879L41.5478 26.6014L40.7297 26.5292C39.2481 26.3984 38.9288 26.4331 37.6153 26.8677C36.4523 27.2526 36.3789 27.2656 35.2551 27.2907C33.904 27.3208 33.6326 27.3983 32.7271 28.0136L32.1089 28.4337L30.6466 28.3784L29.1842 28.3232L28.3747 28.7562C27.8157 29.0554 27.4018 29.2148 27.037 29.2716C26.1077 29.4164 24.0832 29.5445 23.6025 29.489C23.0456 29.4247 22.5797 29.521 21.5146 29.9205C21.0753 30.0853 20.5119 30.2411 20.2626 30.267C19.1881 30.3779 18.206 29.8985 18.206 29.2629C18.206 28.7049 18.5947 28.1107 19.6323 27.0828C20.7823 25.9434 21.5094 25.3964 23.3697 24.2712C27.9551 21.4978 33.573 19.3438 39.2371 18.1877C40.0252 18.0268 41.3529 17.7765 42.1874 17.6315C48.7692 16.4871 56.8418 13.9862 61.4061 11.6774C63.1559 10.7924 63.6551 10.4229 65.7422 8.46819C68.5748 5.81541 69.7889 4.4344 70.4053 3.16397C70.9918 1.9555 71.3355 0.978984 71.3443 0.496844C71.3541 -0.0453947 71.2303 -0.126175 70.8413 0.168832ZM64.2542 5.39708C64.6946 5.59806 64.9241 6.41192 64.6952 6.96066C64.5401 7.33231 64.2528 7.66893 64.0908 7.66893C63.9198 7.66893 63.7432 7.33686 63.6098 6.76415C63.466 6.14721 63.5393 5.67571 63.8136 5.45321C64.0289 5.27865 64.002 5.28203 64.2542 5.39708ZM59.8422 7.06963C60.1509 7.28901 60.2013 7.61254 60.0536 8.4286C59.8376 9.62163 59.7285 9.82902 59.0682 10.2998L58.8354 10.4658L58.7508 10.2431C58.7043 10.1206 58.6283 9.58778 58.5821 9.05904C58.5046 8.17411 58.5118 8.0605 58.6719 7.63196C58.9567 6.86983 59.3171 6.69663 59.8422 7.06963ZM54.4016 7.92781C54.9103 8.53318 55.0606 9.98171 54.7097 10.8982C54.5314 11.3641 54.0625 11.9737 53.8827 11.9737C53.8356 11.9737 53.7538 11.6794 53.7009 11.3196C53.6481 10.9597 53.5505 10.5135 53.4842 10.3278C53.3277 9.88979 53.3206 8.67727 53.4724 8.31347C53.5801 8.05535 53.9675 7.66893 54.1187 7.66893C54.1547 7.66893 54.282 7.78541 54.4016 7.92781ZM49.6861 8.48118C49.9898 8.59792 50.1847 9.18768 50.2128 10.0746C50.2383 10.8807 50.2233 10.9662 49.8802 11.9737C49.4929 13.1109 49.4325 13.1772 48.9623 12.9823C48.5609 12.8157 48.4608 12.5156 48.4781 11.5306C48.4864 11.0548 48.4637 10.4472 48.4276 10.1805C48.336 9.5027 48.5823 8.93817 49.1266 8.57868C49.3704 8.41771 49.474 8.39965 49.6861 8.48118ZM44.565 9.96551C44.8552 10.2367 44.96 10.915 44.8452 11.7788C44.6417 13.3103 43.9465 14.3564 43.4577 13.8669C43.2993 13.7082 43.2996 13.718 43.4229 12.8343C43.5084 12.2218 43.5031 12.0962 43.3809 11.8396C43.0803 11.2085 43.3115 9.96753 43.7644 9.78124C44.0179 9.67692 44.3341 9.74976 44.565 9.96551ZM38.6932 10.8978C39.1505 11.2064 39.3085 11.5671 39.3467 12.3904C39.4065 13.679 38.9226 15.1134 38.3475 15.3519C37.9596 15.5128 37.921 15.3889 37.9847 14.1887C38.0324 13.2887 38.0212 13.1335 37.8982 12.9974C37.5757 12.6407 37.6621 11.2947 38.0327 10.8996C38.2573 10.6603 38.3409 10.66 38.6932 10.8978ZM23.3544 12.3893C23.7374 12.7728 23.7071 12.8739 22.8752 13.9897C22.523 14.4622 22.2743 14.5817 21.9508 14.4341C21.4691 14.2143 21.8455 12.775 22.5004 12.3331C22.8745 12.0807 23.0583 12.0928 23.3544 12.3893ZM33.2943 12.6911C33.8437 12.9756 34.1987 13.7845 34.1004 14.5273C34.0335 15.0317 33.576 16.3541 33.3995 16.5529C33.235 16.7381 32.8246 16.7471 32.7556 16.5671C32.7274 16.4936 32.7044 16.2306 32.7044 15.9826C32.7044 15.6783 32.6221 15.3259 32.4515 14.8992C32.0295 13.8439 32.1159 12.8642 32.6502 12.6483C32.9123 12.5424 33.021 12.5496 33.2943 12.6911ZM19.5546 13.8005C19.7301 13.9678 19.6929 14.5706 19.4771 15.0592C19.3807 15.2774 19.3018 15.5486 19.3018 15.6618C19.3018 16.1961 18.8332 16.3821 18.468 15.9928C18.2238 15.7326 18.0659 14.72 18.2042 14.3005C18.4071 13.6848 19.1463 13.4111 19.5546 13.8005ZM28.5931 14.5029C28.9132 14.7551 29.1761 15.4574 29.224 16.1887C29.2931 17.2449 28.9003 18.5352 28.4467 18.7422C28.0874 18.9061 27.984 18.723 27.984 17.9233C27.984 17.3704 27.9568 17.2147 27.8533 17.1749C27.5329 17.0518 27.2373 15.874 27.3455 15.1516C27.4537 14.429 28.0835 14.1015 28.5931 14.5029ZM24.6547 17.2326C25.1281 17.7068 25.3235 18.7311 25.1139 19.6411C25.0675 19.8424 24.8897 20.2508 24.7187 20.5485C24.2089 21.4361 23.9154 21.3684 23.7709 20.3297C23.6948 19.7838 23.6481 19.6681 23.4296 19.4861C23.2299 19.3197 23.1598 19.173 23.0984 18.7924C22.9195 17.6851 23.2978 16.9538 24.0495 16.9538C24.3068 16.9538 24.4353 17.013 24.6547 17.2326ZM16.5033 17.3083C16.6285 17.4337 16.6442 19.6236 16.5223 19.9448C16.42 20.2141 16.093 20.2344 15.7024 19.9959C15.105 19.6313 15.0012 18.8588 15.4389 18.0364C15.8208 17.3191 16.2326 17.0373 16.5033 17.3083ZM13.6756 17.5942C13.7544 17.6732 13.4918 18.4652 13.1832 19.0787C12.7503 19.9395 12.4044 20.1045 11.9618 19.6614C11.7068 19.406 11.6469 19.0967 11.798 18.8141C11.8434 18.7291 12.1262 18.4088 12.4264 18.1021C12.9133 17.605 13.0076 17.5447 13.2992 17.5447C13.479 17.5447 13.6484 17.567 13.6756 17.5942ZM20.5821 19.8163C20.88 20.1471 20.9868 20.5622 20.9862 21.3853C20.9853 22.5195 20.6231 23.5587 20.2121 23.6062C19.7748 23.6567 19.639 23.5023 19.639 22.9545C19.639 22.5905 19.5855 22.365 19.4345 22.0923C19.0454 21.3896 18.9671 20.3123 19.2708 19.8403C19.5472 19.4108 20.2061 19.3987 20.5821 19.8163ZM9.84416 21.3599C10.0016 21.5176 9.96444 22.0968 9.73601 23.0469C9.5048 24.0084 9.35686 24.2129 8.89266 24.2129C8.52118 24.2129 8.4524 24.1035 8.38345 23.4028C8.33439 22.9044 8.35217 22.7413 8.4894 22.4321C8.70494 21.9462 9.07263 21.5172 9.39319 21.3774C9.71452 21.2372 9.72134 21.237 9.84416 21.3599ZM16.5288 23.3056C16.9726 23.6001 17.2377 24.2129 17.2318 24.9304C17.2264 25.5856 17.0043 26.4292 16.7773 26.6565C16.6785 26.7554 16.5448 26.7916 16.3719 26.7662C16.0874 26.7243 16.0174 26.5813 16.0156 26.0371C16.0148 25.8221 15.9277 25.5678 15.7634 25.3003C15.4322 24.7613 15.2789 24.3827 15.2127 23.9406C15.1683 23.6439 15.1915 23.5349 15.3396 23.3465C15.577 23.0442 16.1073 23.026 16.5288 23.3056ZM6.85808 24.849C6.88539 24.9202 6.8666 25.1707 6.81627 25.4056C6.74799 25.7243 6.75052 25.925 6.82622 26.1958C6.88211 26.3954 6.90225 26.6391 6.87115 26.7373C6.79849 26.9663 6.35881 27.1951 6.11091 27.1328C5.90397 27.0808 5.64637 26.6296 5.64637 26.3191C5.64637 26.0295 5.98987 25.1229 6.18062 24.9093C6.37584 24.6906 6.78348 24.6542 6.85808 24.849ZM10.706 26.4969C10.7815 26.6795 10.799 27.0359 10.7656 27.7139C10.713 28.7849 10.561 29.2466 10.2339 29.3287C9.94784 29.4007 9.58192 29.2531 9.46189 29.0175C9.28547 28.6713 9.33258 27.8951 9.56473 27.3229C9.9829 26.2925 10.4743 25.9368 10.706 26.4969ZM45.2966 28.2996C46.0747 28.5341 46.5348 29.0587 46.5439 29.722C46.5477 29.988 46.5026 30.1072 46.3521 30.2292C46.1243 30.414 45.8468 30.3835 45.2877 30.1126C44.8339 29.8926 44.6081 29.5763 44.4849 28.9885C44.3982 28.5743 44.4044 28.5074 44.544 28.3528C44.7294 28.1477 44.7806 28.1442 45.2966 28.2996ZM50.1449 28.4546C50.6282 28.7036 50.9228 29.175 50.8914 29.6488C50.8457 30.3379 50.0479 30.5011 49.5461 29.9243C49.4183 29.7774 49.1234 29.4385 48.8905 29.171C48.4279 28.6397 48.3632 28.3881 48.6568 28.2621C48.952 28.1354 49.7173 28.2344 50.1449 28.4546ZM40.162 28.4401C40.9921 28.5937 41.2307 28.854 41.0485 29.4068C40.7834 30.2113 39.5846 30.0501 39.1594 29.1528C38.9983 28.8129 39.0797 28.5591 39.3901 28.4339C39.6329 28.336 39.5985 28.3358 40.162 28.4401ZM54.411 28.7714C55.4008 29.1124 56.2907 29.8365 56.194 30.2222C56.1267 30.4909 55.8416 30.7833 55.5839 30.848C55.1242 30.9636 54.2496 30.4732 53.761 29.8259C53.4024 29.3508 53.3031 29.028 53.4378 28.776C53.5548 28.5572 53.7861 28.5561 54.411 28.7714ZM5.31206 28.8569C5.51108 28.9636 5.86368 29.5659 5.93895 29.9275C5.99863 30.2147 5.78065 30.8352 5.55424 31.0221C5.08296 31.4114 4.63064 31.1255 4.46678 30.3349C4.24138 29.2476 4.6636 28.5094 5.31206 28.8569ZM60.0666 29.3159C60.411 29.4864 60.7534 29.7184 60.8274 29.8315C60.951 30.0204 60.9505 30.0546 60.8214 30.2519C60.7441 30.37 60.5785 30.5064 60.4535 30.555C60.1672 30.666 59.4082 30.5835 59.0199 30.3989C58.6299 30.2136 58.1974 29.7725 58.1259 29.487C57.9631 28.8375 58.9279 28.7524 60.0666 29.3159ZM36.2541 29.4529C36.5102 29.6356 36.7505 30.0184 36.7505 30.2439C36.7505 30.4629 36.4315 30.7124 36.1515 30.7124C35.768 30.7124 34.877 30.4657 34.7064 30.3124C34.4095 30.0455 34.5656 29.4901 34.9803 29.3373C35.3072 29.217 36.013 29.281 36.2541 29.4529ZM87.073 29.8155C87.54 30.0485 87.6518 30.3052 87.5031 30.8026C87.3016 31.4757 86.865 31.6862 85.4718 31.7819C84.7259 31.8331 84.2587 31.7032 84.0171 31.3771C83.8543 31.1572 83.8544 31.1525 84.0229 30.7709C84.2526 30.2511 84.851 29.8102 85.5982 29.6106C85.9766 29.5095 86.6458 29.6025 87.073 29.8155ZM29.751 30.1333C30.3095 30.3759 30.4285 30.5153 30.4285 30.9262C30.4285 31.3887 30.2865 31.4991 29.6387 31.5405C28.6489 31.6036 27.984 31.2607 27.984 30.6871C27.984 30.3677 28.1331 30.1951 28.5766 30.0009C28.9048 29.8572 29.1896 29.8893 29.751 30.1333ZM24.7492 31.3083C25.0135 31.4364 25.1553 31.5802 25.288 31.8547C25.6028 32.506 25.2841 32.8888 24.5124 32.7863C23.3255 32.6286 22.8255 31.9821 23.4257 31.3811C23.7306 31.0758 24.2147 31.0492 24.7492 31.3083ZM43.6411 31.9073C44.2905 32.2164 44.5347 32.7933 44.1703 33.1581C43.6769 33.6522 42.4024 33.3603 41.86 32.6288C41.699 32.4116 41.6952 32.3746 41.8115 32.1645C42.1053 31.6341 42.8481 31.5297 43.6411 31.9073ZM8.59249 32.2116C8.64062 32.3852 8.68016 32.5766 8.68041 32.6371C8.68066 32.6977 8.77575 32.8869 8.89165 33.0577C9.14849 33.4361 9.16568 33.8565 8.93379 34.0887C8.32866 34.6947 7.61849 33.5684 7.84448 32.3614C7.97842 31.6465 8.41168 31.5597 8.59249 32.2116ZM11.9795 32.1176C12.2905 32.4722 12.4051 32.827 12.3463 33.2542C12.2826 33.7184 12.0842 33.9199 11.6912 33.9199C11.3309 33.9199 11.1608 33.7932 10.958 33.3737C10.7508 32.9451 10.7173 32.3432 10.8856 32.0734C11.1221 31.6941 11.6259 31.7145 11.9795 32.1176ZM48.2251 31.8542C48.433 31.9252 48.7432 32.0989 48.9144 32.2402C49.2828 32.5443 49.3244 32.8708 49.0515 33.3189L48.8778 33.6042L48.3143 33.5632C47.9991 33.5402 47.5543 33.4372 47.305 33.3294C46.2532 32.8747 46.2726 32.0702 47.3415 31.8186C47.7997 31.7108 47.8056 31.7111 48.2251 31.8542ZM39.01 31.9456C39.6242 32.0389 39.803 32.5802 39.3575 32.9971C38.9904 33.3405 38.6411 33.3821 37.9334 33.1669C37.0789 32.907 36.8476 32.4484 37.3912 32.0918C37.7713 31.8423 38.1223 31.8106 39.01 31.9456ZM53.6531 32.0161C54.3066 32.2895 54.5557 32.8539 54.2289 33.321C54.1026 33.5017 54.0475 33.5149 53.61 33.4691C52.6885 33.3726 52.0075 32.9202 52.0075 32.4045C52.0075 32.2332 52.0742 32.1446 52.2814 32.0414C52.627 31.8692 53.2736 31.8573 53.6531 32.0161ZM15.2279 32.2264C15.6292 32.4089 15.7615 32.6044 15.7615 33.0149C15.7615 33.7864 14.7068 33.8675 14.2524 33.1312C14.0295 32.77 14.0279 32.4838 14.2475 32.2477C14.458 32.0214 14.7625 32.0148 15.2279 32.2264ZM58.7523 32.2196C59.2339 32.4766 59.4102 33.0718 59.1254 33.479C58.959 33.717 58.6857 33.7192 57.9398 33.4885C57.2068 33.2617 56.6586 32.7723 56.8134 32.4826C57.0347 32.0686 58.1783 31.9134 58.7523 32.2196ZM34.6618 32.3651C35.2972 32.6874 35.3829 32.9347 34.9777 33.2761C34.5411 33.644 33.7808 33.7658 33.1011 33.5768C32.8597 33.5097 32.7465 33.4151 32.6402 33.1917C32.5139 32.9266 32.5123 32.872 32.6246 32.6692C32.8315 32.2954 33.2524 32.1292 33.8611 32.1806C34.1495 32.205 34.5099 32.288 34.6618 32.3651ZM19.453 32.5491C19.9418 32.7734 20.1338 33.4244 19.8076 33.7511C19.6843 33.8746 19.5266 33.9199 19.2205 33.9199C18.8315 33.9199 18.775 33.8918 18.4197 33.5204C18.2095 33.3008 18.0374 33.0703 18.0374 33.0084C18.0374 32.7884 18.2231 32.554 18.4866 32.4412C18.7723 32.319 19.0093 32.3454 19.453 32.5491ZM68.3681 33.0376C68.6756 33.1968 68.8083 33.5014 68.6975 33.7933C68.6044 34.0385 68.6159 34.0367 68.0614 33.8888C67.4669 33.7303 67.2645 33.6051 67.2645 33.396C67.2645 32.9494 67.8379 32.7632 68.3681 33.0376ZM4.83261 33.2577C5.23797 33.5352 5.81437 34.104 5.94814 34.3588C6.11209 34.6711 6.10147 35.2621 5.92833 35.4537C5.75199 35.6488 5.35286 35.6516 4.97784 35.4602C4.56253 35.2482 4.13146 34.4424 4.13011 33.8754C4.1291 33.4594 4.2965 33.0758 4.47908 33.0758C4.5273 33.0758 4.68636 33.1577 4.83261 33.2577ZM29.5 33.758C29.9702 33.8665 30.1756 34.0462 30.1756 34.3488C30.1756 34.6451 29.8758 34.8896 29.3 35.0628C28.2601 35.3754 27.7186 35.3268 27.2203 34.876C26.7175 34.4211 26.7937 34.1918 27.564 33.842C27.9891 33.6488 28.8627 33.6109 29.5 33.758ZM23.5864 34.5259C23.991 34.7202 24.1552 34.9805 24.0749 35.3005C23.9791 35.6829 23.8042 35.7769 23.1883 35.7769C22.508 35.7769 21.87 35.5778 21.6955 35.3113C21.5827 35.1388 21.5828 35.084 21.6966 34.8114C21.9341 34.242 22.7412 34.12 23.5864 34.5259ZM16.9838 34.7727C17.4664 34.9048 17.8398 35.2186 18.0808 35.6949C18.3799 36.2859 18.3603 36.5159 17.998 36.6675C17.8372 36.7347 17.5412 36.7898 17.3402 36.7898C16.8656 36.7898 16.3485 36.4202 16.0979 35.9019C15.8628 35.4156 15.9281 35.0674 16.2964 34.8426C16.6091 34.6516 16.5595 34.6567 16.9838 34.7727ZM38.162 35.2314C38.6161 35.4214 38.7735 35.5966 38.7735 35.9118C38.7735 36.5178 38.109 36.8673 37.2625 36.7065C36.7383 36.607 36.3814 36.4291 36.2077 36.1806C35.9019 35.7434 36.1312 35.4278 36.9063 35.2188C37.4419 35.0743 37.7948 35.0778 38.162 35.2314ZM14.0757 35.5071C14.445 35.7389 15.0029 36.5733 15.0029 36.894C15.0029 37.1435 14.6935 37.3806 14.368 37.3806C13.5387 37.3806 12.8113 36.7182 12.8113 35.963C12.8113 35.3379 13.443 35.1101 14.0757 35.5071ZM59.2085 35.4874C59.6539 35.9334 58.8806 36.6151 57.9248 36.6191C57.4093 36.6212 57.0182 36.4499 56.9342 36.1851C56.8653 35.9675 57.0731 35.7769 57.3791 35.7769C57.4879 35.7769 57.6712 35.7149 57.7866 35.6392C58.2117 35.3602 58.9977 35.2764 59.2085 35.4874ZM33.2679 35.6981C34.1071 36.0165 34.0961 36.822 33.2476 37.177C32.8491 37.3437 32.059 37.3249 31.6507 37.139C31.2488 36.9559 31.1205 36.815 31.0545 36.4844C30.9864 36.1438 31.2221 35.95 31.9281 35.7655C32.5925 35.5919 32.9418 35.5744 33.2679 35.6981ZM44.0719 35.7009C44.3756 35.8069 44.4789 36.0676 44.3593 36.4266C44.148 37.0616 42.5781 37.3019 41.8333 36.8131C41.4236 36.5443 41.3846 36.1288 41.7505 35.9299C42.2689 35.6481 43.5566 35.521 44.0719 35.7009ZM49.0295 35.8289C49.5678 36.0213 49.6253 36.1385 49.3705 36.524C49.129 36.8896 48.7024 37.1269 48.2565 37.1436C47.7565 37.1624 46.8691 36.4233 46.9957 36.0934C47.0445 35.9659 47.503 35.7528 47.9193 35.664C48.1571 35.6134 48.6177 35.6817 49.0295 35.8289ZM54.4043 35.8592C54.5586 35.9179 54.6206 36.0033 54.6206 36.1573C54.6206 36.4759 54.4129 36.9173 54.1892 37.0741C53.7212 37.4025 52.2587 37.1036 52.2616 36.6803C52.2632 36.4477 52.3252 36.361 52.6266 36.1687C53.185 35.8125 53.9375 35.6815 54.4043 35.8592ZM67.639 36.7242C67.8254 36.9905 67.8067 37.3551 67.6013 37.4652C67.3407 37.6049 66.7746 37.4235 66.6557 37.1623C66.5145 36.8518 66.7819 36.6438 67.4493 36.5451C67.4816 36.5404 67.5669 36.6209 67.639 36.7242ZM8.99086 37.1347C9.38746 37.3269 9.69243 37.6864 9.69243 37.9617C9.69243 38.346 8.60008 38.6348 8.22405 38.35C7.7687 38.005 7.62548 37.4246 7.92228 37.1274C8.14068 36.9087 8.53028 36.9113 8.99086 37.1347ZM21.8129 37.4568C22.4761 37.7974 22.7647 38.3867 22.4316 38.7202C22.0464 39.1059 21.3458 39.0119 20.9111 38.516C20.5953 38.1559 20.5666 37.7763 20.8338 37.4915C21.0587 37.2519 21.3909 37.2402 21.8129 37.4568ZM27.8936 38.095C28.4828 38.4 28.2822 39.1353 27.5232 39.4529C27.0978 39.6309 26.5612 39.6049 26.1263 39.3853C25.4756 39.0567 25.587 38.675 26.4667 38.2196C26.9904 37.9485 27.5213 37.9022 27.8936 38.095ZM12.6227 38.3043C12.9729 38.5584 13.4164 39.1322 13.5208 39.4665C13.553 39.5692 13.5355 39.7351 13.4821 39.835C13.3971 39.9941 13.3295 40.0122 12.9429 39.9801C12.3929 39.9345 12.0043 39.6724 11.7917 39.2038C11.3604 38.2526 11.8383 37.7353 12.6227 38.3043ZM44.8847 38.7559C45.3912 39.0426 45.3762 39.2539 44.8267 39.571C44.1495 39.9619 43.8103 40.031 43.0728 39.9279C42.5531 39.8553 42.4067 39.7996 42.2471 39.6137C42.1404 39.4895 42.0672 39.3453 42.0845 39.2933C42.1283 39.1615 42.8023 38.8256 43.294 38.6904C43.9392 38.513 44.4959 38.5358 44.8847 38.7559ZM60.1245 38.7392C60.2858 38.9973 60.0905 39.3602 59.4398 40.0119C58.6962 40.7565 58.4454 40.8626 57.9973 40.6224C57.4278 40.3171 57.5666 39.6781 58.3096 39.1843C59.1746 38.6094 59.928 38.4246 60.1245 38.7392ZM17.3365 38.9796C17.7219 39.1549 17.9958 39.5609 17.9103 39.8305C17.8821 39.9198 17.7612 40.0699 17.6418 40.1639C17.0693 40.6147 16.0987 40.0763 16.0987 39.3079C16.0987 39.0457 16.1371 38.9634 16.2884 38.9026C16.592 38.7804 16.9573 38.8073 17.3365 38.9796ZM37.846 39.0479C38.1903 39.2202 38.2523 39.4153 38.0574 39.7131C37.8545 40.0231 37.4337 40.1661 36.7236 40.1661C36.018 40.1661 35.6054 40.0519 35.4829 39.8225C35.3685 39.6085 35.7496 39.1871 36.2026 39.0268C36.6806 38.8575 37.4866 38.8678 37.846 39.0479ZM32.4433 39.202C32.6261 39.2752 32.7982 39.394 32.8258 39.4659C32.9145 39.6973 32.5945 40.1143 32.1637 40.3288C31.7786 40.5205 31.7167 40.5276 31.2013 40.4392C30.6584 40.3461 30.3176 40.1689 30.1404 39.8875C29.9926 39.6529 30.1817 39.4657 30.7723 39.2617C31.4151 39.0397 31.9872 39.0192 32.4433 39.202ZM55.294 39.2787C55.4513 39.4685 55.3376 39.7579 54.9505 40.1534C54.4443 40.6705 54.0072 40.8727 53.5355 40.8079C53.0567 40.7422 52.7661 40.4833 52.7661 40.1223C52.7661 39.749 52.9652 39.6054 53.6947 39.4531C54.0416 39.3806 54.4393 39.2867 54.5784 39.2445C54.959 39.1289 55.1785 39.1394 55.294 39.2787ZM50.3547 39.3711C50.6606 40.1691 49.8315 40.9285 48.5813 40.9955C47.8453 41.0349 47.6242 40.8833 47.6242 40.3392C47.6242 39.8376 48.0069 39.5753 48.8685 39.4867C49.2272 39.4497 49.6157 39.381 49.7316 39.3339C50.0463 39.206 50.2973 39.2211 50.3547 39.3711ZM69.6571 40.866C69.7718 40.9499 69.8222 41.1646 69.8766 41.8008C69.9209 42.318 69.9936 42.6795 70.0712 42.7681C70.1393 42.8458 70.2798 43.0803 70.3833 43.2892C70.6251 43.777 70.7833 43.9532 71.0981 44.085C71.2381 44.1436 71.4069 44.2932 71.4732 44.4174C71.5823 44.6217 71.5774 44.6651 71.4222 44.8735C71.0691 45.3475 70.5673 45.2326 69.7924 44.5006C68.971 43.7247 68.7488 43.2458 68.7436 42.2404C68.7405 41.6443 68.7749 41.4089 68.8989 41.179C69.1368 40.7377 69.3575 40.6466 69.6571 40.866ZM21.3881 41.2625C21.9613 41.6124 21.582 42.2603 20.6962 42.4444C19.8678 42.6166 18.8804 42.4317 18.8804 42.1044C18.8804 42.0629 18.9965 41.8965 19.1385 41.7345C19.6398 41.1629 20.8195 40.9153 21.3881 41.2625ZM25.8556 41.8533C26.2433 42.0901 26.236 42.4396 25.8369 42.7444C25.5323 42.9771 24.4171 43.3736 24.0672 43.3736C23.856 43.3736 23.5165 43.0232 23.5165 42.8052C23.5165 42.4953 24.8244 41.6851 25.324 41.6858C25.4657 41.686 25.7049 41.7613 25.8556 41.8533ZM42.4125 41.994C42.66 42.2182 42.601 42.5488 42.2303 43.015C41.7997 43.5564 41.4378 43.7276 40.6933 43.7421C40.1508 43.7526 40.094 43.7364 39.9047 43.5166C39.6573 43.2294 39.6452 42.9606 39.867 42.6783C40.1148 42.3629 40.5385 42.1973 41.2527 42.1369C41.6273 42.1051 41.9314 42.0354 41.9869 41.9685C42.1119 41.8176 42.2254 41.8244 42.4125 41.994ZM30.9333 42.0866C31.3203 42.2807 31.4343 42.599 31.253 42.9797C31.0871 43.3279 30.7217 43.5109 30.0379 43.5881C28.8611 43.7209 28.3915 43.1208 29.1345 42.4341C29.6787 41.9311 30.3609 41.7993 30.9333 42.0866ZM36.7421 42.4464C36.9089 42.4471 37.0965 42.4801 37.1588 42.5196C37.4401 42.6982 36.6943 43.5158 36.0827 43.6993C35.6424 43.8314 34.6379 43.8184 34.4535 43.6782C34.2507 43.5239 34.2678 43.1074 34.4885 42.8264C34.781 42.454 35.1055 42.3498 35.8149 42.4005C36.158 42.425 36.5752 42.4457 36.7421 42.4464ZM35.7389 45.6966C35.7389 45.7673 35.5419 46.2032 35.301 46.6654L34.863 47.5058L35.0059 47.8061C35.1926 48.1979 35.1862 48.3678 34.9752 48.6365C34.8049 48.8533 34.7872 48.8566 34.0631 48.8051C33.1769 48.7421 32.8439 48.8331 32.4253 49.2521C32.0231 49.6549 31.8515 50.1754 31.9163 50.796C31.9491 51.1102 31.9303 51.3479 31.8627 51.4744C31.7623 51.6625 31.7349 51.6669 31.0725 51.6031C30.1052 51.5098 29.7419 51.5367 29.1864 51.7433C28.4852 52.0039 28.0165 52.4936 27.9453 53.0403C27.8102 54.0762 27.7509 54.1149 26.2036 54.1752L25.0555 54.2201L24.6791 54.5678C24.4721 54.759 24.2003 54.9828 24.0751 55.0649C23.8531 55.2105 23.8421 55.2093 23.6398 55.019C23.5256 54.9116 23.4322 54.7531 23.4322 54.6668C23.4322 54.2287 24.2322 53.1716 24.8052 52.8527C24.9077 52.7956 25.2797 52.7476 25.6318 52.7459C26.3761 52.7424 26.3255 52.7819 26.9689 51.7026C27.4018 50.9763 27.8146 50.567 28.3212 50.3617C28.4371 50.3147 28.9094 50.271 29.371 50.2646L30.21 50.2529L30.5594 49.6311C30.9787 48.8849 31.5098 48.2494 31.9434 47.9754C32.1184 47.8647 32.5294 47.6928 32.8565 47.5933C33.4461 47.4139 33.4545 47.4071 33.7862 46.8481C34.2278 46.1037 34.9255 45.587 35.5071 45.5735C35.6608 45.57 35.7389 45.6115 35.7389 45.6966ZM41.1337 71.36C41.0178 71.3799 40.6574 71.4393 40.3329 71.4919C37.4848 71.9543 34.836 73.9967 33.3512 76.8754C32.4826 78.559 32.093 80.1955 32.093 82.1592C32.093 83.5475 32.2453 84.5284 32.6605 85.8131C33.2318 87.5811 34.034 88.8715 35.4005 90.2202C36.7213 91.5239 38.009 92.2631 39.8403 92.7691C40.4035 92.9248 40.72 92.9515 41.9766 92.9499C43.2181 92.9482 43.5564 92.9194 44.1129 92.7672C45.7369 92.3233 47.1306 91.5671 48.2803 90.5062C48.9061 89.9287 48.9308 89.8916 48.9308 89.5264C48.9308 89.1761 48.8859 89.0967 48.3476 88.4944C48.0268 88.1355 47.4768 87.5412 47.1254 87.1737C46.5453 86.5672 46.4565 86.5055 46.1646 86.5059C45.7676 86.5063 45.6086 86.5883 44.969 87.1227C44.6909 87.3552 44.2167 87.6629 43.9154 87.8065C43.3837 88.06 43.3324 88.0678 42.1874 88.0678C41.0376 88.0678 40.9932 88.0609 40.4593 87.8031C38.9433 87.071 38.108 85.3662 37.9629 82.7078C37.8008 79.738 38.756 77.3585 40.4443 76.5265C40.9947 76.2552 41.0232 76.2507 42.1436 76.2549C43.0883 76.2585 43.3566 76.2887 43.7125 76.4317C44.1752 76.6176 44.7087 76.9688 45.1798 77.3974C45.5692 77.7518 45.9782 77.9198 46.2864 77.852C46.6462 77.7728 48.8624 75.379 48.9351 74.9911C49.0046 74.62 48.8315 74.2958 48.3225 73.844C47.0151 72.6838 45.4057 71.8562 43.7933 71.5153C43.1981 71.3895 41.53 71.2921 41.1337 71.36ZM57.6845 71.3959C53.9177 71.9304 50.8028 74.6476 49.5222 78.5161C49.0681 79.8879 48.9427 80.8682 48.998 82.613C49.0271 83.5326 49.0965 84.3101 49.1797 84.6492C50.1338 88.5394 52.6083 91.4184 55.9507 92.5269C58.5816 93.3994 61.3637 93.0573 63.7731 91.565C64.6927 90.9955 66.1443 89.5892 66.7466 88.6845C68.0901 86.6663 68.7261 84.5483 68.7186 82.117C68.7055 77.8534 66.4532 74.0483 62.9234 72.3267C61.9703 71.8618 61.5057 71.6959 60.6519 71.5153C59.9157 71.3597 58.3766 71.2977 57.6845 71.3959ZM75.5674 71.4011C74.402 71.5815 72.9315 72.1887 72.158 72.8091C71.1879 73.5872 70.6003 74.4195 70.1906 75.5955C69.9766 76.2095 69.9266 76.5021 69.8951 77.3193C69.7978 79.8561 70.7524 81.41 73.2644 82.8031C73.6038 82.9914 74.9056 83.5805 76.1574 84.1122C77.4091 84.644 78.5722 85.1385 78.7421 85.2113C78.9119 85.284 79.175 85.4718 79.3266 85.6285C79.5626 85.8722 79.6078 85.9874 79.6394 86.4237C79.7328 87.7163 78.9977 88.3832 77.4639 88.3978C76.1438 88.4104 75.5177 88.1211 74.0792 86.8341C73.1922 86.0406 72.919 85.9232 72.3293 86.0822C71.7824 86.2297 70.1898 87.679 69.9226 88.2725C69.6854 88.7991 69.7855 89.0669 70.5176 89.8635C71.8296 91.2914 73.123 92.0411 75.0616 92.4977C76.7229 92.8889 78.8914 92.9252 80.2035 92.5836C82.4709 91.9933 84.2468 90.3875 84.8966 88.3402C85.1332 87.5943 85.1942 85.9953 85.0178 85.1557C84.6679 83.4894 83.6612 82.2349 81.7447 81.0768C80.9603 80.6028 77.8754 79.1337 77.1689 78.8977C76.4781 78.667 76.0348 78.3445 75.8508 77.9391C75.3417 76.817 76.0932 75.793 77.4295 75.7882C78.3382 75.7849 79.196 76.1479 80.3767 77.0352C81.0199 77.5186 81.1698 77.594 81.5508 77.6256C82.1752 77.6775 82.474 77.4912 83.4223 76.4583C84.2871 75.5163 84.4603 75.2238 84.4603 74.7043C84.4603 74.2652 84.2074 73.9115 83.5184 73.387C82.3121 72.4684 81.0723 71.891 79.5996 71.5617C78.6629 71.3523 76.4519 71.2643 75.5674 71.4011ZM2.02178 71.7245C1.43307 71.8511 1.00149 72.2507 0.845384 72.8136C0.72004 73.2655 0.72476 90.8596 0.850356 91.3591C0.962972 91.8071 1.42304 92.2968 1.84737 92.4204C2.04462 92.4779 3.81958 92.4993 7.0013 92.4825L11.8544 92.457L12.1598 92.2474C12.3277 92.1322 12.5525 91.8853 12.6593 91.6988C12.8398 91.3836 12.8534 91.2646 12.8534 90.0092C12.8534 88.8928 12.8284 88.6128 12.7089 88.3943C12.5129 88.0358 12.1125 87.7125 11.7339 87.6072C11.5551 87.5575 10.4684 87.5199 9.20395 87.5196L6.98739 87.5191L6.78053 87.3119L6.57359 87.1047L6.57309 80.1161C6.57283 75.5692 6.54224 73.0179 6.48559 72.8136C6.37997 72.4327 6.0557 72.0313 5.69956 71.8406C5.48453 71.7255 5.14693 71.6958 3.87622 71.6802C3.01854 71.6696 2.18404 71.6895 2.02178 71.7245ZM20.3237 71.7349C19.9973 71.8121 19.6747 72.0335 19.4556 72.3309C19.3721 72.4441 18.9453 73.7331 18.5073 75.1955C13.8285 90.8127 13.8083 90.8825 13.8726 91.1909C13.9582 91.6017 14.2318 92.0231 14.5583 92.2474C14.8547 92.451 14.9122 92.4577 16.5558 92.4825C18.1987 92.5073 18.2593 92.5022 18.6275 92.3078C19.123 92.0461 19.3022 91.7046 19.6338 90.389C19.9883 88.9825 20.0379 88.8705 20.3673 88.7326C20.7684 88.5648 25.2531 88.5648 25.6541 88.7326C25.9872 88.872 26.0321 88.9755 26.4187 90.4942C26.747 91.7838 26.9098 92.0752 27.4468 92.3356C27.7778 92.496 27.9315 92.5071 29.4814 92.4831C31.1355 92.4573 31.1624 92.4539 31.4966 92.2324C31.6833 92.1086 31.9045 91.8625 31.9899 91.6837C32.2791 91.0783 32.2501 90.9419 30.85 86.3374C30.7159 85.8964 29.9945 83.4844 29.2469 80.9775C28.4993 78.4705 27.6271 75.5485 27.3087 74.484C26.6219 72.1874 26.4601 71.9171 25.6594 71.7311C25.2566 71.6376 20.7218 71.6408 20.3237 71.7349ZM86.7669 71.7294C86.396 71.8199 86.0231 72.1056 85.7939 72.4749C85.6104 72.7701 85.5982 72.8745 85.5982 74.1404C85.5982 75.425 85.6085 75.5092 85.8089 75.8649C85.9501 76.1153 86.1423 76.3035 86.3912 76.4346C86.7453 76.6213 86.845 76.6304 88.5156 76.6304C90.3485 76.6304 90.6036 76.6721 90.7732 76.9985C90.8395 77.126 90.8731 79.2788 90.8878 84.3189L90.9087 91.4586L91.1499 91.8071C91.5809 92.4299 91.8437 92.4992 93.7746 92.4992C95.7119 92.4992 96.0023 92.4221 96.4143 91.7988L96.6406 91.4565L96.6635 84.2675L96.6863 77.0785L96.9018 76.8756C97.1132 76.6765 97.1533 76.6719 99.0349 76.6304C100.938 76.5886 100.955 76.5866 101.291 76.3636C101.868 75.9813 101.951 75.6998 101.951 74.1404C101.951 72.5914 101.89 72.4013 101.244 71.947L100.883 71.6926L93.9571 71.6787C90.1478 71.671 86.9122 71.6938 86.7669 71.7294ZM104.817 71.7041C104.724 71.7246 104.564 71.7594 104.46 71.7814C104.189 71.8394 103.673 72.3199 103.54 72.6381C103.447 72.8617 103.426 74.5762 103.426 82.1185C103.426 90.4399 103.439 91.3518 103.563 91.596C103.757 91.9797 103.929 92.1565 104.287 92.3393C104.584 92.4913 104.869 92.4992 110.119 92.4992C113.813 92.4992 115.716 92.4695 115.875 92.4094C116.172 92.2969 116.55 91.9437 116.726 91.6129C116.904 91.2767 116.971 89.5148 116.831 88.8373C116.695 88.1821 116.276 87.7461 115.653 87.6124C115.385 87.5549 114.144 87.5191 112.415 87.5191C108.917 87.5191 109.115 87.6191 109.171 85.8806C109.215 84.5379 109.055 84.6169 111.836 84.5648C114.38 84.5171 114.454 84.5003 114.869 83.8725C115.091 83.5366 115.102 83.472 115.13 82.2618C115.153 81.2398 115.132 80.9317 115.019 80.6345C114.851 80.1945 114.422 79.7953 113.986 79.6742C113.806 79.6242 112.787 79.5843 111.645 79.5825C109.524 79.5793 109.458 79.5684 109.256 79.1894C109.138 78.9664 109.125 77.4052 109.239 77.1042C109.411 76.6518 109.568 76.6304 112.731 76.6304C114.58 76.6304 115.724 76.5978 115.875 76.5406C116.005 76.4913 116.22 76.3489 116.352 76.2241C116.781 75.8174 116.857 75.5709 116.896 74.4698C116.953 72.8635 116.755 72.2622 116.042 71.8805L115.691 71.6926L110.338 71.6797C107.394 71.6727 104.91 71.6837 104.817 71.7041ZM59.8268 76.3287C61.1165 76.6725 62.1141 77.8591 62.5508 79.5684C62.8324 80.6713 62.9264 81.9722 62.8078 83.1247C62.6782 84.3844 62.4641 85.1705 62.0152 86.0344C61.5952 86.8428 60.9954 87.468 60.3074 87.8145C59.8358 88.0521 59.7444 88.0678 58.8352 88.0678C57.8999 88.0678 57.8469 88.0578 57.3259 87.7856C55.9378 87.0602 55.0955 85.4585 54.8606 83.0977C54.7524 82.0097 54.8606 80.5787 55.1287 79.5538C55.4531 78.3136 56.1761 77.1868 56.958 76.7029C57.6983 76.2447 58.9159 76.0859 59.8268 76.3287ZM23.1677 77.6644C23.2054 77.7689 23.5912 79.2739 24.0251 81.0087C24.7853 84.0493 24.8081 84.1673 24.6548 84.2795C24.4074 84.4607 21.5561 84.4466 21.373 84.2634C21.3002 84.1904 21.2406 84.1138 21.2406 84.0931C21.2406 84.0054 22.8576 77.6022 22.8951 77.5414C22.9721 77.4166 23.0989 77.4738 23.1677 77.6644Z" fill="#393B40"/>
</svg>
