<svg width="132" height="47" viewBox="0 0 132 47" fill="none" xmlns="http://www.w3.org/2000/svg">
<path fill-rule="evenodd" clip-rule="evenodd" d="M38.406 0.228347C37.2154 0.544397 36.4563 0.988459 35.5614 1.89255C34.1794 3.28869 33.5454 5.05757 33.5339 7.54905C33.5267 9.1137 33.7397 10.1109 34.3532 11.3858C35.1627 13.0679 36.8479 14.4264 38.6717 14.8668C39.4955 15.0658 41.3637 15.0371 42.1988 14.8126C44.6826 14.1451 46.4805 12.1918 47.0212 9.57348C47.249 8.46957 47.244 6.50016 47.0105 5.429C46.4304 2.76877 44.5573 0.749574 42.132 0.170229C41.0947 -0.0774659 39.4623 -0.0520965 38.406 0.228347ZM13 1.05646V1.88766L15.3797 1.91982L17.7594 1.95209L17.7899 8.35287L17.8202 14.7536H18.7594H19.6984V8.3231V1.89255H22.0488H24.3991V1.05896V0.225367H18.6996H13V1.05646ZM57.6563 7.48951V14.7536H58.5954H59.5345L59.5649 8.65058L59.5953 2.54751L61.6381 8.65535L63.6808 14.7631L64.5676 14.7286L65.4543 14.6941L67.5193 8.70785L69.5843 2.72162L69.6147 8.73763L69.6451 14.7536H70.5254H71.4058V7.48545V0.21727L70.1456 0.251082L68.8855 0.284909L66.772 6.46264L64.6585 12.6404L62.6166 6.43287L60.5746 0.225367H59.1155H57.6563V7.48951ZM82.5698 7.48951V14.7536H83.4512H84.3326L84.3361 8.65058C84.3381 5.29395 84.3835 2.62789 84.4371 2.72614C84.4905 2.82438 85.4244 5.57284 86.5123 8.83384L88.4901 14.7628L89.3786 14.7285L90.2672 14.6941L92.3237 8.72049L94.3803 2.74698L94.4107 8.75026L94.4411 14.7536H95.3802H96.3193V7.48558V0.217503L95.0087 0.251213L93.6982 0.284909L91.6598 6.23912C90.5386 9.51394 89.5816 12.2884 89.5329 12.4045C89.4728 12.5482 88.7952 10.6402 87.408 6.42048L85.3716 0.225367H83.9706H82.5698V7.48951ZM106.027 0.369818C106.076 0.454129 107.324 2.35793 108.798 4.60041L111.479 8.67773V11.7157V14.7536H112.419H113.359V11.6766V8.59961L116.18 4.46524C117.731 2.19133 119 0.307058 119 0.27812C119 0.249064 118.511 0.226074 117.913 0.226908L116.826 0.22858L115.659 2.04294C115.017 3.04099 114.075 4.52729 113.566 5.34599C113.056 6.1647 112.597 6.87861 112.544 6.93255C112.492 6.9865 112.259 6.69176 112.027 6.27759C111.795 5.86341 110.846 4.34568 109.92 2.90476L108.235 0.284909L107.086 0.250733C106.173 0.223582 105.955 0.248114 106.027 0.369818ZM42.4028 2.09631C44.2957 2.99456 45.2291 4.76879 45.2397 7.48951C45.2476 9.47964 44.8137 10.8372 43.8287 11.9043C42.0164 13.8678 38.8779 13.9107 36.9902 11.9977C35.8499 10.8423 35.3709 9.28709 35.4915 7.13226C35.6028 5.14176 35.9769 4.06869 36.8951 3.10589C37.9095 2.04235 38.9591 1.63605 40.5576 1.68821C41.455 1.7175 41.7347 1.7793 42.4028 2.09631Z" fill="#393B40"/>
<path fill-rule="evenodd" clip-rule="evenodd" d="M83.1818 32.2272C80.9341 32.8287 79.4353 34.2895 78.6573 36.6367C78.2173 37.9644 78.1087 40.1688 78.4141 41.5704C79.1544 44.9679 81.7681 46.9949 85.4152 47C87.4105 47.0028 88.8615 46.5316 90.6917 45.2866L91.4205 44.7908V42.0814V39.372H88.3887H85.3569V40.2054V41.0387H87.4558H89.5548V42.4245C89.5548 43.9781 89.5922 43.9014 88.5662 44.4503C86.0697 45.7858 83.2588 45.5319 81.5846 43.8194C80.0543 42.254 79.6783 38.7603 80.782 36.3606C81.3817 35.0568 82.1529 34.3559 83.4966 33.8938C84.1145 33.6813 84.4491 33.6447 85.4693 33.6784C86.5293 33.7135 86.7989 33.7665 87.434 34.0651C88.3045 34.4743 88.8446 35.0669 89.215 36.0188C89.3593 36.3898 89.4898 36.7105 89.5049 36.7316C89.52 36.7525 89.9074 36.6558 90.3655 36.5165C91.3235 36.2252 91.3087 36.3032 90.6712 34.9076C90.0324 33.5092 88.838 32.5655 87.2118 32.1742C86.1631 31.9218 84.2278 31.9473 83.1818 32.2272ZM0 39.4911V46.7532H0.932871H1.86573V43.3602V39.9673H5.59717H9.32863V43.3602V46.7532H10.2615H11.1944V39.4911V32.229H10.2615H9.32863V35.2052V38.1815H5.59717H1.86573V35.2052V32.229H0.932871H0V39.4911ZM20.6396 39.4911V46.7532H21.5724H22.5053V39.4911V32.229H21.5724H20.6396V39.4911ZM31.7173 39.4911V46.7532H36.2067H40.6961V45.9198V45.0865H37.1979H33.6996V38.6577V32.229H32.7085H31.7173V39.4911ZM48.9753 39.4911V46.7532H49.9664H50.9576V43.4793V40.2054H54.2809H57.6042V39.3125V38.4196H54.2809H50.9576V36.1576V33.8957H54.8057H58.6537V33.0623V32.229H53.8145H48.9753V39.4911ZM67.5159 39.4911V46.7532H68.4488H69.3816V39.4911V32.229H68.4488H67.5159V39.4911ZM100.283 39.4911V46.7532H105.588H110.894V45.9198V45.0865H106.521H102.148V42.5864V40.0863H106.055H109.961V39.253V38.4196H106.055H102.148V36.1576V33.8957H106.346H110.544V33.0623V32.229H105.413H100.283V39.4911ZM119.523 39.4911V46.7532H120.456H121.389V43.5279V40.3027L123.109 40.3432C124.752 40.3822 124.854 40.3991 125.39 40.7208C126.053 41.1185 126.779 42.0788 128.512 44.8467L129.705 46.7532H130.852C131.484 46.7532 132 46.7284 132 46.6981C132 46.6678 131.373 45.6365 130.606 44.4063C129.076 41.9507 128.291 40.9639 127.483 40.48L126.951 40.1618L127.652 40.0158C129.009 39.7332 130.132 38.8902 130.614 37.7919C131.018 36.8717 131.008 35.3956 130.59 34.4909C130.188 33.619 129.803 33.1754 129.12 32.7958C128.258 32.3167 127.373 32.2309 123.284 32.2299L119.523 32.229V39.4911ZM127.368 34.0056C129.427 34.6657 129.518 37.4729 127.509 38.3801C127.117 38.557 126.599 38.5971 124.216 38.6347L121.389 38.6794V36.2156V33.7519L124.158 33.8081C125.809 33.8416 127.106 33.9214 127.368 34.0056Z" fill="#393B40"/>
</svg>
