<svg width="156" height="20" viewBox="0 0 156 20" fill="none" xmlns="http://www.w3.org/2000/svg">
<g clip-path="url(#clip0_440_3323)">
<path d="M16.2702 0.486328L16.297 5.43811C16.233 5.48541 15.9444 5.52049 15.9295 5.4793C14.7826 2.56406 13.8648 1.04619 10.427 1.04619H10.0298V16.4034C10.0298 17.1723 10.1146 17.7108 10.4969 18.0708C10.7602 18.3195 11.7286 18.4354 12.5141 18.4354C12.5572 18.4354 12.5617 18.8687 12.5141 18.8687H5.07462C5.02702 18.8687 5.03297 18.4354 5.07462 18.4354C5.85858 18.4354 6.82849 18.3195 7.0903 18.0708C7.4741 17.7108 7.55889 17.1723 7.55889 16.4034V1.04619H7.16171C3.72538 1.04619 2.80605 2.56406 1.65912 5.4793C1.64275 5.52049 1.35565 5.48541 1.29169 5.43811L1.31846 0.486328H16.2702Z" fill="#393B40"/>
<path d="M20.73 16.5819C20.73 17.2882 20.6452 17.8496 20.2986 18.1471C20.0085 18.3958 19.409 18.4629 18.5462 18.4629C18.5001 18.4629 18.4941 18.8687 18.5462 18.8687H25.2865C25.3385 18.8687 25.3341 18.4629 25.2865 18.4629C24.4237 18.4629 23.8241 18.3958 23.5341 18.1471C23.186 17.8496 23.1027 17.2882 23.1027 16.5819V6.7058C23.1027 5.99797 23.186 5.43811 23.5341 5.14064C23.8241 4.89198 24.4237 4.82638 25.2865 4.82638C25.3341 4.82638 25.3385 4.41907 25.2865 4.41907H18.5462C18.4941 4.41907 18.5001 4.82638 18.5462 4.82638C19.409 4.82638 20.0085 4.89198 20.2986 5.14064C20.6452 5.43811 20.73 5.99797 20.73 6.7058V16.5819Z" fill="#393B40"/>
<path d="M38.5885 4.41907H28.1337C28.0861 4.41907 28.0906 4.82638 28.1337 4.82638C28.9177 4.82638 29.483 4.89198 29.7463 5.14064C30.0616 5.43811 30.139 5.99797 30.139 6.7058V16.5819C30.139 17.2882 30.0616 17.8496 29.7463 18.1471C29.483 18.3958 28.9177 18.4629 28.1337 18.4629C28.0906 18.4629 28.0861 18.8687 28.1337 18.8687H34.8249C34.8755 18.8687 34.871 18.4629 34.8249 18.4629C33.9606 18.4629 33.2317 18.3958 32.9431 18.1471C32.595 17.8496 32.5102 17.2882 32.5102 16.5819V11.891H33.5842C34.6687 11.891 35.1923 12.0649 35.649 12.4219C36.0283 12.7193 36.3288 13.3341 36.3288 13.9184C36.3288 13.9657 36.5416 13.9748 36.665 13.9184V9.31747C36.5416 9.26408 36.3288 9.27018 36.3288 9.31747C36.3288 9.90327 36.0283 10.573 35.649 10.8704C35.1923 11.2274 34.6687 11.4211 33.5842 11.4211H32.5102V4.94537H33.7464C36.9402 4.94537 37.9057 6.50444 38.3862 8.31674C38.3966 8.35793 38.6762 8.31979 38.6658 8.27402L38.5885 4.41907Z" fill="#393B40"/>
<path d="M51.3059 4.41907H40.8511C40.8035 4.41907 40.808 4.82638 40.8511 4.82638C41.6351 4.82638 42.2004 4.89198 42.4637 5.14064C42.7805 5.43811 42.8564 5.99797 42.8564 6.7058V16.5819C42.8564 17.2882 42.7805 17.8496 42.4637 18.1471C42.2004 18.3958 41.6351 18.4629 40.8511 18.4629C40.808 18.4629 40.8035 18.8687 40.8511 18.8687H47.5408C47.5929 18.8687 47.5884 18.4629 47.5408 18.4629C46.678 18.4629 45.9506 18.3958 45.6605 18.1471C45.3124 17.8496 45.2276 17.2882 45.2276 16.5819V11.891H46.3017C47.3861 11.891 47.9097 12.0649 48.3664 12.4219C48.7472 12.7193 49.0462 13.3341 49.0462 13.9184C49.0462 13.9657 49.259 13.9748 49.3824 13.9184V9.31747C49.259 9.26408 49.0462 9.27018 49.0462 9.31747C49.0462 9.90327 48.7472 10.573 48.3664 10.8704C47.9097 11.2274 47.3861 11.4211 46.3017 11.4211H45.2276V4.94537H46.4638C49.6576 4.94537 50.6231 6.50444 51.1021 8.31674C51.114 8.35793 51.3937 8.31979 51.3832 8.27402L51.3059 4.41907Z" fill="#393B40"/>
<path d="M55.6541 13.2411L57.7903 7.2382L59.9473 13.2411H55.6541ZM65.5436 18.4812C64.4339 18.3332 64.0575 17.9442 63.5473 16.5819L59.0235 4.06364C59.0235 4.01024 58.3318 4.01635 58.3318 4.06364L53.9047 16.3119C53.3067 17.9091 52.8337 18.1944 51.4829 18.4812C51.4428 18.4888 51.4353 18.8687 51.4829 18.8687H55.7761C55.8237 18.8687 55.8192 18.4827 55.7761 18.4812C54.5206 18.3851 53.9836 17.8969 54.5771 16.3119L55.4816 13.7658H60.1422L61.1121 16.3851C61.6194 17.7383 61.1493 18.3759 59.8 18.4812C59.7584 18.4827 59.7539 18.8687 59.8 18.8687H65.5436C65.5912 18.8687 65.5853 18.4858 65.5436 18.4812Z" fill="#393B40"/>
<path d="M80.7869 4.41903H75.8392C75.7916 4.41903 75.7976 4.82176 75.8392 4.82633C76.9043 4.92244 77.4235 5.02161 77.7002 5.50825C78.017 6.06658 78.1613 7.01392 78.1613 8.26788V15.122L70.1923 4.41903H66.1297C66.0806 4.41903 66.0866 4.82633 66.1297 4.82633C67.6099 4.82633 68.3343 5.67452 68.3343 6.91476V15.0945C68.3343 16.3485 68.257 17.2211 67.9401 17.7779C67.6664 18.2599 67.3718 18.3728 66.3781 18.4628C66.3365 18.4644 66.3305 18.8686 66.3781 18.8686H71.2768C71.3244 18.8686 71.3184 18.4644 71.2768 18.4628C70.2117 18.3637 69.694 18.2676 69.4158 17.7779C69.1004 17.2211 68.9532 16.3485 68.9532 15.0945V6.75609L78.2625 19.0059C78.3443 19.1142 78.7817 19.1051 78.7817 19.0059V8.26788C78.7817 7.01392 78.859 6.06658 79.1759 5.50825C79.4526 5.02161 79.7233 4.92244 80.7869 4.82633C80.8301 4.82176 80.836 4.41903 80.7869 4.41903Z" fill="#393B40"/>
<path d="M95.1361 4.41907H90.84C90.7954 4.41907 90.7968 4.82333 90.8385 4.82638C92.1535 4.87215 92.6013 5.36184 92.1312 6.31833L89.3152 11.7034L86.2136 6.22985C85.751 5.31454 86.2701 4.82638 87.5569 4.82638C87.5985 4.82638 87.6015 4.41907 87.5539 4.41907H81.669C81.6214 4.41907 81.6289 4.8218 81.6705 4.82638C82.7788 4.90571 83.1105 5.19098 83.5657 6.09408L87.246 12.701V16.5819C87.246 17.2882 87.1612 17.8496 86.8458 18.1471C86.581 18.3958 85.9622 18.4629 85.1768 18.4629C85.1351 18.4629 85.1306 18.8687 85.1768 18.8687H91.6894C91.7355 18.8687 91.7311 18.4629 91.6894 18.4629C90.9025 18.4629 90.2836 18.3958 90.0189 18.1471C89.705 17.8496 89.6187 17.2882 89.6187 16.5819V12.2739L92.8676 6.27714C93.4091 5.2398 93.9937 4.92707 95.1346 4.82638C95.1763 4.8218 95.1867 4.41907 95.1361 4.41907Z" fill="#393B40"/>
<path d="M101.031 13.8284C101.031 11.9841 101.882 10.6401 103.462 9.8957L108.06 16.1015C106.977 17.1525 105.702 17.778 104.557 17.778C102.559 17.778 101.031 16.2677 101.031 13.8284ZM105.714 2.28039C107.019 2.28039 107.793 3.27654 107.793 4.87985C107.793 6.35349 106.686 7.95983 105.096 8.60207C103.889 6.93469 103.575 5.85616 103.575 4.85086C103.575 3.09042 104.469 2.28039 105.714 2.28039ZM115.024 9.91858H109.393C109.343 10.0742 109.346 10.2954 109.389 10.2969C110.829 10.3411 111.455 10.9086 110.93 12.0451C110.53 12.907 110.106 13.679 109.57 14.4371L105.473 9.06887C107.919 7.85304 109.18 6.61281 109.18 4.65407C109.18 3.21856 107.764 1.67323 105.603 1.67323C103.432 1.67323 101.53 3.46875 101.53 5.48394C101.53 6.77604 101.908 7.731 103.138 9.45787C100.671 10.3045 98.5799 12.3335 98.5799 14.6568C98.5799 17.27 100.607 19.1311 103.309 19.1311C105.299 19.1311 107.055 18.0556 108.42 16.5164L110.103 18.8687H114.466C114.516 18.8687 114.502 18.469 114.461 18.469C113.729 18.4416 113.423 18.3638 112.938 18.1273C112.343 17.8375 111.882 17.3569 111.236 16.5759L109.911 14.8353C110.687 13.804 111.331 12.6782 112.051 11.6577C112.615 10.8644 113.215 10.4906 115.019 10.335C115.062 10.332 115.073 10.0742 115.024 9.91858Z" fill="#393B40"/>
<path d="M134.74 13.3173C134.74 13.267 134.398 13.2243 134.373 13.3402C133.718 16.5438 131.396 18.5346 129.275 18.5346C125.236 18.5346 122.662 14.9146 122.662 9.72784C122.662 4.54265 124.912 0.823458 128.854 0.823458C131.246 0.823458 133.595 2.8112 134.248 5.78288C134.257 5.82559 134.626 5.78898 134.615 5.74016L134.469 0.170536C134.459 0.126299 134.086 0.121721 134.08 0.170536C133.987 0.97448 133.492 1.40926 132.707 1.095C131.573 0.644978 130.288 0.230045 128.952 0.230045C123.866 0.230045 119.522 4.49536 119.522 9.72784C119.522 14.9618 123.768 19.1265 128.952 19.1265C131.231 19.1265 132.994 18.6475 134.477 17.6116L134.74 13.3173Z" fill="#393B40"/>
<path d="M148.425 11.644C148.425 15.7217 146.949 18.5743 144.136 18.5743C141.32 18.5743 139.844 15.7217 139.844 11.644C139.844 7.56936 141.32 4.71665 144.136 4.71665C146.949 4.71665 148.425 7.56936 148.425 11.644ZM137.064 11.644C137.064 15.7079 140.18 19.0717 144.136 19.0717C148.091 19.0717 151.206 15.7079 151.206 11.644C151.206 7.57851 148.091 4.21477 144.136 4.21477C140.18 4.21477 137.064 7.57851 137.064 11.644Z" fill="#393B40"/>
<path d="M153.878 15.9581C154.707 15.9581 155.364 16.6431 155.364 17.5141C155.364 18.3852 154.707 19.0717 153.878 19.0717C153.048 19.0717 152.39 18.3852 152.39 17.5141C152.39 16.6431 153.048 15.9581 153.878 15.9581Z" fill="#393B40"/>
</g>
<defs>
<clipPath id="clip0_440_3323">
<rect width="154.951" height="19.2667" fill="white" transform="translate(0.852478)"/>
</clipPath>
</defs>
</svg>
