<svg width="146" height="39" viewBox="0 0 146 39" fill="none" xmlns="http://www.w3.org/2000/svg">
<path fill-rule="evenodd" clip-rule="evenodd" d="M49.3693 0.0316326C48.9323 0.139428 48.5002 0.559533 48.143 1.22386C47.9787 1.52962 47.976 1.55268 48.0476 2.06144C48.2256 3.32625 48.2202 3.24583 48.1961 4.26009C48.1545 6.01162 48.0941 6.9671 47.9438 8.25252C47.898 8.64461 47.514 12.5031 47.3891 13.8275C47.3685 14.0451 47.3363 14.3716 47.3174 14.553C47.2984 14.7363 47.2835 16.1748 47.2839 17.7901C47.2848 21.2106 47.3271 22.1472 47.5345 23.341C47.6849 24.206 47.8885 24.7793 48.1578 25.0954C48.3496 25.3206 48.4387 25.3552 48.8269 25.3552C49.1293 25.3552 49.183 25.3445 49.3807 25.2449C49.5212 25.1741 49.6649 25.0612 49.7814 24.9301C49.9718 24.7161 50.2786 24.1367 50.2786 23.9913C50.2786 23.8423 50.0051 23.2016 49.6039 22.411C49.289 21.7904 49.1641 20.0166 49.2383 17.2219C49.3148 14.3416 49.4886 12.0025 49.7804 9.92503C49.8598 9.36026 49.9524 8.18836 50.1002 5.87864C50.2847 2.99528 50.3099 2.09644 50.2246 1.43661C50.1185 0.615463 50.0192 0.197984 49.8977 0.0626369C49.836 -0.00613365 49.5827 -0.0209884 49.3693 0.0316326ZM74.0433 0.424762C73.4495 0.709987 72.9563 1.12401 72.7848 1.48153C72.705 1.64763 72.6378 1.94807 72.6378 2.13813C72.6378 2.23341 72.6819 2.29966 72.8831 2.50626C73.1607 2.7913 73.2757 3.03412 73.3047 3.39686C73.3208 3.59828 73.1804 4.56815 72.726 7.39347C72.678 7.6925 72.5497 8.30755 72.441 8.76025C72.0385 10.4366 71.9127 10.9593 71.8217 11.3349L71.7284 11.7196L70.6051 12.4996C68.5979 13.8933 66.5236 15.4168 64.9221 16.6735C64.6981 16.8492 64.5776 16.9247 64.5903 16.8812C64.6946 16.5244 65.4772 12.2131 65.647 11.0598C66.22 7.16834 66.396 4.95362 66.263 3.30694C66.1774 2.24607 66.0559 1.86315 65.7552 1.70633C65.5734 1.61149 65.4371 1.639 65.0872 1.84125C64.1523 2.38167 63.5821 2.98974 63.5214 3.51109C63.5103 3.60652 63.5369 4.09733 63.5804 4.60178C63.6451 5.35074 63.6556 5.65751 63.638 6.27429C63.5749 8.48214 63.2179 11.2153 62.5786 14.385C62.441 15.0675 62.2419 16.1439 62.1363 16.7769C61.8373 18.5691 61.6683 19.3128 61.5207 19.4855C61.4863 19.5257 61.2496 19.7315 60.9946 19.9428C59.3933 21.2701 58.6281 22.1743 58.5624 22.817C58.542 23.0166 58.542 23.0167 58.6985 23.1594C58.8812 23.326 58.9783 23.3389 59.2756 23.2357C59.7147 23.0833 60.3612 22.6215 60.9857 22.0141C61.1533 21.8511 61.1907 21.8283 61.1907 21.8892C61.1907 21.9302 61.1358 22.4153 61.0685 22.9671C60.8997 24.3533 60.8611 24.7904 60.8562 25.3732C60.8523 25.8423 60.8575 25.8846 60.9327 25.9909C61.0496 26.1562 61.2741 26.2328 61.574 26.2095C62.0211 26.1747 62.4509 25.913 63.0935 25.284C63.6356 24.7535 63.768 24.4991 63.9364 23.6648C64.025 23.2256 64.122 22.4305 64.0955 22.3608C64.0843 22.3313 64.0198 22.277 63.9523 22.2404L63.8296 22.1737L63.83 21.8492C63.8305 21.4024 63.9164 20.6264 64.0239 20.0967C64.1726 19.3638 64.1134 19.4564 64.7746 18.9224C66.5314 17.5033 68.225 16.2508 70.0297 15.0357C70.5068 14.7145 70.9059 14.4607 70.9167 14.4715C70.9275 14.4824 70.8694 14.7547 70.7877 15.0766C69.5024 20.1387 68.8268 23.1392 68.6582 24.5346C68.5811 25.1724 68.6044 26.8171 68.6964 27.2256C68.8211 27.7794 69.1073 28.2443 69.5057 28.5401C69.8587 28.8022 70.0478 28.767 70.794 28.3002C71.5949 27.7991 72.0434 27.2421 72.0934 26.6863C72.1098 26.503 72.1 26.4535 72.0189 26.3141C71.549 25.5053 71.354 24.8509 71.354 24.0834C71.3541 23.3863 71.6389 21.6422 72.0714 19.6903C72.3808 18.2936 72.9423 15.9808 73.4814 13.8815C73.5906 13.4562 73.7069 13.0033 73.7398 12.8751L73.7996 12.6421L74.4065 12.2275C76.7906 10.5992 79.7203 9.11536 83.4429 7.6506C86.1359 6.59102 90.2335 5.51684 92.3224 5.3229C92.7692 5.28143 92.9666 5.23198 93.2367 5.09393C93.4378 4.99114 93.6945 4.72742 93.7694 4.54682C93.8341 4.39072 93.8351 3.9521 93.7711 3.79772C93.595 3.37254 93.0794 3.14012 92.131 3.05837C91.2289 2.9806 90.9633 3.00909 89.8083 3.30741C85.9526 4.30329 82.2944 5.7033 78.6822 7.56532C77.4153 8.21846 75.5155 9.30386 74.8666 9.74541C74.7881 9.79878 74.6857 9.86277 74.6389 9.88762C74.5567 9.93125 74.5547 9.92931 74.5809 9.83C74.6088 9.72365 74.6216 9.66908 74.8987 8.46833C74.99 8.07268 75.0878 7.65186 75.1159 7.53317C75.3016 6.74957 75.6393 5.07059 75.783 4.2161C75.8872 3.59716 75.8968 3.47311 75.8977 2.73145C75.8987 1.94545 75.8959 1.91383 75.802 1.63163C75.6218 1.09006 75.2717 0.674055 74.7944 0.434473C74.4535 0.263374 74.3812 0.262438 74.0433 0.424762ZM10.7667 0.432603C9.23237 0.564749 7.23883 1.16962 5.55359 2.01443C4.11978 2.73318 3.12603 3.44991 1.69291 4.79892C0.776394 5.66161 0.377674 6.10046 0.123592 6.52599C-0.0339916 6.78996 -0.0399112 6.92628 0.10027 7.06177L0.203294 7.16129L0.39258 7.09547C0.544066 7.04278 0.660569 6.95351 0.976022 6.64854C3.34859 4.35479 5.75343 3.02125 8.29146 2.59204C9.2344 2.4326 10.4108 2.40943 11.2303 2.53417C11.4166 2.56255 11.89 2.63441 12.2823 2.69387C14.5767 3.04175 16.1341 3.36542 16.3238 3.53379C16.3565 3.56281 16.5036 3.61317 16.6507 3.64572C18.1686 3.98148 19.8863 4.6957 21.7002 5.74524C22.3366 6.11348 22.6401 6.36874 23.1323 6.94987C23.5013 7.38534 23.7082 7.6852 23.8825 8.03672C24.0883 8.452 24.2379 8.93271 24.1737 8.97271C24.1575 8.98285 24.1262 9.07889 24.1041 9.18614C24.082 9.2934 24.0328 9.42108 23.9947 9.46993C23.9566 9.51877 23.9255 9.59661 23.9254 9.64297C23.9254 9.74871 23.7559 10.1131 23.594 10.3556C23.1455 11.0274 21.925 12.1632 20.5151 13.2209C18.8123 14.4984 16.6963 15.8358 14.3506 17.1172C13.978 17.3207 13.6028 17.5257 13.517 17.5727C13.4312 17.6197 13.3493 17.6581 13.3351 17.6581C13.3209 17.6581 13.298 17.2818 13.2842 16.8219C13.2115 14.4024 12.8933 12.3502 12.2288 10.0149C12.1331 9.67865 11.9724 9.11215 11.8716 8.75607C11.4986 7.43792 11.1195 6.35957 10.9393 6.10427C10.8678 6.00306 10.8513 5.99719 10.6923 6.01618C10.4588 6.0441 10.2555 6.15653 10.0065 6.39568C9.78796 6.60559 9.37597 7.19582 9.37597 7.29909C9.37597 7.33153 9.44882 7.60787 9.53783 7.9132C10.1904 10.1508 10.6055 12.3961 10.801 14.7447C10.8537 15.3774 10.9094 17.0533 10.9094 18.0047V18.8082L10.7578 18.9049C10.4597 19.0952 9.60816 19.5437 9.02464 19.8177C7.50782 20.5301 5.70957 21.1536 3.84859 21.6125C2.77898 21.8762 2.12376 22.3019 1.79682 22.9454C1.71569 23.1051 1.69326 23.2038 1.68046 23.4576C1.66145 23.8343 1.70268 23.9219 1.95087 24.0327C2.53817 24.2947 4.61133 23.6801 7.64643 22.3442C7.94063 22.2147 8.29884 22.0542 8.44248 21.9875C8.58613 21.9209 8.70891 21.8664 8.71536 21.8664C8.73126 21.8664 10.3966 21.0816 10.728 20.9179C10.8735 20.8461 10.9978 20.7873 11.0044 20.7873C11.011 20.7873 11.0166 20.9371 11.0169 21.12C11.0173 21.4213 11.0933 22.6235 11.1401 23.0713C11.2844 24.4497 11.3256 24.7696 11.4479 25.4632C11.7 26.8922 12.0374 27.7518 12.46 28.0414C12.5602 28.1101 12.6282 28.1248 12.8466 28.1248C13.1516 28.1248 13.3027 28.0716 13.4703 27.9053C13.7801 27.5979 13.9419 27.0826 13.9662 26.3264C13.9831 25.7984 13.9659 25.5734 13.6371 22.0282C13.4945 20.4904 13.4768 20.2866 13.4543 19.9241L13.4331 19.5824L15.3688 18.4134C16.4334 17.7705 17.5224 17.1304 17.7888 16.991C19.2031 16.251 20.8714 14.9851 23.1978 12.8867C24.5965 11.6251 25.0463 11.126 25.549 10.2778C26.1114 9.32872 26.6 8.01121 26.6 7.44396C26.6 6.76637 26.2809 5.90684 25.7768 5.22669C25.1358 4.3617 23.9333 3.39733 22.8022 2.84094C20.1424 1.53268 17.5147 0.777067 14.6716 0.502956C13.6312 0.402641 11.5501 0.365163 10.7667 0.432603ZM135.097 12.6593C134.498 12.8514 133.956 13.4254 133.527 14.3198L133.36 14.6683L133.471 15.2401C133.563 15.7139 133.582 15.8988 133.582 16.3177C133.582 17.6172 133.298 20.068 132.813 22.9717C132.647 23.965 132.619 24.1981 132.619 24.6004C132.619 25.112 132.65 25.2393 132.812 25.3901C132.889 25.4621 132.953 25.4816 133.148 25.4927C133.636 25.5205 134.084 25.2819 134.689 24.673C135.301 24.0577 135.516 23.7523 136.023 22.7835C136.623 21.6369 137.078 20.8588 137.462 20.3197C138.884 18.3259 139.937 17.1772 140.713 16.7725C140.854 16.6991 140.975 16.6667 141.141 16.6572C141.412 16.642 141.511 16.6985 141.656 16.9504C142.05 17.6319 142.388 19.8726 142.39 21.8124C142.391 23.2817 142.495 24.0364 142.781 24.6573C142.944 25.0109 143.12 25.2151 143.367 25.3371C143.955 25.6275 144.729 25.3769 145.28 24.7176C145.478 24.4797 145.765 23.9849 145.914 23.6222C146.047 23.2971 146.044 23.278 145.774 22.8842C145.677 22.7418 145.539 22.5011 145.467 22.3493C145.347 22.0929 145.334 22.0338 145.29 21.5113C144.953 17.534 144.812 16.3303 144.585 15.4954C144.377 14.7306 144.19 14.3968 143.824 14.1322C143.307 13.759 142.534 13.747 141.656 14.0984C140.176 14.6902 138.282 16.44 136.187 19.1508C136.004 19.3882 135.835 19.6034 135.811 19.6292C135.779 19.6641 135.781 19.6002 135.817 19.3774C136.072 17.811 136.224 16.2749 136.275 14.7267C136.296 14.0839 136.292 14.0163 136.206 13.5864C136.104 13.0814 136.004 12.7904 135.891 12.6676C135.826 12.5979 135.781 12.5869 135.564 12.5887C135.419 12.5898 135.22 12.6201 135.097 12.6593ZM100.817 12.8951C100.275 13.1064 99.5479 13.7444 99.3403 14.1911C99.1848 14.5252 99.1885 14.7701 99.3588 15.4461C99.5597 16.2437 99.7104 17.0138 99.8443 17.9279C100.018 19.1153 100.06 19.9071 100.06 22.0129C100.061 23.422 100.074 24.0055 100.116 24.4407C100.215 25.4555 100.357 25.977 100.548 26.0255C100.597 26.0378 100.738 26.0399 100.86 26.0299C101.222 26.0007 101.485 25.8491 101.975 25.3899C102.332 25.0541 102.418 24.9515 102.539 24.7156C102.813 24.1815 103.14 23.0357 103.588 21.0391C103.706 20.5149 103.828 19.9969 103.859 19.8881C104.266 18.475 104.805 17.3676 105.512 16.4955C105.842 16.0872 105.8 16.0938 106.108 16.402C106.352 16.6469 106.385 16.6981 106.511 17.0285C107.017 18.3531 107.307 20.563 107.157 21.9502C107.017 23.2507 106.943 24.1453 106.943 24.5378C106.943 24.9506 106.95 25.0028 107.016 25.0689C107.116 25.1698 107.239 25.2114 107.437 25.2114C107.57 25.2114 107.662 25.1784 107.88 25.0533C108.726 24.5671 109.228 23.7906 109.422 22.6692C109.451 22.5007 109.491 22.0447 109.511 21.656C109.56 20.6777 109.683 20.1958 110.098 19.3486C110.33 18.8753 110.557 18.5055 111.036 17.82C111.934 16.5354 112.773 15.608 113.038 15.608C113.084 15.608 113.204 15.6985 113.34 15.8364C113.888 16.3886 114.196 17.4148 114.325 19.1109C114.36 19.5714 114.328 20.1923 114.161 22.3519C114.129 22.7674 114.095 23.6576 114.086 24.3302C114.069 25.5463 114.069 25.5536 114.147 25.653C114.222 25.7493 114.459 25.8948 114.54 25.8948C114.562 25.8948 114.702 25.8434 114.851 25.7806C115.217 25.6271 115.707 25.2906 115.926 25.0433C116.112 24.8323 116.32 24.4685 116.394 24.2223C116.422 24.1299 116.447 23.6212 116.465 22.8015C116.482 22.0012 116.535 20.934 116.606 19.9421C116.726 18.2754 116.726 18.192 116.625 16.9208C116.513 15.5202 116.109 14.2821 115.569 13.6878C115.286 13.376 115.035 13.2493 114.638 13.2161C113.669 13.1352 112.898 13.5494 111.631 14.8316C111.014 15.4562 110.555 15.9882 109.897 16.8399C109.642 17.1712 109.42 17.4423 109.405 17.4423C109.391 17.4423 109.369 17.333 109.358 17.1995C109.299 16.4968 108.913 15.2055 108.609 14.6904C108.257 14.0952 107.885 13.7195 107.554 13.6261C107.2 13.526 106.586 13.7196 105.996 14.1177C105.508 14.4469 105.117 14.7936 104.429 15.5081L103.823 16.1378L103.306 16.9877C103.021 17.4551 102.709 17.9631 102.612 18.1165L102.436 18.3955L102.355 17.6581C102.08 15.1418 101.824 13.7191 101.542 13.1415C101.364 12.7765 101.234 12.7323 100.817 12.8951ZM26.7427 13.4344C26.6936 13.443 26.5331 13.468 26.3861 13.49C25.3611 13.6428 24.2353 14.3393 23.1192 15.5108C22.3736 16.2935 21.4379 17.5513 21.1606 18.1437C20.8933 18.7149 20.618 19.692 20.3731 20.9394L20.2408 21.613L20.3939 22.54C20.5147 23.2715 20.5701 23.52 20.6567 23.7187C20.8463 24.1544 21.0459 24.4624 21.3223 24.746C21.8109 25.2474 22.2732 25.4272 23.0737 25.4272C23.5137 25.4272 23.5437 25.4222 23.915 25.2877C25.5591 24.6917 26.8103 23.7933 27.6081 22.6359C27.7089 22.4896 27.8042 22.3699 27.8198 22.3699C27.8354 22.3699 27.8481 22.556 27.8481 22.7834C27.8481 23.3578 27.9449 24.2029 28.0448 24.5006C28.2081 24.9874 28.5576 25.381 29.0333 25.6139C29.5831 25.8829 29.6945 25.8826 30.2341 25.6104C30.9345 25.2573 31.4184 24.8778 31.6673 24.4865C31.9886 23.9816 31.9967 23.224 31.6816 23.159C31.3597 23.0925 30.9253 22.7267 30.776 22.3961C30.5792 21.9603 30.5286 21.4424 30.6048 20.6435C30.6519 20.15 30.6758 20.0512 31.0492 18.807C31.8681 16.0778 32.3046 14.2942 32.2005 14.1018C32.1831 14.0697 32.1122 13.9884 32.043 13.9212L31.9171 13.799L31.6357 13.8185C31.4352 13.8323 31.2967 13.8655 31.1536 13.9337C30.7521 14.1253 30.2532 14.556 29.8295 15.0768L29.5822 15.3809L29.3941 14.9999C28.9804 14.1616 28.4708 13.6917 27.7685 13.5005C27.5786 13.4488 26.9068 13.4055 26.7427 13.4344ZM124.987 13.4541C123.817 13.5892 122.528 14.3805 121.347 15.6899C120.678 16.4312 119.857 17.546 119.596 18.0677C119.326 18.6076 119.029 19.6511 118.766 20.9778L118.64 21.618L118.801 22.5758C118.958 23.5141 118.965 23.541 119.139 23.8959C119.545 24.726 120.082 25.2046 120.792 25.3707C120.944 25.4064 121.201 25.4271 121.486 25.427C121.979 25.4268 122.072 25.4032 122.824 25.0892C124.153 24.534 125.302 23.6558 125.968 22.6852C126.086 22.5138 126.194 22.3728 126.209 22.3718C126.224 22.3707 126.236 22.5358 126.236 22.7386C126.236 23.2389 126.355 24.2478 126.445 24.5049C126.625 25.0236 126.943 25.3711 127.475 25.6325C127.965 25.8735 128.115 25.8719 128.625 25.62C129.498 25.1891 130.045 24.6883 130.233 24.1483C130.331 23.8668 130.328 23.3855 130.227 23.256C130.186 23.2039 130.126 23.1611 130.093 23.1608C129.979 23.1602 129.662 22.9857 129.498 22.8331C129.31 22.6588 129.196 22.4764 129.08 22.1692C129.005 21.9696 129 21.9047 129.003 21.129L129.007 20.3018L129.318 19.2623C130.113 16.6017 130.546 14.9449 130.608 14.3198L130.628 14.1153L130.467 13.9575L130.306 13.7998L130.043 13.8168C129.738 13.8365 129.482 13.9411 129.146 14.1829C128.913 14.3506 128.406 14.8559 128.157 15.1673C128.074 15.2712 127.996 15.3562 127.983 15.3562C127.971 15.3562 127.925 15.2698 127.881 15.1642C127.76 14.8683 127.466 14.4088 127.243 14.1659C126.683 13.5554 125.994 13.338 124.987 13.4541ZM93.7845 13.5897C93.2925 13.7503 92.8971 14.0171 92.219 14.6461C91.3491 15.4529 90.7002 16.2269 90.5382 16.651C90.5117 16.7203 90.3996 16.8983 90.289 17.0467C89.0337 18.7309 88.3246 20.4307 88.1886 22.0822C88.155 22.4893 88.1567 22.5062 88.294 23.1518C88.3708 23.5126 88.4683 23.8768 88.5108 23.9611C88.7 24.3364 89.0547 24.7702 89.3626 25.0029C89.572 25.1612 89.9705 25.3431 90.2897 25.4259C90.5209 25.486 90.7415 25.5094 91.2191 25.5248C92.0571 25.5519 92.6547 25.4938 93.3387 25.3189C94.1153 25.1203 94.9669 24.9793 96.2676 24.8338C96.735 24.7816 96.7687 24.7722 97.0557 24.6144C97.8358 24.1855 98.4442 23.6675 98.6474 23.259C98.7078 23.1376 98.7657 22.942 98.7886 22.7814L98.8275 22.5094L98.6863 22.3695C98.5757 22.2599 98.517 22.2292 98.415 22.2278C98.2329 22.2253 96.4765 22.5217 93.8201 23.003C93.0853 23.1362 92.606 23.1171 92.0609 22.933C91.5522 22.7612 91.2828 22.6122 91.0899 22.3958C90.9496 22.2384 90.9316 22.1989 90.9316 22.0474V21.8766L91.1545 21.7393C91.8942 21.2839 92.7032 20.6207 93.4998 19.817C94.3862 18.9227 95.3926 17.7014 95.5901 17.2805C95.8655 16.6936 96.0302 15.742 96.0307 14.7343C96.0312 13.9623 96.0103 13.8844 95.7406 13.6516L95.5903 13.5218L94.7855 13.5238C94.1146 13.5254 93.948 13.5363 93.7845 13.5897ZM43.9467 13.5897C43.7243 13.6471 43.4438 13.8354 43.1637 14.1153C42.8649 14.4139 42.5122 14.8603 42.3538 15.1404C42.1533 15.4949 41.9457 16.2803 41.7758 17.3264C41.6493 18.1056 41.5594 18.87 41.4182 20.3655C41.3612 20.9694 41.3131 21.1076 40.9911 21.594C40.6266 22.1445 39.946 22.9199 39.6239 23.1518C39.0591 23.5583 38.2976 23.7213 37.7059 23.5624C37.3353 23.4628 37.1236 23.3478 36.9035 23.1268C36.5645 22.7864 36.3941 22.3267 36.3311 21.5826C36.248 20.6021 36.4119 19.689 36.9743 17.9998C37.3639 16.8299 37.3442 16.8685 37.6786 16.6175C38.2437 16.1932 38.6176 15.6736 38.6176 15.3128C38.6176 15.1856 38.5976 15.1345 38.5176 15.0572C38.4318 14.9743 38.3874 14.9606 38.2056 14.961C37.6601 14.962 37.0303 15.2865 36.5427 15.8177C36.3204 16.0599 35.9292 16.6331 35.6626 17.1072C34.9959 18.2928 34.5189 19.7565 34.2288 21.5067C34.1777 21.8149 34.1604 22.0945 34.1609 22.6037C34.1617 23.5052 34.2343 23.9976 34.434 24.4554C34.5563 24.7357 35.2218 25.3935 35.5702 25.5786C36.103 25.8616 36.3482 25.8772 37.6191 25.7095C38.6427 25.5743 39.7747 24.8852 41.0814 23.6018C41.3684 23.3199 41.6135 23.0893 41.626 23.0893C41.6385 23.0893 41.6488 23.1111 41.6488 23.1379C41.6488 23.2881 42.1002 23.9477 42.3849 24.2134C42.8847 24.68 43.6285 25.1135 44.1596 25.2479C44.5571 25.3485 44.912 25.3429 45.1513 25.2323C45.6569 24.9988 46.2145 24.5173 46.3579 24.1903C46.3964 24.1023 46.4435 23.9482 46.4623 23.8477C46.4928 23.6859 46.4862 23.6406 46.4045 23.4507L46.3124 23.2364L46.0221 23.1398C45.2402 22.8795 44.6982 22.5718 44.2876 22.1552C43.8415 21.7025 43.6409 21.2719 43.565 20.6044L43.5258 20.2595L43.7686 19.7231C44.2598 18.6381 44.5935 17.7089 44.7581 16.9676C44.8354 16.6197 44.8404 16.5211 44.8404 15.3562C44.8404 14.2584 44.833 14.0941 44.7768 13.9316C44.6802 13.6526 44.5831 13.5796 44.2948 13.5697C44.1634 13.5652 44.0067 13.5742 43.9467 13.5897ZM84.778 13.5897C84.4263 13.6804 83.8864 14.1486 83.4459 14.7447C83.1418 15.1562 83.0121 15.4549 82.8368 16.1475C82.6604 16.8447 82.4367 18.3865 82.3203 19.7083C82.2199 20.849 82.2146 20.8789 82.057 21.1974C81.7884 21.7401 80.8891 22.8395 80.4628 23.1463C79.8926 23.5568 79.1374 23.7198 78.5396 23.5615C78.1693 23.4633 77.9591 23.3491 77.7387 23.126C77.3877 22.7707 77.2243 22.3124 77.1637 21.513C77.0904 20.5444 77.2653 19.6036 77.8272 17.9459C78.2411 16.7249 78.1789 16.8568 78.4212 16.6853C78.9109 16.3389 79.3332 15.8493 79.4099 15.5391C79.49 15.215 79.4906 15.2217 79.3706 15.0839L79.2561 14.9523L78.9692 14.9691C78.257 15.0108 77.5665 15.4807 76.989 16.3166C76.0398 17.6905 75.3992 19.4198 75.0597 21.5247C74.9936 21.9342 74.9865 22.0904 75.0029 22.7835C75.0228 23.6281 75.0643 23.917 75.2294 24.3603C75.3985 24.8145 76.1512 25.5103 76.6956 25.7158C77.0514 25.85 77.4617 25.8483 78.4683 25.7083C79.4874 25.5666 80.6133 24.8781 81.9127 23.6018C82.1997 23.3199 82.443 23.0893 82.4535 23.0893C82.4639 23.0893 82.4833 23.1338 82.4966 23.1882C82.5456 23.3883 82.9531 23.9682 83.2174 24.214C83.9534 24.8982 84.8358 25.3193 85.5337 25.3193C85.8353 25.3193 86.0095 25.2518 86.4404 24.9679C86.8059 24.7271 87.0545 24.4678 87.181 24.1955C87.3335 23.8676 87.346 23.6926 87.2352 23.4431L87.1447 23.2395L86.7648 23.1072C85.7903 22.768 85.19 22.3607 84.8018 21.7752C84.5956 21.4643 84.488 21.1953 84.4211 20.8233C84.3446 20.3977 84.3552 20.2395 84.477 19.9963C84.6738 19.603 85.1184 18.524 85.2816 18.0437C85.6551 16.9441 85.6993 16.6284 85.6805 15.1943C85.6648 13.9949 85.6502 13.887 85.4775 13.6922C85.3852 13.5879 85.3569 13.5779 85.1321 13.5701C84.9974 13.5654 84.838 13.5742 84.778 13.5897ZM93.5877 16.0389C93.6443 16.1019 93.6488 16.1527 93.6263 16.4795C93.5847 17.0862 93.5154 17.5769 93.4615 17.6466C92.9922 18.2539 92.2761 19.005 91.8053 19.3835C91.5165 19.6158 90.7989 20.1039 90.7463 20.1039C90.6898 20.1039 90.7199 19.9267 90.854 19.4689C90.9638 19.0945 91.0484 18.8984 91.2872 18.4657C91.8529 17.4405 92.3628 16.6621 92.7881 16.1744L92.9685 15.9676H93.2462C93.4776 15.9676 93.5344 15.9795 93.5877 16.0389ZM25.8043 16.2173C26.004 16.2556 26.2206 16.3144 26.2856 16.3478C26.5301 16.4734 27.0031 17.0109 27.392 17.6052C27.8213 18.2611 28.0621 18.6796 28.0621 18.7698C28.0621 18.9299 27.9407 19.2265 27.8333 19.3291C27.7702 19.3893 27.6167 19.6085 27.4922 19.8162C26.3695 21.6893 25.4337 22.6922 24.8074 22.6934C24.6617 22.6937 24.2257 22.5309 24.0261 22.4017C23.6441 22.1545 23.3354 21.6843 23.1786 21.111C23.0627 20.6872 23.0138 20.0835 23.0669 19.7315C23.4222 17.3736 24.1217 16.3027 25.4055 16.1517C25.4251 16.1494 25.6046 16.1789 25.8043 16.2173ZM124.185 16.2142C124.381 16.2503 124.608 16.3141 124.689 16.356C124.858 16.4433 125.202 16.7794 125.428 17.077C125.894 17.6907 126.488 18.693 126.46 18.819C126.405 19.0714 126.326 19.2486 126.238 19.3212C126.183 19.3659 126.022 19.5968 125.879 19.8342C125.01 21.2798 124.217 22.2515 123.667 22.5476C123.364 22.7101 123.2 22.7219 122.855 22.6062C121.998 22.3183 121.521 21.5135 121.468 20.2658C121.451 19.8579 121.461 19.7317 121.544 19.2767C121.743 18.1888 122.005 17.4793 122.404 16.9439C122.757 16.4706 123.129 16.2607 123.811 16.1515C123.82 16.15 123.989 16.1782 124.185 16.2142ZM100.15 32.276C99.3067 32.4723 98.7463 32.9616 98.5988 33.6301C98.5726 33.7487 98.5601 33.9907 98.5681 34.225C98.5802 34.584 98.592 34.6415 98.6983 34.8591C98.9183 35.3098 99.3521 35.5398 100.655 35.8964C101.606 36.1565 101.898 36.2702 102.074 36.4482C102.248 36.6241 102.307 36.8011 102.307 37.1466C102.307 37.6157 102.125 37.9262 101.753 38.0925C100.985 38.4348 100.016 38.2947 99.4871 37.7653C99.2662 37.5442 99.16 37.3136 99.1177 36.9639L99.0928 36.7571H98.7387H98.3847V36.9671C98.3847 37.2329 98.4966 37.6782 98.624 37.9197C98.7862 38.2271 99.1177 38.5286 99.4981 38.7148C99.9694 38.9455 100.229 39.0019 100.81 39C101.228 38.9986 101.333 38.9856 101.611 38.9007C102.371 38.6686 102.858 38.2612 103.026 37.7182C103.151 37.3146 103.121 36.6425 102.963 36.2867C102.724 35.749 102.208 35.4821 100.498 35.0117C99.7741 34.8125 99.556 34.6991 99.4271 34.4551C99.3516 34.3122 99.3433 34.2576 99.356 33.9875C99.378 33.5202 99.5251 33.2911 99.9199 33.109C100.636 32.7789 101.564 32.9965 101.899 33.5729C102 33.748 102.092 34.034 102.093 34.1764L102.093 34.2753H102.468H102.842L102.842 34.1044C102.841 33.8837 102.761 33.5451 102.65 33.2914C102.472 32.885 102.024 32.5142 101.508 32.3465C101.151 32.2305 100.492 32.1963 100.15 32.276ZM42.8969 35.6061V38.8432H43.2892H43.6814V37.5124V36.1816H44.7788C45.7327 36.1816 45.9069 36.173 46.1115 36.1158C46.6999 35.9512 47.0778 35.5289 47.2333 34.862C47.3101 34.5325 47.2848 33.8055 47.1865 33.5165C46.9834 32.9195 46.573 32.55 45.9699 32.4211C45.7879 32.3822 45.3984 32.3701 44.3144 32.3696L42.8969 32.369V35.6061ZM58.6865 33.7451C58.4174 34.5016 57.8998 35.953 57.5365 36.9706C57.1731 37.9881 56.8758 38.8257 56.8758 38.8319C56.8758 38.8381 57.0564 38.8432 57.2771 38.8432H57.6784L57.7556 38.6184C57.798 38.4948 57.9486 38.0576 58.0903 37.6468L58.3479 36.9L59.5969 36.9095L60.8461 36.9189L61.164 37.8811L61.482 38.8432H61.9239H62.3658L62.257 38.5465C62.1972 38.3833 61.907 37.578 61.6121 36.7571C61.3172 35.9361 60.8836 34.7303 60.6486 34.0775C60.4136 33.4246 60.1812 32.7732 60.1322 32.6298L60.0432 32.369L59.6096 32.3693L59.1759 32.3696L58.6865 33.7451ZM72.2812 35.6061V38.8432H72.6556H73.03V37.4764V36.1096L74.1623 36.1107C75.2707 36.1117 75.2978 36.1134 75.455 36.194C75.7853 36.3635 75.971 36.9847 76.0212 38.0879C76.04 38.4983 76.0639 38.7063 76.099 38.7623C76.1471 38.839 76.1723 38.8432 76.5869 38.8432C76.8273 38.8432 77.024 38.8372 77.024 38.8298C77.024 38.8223 76.9845 38.7449 76.9362 38.6578C76.8202 38.4485 76.7851 38.2552 76.7388 37.571C76.681 36.7156 76.5896 36.3153 76.3898 36.0428C76.3007 35.9212 75.9974 35.7517 75.8651 35.7495C75.8228 35.7488 75.8875 35.6974 76.0238 35.6233C76.3132 35.466 76.4555 35.3274 76.5905 35.071C76.7461 34.7758 76.8101 34.4816 76.8101 34.0621C76.8101 33.3386 76.532 32.8604 75.9346 32.5563C75.6119 32.392 75.3446 32.369 73.7626 32.369H72.2812V35.6061ZM87.3181 32.393C87.305 32.4061 87.2943 33.8628 87.2943 35.6301V38.8432H87.7044H88.1145V35.6061V32.369H87.7281C87.5156 32.369 87.3311 32.3798 87.3181 32.393ZM45.9144 33.2256C46.1397 33.3285 46.2916 33.4829 46.3985 33.7178C46.4664 33.867 46.4803 33.9588 46.4805 34.2573C46.4807 34.4551 46.4603 34.6851 46.4352 34.7683C46.3335 35.1063 46.041 35.3501 45.6465 35.4255C45.541 35.4457 45.0557 35.4622 44.5681 35.4622H43.6814V34.2913V33.1202L44.7067 33.1313C45.6901 33.1419 45.7394 33.1457 45.9144 33.2256ZM75.511 33.2099C75.9376 33.4103 76.1443 33.9636 76.0096 34.545C75.9371 34.858 75.8218 35.0301 75.605 35.1486C75.2737 35.3298 75.0837 35.3543 74.0145 35.3543H73.03V34.2393V33.1243L74.1801 33.1247C75.3136 33.125 75.3328 33.1262 75.511 33.2099ZM60.0671 34.572C60.3147 35.3287 60.5315 35.9923 60.549 36.0467L60.5808 36.1456H59.5866H58.5925L58.7365 35.723C59.1702 34.4508 59.586 33.2202 59.586 33.209C59.586 33.1236 59.6849 33.4037 60.0671 34.572Z" fill="#393B40"/>
</svg>
