<svg width="96" height="102" viewBox="0 0 96 102" fill="none" xmlns="http://www.w3.org/2000/svg">
<path fill-rule="evenodd" clip-rule="evenodd" d="M43.0463 0.0247026C39.7024 0.175035 35.4795 0.528244 32.8874 0.874246C21.9495 2.33451 13.0018 5.38421 7.08085 9.67025C3.03336 12.6002 0.948228 15.5273 0.177113 19.3619C-0.228474 21.3785 0.0742716 26.4437 0.964887 32.5456C3.70789 51.3378 10.9002 67.8424 22.4783 81.9134C26.7443 87.0979 32.118 92.4299 37.6058 96.9235C40.3281 99.1525 42.0829 100.447 43.0733 100.957C46.0786 102.505 48.8111 102.345 52.9476 100.378C63.7787 95.23 75.7189 81.5846 84.459 64.3667C91.8301 49.8458 95.9633 34.6444 95.9995 21.9228C96.0084 18.758 95.9124 17.927 95.3583 16.3742C94.1106 12.8776 91.6741 10.7096 85.656 7.74106C77.2947 3.61665 66.3573 1.02439 53.8312 0.198272C51.751 0.0610291 44.7452 -0.0516491 43.0463 0.0247026ZM54.0237 2.84962C58.5532 3.13615 62.7129 3.64852 66.8789 4.43318C68.8362 4.80185 69.961 5.06154 73.2342 5.90094C74.1809 6.14365 77.7816 7.27992 78.4604 7.55004C78.5783 7.59699 79.3031 7.87992 80.071 8.17878C84.1026 9.74793 87.8647 11.8171 89.9589 13.617C91.9366 15.3169 92.9788 17.0931 93.4692 19.599C94.0085 22.3552 93.3875 29.9033 92.1027 36.2076C91.6545 38.4067 90.8656 41.663 90.4163 43.1684C90.1743 43.9795 89.778 45.3302 89.6509 45.7767C89.3681 46.7714 87.6936 51.5888 87.3101 52.5109C87.2558 52.6413 87.0527 53.1534 86.8586 53.649C86.6646 54.1446 86.4013 54.7901 86.2736 55.0836C86.1458 55.377 86.0412 55.6388 86.0412 55.6653C86.0412 55.7344 84.3128 59.6065 83.8294 60.6203C82.2138 64.0087 80.0901 67.9362 78.2478 70.9426C75.3088 75.739 72.5134 79.6387 69.1939 83.5732C65.8063 87.5885 61.7764 91.4495 58.2606 94.0479C54.1949 97.0529 50.7058 98.8085 48.2462 99.0869C45.8318 99.3602 44.0373 98.7272 41.2649 96.6245C31.9881 89.5885 23.9917 80.8758 18.0136 71.2905C17.7046 70.795 17.3715 70.2739 17.2735 70.1325C17.1755 69.9911 17.0953 69.8484 17.0953 69.8152C17.0953 69.782 17.0105 69.6375 16.9068 69.494C16.4581 68.8733 14.4756 65.2545 13.2926 62.8966C11.5443 59.4121 10.2158 56.3803 8.99082 53.0799C8.88432 52.793 8.75664 52.4579 8.70705 52.3354C8.5393 51.9206 7.48104 48.7713 7.14055 47.6737C5.05869 40.9619 3.47958 33.0697 2.93697 26.6651C2.88391 26.0391 2.79282 25.0361 2.73447 24.4362C2.67611 23.8363 2.62267 22.129 2.61583 20.6423C2.60399 18.1043 2.61593 17.9015 2.81188 17.3227C3.44973 15.438 3.99639 14.7988 6.45494 13.0632C7.24936 12.5024 8.246 11.797 8.66968 11.4955C10.863 9.93506 14.0067 8.39456 17.6853 7.07761C19.9068 6.28222 24.9211 4.90239 26.6278 4.61671C26.8664 4.57669 27.43 4.47283 27.8802 4.38576C31.8557 3.61703 36.0227 3.11111 40.4562 2.85882C41.8278 2.78076 43.21 2.70062 43.5278 2.68089C44.8251 2.60008 51.8684 2.71333 54.0237 2.84962ZM45.3574 5.28017C37.9945 5.51956 30.1067 6.8312 22.1989 9.13095C21.9076 9.21565 21.4959 9.34246 21.2841 9.41264C21.0722 9.48283 20.4873 9.66636 19.9841 9.82039C17.0767 10.7108 12.2826 12.4851 11.0289 13.1348C8.32467 14.5361 6.33275 16.6644 5.51166 19.0299C5.01026 20.4744 4.92889 21.1578 4.99235 23.3929C5.04646 25.2961 5.2092 27.5273 5.44916 29.6528C5.50511 30.1483 5.59187 30.9166 5.64204 31.36C6.07892 35.225 7.12697 40.2178 8.29992 44.0221C8.94759 46.1228 9.02626 46.3458 9.11947 46.3458C9.1602 46.3458 9.44398 46.2223 9.75009 46.0713C14.2253 43.8641 20.3612 42.1202 28.6024 40.7134C29.8683 40.4973 33.6096 39.9453 34.4281 39.8538C34.6664 39.8272 35.3814 39.7419 36.0169 39.6644C37.5616 39.4759 39.6382 39.2473 40.3501 39.1873C40.6679 39.1606 41.5995 39.0746 42.4204 38.9963C44.4936 38.7986 48.5271 38.5079 51.6164 38.3335C54.0999 38.1933 55.9951 38.1106 61.679 37.8944C63.0825 37.841 69.0623 37.7818 74.9675 37.7628C85.1897 37.73 85.7503 37.7194 86.6671 37.5411C88.8052 37.1253 89.8512 36.4233 90.3938 35.0404C90.5963 34.5243 90.6917 33.479 90.9508 28.9414C91.0074 27.9503 91.1216 26.1194 91.2045 24.8728C91.2875 23.6262 91.3622 21.9403 91.3704 21.1263C91.3842 19.7656 91.3664 19.5968 91.1491 19.0299C90.7523 17.9946 90.2825 17.3192 89.2696 16.3268C87.5967 14.6878 86.4365 13.98 83.0836 12.5527C78.5678 10.6306 74.3736 9.17135 70.3454 8.12111C69.8953 8.00379 69.3319 7.85327 69.0936 7.78659C68.8553 7.71991 68.2486 7.57375 67.7455 7.46174C67.2424 7.34963 66.5707 7.19901 66.253 7.12693C64.0141 6.61912 60.565 6.05601 57.8755 5.75914C55.249 5.4692 53.7792 5.36401 51.0868 5.27353C48.4135 5.18361 48.324 5.18371 45.3574 5.28017ZM50.172 18.3725C51.48 18.8543 52.1328 19.5294 52.6027 20.886C52.7099 21.1954 52.8264 21.7259 52.8618 22.065L52.9261 22.6815L51.7416 22.9563C51.0902 23.1074 50.2588 23.309 49.894 23.4044C49.5293 23.4997 49.1991 23.5584 49.1602 23.5347C49.1214 23.5111 49.0688 23.2792 49.0435 23.0195C48.9529 22.0916 48.0827 21.4156 47.123 21.5275C45.4121 21.7271 44.3583 23.0944 43.7484 25.9063C43.3353 27.8112 43.5039 29.0367 44.2413 29.4884C44.7233 29.7837 45.9468 29.7844 46.5129 29.4899C47.1499 29.1584 48.0235 28.1022 48.3131 27.3137C48.4431 26.9596 48.5995 26.9233 49.0854 27.1346C49.2593 27.2102 49.9 27.4524 50.509 27.6729C51.1181 27.8934 51.6523 28.1037 51.6961 28.1404C51.8737 28.2886 50.7033 30.2081 49.953 30.9993C48.5085 32.5227 46.917 33.19 44.7315 33.1886C41.7496 33.1868 40.2259 32.1553 39.5835 29.704C39.3721 28.8974 39.394 27.408 39.6354 26.172C40.378 22.37 42.2892 19.6912 45.0203 18.6244C46.2011 18.1631 46.7103 18.087 48.3424 18.1282C49.3489 18.1535 49.7075 18.2014 50.172 18.3725ZM20.5099 18.4578C21.2736 18.6106 21.873 18.9253 22.3526 19.4251C23.23 20.3395 23.4575 20.9683 23.5202 22.6516C23.5606 23.7394 23.5345 24.1157 23.3587 24.9754C22.7452 27.976 22.0019 29.55 20.4991 31.03C19.4838 32.0302 18.5628 32.5 17.0482 32.7908C16.1898 32.9556 15.7312 32.9731 12.8584 32.9504C10.7757 32.934 9.6383 32.8914 9.6486 32.8301C9.68028 32.6418 10.1774 30.4416 10.356 29.7002C10.5285 28.983 10.654 28.4396 11.6042 24.2939C11.8195 23.3549 12.0377 22.416 12.0892 22.2073C12.1408 21.9986 12.2918 21.3371 12.425 20.7372C12.6528 19.7111 12.9108 18.6707 13.0097 18.3785C13.0462 18.2708 13.638 18.2568 16.4948 18.2959C18.6121 18.3249 20.1568 18.3872 20.5099 18.4578ZM30.9065 18.3549C30.9535 18.4299 30.8427 18.9953 30.4302 20.7846C30.3581 21.0976 30.2108 21.7378 30.1031 22.2073C29.9953 22.6768 29.7543 23.7225 29.5675 24.531C28.9054 27.3965 28.8431 27.7039 28.8431 28.1052C28.8431 28.6892 29.0792 29.1887 29.4839 29.4608C29.7787 29.6589 29.9413 29.6947 30.5241 29.6897C31.0978 29.6846 31.3023 29.6368 31.7307 29.4074C32.6397 28.9206 33.0005 28.2593 33.4639 26.2298C33.6356 25.4781 33.9239 24.2228 34.1045 23.4403C34.6562 21.0507 34.8192 20.3364 34.9627 19.6801C35.0385 19.3334 35.1552 18.8853 35.222 18.6842L35.3436 18.3186L37.2622 18.2928C38.3174 18.2786 39.2184 18.3041 39.2644 18.3494C39.3117 18.396 39.2843 18.6749 39.2014 18.9917C39.1207 19.2997 38.904 20.2131 38.7197 21.0217C37.0389 28.396 36.9872 28.577 36.1852 29.8855C35.7008 30.6757 34.327 32.0026 33.6096 32.3733C32.1585 33.1227 30.6619 33.3517 28.6969 33.1245C27.1855 32.9498 26.6489 32.7696 26.0398 32.2321C25.0721 31.378 24.6453 30.2137 24.7294 28.6569C24.773 27.8506 25.197 25.633 25.5727 24.2465C25.6221 24.0639 25.797 23.317 25.9614 22.5867C26.1258 21.8564 26.3237 20.9814 26.4013 20.6423C26.4788 20.3032 26.6055 19.727 26.6829 19.3619C26.9364 18.1652 26.718 18.2711 28.9317 18.2711C29.9889 18.2711 30.8776 18.3088 30.9065 18.3549ZM64.0023 19.8361C64.0885 20.6708 64.2315 22.1006 64.3201 23.0135C64.585 25.7419 64.849 28.3843 64.9977 29.795C65.0747 30.5254 65.1663 31.539 65.2013 32.0477L65.2648 32.9724H63.1967H61.1287L61.0668 32.3894C61.0328 32.0688 61.005 31.5353 61.005 31.2038V30.6012H58.7585H56.5119L55.9203 31.7868L55.3288 32.9724H53.3041C52.1363 32.9724 51.2794 32.9355 51.2794 32.8852C51.2794 32.8059 51.6871 32.0629 53.1571 29.4631C53.4374 28.9675 53.7623 28.3913 53.8793 28.1826C53.9963 27.974 54.3215 27.3978 54.602 26.9022C55.3957 25.5 56.9892 22.6576 57.3936 21.9228C57.5946 21.5576 57.79 21.2161 57.8278 21.164C57.8656 21.1118 58.0822 20.7277 58.3091 20.3104C58.5358 19.893 58.891 19.2627 59.0982 18.9096L59.4749 18.2676L61.6603 18.2931L63.8456 18.3186L64.0023 19.8361ZM79.827 18.3608C79.8579 18.4101 79.8149 18.7408 79.7314 19.0958C79.6478 19.4509 79.5186 19.9974 79.4443 20.3104C79.3698 20.6234 79.2569 21.1248 79.1932 21.4248L79.0775 21.9702H77.0225C75.8922 21.9702 74.9675 22.0054 74.9675 22.0484C74.9675 22.0915 74.8155 22.7851 74.6299 23.5897C74.4442 24.3944 74.1817 25.5435 74.0466 26.1434C73.9114 26.7433 73.7188 27.5756 73.6183 27.993C73.2188 29.654 72.8308 31.3366 72.7455 31.7782C72.6961 32.0343 72.6108 32.4077 72.556 32.6081L72.4565 32.9724H70.438C69.3279 32.9724 68.4196 32.9596 68.4196 32.9439C68.4196 32.9282 68.5073 32.5334 68.6145 32.0665C68.7216 31.5997 68.8925 30.855 68.9944 30.4115C69.167 29.6598 69.9291 26.3672 70.3553 24.531C70.6062 23.451 70.9232 22.0383 70.9232 22.0006C70.9232 21.9838 70.0123 21.9702 68.8992 21.9702H66.8752L66.9248 21.7568C66.9521 21.6393 67.1262 20.9096 67.3118 20.1349C67.4974 19.3603 67.6492 18.6489 67.6492 18.5542C67.6492 18.4593 67.7034 18.3603 67.7696 18.3339C67.9996 18.2425 79.7692 18.2687 79.827 18.3608ZM85.715 18.6742C85.68 18.8959 85.5718 19.4188 85.4744 19.8361C85.3771 20.2534 85.1404 21.2778 84.9485 22.1124C84.7566 22.9471 84.4449 24.2916 84.2558 25.1001C84.0669 25.9087 83.8246 26.9544 83.7175 27.4239C83.6103 27.8934 83.4635 28.5336 83.3912 28.8466C83.319 29.1596 83.1761 29.7784 83.0737 30.2219C82.9714 30.6653 82.7896 31.4656 82.6698 32.0002L82.4519 32.9724H80.443C78.7025 32.9724 78.434 32.953 78.434 32.827C78.434 32.7005 78.6807 31.5949 79.153 29.6053C79.2272 29.2924 79.3795 28.6308 79.4914 28.1352C79.6034 27.6396 79.7557 26.9781 79.8298 26.6651C79.904 26.3521 80.0762 25.6052 80.2126 25.0053C80.3489 24.4054 80.502 23.7438 80.5528 23.5351C80.6034 23.3265 80.8202 22.3875 81.0343 21.4485C81.4207 19.7541 81.691 18.6173 81.7616 18.3897C81.7894 18.2999 82.2801 18.2711 83.7884 18.2711H85.7785L85.715 18.6742ZM16.0906 22.4681C15.9993 22.8985 15.8648 23.4854 15.7917 23.7723C15.7186 24.0592 15.5695 24.6994 15.4601 25.195C15.3508 25.6905 15.1994 26.3521 15.1236 26.6651C14.9413 27.4187 14.615 28.8636 14.54 29.2497L14.4801 29.5579L15.3304 29.5568C16.7982 29.5549 17.5884 29.2249 18.1283 28.3885C19.0275 26.9952 19.6943 23.6861 19.275 22.6977C18.9828 22.0089 18.2281 21.6856 16.9119 21.6856H16.2565L16.0906 22.4681ZM59.4643 24.6887C58.8023 26.0167 58.2462 27.1434 58.2286 27.1924C58.2095 27.2453 58.7324 27.2816 59.5125 27.2816H60.8287L60.7602 24.7919C60.7225 23.4226 60.6864 22.2958 60.6798 22.2881C60.6733 22.2803 60.1263 23.3606 59.4643 24.6887ZM84.9338 43.4139C72.7264 43.8823 64.9557 44.6382 55.757 46.2524C54.9966 46.3858 53.4287 46.6975 52.4831 46.9032C52.0064 47.007 51.3781 47.1425 51.0868 47.2045C50.5003 47.3293 47.557 48.0625 46.8018 48.2721C46.5369 48.3455 45.988 48.4963 45.5818 48.6071C41.8704 49.62 37.1848 51.3957 33.7261 53.1C27.6952 56.0718 22.2274 60.3956 20.2758 63.7361C19.5174 65.0344 19.3705 65.5499 19.3671 66.9276C19.3645 67.9426 19.3967 68.2009 19.5913 68.7231C19.8859 69.5138 19.9312 69.5877 21.8276 72.3813C26.2509 78.8969 29.2807 82.6347 33.5572 86.852C36.3516 89.6076 38.116 91.1168 41.2168 93.4035C43.8654 95.3568 45.0957 96.0838 46.5264 96.5409C47.057 96.7104 47.4142 96.7524 48.3424 96.7542C50.0986 96.7574 50.837 96.4527 52.9686 94.8454C64.2769 86.3182 73.2159 76.1444 79.5396 64.6038C80.43 62.9788 81.706 60.4475 82.2657 59.1957C82.4753 58.7272 82.7357 58.1519 82.8447 57.9171C83.2306 57.0853 83.8295 55.6323 84.8242 53.1143C85.1821 52.2082 86.3581 48.79 86.5655 48.0531C86.6316 47.8183 86.8911 46.9434 87.1423 46.1087C87.6565 44.4005 87.7729 43.6959 87.5686 43.5289C87.3464 43.3472 87.031 43.3335 84.9338 43.4139Z" fill="#393B40"/>
</svg>
