<svg width="125" height="45" viewBox="0 0 125 45" fill="none" xmlns="http://www.w3.org/2000/svg">
<g clip-path="url(#clip0_440_3269)">
<path d="M10.0796 9.60899L11.7314 7.78192C11.7314 7.78192 10.956 7.00372 9.94471 6.49621C9.23679 6.15786 8.32659 5.75184 7.24784 5.68418C5.22519 5.515 4.21386 5.78568 3.06769 6.25936C2.29234 6.59771 1.5507 7.1729 1.01133 8.01876C0.235976 9.23681 0.168554 10.9624 1.11246 12.2142C2.05636 13.4323 3.37109 13.9398 5.32632 14.2105C7.4164 14.4812 9.2705 14.7518 9.37163 16.0714C9.47276 17.3909 8.39401 18.0338 6.74218 18.1353C5.39374 18.2368 4.21386 17.8985 3.4048 17.4924C2.05636 16.7819 1.75297 16.2406 1.75297 16.2406L0 17.9323C0 17.9323 1.11246 19.3533 3.13511 20.03C5.15777 20.7067 7.4164 20.7067 9.10194 20.1992C9.84358 19.9624 12.2708 18.9135 12.2708 16.0714C12.2708 13.4323 9.97843 12.4849 7.98948 12.1127C5.96683 11.7406 5.19148 11.7744 4.24757 11.3346C3.57336 11.03 3.23625 10.4887 3.33738 9.74433C3.43851 8.99996 4.07902 8.28944 5.32632 8.01876C6.74218 7.74809 8.6637 8.2556 10.0796 9.60899Z" fill="black"/>
<path d="M73.4223 20.1992H76.8946L70.658 11.6729L76.4563 6.02256H72.9504L66.4779 12.282V0H63.545V20.1654H66.4779V15.7331L68.6017 13.6692L73.4223 20.1992Z" fill="black"/>
<path d="M107.369 39.3157H110.875L104.605 30.7894L110.403 25.139H106.897L100.425 31.3984V19.1165H97.4919V39.2819H100.425V34.8495L102.549 32.7856L107.369 39.3157Z" fill="black"/>
<path d="M25.8563 8.52633V6.02257H20.1254V1.15039H17.1926V6.02257H13.7878V8.52633H17.1926V17.7293C17.1926 18.3384 17.496 18.9812 17.9005 19.3872C18.4399 19.9624 19.2152 20.1993 20.058 20.1993C20.1928 20.1993 20.3277 20.1993 20.4625 20.1993H23.4291V17.6955H20.1254V8.52633H25.8563Z" fill="black"/>
<path d="M114.01 25.2068V27.7105H122.505V30.7557H113.033V39.3835H125V25.2068H114.01ZM115.527 36.8459V33.2256H122.505V36.8459H115.527Z" fill="black"/>
<path d="M66.4779 24.97C62.3989 24.97 59.0952 28.2858 59.0952 32.3797V45H61.6909V38.0301C62.972 39.1467 64.6575 39.8234 66.4779 39.8234C70.5569 39.8234 73.8606 36.5076 73.8606 32.4136C73.8606 28.3196 70.5569 24.97 66.4779 24.97ZM66.4779 37.2519C63.8147 37.2519 61.6235 35.0865 61.6235 32.3797C61.6235 29.7068 63.781 27.5076 66.4779 27.5076C69.141 27.5076 71.3323 29.673 71.3323 32.3797C71.2985 35.0865 69.141 37.2519 66.4779 37.2519Z" fill="black"/>
<path d="M81.1421 25.2067V20.3345H78.2093V25.2067H74.8045V27.7104H78.2093V36.8796C78.2093 37.4886 78.5127 38.1315 78.9172 38.5375C79.4566 39.1127 80.2319 39.3495 81.0747 39.3495C81.2095 39.3495 81.3444 39.3495 81.4792 39.3495H84.4458V36.8458H81.1421V27.7104H90.8509V39.3157H93.7837V25.2067H81.1421Z" fill="black"/>
<path d="M34.048 5.75195C29.969 5.75195 26.6653 9.06774 26.6653 13.1617C26.6653 17.2557 29.969 20.5715 34.048 20.5715C38.127 20.5715 41.4307 17.2557 41.4307 13.1617C41.4307 9.06774 38.127 5.75195 34.048 5.75195ZM34.048 19.6918C30.4747 19.6918 27.5755 16.782 27.5755 13.1956C27.5755 9.6091 30.4747 6.69932 34.048 6.69932C37.6214 6.69932 40.5205 9.6091 40.5205 13.1956C40.5205 16.782 37.6214 19.6918 34.048 19.6918Z" fill="black"/>
<path d="M49.319 24.97C45.24 24.97 41.9364 28.2858 41.9364 32.3797C41.9364 36.4737 45.24 39.7895 49.319 39.7895C53.3981 39.7895 56.7017 36.4737 56.7017 32.3797C56.7017 28.2858 53.3981 24.97 49.319 24.97ZM49.319 38.876C45.7457 38.876 42.8465 35.9662 42.8465 32.3797C42.8465 28.7933 45.7457 25.8835 49.319 25.8835C52.8924 25.8835 55.7915 28.7933 55.7915 32.3797C55.7915 35.9662 52.8924 38.876 49.319 38.876Z" fill="black"/>
<path d="M34.1491 45.0001L50.1618 0.0339355H49.1842L33.2052 45.0001H34.1491Z" fill="black"/>
<path d="M58.7918 15.8684C58.3198 17.2556 56.9377 18.2706 55.3196 18.2706C55.3196 18.2706 55.0162 18.2706 54.7465 18.2368C54.7128 18.2368 54.6791 18.2368 54.6454 18.2368C53.4655 18.0676 52.4879 17.3571 51.9485 16.3759C51.4428 15.4962 51.1394 14.4135 51.1394 13.2293C51.1394 12.0112 51.4428 10.9623 51.9822 10.0826C52.4204 9.37211 53.1958 8.72925 53.9037 8.49241C53.9374 8.49241 54.106 8.42474 54.1397 8.42474C54.4768 8.32324 54.9488 8.25557 55.4207 8.2894C56.8366 8.35707 58.0839 9.13527 58.6232 10.3195L61.0167 9.13527C60.5448 8.25557 59.9043 7.47737 59.0952 6.90219C57.949 6.09016 56.7017 5.78564 55.2522 5.78564C53.4318 5.78564 51.8136 6.29316 50.5326 7.44354C48.9145 8.89843 48.1729 10.9962 48.1729 13.1616C48.1729 15.2255 48.7797 17.1541 50.1618 18.609C51.4428 19.9285 53.2969 20.5375 55.2522 20.5375C56.7354 20.5375 58.2861 20.1653 59.4323 19.3533C60.2414 18.7781 60.8145 17.9999 61.219 17.1202L58.7918 15.8684Z" fill="black"/>
</g>
<defs>
<clipPath id="clip0_440_3269">
<rect width="125" height="45" fill="white"/>
</clipPath>
</defs>
</svg>
